<svg width="13" height="16" viewBox="0 0 13 16" fill="none" xmlns="http://www.w3.org/2000/svg">
<path d="M12.0931 14.0044C12.0623 12.0292 11.4469 10.2331 10.3528 8.93277C9.26507 7.64032 7.79092 6.92856 6.20145 6.92856C4.61199 6.92856 3.13784 7.64032 2.0501 8.93277C0.957046 10.2318 0.342079 12.0253 0.309937 13.9981C0.928017 14.3077 3.48572 15.5 6.20145 15.5C9.1381 15.5 11.5199 14.3147 12.0931 14.0044V14.0044Z" fill="#444444"/>
<path opacity="0.5" d="M6.20143 6.39286C7.8287 6.39286 9.14786 5.0737 9.14786 3.44643C9.14786 1.81916 7.8287 0.5 6.20143 0.5C4.57417 0.5 3.255 1.81916 3.255 3.44643C3.255 5.0737 4.57417 6.39286 6.20143 6.39286Z" fill="#444444"/>
</svg>
