<svg width="21" height="21" viewBox="0 0 21 21" fill="none" xmlns="http://www.w3.org/2000/svg">
<path d="M10.5667 9.92857C11.6515 9.92857 12.5309 9.04913 12.5309 7.96429C12.5309 6.87944 11.6515 6 10.5667 6C9.48181 6 8.60237 6.87944 8.60237 7.96429C8.60237 9.04913 9.48181 9.92857 10.5667 9.92857Z" fill="#222222"/>
<path d="M13.3342 11.6218C14.0636 12.4888 14.4739 13.6861 14.4944 15.003C14.1123 15.2098 12.5244 16 10.5667 16C8.75618 16 7.05104 15.2051 6.63899 14.9987C6.66042 13.6835 7.0704 12.4878 7.7991 11.6218C8.52426 10.7602 9.50702 10.2857 10.5667 10.2857C11.6263 10.2857 12.6091 10.7602 13.3342 11.6218Z" fill="#222222"/>
<path fill-rule="evenodd" clip-rule="evenodd" d="M20.589 10.5C20.589 16.0228 16.1118 20.5 10.589 20.5C5.06614 20.5 0.588989 16.0228 0.588989 10.5C0.588989 4.97715 5.06614 0.5 10.589 0.5C16.1118 0.5 20.589 4.97715 20.589 10.5ZM19.589 10.5C19.589 15.4706 15.5596 19.5 10.589 19.5C5.61843 19.5 1.58899 15.4706 1.58899 10.5C1.58899 5.52944 5.61843 1.5 10.589 1.5C15.5596 1.5 19.589 5.52944 19.589 10.5Z" fill="#222222"/>
</svg>
