<svg width="11" height="16" viewBox="0 0 11 16" fill="none" xmlns="http://www.w3.org/2000/svg">
<path fill-rule="evenodd" clip-rule="evenodd" d="M2.58065 5.50909V5.51249H0.433894C0.249887 5.50909 0.0965472 5.65561 0.0931396 5.83962V13.7996C0.0931396 14.7401 0.856429 15.5 1.79691 15.5H8.8846C9.82508 15.5 10.5884 14.7401 10.5884 13.7996V5.84643C10.5884 5.66243 10.4384 5.51249 10.2544 5.51249H8.27124V5.50909H7.58973V5.51249H3.26215V5.50909H2.58065ZM5.06815 10.0104H2.54657C2.35916 10.0104 2.20582 10.1638 2.20582 10.3512C2.20582 10.5386 2.35916 10.692 2.54657 10.692H5.06815C5.25557 10.692 5.40891 10.5386 5.40891 10.3512C5.40891 10.1638 5.25557 10.0104 5.06815 10.0104ZM2.54657 12.3957H8.13494C8.32236 12.3957 8.47569 12.2424 8.47569 12.055C8.47569 11.8676 8.32236 11.7142 8.13494 11.7142H2.54657C2.35916 11.7142 2.20582 11.8676 2.20582 12.055C2.20582 12.2424 2.35916 12.3957 2.54657 12.3957Z" fill="#444444"/>
<path opacity="0.5" d="M7.93041 4.7935C8.1186 4.7935 8.27116 4.64094 8.27116 4.45275V3.33508C8.27116 1.77101 6.98993 0.5 5.42586 0.5C3.8618 0.5 2.58057 1.77101 2.58057 3.33508V4.45275C2.58057 4.64094 2.73313 4.7935 2.92132 4.7935V4.7935C3.10951 4.7935 3.26207 4.64094 3.26207 4.45275V3.33508C3.26207 2.14584 4.23663 1.18151 5.42586 1.18151C6.6151 1.18151 7.58965 2.14584 7.58965 3.33508V4.45275C7.58965 4.64094 7.74221 4.7935 7.93041 4.7935V4.7935Z" fill="#444444"/>
</svg>
