<svg width="21" height="21" viewBox="0 0 21 21" fill="none" xmlns="http://www.w3.org/2000/svg">
<path d="M12.2249 7.86234C12.3504 7.86234 12.4521 7.76063 12.4521 7.63517V6.89005C12.4521 5.84734 11.5979 5 10.5552 5C9.51252 5 8.65837 5.84734 8.65837 6.89005V7.63517C8.65837 7.76063 8.76007 7.86234 8.88554 7.86234C9.011 7.86234 9.11271 7.76063 9.11271 7.63517V6.89005C9.11271 6.09723 9.76241 5.45434 10.5552 5.45434C11.3481 5.45434 11.9978 6.09723 11.9978 6.89005V7.63517C11.9978 7.76063 12.0995 7.86234 12.2249 7.86234Z" fill="#222222"/>
<path d="M8.65834 8.33939V8.34166H7.22717C7.1045 8.33939 7.00227 8.43707 7 8.55974V13.8664C7 14.4934 7.50886 15 8.13585 15H12.861C13.488 15 13.9968 14.4934 13.9968 13.8664V8.56429C13.9968 8.44162 13.8969 8.34166 13.7742 8.34166H12.4521V8.33939H11.9977V8.34166H9.11268V8.33939H8.65834Z" fill="#222222"/>
<path fill-rule="evenodd" clip-rule="evenodd" d="M20.589 10.5C20.589 16.0228 16.1118 20.5 10.589 20.5C5.06614 20.5 0.588989 16.0228 0.588989 10.5C0.588989 4.97715 5.06614 0.5 10.589 0.5C16.1118 0.5 20.589 4.97715 20.589 10.5ZM19.589 10.5C19.589 15.4706 15.5596 19.5 10.589 19.5C5.61843 19.5 1.58899 15.4706 1.58899 10.5C1.58899 5.52944 5.61843 1.5 10.589 1.5C15.5596 1.5 19.589 5.52944 19.589 10.5Z" fill="#222222"/>
</svg>
