<svg width="21" height="21" viewBox="0 0 21 21" fill="none" xmlns="http://www.w3.org/2000/svg">
<path d="M15.0262 14.8189C15.0262 15.4702 14.4964 16 13.8451 16C9.30913 16 5 11.7116 5 7.17556C5 6.52428 5.52982 6 6.1811 6H7.78215C7.95171 6 8.10205 6.10843 8.15546 6.26911L8.94286 8.62577C8.98131 8.7411 8.96438 8.86759 8.89711 8.96871L8.22929 9.97066C8.73528 11.0318 9.99441 12.291 11.0556 12.7969L12.0575 12.1291C12.159 12.0622 12.2851 12.0445 12.4004 12.0834L14.7571 12.8708C14.9178 12.9242 15.0262 13.0745 15.0262 13.2441V14.8189Z" fill="#222222"/>
<path fill-rule="evenodd" clip-rule="evenodd" d="M20.5889 10.5C20.5889 16.0228 16.1117 20.5 10.5889 20.5C5.06602 20.5 0.588867 16.0228 0.588867 10.5C0.588867 4.97715 5.06602 0.5 10.5889 0.5C16.1117 0.5 20.5889 4.97715 20.5889 10.5ZM19.5889 10.5C19.5889 15.4706 15.5594 19.5 10.5889 19.5C5.6183 19.5 1.58887 15.4706 1.58887 10.5C1.58887 5.52944 5.6183 1.5 10.5889 1.5C15.5594 1.5 19.5889 5.52944 19.5889 10.5Z" fill="#222222"/>
</svg>
