<svg width="21" height="21" viewBox="0 0 21 21" fill="none" xmlns="http://www.w3.org/2000/svg">
<path d="M11.0359 5.14161L15.7563 9.44281C15.9223 9.59407 15.9771 9.82707 15.8961 10.0365C15.815 10.2458 15.6175 10.3811 15.393 10.3811C14.9766 10.3811 14.639 10.7187 14.639 11.1352V14.6906C14.639 14.8615 14.5004 15 14.3296 15H11.7423C11.5715 15 11.4329 14.8615 11.4329 14.6906V12.8343C11.4329 12.4144 11.0925 12.074 10.6726 12.074C10.2527 12.074 9.91228 12.4144 9.91228 12.8343V14.6906C9.91228 14.8615 9.77374 15 9.60288 15H7.01552C6.84466 15 6.70612 14.8614 6.70612 14.6906V11.135C6.70612 10.7186 6.36857 10.3811 5.95219 10.3811C5.72765 10.3811 5.53018 10.2458 5.44908 10.0365C5.36799 9.82709 5.42282 9.59407 5.58879 9.44283L10.3092 5.14159C10.5163 4.95281 10.8287 4.95279 11.0359 5.14161Z" fill="#222222"/>
<path fill-rule="evenodd" clip-rule="evenodd" d="M20.5889 10.5C20.5889 16.0228 16.1117 20.5 10.5889 20.5C5.06602 20.5 0.588867 16.0228 0.588867 10.5C0.588867 4.97715 5.06602 0.5 10.5889 0.5C16.1117 0.5 20.5889 4.97715 20.5889 10.5ZM19.5889 10.5C19.5889 15.4706 15.5594 19.5 10.5889 19.5C5.6183 19.5 1.58887 15.4706 1.58887 10.5C1.58887 5.52944 5.6183 1.5 10.5889 1.5C15.5594 1.5 19.5889 5.52944 19.5889 10.5Z" fill="#222222"/>
</svg>
