<svg viewBox="0 0 173 41" fill="none" xmlns="http://www.w3.org/2000/svg">
<path fill-rule="evenodd" clip-rule="evenodd" d="M8.39748 0.00219727C3.75968 0.00219727 0 3.76188 0 8.39968V31.6047C0 36.2425 3.75968 40.0022 8.39748 40.0022H31.6025C36.2403 40.0022 40 36.2425 40 31.6047V8.39968C40 3.76188 36.2403 0.00219727 31.6025 0.00219727H8.39748ZM27.8316 21.065C27.6929 20.7193 27.6236 20.384 27.6236 20.0593V10.8039C27.6236 10.4477 27.5594 10.0627 27.431 9.6489C27.3026 9.23511 27.0714 8.78465 26.7375 8.29752C26.4037 7.81039 25.9876 7.37564 25.4894 6.99328C24.9911 6.61091 24.3259 6.28877 23.4938 6.02688C22.6617 5.76498 21.732 5.63403 20.7047 5.63403C19.6568 5.63403 18.6783 5.76236 17.7692 6.01902C16.86 6.27568 16.0818 6.61876 15.4346 7.04827C14.7874 7.47778 14.2327 7.97539 13.7704 8.54108C13.3081 9.10678 12.9639 9.69867 12.7379 10.3167C12.5119 10.9348 12.3989 11.5581 12.3989 12.1867L16.9293 12.611C17.1143 12.0348 17.3608 11.5319 17.669 11.1024C17.9772 10.6729 18.2648 10.3613 18.5319 10.1675C18.799 9.97366 19.0867 9.81914 19.3949 9.7039C19.7031 9.58867 19.9111 9.52581 20.019 9.51534C20.1268 9.50486 20.2116 9.49962 20.2732 9.49962C21.167 9.49962 21.7885 9.77724 22.1378 10.3325C22.3535 10.6677 22.4614 11.1758 22.4614 11.8567V13.8523C21.9477 13.8733 21.4366 13.9073 20.9281 13.9545C20.4196 14.0016 19.8058 14.0985 19.0867 14.2452C18.3676 14.3918 17.6998 14.5726 17.0834 14.7873C16.467 15.0021 15.8378 15.3006 15.1958 15.683C14.5537 16.0654 14.0066 16.5001 13.5546 16.9872C13.1026 17.4744 12.7328 18.0846 12.4451 18.8179C12.1575 19.5512 12.0137 20.3578 12.0137 21.2378C12.0137 22.1911 12.1729 23.0423 12.4914 23.7913C12.8098 24.5403 13.2362 25.1322 13.7704 25.567C14.3046 26.0017 14.9081 26.3448 15.581 26.5962C16.2539 26.8476 16.9602 26.9576 17.6998 26.9262C18.4395 26.8948 19.1586 26.7743 19.8572 26.5648C20.5557 26.3553 21.2106 26.0227 21.8219 25.567C22.4331 25.1113 22.9339 24.5744 23.3243 23.9563C23.4681 24.1868 23.5966 24.3596 23.7096 24.4749L24.0023 24.7891C24.1975 24.9987 24.4954 25.3051 24.8961 25.7084C25.2967 26.1117 25.7025 26.5072 26.1135 26.8948L29.6114 23.3749L29.4111 23.202C29.2673 23.0868 29.0978 22.9192 28.9026 22.6992C28.7074 22.4792 28.5148 22.2383 28.3247 21.9764C28.1347 21.7145 27.9703 21.4107 27.8316 21.065ZM18.347 22.4792C17.6279 21.9868 17.2683 21.2902 17.2683 20.3893C17.2683 19.6874 17.4353 19.0877 17.7692 18.59C18.103 18.0924 18.5499 17.7206 19.1098 17.4744C19.6697 17.2282 20.2167 17.0527 20.7509 16.948C21.2851 16.8432 21.8553 16.7803 22.4614 16.7594V19.305C22.4614 19.8917 22.3895 20.4207 22.2456 20.8921C21.9375 21.9188 21.3519 22.563 20.489 22.8249C19.739 23.0554 19.025 22.9401 18.347 22.4792Z" fill="#222222"/>
<path d="M30.8644 28.7748C30.7514 28.7434 30.6179 28.7591 30.4638 28.822C28.3989 29.8172 26.3905 30.5243 24.4386 30.9433C20.2267 31.8443 16.1226 31.3728 12.1264 29.5291C11.0169 29.0158 9.47591 28.1463 7.50348 26.9206C7.45212 26.8787 7.39305 26.8551 7.32627 26.8499C7.2595 26.8447 7.20043 26.8551 7.14906 26.8813C7.0977 26.9075 7.0566 26.9442 7.02578 26.9913C6.99496 27.0385 6.98983 27.1013 7.01037 27.1799C7.03092 27.2584 7.08229 27.3449 7.16447 27.4392C7.51375 27.8687 7.94522 28.327 8.45888 28.8141C8.97253 29.3012 9.65312 29.8512 10.5006 30.4641C11.3482 31.0769 12.2342 31.6216 13.1588 32.0983C14.0834 32.5749 15.1569 32.9756 16.3794 33.3004C17.6019 33.6251 18.8244 33.7875 20.0469 33.7875C21.2591 33.7875 22.438 33.6592 23.5834 33.4025C24.7288 33.1459 25.6945 32.8421 26.4804 32.4911C27.2663 32.1402 27.9905 31.7526 28.6532 31.3283C29.3158 30.904 29.8063 30.5479 30.1248 30.2598C30.4432 29.9717 30.6692 29.7438 30.8028 29.5762C30.9569 29.3772 31.0339 29.2017 31.0339 29.0498C31.0339 28.8979 30.9774 28.8063 30.8644 28.7748Z" fill="#FF9900"/>
<path d="M33.6921 28.107C33.7794 27.5465 33.7666 27.1825 33.6536 27.0149C33.5098 26.8263 33.1194 26.7006 32.4824 26.6378C31.8455 26.5749 31.2908 26.5801 30.8182 26.6535C30.3046 26.7163 29.7755 26.8735 29.231 27.1249C28.6865 27.3763 28.4451 27.5858 28.5068 27.7534L28.5299 27.8006L28.5607 27.8241L28.6069 27.832H28.761C28.7867 27.832 28.8227 27.8294 28.8689 27.8241C28.9151 27.8189 28.9588 27.8137 28.9999 27.8084C29.041 27.8032 29.0975 27.798 29.1694 27.7927C29.2413 27.7875 29.3081 27.7796 29.3697 27.7691C29.38 27.7691 29.4955 27.7587 29.7164 27.7377C29.9373 27.7168 30.0965 27.7011 30.1941 27.6906C30.2917 27.6801 30.4535 27.6696 30.6795 27.6591C30.9055 27.6487 31.0853 27.6487 31.2189 27.6591C31.3524 27.6696 31.5039 27.6827 31.6734 27.6984C31.8429 27.7141 31.9816 27.7456 32.0895 27.7927C32.1974 27.8399 32.277 27.9001 32.3283 27.9734C32.503 28.2039 32.4696 28.7198 32.2282 29.5212C31.9868 30.3226 31.7582 30.959 31.5425 31.4305C31.45 31.6295 31.45 31.7552 31.5425 31.8076C31.6349 31.86 31.7685 31.8128 31.9431 31.6662C32.467 31.2367 32.9036 30.5872 33.2529 29.7177C33.4584 29.2043 33.6048 28.6675 33.6921 28.107Z" fill="#FF9900"/>
<path d="M55 8.71409V0.00219727H57.8784C58.6913 0.00219727 59.3449 0.211719 59.8393 0.630761C60.3337 1.0498 60.5809 1.60713 60.5809 2.30274C60.5809 2.73855 60.4803 3.11568 60.2792 3.43416C60.0781 3.74425 59.789 3.9831 59.4119 4.15072C59.9482 4.30996 60.3588 4.57395 60.6437 4.94271C60.9286 5.30309 61.0711 5.75146 61.0711 6.28784C61.0711 7.02535 60.8113 7.6162 60.2918 8.06039C59.7722 8.49619 59.0767 8.71409 58.2052 8.71409H55ZM56.2192 4.74157V7.73353H58.1801C59.2443 7.73353 59.7764 7.23487 59.7764 6.23755C59.7764 5.74308 59.6382 5.37013 59.3616 5.11871C59.0935 4.86728 58.6913 4.74157 58.155 4.74157H56.2192ZM56.2192 0.982757V3.78615H57.7527C58.7918 3.78615 59.3114 3.32101 59.3114 2.39074C59.3114 1.92979 59.1815 1.58199 58.9217 1.34732C58.6703 1.10428 58.2932 0.982757 57.7904 0.982757H56.2192Z" fill="#222222"/>
<path d="M66.9195 8.71409L66.7812 8.03524C66.0019 8.61352 65.2016 8.90266 64.3804 8.90266C63.7855 8.90266 63.3288 8.73505 63.0103 8.39981C62.6919 8.06458 62.5327 7.59106 62.5327 6.97926V2.34046H63.7771V6.57698C63.7771 7.02954 63.8651 7.36478 64.041 7.58268C64.217 7.7922 64.4977 7.89696 64.8832 7.89696C65.4865 7.89696 66.0941 7.69582 66.7058 7.29354V2.34046H67.9502V8.71409H66.9195Z" fill="#222222"/>
<path d="M71.5349 8.77695L68.9708 2.34046H70.3031L72.1383 7.55754L73.9106 2.34046H75.1927L72.2891 9.83294C72.0712 10.4112 71.8073 10.8261 71.4972 11.0775C71.1956 11.3289 70.8101 11.4546 70.3408 11.4546C69.9889 11.4546 69.6621 11.396 69.3604 11.2786V10.3861C69.5867 10.4447 69.8255 10.4741 70.0769 10.4741C70.3869 10.4741 70.6299 10.3945 70.8059 10.2352C70.9903 10.0844 71.1537 9.81199 71.2961 9.41809L71.5349 8.77695Z" fill="#222222"/>
<path d="M83.8092 8.71409V4.45243C83.8092 4.00824 83.717 3.68139 83.5327 3.47187C83.3567 3.26235 83.076 3.15759 82.6905 3.15759C82.0285 3.15759 81.3791 3.3713 80.7422 3.79872V8.71409H79.4978V2.34046H80.5411L80.6668 3.04445C81.4629 2.44941 82.3008 2.15189 83.1807 2.15189C83.7924 2.15189 84.2575 2.31531 84.5759 2.64217C84.8944 2.96064 85.0536 3.42578 85.0536 4.03758V8.71409H83.8092Z" fill="#222222"/>
<path d="M89.6024 8.90266C88.6471 8.90266 87.9013 8.60514 87.365 8.0101C86.8287 7.41506 86.5606 6.58536 86.5606 5.52099C86.5606 4.465 86.8287 3.63949 87.365 3.04445C87.9013 2.44941 88.6471 2.15189 89.6024 2.15189C90.5577 2.15189 91.3035 2.44941 91.8398 3.04445C92.3761 3.63949 92.6442 4.465 92.6442 5.52099C92.6442 6.58536 92.3761 7.41506 91.8398 8.0101C91.3035 8.60514 90.5577 8.90266 89.6024 8.90266ZM89.6024 7.89696C90.7839 7.89696 91.3747 7.10497 91.3747 5.52099C91.3747 3.94539 90.7839 3.15759 89.6024 3.15759C88.4208 3.15759 87.8301 3.94539 87.8301 5.52099C87.8301 7.10497 88.4208 7.89696 89.6024 7.89696Z" fill="#222222"/>
<path d="M99.2849 8.71409L97.9273 3.7233L96.5824 8.71409H95.3255L93.2389 2.34046H94.5461L95.9791 7.44439L97.3366 2.34046H98.581L99.9385 7.50725L101.409 2.34046H102.679L100.542 8.71409H99.2849Z" fill="#222222"/>
<path d="M110.752 8.71409L110.651 8.06039C110.349 8.32019 110.014 8.52133 109.646 8.66381C109.285 8.80628 108.925 8.87752 108.565 8.87752C107.97 8.87752 107.492 8.7099 107.132 8.37467C106.78 8.03105 106.604 7.5743 106.604 7.0044C106.604 6.3926 106.822 5.90651 107.257 5.54613C107.693 5.17737 108.28 4.993 109.017 4.993C109.503 4.993 110.031 5.06423 110.601 5.20671V4.377C110.601 3.92444 110.496 3.60596 110.287 3.42159C110.086 3.23721 109.738 3.14502 109.243 3.14502C108.531 3.14502 107.794 3.27492 107.031 3.53473V2.65474C107.333 2.4955 107.702 2.37398 108.137 2.29017C108.573 2.19798 109.013 2.15189 109.457 2.15189C110.253 2.15189 110.84 2.3195 111.217 2.65474C111.594 2.98159 111.782 3.48444 111.782 4.16329V8.71409H110.752ZM108.866 7.93467C109.436 7.93467 110.014 7.72096 110.601 7.29354V6.01127C110.165 5.90232 109.721 5.84784 109.269 5.84784C108.322 5.84784 107.848 6.21241 107.848 6.94154C107.848 7.26002 107.936 7.50725 108.112 7.68325C108.288 7.85087 108.539 7.93467 108.866 7.93467Z" fill="#222222"/>
<path d="M117.217 8.56324C116.806 8.72248 116.341 8.80209 115.822 8.80209C114.632 8.80209 114.037 8.20705 114.037 7.01697V3.32102H112.88V2.51645L114.074 2.3656L114.263 0.555333H115.281V2.34046H117.167V3.32102H115.281V6.95411C115.281 7.26421 115.348 7.48211 115.482 7.60782C115.625 7.73353 115.863 7.79639 116.199 7.79639C116.542 7.79639 116.882 7.75449 117.217 7.67068V8.56324Z" fill="#222222"/>
<path fill-rule="evenodd" clip-rule="evenodd" d="M99.2097 19.5853V17.8466C99.2083 17.7885 99.2187 17.7307 99.2403 17.6768C99.2618 17.6228 99.2941 17.5738 99.3352 17.5327C99.3763 17.4916 99.4253 17.4593 99.4793 17.4378C99.5332 17.4162 99.591 17.4058 99.6491 17.4072H107.429C107.488 17.4051 107.547 17.415 107.601 17.4362C107.656 17.4574 107.706 17.4895 107.748 17.5306C107.79 17.5717 107.824 17.6209 107.846 17.6752C107.868 17.7295 107.88 17.7878 107.879 17.8466V19.3346C107.875 19.5844 107.666 19.9106 107.293 20.4265L103.261 26.1835C104.759 26.147 106.34 26.37 107.699 27.1356C107.821 27.202 107.923 27.2995 107.996 27.4181C108.068 27.5368 108.108 27.6724 108.112 27.8114V29.6657C108.112 29.9186 107.832 30.214 107.539 30.0618C106.267 29.4082 104.858 29.0683 103.428 29.0706C101.998 29.0729 100.589 29.4173 99.3194 30.0751C99.0498 30.2215 98.7667 29.9286 98.7667 29.6755V27.9147C98.741 27.4967 98.8407 27.0805 99.053 26.7195L103.724 20.0214H99.6592C99.6006 20.024 99.5421 20.0146 99.4873 19.9938C99.4324 19.9729 99.3825 19.9411 99.3404 19.9003C99.2983 19.8594 99.265 19.8104 99.2425 19.7563C99.2201 19.7021 99.2089 19.6439 99.2097 19.5853Z" fill="#222222"/>
<path fill-rule="evenodd" clip-rule="evenodd" d="M70.8285 30.4283H68.4616C68.3545 30.423 68.2529 30.3794 68.1753 30.3054C68.0977 30.2315 68.0492 30.1321 68.0387 30.0255V17.8776C68.0397 17.8189 68.0524 17.761 68.076 17.7072C68.0996 17.6534 68.1337 17.6048 68.1762 17.5642C68.2187 17.5237 68.2688 17.4919 68.3236 17.4709C68.3784 17.4498 68.4369 17.4398 68.4956 17.4415H70.7029C70.8118 17.445 70.9156 17.4883 70.9947 17.5631C71.0738 17.638 71.1228 17.7392 71.1324 17.8477V19.4356H71.1756C71.7516 17.9009 72.8336 17.1851 74.2917 17.1851C75.7731 17.1851 76.6987 17.9009 77.3644 19.4356C77.5845 18.8583 77.9536 18.3497 78.4341 17.9615C78.9147 17.5732 79.4895 17.3193 80.1002 17.2255C80.7108 17.1318 81.3354 17.2015 81.9103 17.4276C82.4852 17.6537 82.9899 18.0281 83.373 18.5128C84.1222 19.5347 83.9689 21.0196 83.9689 22.3212L83.9654 29.988C83.9644 30.0469 83.9518 30.105 83.9283 30.159C83.9047 30.213 83.8707 30.2618 83.8283 30.3026C83.7858 30.3435 83.7357 30.3755 83.6808 30.3969C83.626 30.4183 83.5674 30.4286 83.5085 30.4273H81.1456C81.0323 30.4214 80.9254 30.3728 80.8464 30.2913C80.7673 30.2098 80.722 30.1015 80.7195 29.988V23.5503C80.7195 23.0377 80.7652 21.7594 80.6531 21.2732C80.4767 20.4575 79.9473 20.2279 79.2614 20.2279C78.9541 20.2373 78.6562 20.3366 78.4048 20.5135C78.1533 20.6905 77.9592 20.9373 77.8465 21.2234C77.6034 21.8359 77.6267 22.8613 77.6267 23.5503V29.9889C77.6257 30.0478 77.6131 30.1059 77.5895 30.1599C77.566 30.2139 77.532 30.2627 77.4896 30.3036C77.4471 30.3444 77.397 30.3764 77.3421 30.3978C77.2872 30.4192 77.2287 30.4296 77.1698 30.4283H74.8069C74.6934 30.4228 74.5862 30.3744 74.507 30.2928C74.4279 30.2112 74.3828 30.1026 74.3808 29.9889L74.3774 23.5506C74.3774 22.1957 74.6004 20.2016 72.9193 20.2016C71.2181 20.2016 71.2846 22.1459 71.2846 23.5506V29.9889C71.2836 30.0478 71.2709 30.1059 71.2474 30.1599C71.2239 30.2139 71.1899 30.2627 71.1474 30.3036C71.105 30.3444 71.0548 30.3764 71 30.3978C70.9451 30.4192 70.8874 30.4296 70.8285 30.4283Z" fill="#222222"/>
<path fill-rule="evenodd" clip-rule="evenodd" d="M114.578 17.1851C118.09 17.1851 119.991 20.2009 119.991 24.0363C119.991 27.7416 117.89 30.6812 114.578 30.6812C111.128 30.6812 109.251 27.6653 109.251 23.9065C109.251 20.1246 111.152 17.1851 114.578 17.1851ZM114.598 19.6652C112.853 19.6652 112.743 22.0413 112.743 23.5236C112.743 25.0059 112.721 28.1776 114.578 28.1776C116.412 28.1776 116.499 25.6207 116.499 24.0628C116.499 23.0374 116.456 21.8124 116.146 20.8413C115.879 19.996 115.35 19.6652 114.598 19.6652Z" fill="#222222"/>
<path fill-rule="evenodd" clip-rule="evenodd" d="M124.545 30.4283H122.188C122.075 30.4223 121.968 30.3737 121.889 30.2923C121.81 30.2108 121.764 30.1024 121.762 29.989L121.759 17.8377C121.771 17.7265 121.825 17.6241 121.91 17.5508C121.995 17.4775 122.104 17.4385 122.215 17.4415H124.409C124.507 17.4449 124.601 17.4799 124.677 17.5412C124.753 17.6025 124.808 17.6869 124.832 17.7817V19.6394H124.875C125.538 17.9782 126.466 17.1859 128.101 17.1859C129.163 17.1859 130.199 17.5688 130.864 18.6175C131.483 19.5896 131.483 21.2241 131.483 22.3994V30.0463C131.466 30.1545 131.41 30.2528 131.326 30.3231C131.243 30.3935 131.136 30.4311 131.027 30.4292H128.653C128.55 30.4237 128.451 30.3825 128.375 30.3127C128.299 30.2429 128.249 30.1487 128.234 30.0463V23.4478C128.234 22.1195 128.387 20.1754 126.752 20.1754C126.455 20.1886 126.167 20.2873 125.925 20.4598C125.682 20.6322 125.494 20.871 125.384 21.1476C125.051 21.8899 125.008 22.629 125.008 23.448V29.9887C125.004 30.108 124.953 30.2209 124.866 30.303C124.78 30.3852 124.664 30.4304 124.545 30.4283Z" fill="#222222"/>
<path fill-rule="evenodd" clip-rule="evenodd" d="M132.963 29.4636C132.951 29.2307 133.01 28.9996 133.131 28.8003C133.252 28.6009 133.43 28.4424 133.642 28.3452C133.854 28.248 134.09 28.2165 134.32 28.2549C134.55 28.2932 134.763 28.3996 134.932 28.5604C135.101 28.7211 135.218 28.9288 135.268 29.1566C135.318 29.3844 135.298 29.6219 135.211 29.8385C135.125 30.055 134.975 30.2406 134.782 30.3714C134.589 30.5022 134.361 30.5721 134.128 30.5721C133.979 30.576 133.83 30.5504 133.691 30.4968C133.551 30.4432 133.424 30.3626 133.316 30.2596C133.207 30.1566 133.121 30.0333 133.06 29.8967C133 29.7601 132.967 29.6129 132.963 29.4636Z" fill="#222222"/>
<path fill-rule="evenodd" clip-rule="evenodd" d="M158.042 30.4315C157.925 30.43 157.815 30.3832 157.732 30.3011C157.65 30.2191 157.604 30.1082 157.602 29.9921V17.8443C157.611 17.7375 157.66 17.6379 157.738 17.5643C157.816 17.4907 157.918 17.4481 158.025 17.4447H158.893C159.005 17.4421 159.114 17.4818 159.198 17.5558C159.282 17.6299 159.335 17.7329 159.346 17.8443V19.6154C159.966 18.2106 161.118 17.1121 162.572 17.1121H162.749C164.293 17.1121 165.422 18.2505 165.842 19.9051C166.497 18.2704 167.729 17.1121 169.354 17.1121H169.534C170.682 17.1121 171.788 17.8512 172.36 18.9764C172.913 20.0516 172.893 21.4832 172.893 22.6849L172.889 29.9921C172.888 30.1054 172.844 30.214 172.765 30.2957C172.686 30.3773 172.58 30.4259 172.467 30.4315H171.428C171.322 30.4295 171.22 30.3904 171.14 30.3211C171.059 30.2518 171.006 30.1566 170.989 30.052V22.6847C170.989 21.8165 171.032 20.8937 170.679 20.1014C170.319 19.2924 169.63 18.7863 168.891 18.7497C168.065 18.7897 167.306 19.3922 166.814 20.2047C166.174 21.2533 166.197 22.1987 166.197 23.4238V30.0586C166.179 30.1593 166.127 30.2508 166.05 30.3184C165.974 30.3861 165.876 30.4259 165.774 30.4315H164.742C164.626 30.43 164.514 30.3834 164.432 30.3014C164.349 30.2194 164.302 30.1085 164.299 29.9921L164.293 22.1987C164.293 21.4829 164.249 20.6408 163.92 19.9983C163.755 19.6538 163.503 19.3578 163.19 19.1391C162.877 18.9203 162.512 18.7863 162.132 18.75C161.386 18.7932 160.634 19.3625 160.188 20.0251C159.612 20.8704 159.502 21.9159 159.502 22.9913V29.9921C159.5 30.1056 159.455 30.214 159.376 30.2954C159.297 30.3769 159.19 30.4255 159.076 30.4315H158.042Z" fill="#222222"/>
<path fill-rule="evenodd" clip-rule="evenodd" d="M150.911 30.6846C147.553 30.6846 146.047 27.2589 146.047 23.8335C146.047 20.2314 147.815 17.1121 151.198 17.1121H151.377C154.667 17.1121 156.304 20.4345 156.304 23.8602C156.304 27.4888 154.49 30.6849 151.088 30.6849L150.911 30.6846ZM151.158 29.0237C152.263 28.9871 153.135 28.3012 153.651 27.1593C154.114 26.1339 154.204 24.9589 154.204 23.8335C154.204 22.6084 154.071 21.3301 153.496 20.2814C153.269 19.8477 152.934 19.4794 152.525 19.2114C152.115 18.9435 151.643 18.7849 151.155 18.7507C150.11 18.7872 149.174 19.4964 148.705 20.5883C148.282 21.5337 148.152 22.7887 148.152 23.8342C148.152 25.0094 148.305 26.3677 148.792 27.3896C149.002 27.8505 149.333 28.2459 149.75 28.5337C150.167 28.8215 150.654 28.9909 151.159 29.0241" fill="#222222"/>
<path fill-rule="evenodd" clip-rule="evenodd" d="M140.414 28.9702C141.922 28.9245 142.714 27.7152 143.041 26.1504C143.066 26.0531 143.123 25.9666 143.201 25.9042C143.28 25.8417 143.377 25.8066 143.477 25.8042L144.473 25.8008C144.528 25.7993 144.583 25.8086 144.635 25.8284C144.687 25.8481 144.734 25.8778 144.774 25.9159C144.814 25.9539 144.847 25.9994 144.869 26.05C144.892 26.1005 144.904 26.1549 144.906 26.2102C144.446 28.8767 142.838 30.6846 140.548 30.6846H140.368C137.032 30.6846 135.593 27.3357 135.593 23.9365C135.593 20.5642 137.051 17.1118 140.387 17.1118H140.567C142.884 17.1118 144.535 18.8962 144.895 21.5627C144.885 21.6664 144.839 21.7633 144.765 21.836C144.69 21.9087 144.592 21.9523 144.488 21.9588L143.446 21.9456C143.343 21.9271 143.249 21.8755 143.177 21.7986C143.106 21.7218 143.061 21.6238 143.05 21.5195C142.8 20.0315 141.945 18.8464 140.52 18.8007C138.253 18.874 137.607 21.6637 137.607 23.8108C137.607 25.8783 138.147 28.8971 140.414 28.9702Z" fill="#222222"/>
<path fill-rule="evenodd" clip-rule="evenodd" d="M93.0079 24.6258C93.0079 25.5479 93.0307 26.3165 92.5651 27.136C92.1888 27.8017 91.5897 28.2112 90.9272 28.2112C90.0183 28.2112 89.4858 27.5187 89.4858 26.4976C89.4858 24.4802 91.2934 24.114 93.0081 24.114L93.0079 24.6258ZM95.3949 30.3949C95.3185 30.4601 95.224 30.5004 95.1241 30.5105C95.0242 30.5206 94.9236 30.5001 94.8356 30.4516C94.0499 29.799 93.9069 29.4961 93.4774 28.8735C92.179 30.1986 91.2569 30.5946 89.5755 30.5946C87.5814 30.5946 86.0342 29.3661 86.0342 26.9059C86.0057 26.08 86.2327 25.2653 86.6841 24.5731C87.1355 23.8808 87.7895 23.3446 88.5568 23.0377C89.8419 22.4717 91.6361 22.3719 93.0079 22.2152V21.9092C93.0079 21.3465 93.0511 20.6807 92.7182 20.1957C92.5632 19.9931 92.3613 19.8311 92.13 19.7236C91.8986 19.6162 91.6446 19.5665 91.3898 19.5788C90.4876 19.5788 89.6852 20.0415 89.489 21.0004C89.4767 21.1077 89.4298 21.208 89.3552 21.2861C89.2807 21.3642 89.1827 21.4159 89.0761 21.4331L86.7823 21.1868C86.7257 21.1792 86.6713 21.16 86.6225 21.1305C86.5736 21.101 86.5314 21.0618 86.4983 21.0153C86.4652 20.9688 86.442 20.916 86.4301 20.8602C86.4183 20.8044 86.418 20.7467 86.4293 20.6908C86.9557 17.9076 89.4725 17.0686 91.7229 17.0686C92.8749 17.0686 94.3796 17.375 95.2885 18.2471C96.4404 19.3222 96.3305 20.7573 96.3305 22.3184V26.0073C96.3305 27.1159 96.79 27.6021 97.2227 28.2007C97.3726 28.4138 97.4055 28.6702 97.2127 28.8299C96.7299 29.2327 95.8711 29.9818 95.3984 30.4013L95.3949 30.3949Z" fill="#222222"/>
<path fill-rule="evenodd" clip-rule="evenodd" d="M61.9768 24.6258C61.9768 25.5479 61.9997 26.3165 61.5341 27.136C61.1578 27.8017 60.5619 28.2112 59.8962 28.2112C58.9873 28.2112 58.4579 27.5187 58.4579 26.4976C58.4579 24.4802 60.2656 24.114 61.9764 24.114L61.9768 24.6258ZM64.3639 30.3949C64.2875 30.4601 64.193 30.5004 64.0931 30.5105C63.9932 30.5206 63.8926 30.5001 63.8046 30.4516C63.0189 29.799 62.8791 29.4961 62.4464 28.8735C61.1482 30.1986 60.229 30.5941 58.5436 30.5941C56.5536 30.5941 55.0023 29.3663 55.0023 26.9061C54.9744 26.0802 55.2017 25.2656 55.6532 24.5734C56.1047 23.8812 56.7586 23.345 57.5258 23.0377C58.8109 22.4717 60.6051 22.3719 61.9768 22.2152V21.9092C61.9768 21.3465 62.02 20.6807 61.6906 20.1957C61.5352 19.9935 61.3333 19.8319 61.102 19.7245C60.8707 19.6171 60.617 19.5671 60.3622 19.5788C59.46 19.5788 58.6544 20.0415 58.4579 21.0004C58.4457 21.107 58.3992 21.2068 58.3253 21.2847C58.2515 21.3627 58.1543 21.4145 58.0485 21.4324L55.7515 21.1868C55.695 21.1789 55.6408 21.1595 55.5921 21.1299C55.5434 21.1003 55.5013 21.0612 55.4683 21.0147C55.4352 20.9683 55.412 20.9156 55.4 20.86C55.388 20.8043 55.3875 20.7467 55.3985 20.6908C55.9278 17.9076 58.4412 17.0686 60.6912 17.0686C61.8436 17.0686 63.3484 17.375 64.2572 18.2473C65.4092 19.3225 65.2993 20.7575 65.2993 22.3187V26.0073C65.2993 27.1159 65.7587 27.6021 66.1915 28.2007C66.3445 28.4138 66.3779 28.6702 66.1848 28.8299C65.7021 29.2327 64.8433 29.9818 64.3705 30.4013L64.3639 30.3949Z" fill="#222222"/>
<path fill-rule="evenodd" clip-rule="evenodd" d="M102.368 34.9782C97.9237 38.254 91.482 40.0018 85.9356 40.0018C78.5232 40.0398 71.3638 37.3079 65.8609 32.3416C65.4449 31.9653 65.8178 31.4529 66.3179 31.7458C72.034 35.0716 79.1018 37.0723 86.4026 37.0723C91.666 37.0479 96.8727 35.9833 101.723 33.9398C102.476 33.6199 103.104 34.4324 102.368 34.9782Z" fill="#FF9900"/>
<path fill-rule="evenodd" clip-rule="evenodd" d="M104.216 32.8642C103.651 32.1386 100.461 32.5215 99.0301 32.691C98.594 32.7443 98.5275 32.3648 98.9202 32.0918C101.46 30.304 105.628 30.8201 106.115 31.4194C106.601 32.0186 105.988 36.1999 103.601 38.194C103.236 38.5004 102.886 38.3373 103.049 37.931C103.585 36.5926 104.786 33.5933 104.216 32.8642Z" fill="#FF9900"/>
</svg>
