<svg viewBox="0 0 173 41" fill="none" xmlns="http://www.w3.org/2000/svg"><path fill-rule="evenodd" clip-rule="evenodd" d="M8.397.002A8.397 8.397 0 0 0 0 8.4v23.205a8.397 8.397 0 0 0 8.397 8.397h23.205A8.398 8.398 0 0 0 40 31.605V8.4A8.397 8.397 0 0 0 31.602.002H8.398zm19.435 21.063a2.693 2.693 0 0 1-.208-1.006v-9.255c0-.356-.065-.741-.193-1.155-.128-.414-.36-.864-.694-1.351a5.715 5.715 0 0 0-1.248-1.305c-.498-.382-1.163-.704-1.995-.966-.832-.262-1.762-.393-2.79-.393-1.047 0-2.026.128-2.935.385-.909.257-1.687.6-2.334 1.03A7.45 7.45 0 0 0 13.77 8.54a6.138 6.138 0 0 0-1.032 1.776 5.41 5.41 0 0 0-.34 1.87l4.531.424c.185-.576.432-1.08.74-1.509.308-.43.596-.74.863-.934.267-.194.555-.349.863-.464.308-.115.516-.178.624-.189a2.79 2.79 0 0 1 .254-.015c.894 0 1.515.277 1.865.832.215.336.323.844.323 1.525v1.995c-.513.021-1.024.055-1.533.102-.508.048-1.122.144-1.841.291-.72.147-1.387.328-2.004.542-.616.215-1.245.514-1.887.896a7.346 7.346 0 0 0-1.641 1.304c-.452.487-.822 1.098-1.11 1.83-.287.734-.431 1.54-.431 2.42 0 .954.159 1.805.477 2.554.319.75.745 1.341 1.28 1.776a6.386 6.386 0 0 0 1.81 1.03c.673.25 1.38.36 2.119.33a8.777 8.777 0 0 0 2.157-.362 6.297 6.297 0 0 0 1.965-.998 5.99 5.99 0 0 0 1.502-1.61c.144.23.273.403.386.518l.292.314a52.062 52.062 0 0 0 2.111 2.106l3.498-3.52-.2-.173a4.39 4.39 0 0 1-.508-.503 9.469 9.469 0 0 1-.578-.723 4.222 4.222 0 0 1-.493-.911zm-9.485 1.414c-.72-.492-1.079-1.189-1.079-2.09 0-.702.167-1.301.501-1.799.334-.498.78-.87 1.34-1.116a7.82 7.82 0 0 1 1.642-.526 10.824 10.824 0 0 1 1.71-.189v2.546c0 .587-.071 1.116-.215 1.587-.308 1.027-.894 1.671-1.757 1.933-.75.23-1.464.115-2.142-.346z" fill="#222"/><path d="M30.864 28.775c-.113-.032-.246-.016-.4.047-2.065.995-4.073 1.702-6.025 2.121-4.212.901-8.316.43-12.313-1.414-1.11-.513-2.65-1.383-4.623-2.608a.312.312 0 0 0-.177-.071.316.316 0 0 0-.3.141c-.031.047-.036.11-.016.189.02.078.072.165.154.26.35.429.781.887 1.295 1.374.514.487 1.194 1.037 2.042 1.65a20.798 20.798 0 0 0 2.658 1.634c.924.477 1.998.878 3.22 1.202 1.223.325 2.445.488 3.668.488 1.212 0 2.391-.129 3.536-.385 1.146-.257 2.112-.56 2.897-.912.786-.35 1.51-.738 2.173-1.163.663-.424 1.153-.78 1.472-1.068.318-.288.544-.516.678-.684.154-.199.23-.374.23-.526 0-.152-.056-.244-.169-.275z" fill="#F90"/><path d="M33.692 28.107c.087-.56.075-.924-.038-1.092-.144-.189-.535-.314-1.172-.377-.636-.063-1.191-.058-1.664.015a5.338 5.338 0 0 0-1.587.472c-.545.251-.786.46-.724.628l.023.048.03.023.047.008h.154c.026 0 .062-.003.108-.008s.09-.01.13-.016a3.46 3.46 0 0 1 .17-.015c.072-.005.14-.013.2-.024a42.283 42.283 0 0 0 .824-.079c.099-.01.26-.02.486-.03.227-.011.406-.011.54 0 .133.01.285.023.454.038.17.016.309.048.417.095a.551.551 0 0 1 .238.18c.175.23.142.747-.1 1.548-.241.802-.47 1.438-.686 1.91-.092.198-.092.324 0 .377.093.052.226.005.401-.142.524-.43.96-1.079 1.31-1.948.205-.514.352-1.05.44-1.611z" fill="#F90"/><path d="M55 8.714V.002h2.878c.813 0 1.467.21 1.961.629.495.419.742.976.742 1.672 0 .436-.1.813-.302 1.131-.2.31-.49.55-.867.717.536.159.947.423 1.232.792.285.36.427.808.427 1.345 0 .737-.26 1.328-.78 1.772-.519.436-1.214.654-2.086.654H55zm1.22-3.972v2.992h1.96c1.064 0 1.596-.5 1.596-1.496 0-.495-.138-.868-.414-1.12-.269-.25-.67-.376-1.207-.376h-1.936zm0-3.76v2.804h1.533c1.039 0 1.558-.465 1.558-1.395 0-.461-.13-.809-.39-1.044-.25-.243-.628-.364-1.13-.364h-1.572zm10.7 7.732l-.139-.679c-.78.579-1.58.868-2.4.868-.596 0-1.052-.168-1.37-.503-.32-.335-.478-.809-.478-1.42V2.34h1.244v4.237c0 .453.088.788.264 1.006.176.21.457.314.842.314.604 0 1.211-.201 1.823-.603V2.34h1.244v6.374h-1.03zm4.615.063L68.97 2.34h1.332l1.835 5.218 1.773-5.218h1.282l-2.904 7.493c-.218.578-.482.993-.792 1.245-.301.25-.687.377-1.156.377a2.68 2.68 0 0 1-.98-.176v-.893c.226.059.465.088.716.088.31 0 .553-.08.729-.239.184-.15.348-.423.49-.817l.239-.641zm12.274-.063V4.452c0-.444-.092-.77-.276-.98-.176-.21-.457-.314-.843-.314-.662 0-1.31.213-1.948.64v4.916h-1.244V2.34h1.043l.126.704c.796-.595 1.634-.892 2.514-.892.611 0 1.076.163 1.395.49.318.319.478.784.478 1.396v4.676h-1.245zm5.793.189c-.955 0-1.7-.298-2.237-.893-.536-.595-.804-1.425-.804-2.489 0-1.056.268-1.882.804-2.477s1.282-.892 2.237-.892c.956 0 1.701.297 2.238.892.536.595.804 1.421.804 2.477 0 1.064-.268 1.894-.804 2.49-.537.594-1.282.892-2.238.892zm0-1.006c1.182 0 1.773-.792 1.773-2.376 0-1.576-.591-2.363-1.773-2.363-1.181 0-1.772.787-1.772 2.363 0 1.584.59 2.376 1.772 2.376zm9.683.817l-1.358-4.99-1.345 4.99h-1.256L93.239 2.34h1.307l1.433 5.104 1.358-5.104h1.244l1.358 5.167 1.47-5.167h1.27l-2.137 6.374h-1.257zm11.467 0l-.101-.654a3.43 3.43 0 0 1-1.005.604 2.925 2.925 0 0 1-1.081.214c-.595 0-1.073-.168-1.433-.503-.352-.344-.528-.8-.528-1.37 0-.612.218-1.098.653-1.459.436-.369 1.023-.553 1.76-.553.486 0 1.014.071 1.584.214v-.83c0-.453-.105-.771-.314-.955-.201-.185-.549-.277-1.044-.277-.712 0-1.449.13-2.212.39v-.88c.302-.16.671-.281 1.106-.365a6.364 6.364 0 0 1 1.32-.138c.796 0 1.383.167 1.76.503.377.327.565.83.565 1.508v4.551h-1.03zm-1.886-.78c.57 0 1.148-.213 1.735-.64V6.01a5.474 5.474 0 0 0-1.332-.163c-.947 0-1.421.364-1.421 1.094 0 .318.088.565.264.741.176.168.427.252.754.252zm8.351.63c-.411.158-.876.238-1.395.238-1.19 0-1.785-.595-1.785-1.785V3.321h-1.157v-.805l1.194-.15.189-1.81h1.018V2.34h1.886v.981h-1.886v3.633c0 .31.067.528.201.654.143.126.381.188.717.188.343 0 .683-.042 1.018-.125v.892z" fill="#222"/><path fill-rule="evenodd" clip-rule="evenodd" d="M99.21 19.585v-1.738a.429.429 0 0 1 .44-.44h7.779a.43.43 0 0 1 .319.124.429.429 0 0 1 .131.316v1.488c-.004.25-.213.576-.586 1.091l-4.032 5.758c1.498-.037 3.079.186 4.438.952a.796.796 0 0 1 .413.675v1.855c0 .253-.28.548-.573.396a8.962 8.962 0 0 0-8.22.013c-.27.146-.552-.146-.552-.4v-1.76a2.103 2.103 0 0 1 .286-1.195l4.671-6.699h-4.065a.43.43 0 0 1-.45-.436zM70.829 30.428h-2.367a.447.447 0 0 1-.423-.402V17.878a.443.443 0 0 1 .457-.436h2.207a.446.446 0 0 1 .43.406v1.588h.043c.576-1.535 1.658-2.25 3.116-2.25 1.481 0 2.407.715 3.072 2.25a3.496 3.496 0 0 1 6.009-.923c.75 1.022.596 2.507.596 3.808l-.004 7.667a.448.448 0 0 1-.457.44h-2.362a.45.45 0 0 1-.427-.44V23.55c0-.512.046-1.79-.066-2.277-.176-.816-.706-1.045-1.392-1.045a1.572 1.572 0 0 0-1.414.995c-.244.613-.22 1.638-.22 2.327v6.439a.446.446 0 0 1-.457.44h-2.363a.448.448 0 0 1-.426-.44l-.004-6.438c0-1.355.223-3.35-1.458-3.35-1.7 0-1.634 1.945-1.634 3.35v6.438a.448.448 0 0 1-.456.44zm43.749-13.243c3.512 0 5.413 3.016 5.413 6.851 0 3.706-2.101 6.645-5.413 6.645-3.45 0-5.327-3.016-5.327-6.774 0-3.782 1.901-6.722 5.327-6.722zm.02 2.48c-1.745 0-1.855 2.376-1.855 3.859 0 1.482-.022 4.654 1.835 4.654 1.834 0 1.921-2.557 1.921-4.115 0-1.026-.043-2.25-.353-3.222-.267-.845-.796-1.176-1.548-1.176zm9.947 10.763h-2.357a.45.45 0 0 1-.426-.439l-.003-12.151a.45.45 0 0 1 .456-.396h2.194a.452.452 0 0 1 .423.34v1.857h.043c.663-1.66 1.591-2.453 3.226-2.453 1.062 0 2.098.383 2.763 1.431.619.973.619 2.607.619 3.782v7.647a.453.453 0 0 1-.456.383h-2.374a.447.447 0 0 1-.419-.383v-6.598c0-1.329.153-3.273-1.482-3.273a1.544 1.544 0 0 0-1.368.973c-.333.742-.376 1.481-.376 2.3v6.54a.453.453 0 0 1-.463.44zm8.418-.964a1.163 1.163 0 0 1 .679-1.119 1.166 1.166 0 1 1 .486 2.227 1.134 1.134 0 0 1-1.165-1.108zm25.079.968a.447.447 0 0 1-.44-.44V17.844a.436.436 0 0 1 .423-.4h.868a.446.446 0 0 1 .453.4v1.771c.62-1.404 1.772-2.503 3.226-2.503h.177c1.544 0 2.673 1.139 3.093 2.793.655-1.635 1.887-2.793 3.512-2.793h.18c1.148 0 2.254.74 2.826 1.864.553 1.076.533 2.507.533 3.709l-.004 7.307a.442.442 0 0 1-.422.44h-1.039a.453.453 0 0 1-.439-.38v-7.367c0-.868.043-1.791-.31-2.584-.36-.809-1.049-1.315-1.788-1.351-.826.04-1.585.642-2.077 1.455-.64 1.048-.617 1.994-.617 3.219v6.635a.452.452 0 0 1-.423.372h-1.032a.448.448 0 0 1-.443-.439l-.006-7.793c0-.716-.044-1.558-.373-2.2a2.218 2.218 0 0 0-1.788-1.249c-.746.043-1.498.613-1.944 1.275-.576.845-.686 1.89-.686 2.966v7.001a.447.447 0 0 1-.426.44h-1.034zm-7.131.253c-3.358 0-4.864-3.426-4.864-6.851 0-3.603 1.768-6.722 5.151-6.722h.179c3.29 0 4.927 3.323 4.927 6.748 0 3.629-1.814 6.825-5.216 6.825h-.177zm.247-1.661c1.105-.037 1.977-.723 2.493-1.865.463-1.025.553-2.2.553-3.325 0-1.226-.133-2.504-.708-3.553a2.874 2.874 0 0 0-2.341-1.53c-1.045.036-1.981.745-2.45 1.837-.423.946-.553 2.2-.553 3.246 0 1.175.153 2.534.64 3.556a2.801 2.801 0 0 0 2.367 1.634m-10.745-.054c1.508-.046 2.3-1.255 2.627-2.82a.465.465 0 0 1 .436-.346l.996-.003a.423.423 0 0 1 .433.41c-.46 2.666-2.068 4.474-4.358 4.474h-.18c-3.336 0-4.775-3.35-4.775-6.748 0-3.373 1.458-6.825 4.794-6.825h.18c2.317 0 3.968 1.784 4.328 4.45a.437.437 0 0 1-.407.396l-1.042-.012a.486.486 0 0 1-.396-.427c-.25-1.487-1.105-2.673-2.53-2.718-2.267.073-2.913 2.863-2.913 5.01 0 2.067.54 5.086 2.807 5.16zm-47.406-4.344c0 .922.023 1.69-.443 2.51-.376.666-.975 1.075-1.638 1.075-.909 0-1.441-.692-1.441-1.713 0-2.018 1.807-2.384 3.522-2.384v.512zm2.387 5.769a.494.494 0 0 1-.56.057c-.785-.653-.928-.956-1.358-1.579-1.298 1.326-2.22 1.722-3.901 1.722-1.995 0-3.542-1.229-3.542-3.69a4.017 4.017 0 0 1 2.523-3.867c1.285-.566 3.08-.666 4.45-.823v-.306c0-.563.044-1.228-.289-1.713a1.578 1.578 0 0 0-1.328-.617c-.902 0-1.705.462-1.901 1.421a.495.495 0 0 1-.413.433l-2.294-.246a.416.416 0 0 1-.353-.496c.527-2.783 3.043-3.622 5.294-3.622 1.152 0 2.657.306 3.566 1.178 1.151 1.075 1.041 2.51 1.041 4.071v3.69c0 1.108.46 1.594.893 2.193.15.213.183.47-.01.629a99.834 99.834 0 0 0-1.815 1.571l-.003-.006zm-33.418-5.77c0 .923.023 1.692-.443 2.511-.376.666-.972 1.075-1.638 1.075-.909 0-1.438-.692-1.438-1.713 0-2.018 1.808-2.384 3.518-2.384v.512zm2.387 5.77a.494.494 0 0 1-.56.057c-.785-.653-.925-.956-1.358-1.579-1.298 1.326-2.217 1.721-3.902 1.721-1.99 0-3.542-1.228-3.542-3.688a4.022 4.022 0 0 1 2.524-3.868c1.285-.566 3.08-.666 4.45-.823v-.306c0-.563.044-1.228-.285-1.713a1.583 1.583 0 0 0-1.329-.617c-.902 0-1.708.462-1.904 1.421a.495.495 0 0 1-.41.432l-2.297-.245a.418.418 0 0 1-.352-.496c.529-2.783 3.042-3.622 5.292-3.622 1.153 0 2.657.306 3.566 1.178 1.152 1.076 1.042 2.51 1.042 4.072v3.688c0 1.109.46 1.595.892 2.194.153.213.187.47-.006.629-.483.403-1.342 1.152-1.814 1.571l-.007-.006z" fill="#222"/><path fill-rule="evenodd" clip-rule="evenodd" d="M102.368 34.978c-4.444 3.276-10.886 5.024-16.432 5.024a29.735 29.735 0 0 1-20.075-7.66c-.416-.377-.043-.89.457-.596 5.716 3.326 12.784 5.326 20.085 5.326a39.936 39.936 0 0 0 15.32-3.132c.753-.32 1.381.492.645 1.038z" fill="#F90"/><path fill-rule="evenodd" clip-rule="evenodd" d="M104.216 32.864c-.565-.725-3.755-.342-5.186-.173-.436.053-.502-.326-.11-.6 2.54-1.787 6.708-1.27 7.195-.672.486.6-.127 4.78-2.514 6.775-.365.306-.715.143-.552-.263.536-1.338 1.737-4.338 1.167-5.067z" fill="#F90"/></svg>