<svg width="172" height="40" viewBox="0 0 172 40" fill="none" xmlns="http://www.w3.org/2000/svg">
<path fill-rule="evenodd" clip-rule="evenodd" d="M5 0C2.23858 0 0 2.23858 0 5V35C0 37.7614 2.23858 40 5 40H35C37.7614 40 40 37.7614 40 35V5C40 2.23858 37.7614 0 35 0H5ZM27.8316 21.0628C27.6929 20.7171 27.6236 20.3818 27.6236 20.0571V10.8017C27.6236 10.4455 27.5594 10.0605 27.431 9.64671C27.3026 9.23291 27.0714 8.78245 26.7375 8.29532C26.4037 7.8082 25.9876 7.37345 25.4894 6.99108C24.9911 6.60871 24.3259 6.28658 23.4938 6.02468C22.6617 5.76278 21.732 5.63184 20.7047 5.63184C19.6568 5.63184 18.6783 5.76017 17.7692 6.01682C16.86 6.27348 16.0818 6.61657 15.4346 7.04608C14.7874 7.47559 14.2327 7.97319 13.7704 8.53889C13.3081 9.10458 12.9639 9.69647 12.7379 10.3145C12.5119 10.9326 12.3989 11.5559 12.3989 12.1845L16.9293 12.6088C17.1143 12.0326 17.3608 11.5297 17.669 11.1002C17.9772 10.6707 18.2648 10.3591 18.5319 10.1653C18.799 9.97146 19.0867 9.81694 19.3949 9.70171C19.7031 9.58647 19.9111 9.52362 20.019 9.51314C20.1268 9.50266 20.2116 9.49743 20.2732 9.49743C21.167 9.49743 21.7885 9.77504 22.1378 10.3303C22.3535 10.6655 22.4614 11.1736 22.4614 11.8545V13.8501C21.9477 13.8711 21.4366 13.9051 20.9281 13.9523C20.4196 13.9994 19.8058 14.0963 19.0867 14.243C18.3676 14.3897 17.6998 14.5704 17.0834 14.7851C16.467 14.9999 15.8378 15.2984 15.1958 15.6808C14.5537 16.0632 14.0066 16.4979 13.5546 16.985C13.1026 17.4722 12.7328 18.0824 12.4451 18.8157C12.1575 19.549 12.0137 20.3557 12.0137 21.2356C12.0137 22.1889 12.1729 23.0401 12.4914 23.7891C12.8098 24.5381 13.2362 25.13 13.7704 25.5648C14.3046 25.9995 14.9081 26.3426 15.581 26.594C16.2539 26.8454 16.9602 26.9554 17.6998 26.924C18.4395 26.8926 19.1586 26.7721 19.8572 26.5626C20.5557 26.3531 21.2106 26.0205 21.8219 25.5648C22.4331 25.1091 22.9339 24.5722 23.3243 23.9541C23.4681 24.1846 23.5966 24.3574 23.7096 24.4727L24.0023 24.7869C24.1975 24.9965 24.4954 25.3029 24.8961 25.7062C25.2967 26.1095 25.7025 26.505 26.1135 26.8926L29.6114 23.3727L29.4111 23.1998C29.2673 23.0846 29.0978 22.917 28.9026 22.697C28.7074 22.477 28.5148 22.2361 28.3247 21.9742C28.1347 21.7123 27.9703 21.4085 27.8316 21.0628ZM18.347 22.477C17.6279 21.9846 17.2683 21.288 17.2683 20.3871C17.2683 19.6852 17.4353 19.0855 17.7692 18.5879C18.103 18.0902 18.5499 17.7184 19.1098 17.4722C19.6697 17.226 20.2167 17.0505 20.7509 16.9458C21.2851 16.841 21.8553 16.7781 22.4614 16.7572V19.3028C22.4614 19.8895 22.3895 20.4185 22.2456 20.8899C21.9375 21.9166 21.3519 22.5608 20.489 22.8227C19.739 23.0532 19.025 22.938 18.347 22.477Z" fill="#222222"/>
<path d="M30.8644 28.7726C30.7514 28.7412 30.6179 28.7569 30.4638 28.8198C28.3989 29.815 26.3905 30.5221 24.4386 30.9411C20.2267 31.8421 16.1226 31.3706 12.1264 29.5269C11.0169 29.0136 9.47591 28.1441 7.50348 26.9184C7.45212 26.8765 7.39305 26.8529 7.32627 26.8477C7.2595 26.8425 7.20043 26.8529 7.14906 26.8791C7.0977 26.9053 7.0566 26.942 7.02578 26.9891C6.99496 27.0363 6.98983 27.0991 7.01037 27.1777C7.03092 27.2563 7.08229 27.3427 7.16447 27.437C7.51375 27.8665 7.94522 28.3248 8.45888 28.8119C8.97253 29.299 9.65312 29.849 10.5006 30.4619C11.3482 31.0747 12.2342 31.6194 13.1588 32.0961C14.0834 32.5727 15.1569 32.9734 16.3794 33.2982C17.6019 33.623 18.8244 33.7853 20.0469 33.7853C21.2591 33.7853 22.438 33.657 23.5834 33.4003C24.7288 33.1437 25.6945 32.8399 26.4804 32.4889C27.2663 32.138 27.9905 31.7504 28.6532 31.3261C29.3158 30.9018 29.8063 30.5457 30.1248 30.2576C30.4432 29.9695 30.6692 29.7416 30.8028 29.574C30.9569 29.375 31.0339 29.1995 31.0339 29.0476C31.0339 28.8957 30.9774 28.8041 30.8644 28.7726Z" fill="#FF9900"/>
<path d="M33.6921 28.1048C33.7794 27.5443 33.7666 27.1803 33.6536 27.0127C33.5098 26.8241 33.1194 26.6984 32.4824 26.6356C31.8455 26.5727 31.2908 26.5779 30.8182 26.6513C30.3046 26.7141 29.7755 26.8713 29.231 27.1227C28.6865 27.3741 28.4451 27.5836 28.5068 27.7512L28.5299 27.7984L28.5607 27.8219L28.6069 27.8298H28.761C28.7867 27.8298 28.8227 27.8272 28.8689 27.8219C28.9151 27.8167 28.9588 27.8115 28.9999 27.8062C29.041 27.801 29.0975 27.7958 29.1694 27.7905C29.2413 27.7853 29.3081 27.7774 29.3697 27.7669C29.38 27.7669 29.4955 27.7565 29.7164 27.7355C29.9373 27.7146 30.0965 27.6989 30.1941 27.6884C30.2917 27.6779 30.4535 27.6674 30.6795 27.657C30.9055 27.6465 31.0853 27.6465 31.2189 27.657C31.3524 27.6674 31.5039 27.6805 31.6734 27.6962C31.8429 27.7119 31.9816 27.7434 32.0895 27.7905C32.1974 27.8377 32.277 27.8979 32.3283 27.9712C32.503 28.2017 32.4696 28.7176 32.2282 29.519C31.9868 30.3204 31.7582 30.9568 31.5425 31.4283C31.45 31.6273 31.45 31.753 31.5425 31.8054C31.6349 31.8578 31.7685 31.8106 31.9431 31.664C32.467 31.2345 32.9036 30.585 33.2529 29.7155C33.4584 29.2021 33.6048 28.6653 33.6921 28.1048Z" fill="#FF9900"/>
<g clip-path="url(#clip0)">
<path d="M55 8.79736V0.151428H57.8566C58.6633 0.151428 59.312 0.359363 59.8026 0.775233C60.2933 1.1911 60.5386 1.74421 60.5386 2.43455C60.5386 2.86706 60.4388 3.24134 60.2392 3.5574C60.0396 3.86514 59.7527 4.10219 59.3785 4.26854C59.9107 4.42657 60.3182 4.68856 60.601 5.05453C60.8837 5.41218 61.0251 5.85716 61.0251 6.38947C61.0251 7.1214 60.7673 7.70778 60.2517 8.1486C59.7361 8.5811 59.0459 8.79736 58.181 8.79736H55ZM56.21 4.85491V7.82422H58.156C59.2122 7.82422 59.7403 7.32934 59.7403 6.33957C59.7403 5.84884 59.603 5.47872 59.3286 5.2292C59.0625 4.97967 58.6633 4.85491 58.1311 4.85491H56.21ZM56.21 1.12456V3.90673H57.7319C58.7631 3.90673 59.2787 3.44511 59.2787 2.52188C59.2787 2.06443 59.1498 1.71926 58.892 1.48637C58.6425 1.24517 58.2683 1.12456 57.7693 1.12456H56.21Z" fill="#222222"/>
<path d="M66.8292 8.79736L66.692 8.12365C65.9186 8.69755 65.1244 8.9845 64.3094 8.9845C63.7189 8.9845 63.2657 8.81815 62.9497 8.48545C62.6337 8.15276 62.4757 7.68283 62.4757 7.07566V2.47198H63.7106V6.67642C63.7106 7.12556 63.7979 7.45826 63.9726 7.67451C64.1472 7.88244 64.4258 7.98641 64.8084 7.98641C65.4071 7.98641 66.0101 7.78679 66.6171 7.38756V2.47198H67.8521V8.79736H66.8292Z" fill="#222222"/>
<path d="M71.4097 8.85974L68.865 2.47198H70.1872L72.0085 7.64956L73.7674 2.47198H75.0398L72.1582 9.90773C71.942 10.4816 71.68 10.8933 71.3723 11.1429C71.0729 11.3924 70.6904 11.5171 70.2247 11.5171C69.8754 11.5171 69.5511 11.4589 69.2517 11.3425V10.4567C69.4762 10.5149 69.7132 10.544 69.9627 10.544C70.2704 10.544 70.5116 10.465 70.6862 10.307C70.8692 10.1572 71.0313 9.88693 71.1727 9.49602L71.4097 8.85974Z" fill="#222222"/>
<path d="M83.591 8.79736V4.56796C83.591 4.12714 83.4996 3.80276 83.3166 3.59483C83.142 3.38689 82.8634 3.28293 82.4808 3.28293C81.8238 3.28293 81.1793 3.49502 80.5473 3.91921V8.79736H79.3123V2.47198H80.3477L80.4725 3.17064C81.2625 2.58011 82.0941 2.28484 82.9673 2.28484C83.5744 2.28484 84.036 2.44703 84.352 2.77141C84.668 3.08747 84.826 3.54908 84.826 4.15625V8.79736H83.591Z" fill="#222222"/>
<path d="M89.3404 8.9845C88.3923 8.9845 87.6522 8.68923 87.1199 8.0987C86.5877 7.50816 86.3216 6.68474 86.3216 5.62843C86.3216 4.58044 86.5877 3.76118 87.1199 3.17064C87.6522 2.58011 88.3923 2.28484 89.3404 2.28484C90.2884 2.28484 91.0286 2.58011 91.5608 3.17064C92.093 3.76118 92.3592 4.58044 92.3592 5.62843C92.3592 6.68474 92.093 7.50816 91.5608 8.0987C91.0286 8.68923 90.2884 8.9845 89.3404 8.9845ZM89.3404 7.98641C90.513 7.98641 91.0992 7.20042 91.0992 5.62843C91.0992 4.06476 90.513 3.28293 89.3404 3.28293C88.1678 3.28293 87.5815 4.06476 87.5815 5.62843C87.5815 7.20042 88.1678 7.98641 89.3404 7.98641Z" fill="#222222"/>
<path d="M98.9495 8.79736L97.6023 3.84435L96.2675 8.79736H95.0201L92.9493 2.47198H94.2467L95.6688 7.53727L97.016 2.47198H98.251L99.5982 7.59965L101.058 2.47198H102.318L100.197 8.79736H98.9495Z" fill="#222222"/>
<path d="M110.33 8.79736L110.23 8.1486C109.93 8.40644 109.598 8.60606 109.232 8.74745C108.874 8.88885 108.517 8.95955 108.159 8.95955C107.569 8.95955 107.095 8.7932 106.737 8.4605C106.388 8.11949 106.213 7.66619 106.213 7.10061C106.213 6.49344 106.429 6.01103 106.862 5.65338C107.294 5.28742 107.876 5.10443 108.608 5.10443C109.09 5.10443 109.614 5.17513 110.18 5.31653V4.49311C110.18 4.04397 110.076 3.72791 109.868 3.54492C109.668 3.36194 109.323 3.27045 108.833 3.27045C108.126 3.27045 107.394 3.39937 106.637 3.65721V2.78388C106.937 2.62585 107.302 2.50525 107.735 2.42208C108.167 2.33058 108.604 2.28484 109.045 2.28484C109.835 2.28484 110.417 2.45119 110.791 2.78388C111.165 3.10826 111.352 3.6073 111.352 4.28101V8.79736H110.33ZM108.458 8.02384C109.024 8.02384 109.598 7.81174 110.18 7.38756V6.115C109.747 6.00687 109.307 5.95281 108.858 5.95281C107.918 5.95281 107.448 6.31462 107.448 7.03823C107.448 7.35429 107.535 7.59965 107.71 7.77432C107.885 7.94066 108.134 8.02384 108.458 8.02384Z" fill="#222222"/>
<path d="M116.746 8.64764C116.338 8.80567 115.877 8.88469 115.361 8.88469C114.18 8.88469 113.59 8.29415 113.59 7.11308V3.44511H112.442V2.64665L113.627 2.49693L113.814 0.700376H114.825V2.47198H116.696V3.44511H114.825V7.0507C114.825 7.35845 114.891 7.5747 115.024 7.69946C115.166 7.82422 115.403 7.8866 115.735 7.8866C116.076 7.8866 116.413 7.84502 116.746 7.76184V8.64764Z" fill="#222222"/>
<path fill-rule="evenodd" clip-rule="evenodd" d="M98.875 19.5862V17.8607C98.8736 17.803 98.8839 17.7457 98.9053 17.6921C98.9267 17.6386 98.9587 17.5899 98.9995 17.5492C99.0403 17.5084 99.0889 17.4763 99.1425 17.4549C99.196 17.4335 99.2534 17.4232 99.311 17.4246H107.032C107.091 17.4226 107.149 17.4323 107.203 17.4534C107.257 17.4744 107.307 17.5063 107.349 17.547C107.391 17.5878 107.424 17.6366 107.446 17.6905C107.468 17.7445 107.479 17.8023 107.478 17.8607V19.3374C107.475 19.5853 107.267 19.909 106.897 20.421L102.896 26.1345C104.382 26.0982 105.952 26.3195 107.3 27.0793C107.421 27.1453 107.523 27.242 107.595 27.3597C107.666 27.4775 107.706 27.6121 107.71 27.75V29.5902C107.71 29.8412 107.432 30.1344 107.141 29.9834C105.879 29.3347 104.48 28.9974 103.061 28.9997C101.642 29.002 100.244 29.3438 98.9838 29.9965C98.7163 30.1419 98.4353 29.8512 98.4353 29.6V27.8525C98.4098 27.4376 98.5087 27.0246 98.7194 26.6664L103.355 20.019H99.321C99.2628 20.0216 99.2048 20.0123 99.1504 19.9916C99.096 19.9709 99.0464 19.9393 99.0046 19.8988C98.9628 19.8583 98.9298 19.8096 98.9075 19.7559C98.8852 19.7021 98.8742 19.6444 98.875 19.5862Z" fill="#222222"/>
<path fill-rule="evenodd" clip-rule="evenodd" d="M70.7087 30.3471H68.3596C68.2534 30.3418 68.1526 30.2985 68.0755 30.2252C67.9985 30.1518 67.9504 30.0532 67.9399 29.9473V17.8915C67.941 17.8332 67.9536 17.7757 67.977 17.7223C68.0004 17.6689 68.0342 17.6207 68.0764 17.5804C68.1186 17.5402 68.1683 17.5087 68.2227 17.4878C68.2771 17.4669 68.3352 17.457 68.3934 17.4586H70.584C70.692 17.4621 70.795 17.5051 70.8736 17.5793C70.9521 17.6536 71.0007 17.7541 71.0103 17.8618V19.4376H71.0531C71.6247 17.9146 72.6986 17.2042 74.1456 17.2042C75.6158 17.2042 76.5344 17.9146 77.1951 19.4376C77.4135 18.8647 77.7798 18.3599 78.2567 17.9747C78.7336 17.5894 79.3041 17.3374 79.9101 17.2443C80.5161 17.1512 81.1359 17.2204 81.7065 17.4448C82.277 17.6692 82.7779 18.0408 83.1582 18.5218C83.9017 19.536 83.7495 21.0096 83.7495 22.3014L83.7461 29.9101C83.7451 29.9686 83.7326 30.0262 83.7092 30.0798C83.6858 30.1334 83.6521 30.1819 83.61 30.2224C83.5678 30.2629 83.5181 30.2947 83.4637 30.3159C83.4092 30.3372 83.3511 30.3474 83.2926 30.3461H80.9477C80.8352 30.3402 80.7291 30.292 80.6506 30.2111C80.5722 30.1303 80.5273 30.0227 80.5248 29.9101V23.5212C80.5248 23.0124 80.5701 21.7438 80.4588 21.2613C80.2838 20.4518 79.7584 20.2239 79.0777 20.2239C78.7727 20.2333 78.4771 20.3318 78.2275 20.5074C77.978 20.683 77.7853 20.9279 77.6735 21.2119C77.4323 21.8198 77.4554 22.8374 77.4554 23.5212V29.911C77.4544 29.9695 77.4418 30.0272 77.4185 30.0807C77.3951 30.1343 77.3614 30.1828 77.3193 30.2233C77.2771 30.2638 77.2274 30.2956 77.1729 30.3168C77.1185 30.3381 77.0603 30.3483 77.0019 30.3471H74.6569C74.5443 30.3417 74.4379 30.2936 74.3593 30.2126C74.2808 30.1316 74.236 30.0238 74.2341 29.911L74.2307 23.5215C74.2307 22.1769 74.452 20.1979 72.7836 20.1979C71.0953 20.1979 71.1613 22.1274 71.1613 23.5215V29.911C71.1603 29.9695 71.1477 30.0272 71.1244 30.0807C71.101 30.1343 71.0673 30.1828 71.0251 30.2233C70.983 30.2638 70.9333 30.2956 70.8788 30.3168C70.8243 30.3381 70.7671 30.3483 70.7087 30.3471Z" fill="#222222"/>
<path fill-rule="evenodd" clip-rule="evenodd" d="M114.127 17.2042C117.612 17.2042 119.499 20.1972 119.499 24.0035C119.499 27.6808 117.414 30.598 114.127 30.598C110.703 30.598 108.84 27.6051 108.84 23.8747C108.84 20.1214 110.727 17.2042 114.127 17.2042ZM114.146 19.6655C112.415 19.6655 112.306 22.0236 112.306 23.4947C112.306 24.9658 112.283 28.1134 114.127 28.1134C115.947 28.1134 116.033 25.5759 116.033 24.0298C116.033 23.0122 115.99 21.7964 115.683 20.8327C115.418 19.9938 114.893 19.6655 114.146 19.6655Z" fill="#222222"/>
<path fill-rule="evenodd" clip-rule="evenodd" d="M124.018 30.3471H121.679C121.567 30.3412 121.461 30.2929 121.382 30.2121C121.304 30.1312 121.259 30.0237 121.256 29.9111L121.253 17.8518C121.266 17.7415 121.319 17.6399 121.403 17.5671C121.487 17.4943 121.595 17.4556 121.707 17.4587H123.883C123.98 17.462 124.074 17.4967 124.149 17.5576C124.225 17.6185 124.279 17.7022 124.303 17.7963V19.6399H124.346C125.004 17.9913 125.925 17.2049 127.548 17.2049C128.602 17.2049 129.629 17.5849 130.29 18.6257C130.904 19.5905 130.904 21.2126 130.904 22.3789V29.968C130.887 30.0753 130.832 30.1729 130.749 30.2427C130.665 30.3125 130.559 30.3499 130.451 30.348H128.095C127.993 30.3425 127.895 30.3016 127.819 30.2323C127.744 30.1631 127.694 30.0697 127.679 29.968V23.4195C127.679 22.1012 127.831 20.1718 126.209 20.1718C125.914 20.1849 125.629 20.2829 125.388 20.454C125.147 20.6252 124.96 20.8622 124.851 21.1366C124.521 21.8733 124.478 22.6068 124.478 23.4197V29.9108C124.473 30.0292 124.423 30.1412 124.337 30.2228C124.251 30.3043 124.137 30.3491 124.018 30.3471Z" fill="#222222"/>
<path fill-rule="evenodd" clip-rule="evenodd" d="M132.373 29.3897C132.361 29.1585 132.419 28.9292 132.539 28.7314C132.659 28.5335 132.836 28.3762 133.046 28.2798C133.257 28.1833 133.491 28.152 133.719 28.1901C133.948 28.2282 134.159 28.3338 134.327 28.4933C134.495 28.6528 134.611 28.8589 134.66 29.085C134.709 29.3111 134.69 29.5468 134.604 29.7617C134.518 29.9766 134.37 30.1609 134.178 30.2906C133.987 30.4204 133.761 30.4898 133.529 30.4898C133.381 30.4937 133.233 30.4683 133.095 30.4151C132.957 30.3619 132.83 30.2819 132.723 30.1797C132.615 30.0775 132.529 29.9551 132.469 29.8195C132.409 29.684 132.376 29.5379 132.373 29.3897Z" fill="#222222"/>
<path fill-rule="evenodd" clip-rule="evenodd" d="M157.261 30.3503C157.146 30.3487 157.036 30.3023 156.955 30.2209C156.873 30.1394 156.827 30.0294 156.825 29.9142V17.8584C156.834 17.7524 156.882 17.6536 156.96 17.5805C157.037 17.5075 157.138 17.4652 157.245 17.4618H158.106C158.217 17.4592 158.325 17.4986 158.409 17.5721C158.492 17.6456 158.545 17.7479 158.556 17.8584V19.6161C159.171 18.2219 160.314 17.1317 161.758 17.1317H161.933C163.466 17.1317 164.586 18.2615 165.002 19.9036C165.653 18.2813 166.876 17.1317 168.488 17.1317H168.666C169.806 17.1317 170.903 17.8652 171.471 18.9819C172.02 20.0489 172 21.4697 172 22.6624L171.997 29.9142C171.995 30.0267 171.951 30.1344 171.873 30.2155C171.795 30.2965 171.689 30.3447 171.577 30.3503H170.546C170.441 30.3483 170.34 30.3095 170.26 30.2407C170.181 30.1719 170.128 30.0774 170.11 29.9736V22.6621C170.11 21.8005 170.153 20.8847 169.803 20.0984C169.446 19.2955 168.762 18.7933 168.029 18.757C167.209 18.7967 166.456 19.3946 165.967 20.2009C165.332 21.2416 165.355 22.1799 165.355 23.3956V29.9802C165.337 30.0801 165.286 30.1709 165.209 30.2381C165.133 30.3052 165.037 30.3447 164.935 30.3503H163.911C163.796 30.3488 163.685 30.3025 163.603 30.2212C163.521 30.1398 163.474 30.0297 163.472 29.9142L163.465 22.1799C163.465 21.4695 163.422 20.6337 163.095 19.9961C162.931 19.6542 162.682 19.3604 162.371 19.1434C162.06 18.9263 161.698 18.7933 161.321 18.7572C160.581 18.8001 159.834 19.3651 159.391 20.0226C158.82 20.8616 158.711 21.8992 158.711 22.9664V29.9142C158.709 30.0269 158.664 30.1344 158.585 30.2152C158.507 30.2961 158.401 30.3443 158.288 30.3503H157.261Z" fill="#222222"/>
<path fill-rule="evenodd" clip-rule="evenodd" d="M150.185 30.6015C146.852 30.6015 145.358 27.2017 145.358 23.8022C145.358 20.2274 147.112 17.1317 150.469 17.1317H150.648C153.913 17.1317 155.537 20.429 155.537 23.8287C155.537 27.4298 153.737 30.6017 150.36 30.6017L150.185 30.6015ZM150.43 28.9531C151.527 28.9168 152.392 28.2361 152.904 27.1029C153.363 26.0853 153.453 24.9191 153.453 23.8022C153.453 22.5864 153.321 21.3178 152.75 20.277C152.524 19.8466 152.193 19.4811 151.786 19.2152C151.38 18.9492 150.912 18.7918 150.427 18.7579C149.39 18.7942 148.461 19.498 147.995 20.5816C147.576 21.5198 147.447 22.7653 147.447 23.8029C147.447 24.9692 147.599 26.3172 148.082 27.3314C148.29 27.7888 148.619 28.1812 149.032 28.4668C149.446 28.7524 149.929 28.9206 150.431 28.9535" fill="#222222"/>
<path fill-rule="evenodd" clip-rule="evenodd" d="M139.767 28.9C141.264 28.8547 142.05 27.6545 142.375 26.1016C142.4 26.005 142.455 25.9192 142.533 25.8572C142.611 25.7952 142.708 25.7604 142.807 25.7581L143.795 25.7546C143.85 25.7531 143.905 25.7624 143.956 25.782C144.007 25.8016 144.054 25.8311 144.094 25.8688C144.134 25.9066 144.166 25.9518 144.189 26.0019C144.211 26.052 144.223 26.1061 144.225 26.161C143.769 28.8073 142.173 30.6015 139.9 30.6015H139.721C136.411 30.6015 134.983 27.2779 134.983 23.9044C134.983 20.5577 136.43 17.1314 139.74 17.1314H139.919C142.218 17.1314 143.857 18.9023 144.214 21.5486C144.205 21.6515 144.159 21.7477 144.085 21.8199C144.011 21.892 143.914 21.9352 143.811 21.9418L142.777 21.9286C142.674 21.9102 142.58 21.859 142.509 21.7828C142.439 21.7065 142.394 21.6093 142.383 21.5057C142.136 20.029 141.286 18.8529 139.872 18.8075C137.623 18.8803 136.982 21.6488 136.982 23.7797C136.982 25.8315 137.517 28.8275 139.767 28.9Z" fill="#222222"/>
<path fill-rule="evenodd" clip-rule="evenodd" d="M92.7201 24.5885C92.7201 25.5036 92.7427 26.2664 92.2806 27.0797C91.9072 27.7404 91.3127 28.1467 90.6551 28.1467C89.7532 28.1467 89.2246 27.4595 89.2246 26.4462C89.2246 24.4441 91.0186 24.0806 92.7203 24.0806L92.7201 24.5885ZM95.0891 30.3139C95.0132 30.3786 94.9195 30.4186 94.8203 30.4287C94.7211 30.4387 94.6213 30.4183 94.534 30.3702C93.7542 29.7226 93.6123 29.4219 93.186 28.8041C91.8974 30.1192 90.9823 30.5121 89.3137 30.5121C87.3347 30.5121 85.7992 29.2929 85.7992 26.8514C85.771 26.0317 85.9962 25.2232 86.4442 24.5362C86.8922 23.8492 87.5412 23.3171 88.3027 23.0124C89.5781 22.4508 91.3587 22.3517 92.7201 22.1961V21.8925C92.7201 21.3341 92.7629 20.6733 92.4326 20.192C92.2788 19.9909 92.0784 19.8301 91.8488 19.7235C91.6192 19.6169 91.3672 19.5675 91.1143 19.5798C90.2189 19.5798 89.4226 20.0389 89.2278 20.9906C89.2157 21.097 89.1691 21.1966 89.0951 21.2741C89.0211 21.3517 88.9239 21.4029 88.8181 21.42L86.5416 21.1756C86.4855 21.168 86.4315 21.149 86.383 21.1197C86.3346 21.0904 86.2926 21.0515 86.2598 21.0054C86.2269 20.9592 86.2039 20.9068 86.1921 20.8514C86.1804 20.796 86.1801 20.7388 86.1913 20.6833C86.7137 17.9212 89.2115 17.0886 91.4449 17.0886C92.5881 17.0886 94.0814 17.3926 94.9834 18.2581C96.1266 19.3251 96.0176 20.7493 96.0176 22.2986V25.9596C96.0176 27.0598 96.4735 27.5423 96.903 28.1363C97.0517 28.3479 97.0844 28.6023 96.893 28.7608C96.4139 29.1605 95.5616 29.904 95.0925 30.3203L95.0891 30.3139Z" fill="#222222"/>
<path fill-rule="evenodd" clip-rule="evenodd" d="M61.924 24.5885C61.924 25.5036 61.9467 26.2664 61.4846 27.0797C61.1111 27.7404 60.5198 28.1467 59.8591 28.1467C58.9571 28.1467 58.4317 27.4595 58.4317 26.4462C58.4317 24.4441 60.2257 24.0806 61.9236 24.0806L61.924 24.5885ZM64.293 30.3139C64.2172 30.3786 64.1234 30.4186 64.0243 30.4287C63.9251 30.4387 63.8252 30.4183 63.7379 30.3702C62.9582 29.7226 62.8194 29.4219 62.39 28.8041C61.1016 30.1192 60.1894 30.5117 58.5168 30.5117C56.5419 30.5117 55.0023 29.2932 55.0023 26.8516C54.9746 26.0319 55.2001 25.2235 55.6483 24.5366C56.0964 23.8496 56.7453 23.3174 57.5066 23.0124C58.7821 22.4508 60.5627 22.3517 61.924 22.1961V21.8925C61.924 21.3341 61.9669 20.6733 61.6399 20.192C61.4857 19.9913 61.2853 19.8309 61.0558 19.7243C60.8263 19.6178 60.5744 19.5682 60.3216 19.5798C59.4262 19.5798 58.6267 20.0389 58.4317 20.9906C58.4196 21.0964 58.3734 21.1954 58.3002 21.2728C58.2269 21.3501 58.1305 21.4015 58.0254 21.4193L55.7458 21.1756C55.6898 21.1677 55.636 21.1485 55.5876 21.1191C55.5393 21.0898 55.4975 21.0509 55.4647 21.0048C55.4319 20.9587 55.4089 20.9065 55.397 20.8512C55.3851 20.7959 55.3845 20.7388 55.3954 20.6833C55.9208 17.9212 58.4152 17.0886 60.6481 17.0886C61.7918 17.0886 63.2851 17.3926 64.1871 18.2583C65.3304 19.3254 65.2213 20.7495 65.2213 22.2989V25.9596C65.2213 27.0598 65.6773 27.5423 66.1067 28.1363C66.2586 28.3479 66.2917 28.6023 66.1001 28.7608C65.621 29.1605 64.7687 29.904 64.2996 30.3203L64.293 30.3139Z" fill="#222222"/>
<path fill-rule="evenodd" clip-rule="evenodd" d="M102.01 34.8626C97.599 38.1136 91.206 39.8482 85.7017 39.8482C78.3454 39.8858 71.2402 37.1746 65.779 32.246C65.3661 31.8725 65.7362 31.3639 66.2325 31.6546C71.9054 34.9553 78.9196 36.9409 86.1651 36.9409C91.3887 36.9166 96.5559 35.8601 101.37 33.832C102.116 33.5146 102.74 34.3209 102.01 34.8626Z" fill="#FF9900"/>
<path fill-rule="evenodd" clip-rule="evenodd" d="M103.844 32.7646C103.282 32.0445 100.117 32.4245 98.697 32.5928C98.2642 32.6456 98.1982 32.269 98.588 31.998C101.109 30.2238 105.245 30.736 105.728 31.3307C106.21 31.9255 105.602 36.0751 103.234 38.0541C102.871 38.3581 102.523 38.1962 102.685 37.7931C103.217 36.4648 104.409 33.4882 103.844 32.7646Z" fill="#FF9900"/>
</g>
<defs>
<clipPath id="clip0">
<rect x="55" y="0.151428" width="117" height="39.6971" fill="white"/>
</clipPath>
</defs>
</svg>
