<svg width="26" height="26" viewBox="0 0 26 26" fill="none" xmlns="http://www.w3.org/2000/svg">
<rect width="25.5995" height="25.8067" rx="6" fill="white"/>
<path d="M17.0565 13.0158C17.0565 13.2188 17.0998 13.4283 17.1865 13.6443C17.2732 13.8604 17.3759 14.0503 17.4947 14.214C17.6135 14.3776 17.7339 14.5282 17.8559 14.6657C17.9779 14.8032 18.0838 14.908 18.1737 14.98L18.2989 15.088L16.1127 17.288C15.8558 17.0457 15.6022 16.7985 15.3518 16.5465C15.1014 16.2944 14.9152 16.1029 14.7932 15.9719L14.6102 15.7755C14.5396 15.7035 14.4593 15.5955 14.3694 15.4514C14.1255 15.8377 13.8125 16.1733 13.4304 16.4581C13.0484 16.7429 12.6391 16.9508 12.2025 17.0817C11.7659 17.2127 11.3164 17.288 10.8541 17.3076C10.3918 17.3272 9.95042 17.2585 9.52987 17.1014C9.10932 16.9442 8.7321 16.7298 8.39823 16.4581C8.06435 16.1864 7.79789 15.8164 7.59885 15.3483C7.39981 14.8802 7.30029 14.3482 7.30029 13.7524C7.30029 13.2024 7.39018 12.6982 7.56996 12.2399C7.74974 11.7816 7.98088 11.4002 8.26339 11.0958C8.5459 10.7913 8.8878 10.5196 9.28909 10.2806C9.69039 10.0416 10.0837 9.85502 10.4689 9.7208C10.8541 9.58658 11.2715 9.47363 11.7209 9.38197C12.1704 9.29031 12.554 9.22974 12.8718 9.20028C13.1896 9.17082 13.5091 9.14954 13.8301 9.13644V7.88916C13.8301 7.46358 13.7627 7.14603 13.6279 6.93651C13.4096 6.5895 13.0211 6.41599 12.4625 6.41599C12.424 6.41599 12.371 6.41927 12.3036 6.42581C12.2362 6.43236 12.1062 6.47165 11.9135 6.54367C11.7209 6.61569 11.5411 6.71226 11.3742 6.83339C11.2073 6.95452 11.0275 7.1493 10.8349 7.41775C10.6422 7.68619 10.4882 8.00047 10.3726 8.36057L7.54107 8.0954C7.54107 7.70256 7.6117 7.31299 7.75295 6.92669C7.8942 6.54039 8.1093 6.17047 8.39823 5.81691C8.68716 5.46335 9.03387 5.15234 9.43837 4.8839C9.84288 4.61546 10.3292 4.40103 10.8975 4.24062C11.4657 4.08021 12.0773 4 12.7322 4C13.3742 4 13.9553 4.08184 14.4754 4.24553C14.9955 4.40921 15.4112 4.61055 15.7226 4.84953C16.034 5.08851 16.294 5.36022 16.5027 5.66468C16.7114 5.96913 16.8558 6.25067 16.9361 6.50929C17.0164 6.76792 17.0565 7.00853 17.0565 7.23115V13.0158ZM10.5845 13.222C10.5845 13.7851 10.8092 14.2205 11.2586 14.5282C11.6824 14.8163 12.1286 14.8883 12.5973 14.7443C13.1367 14.5806 13.5027 14.1779 13.6953 13.5363C13.7852 13.2417 13.8301 12.911 13.8301 12.5444V10.9533C13.4513 10.9664 13.0949 11.0057 12.7611 11.0712C12.4272 11.1367 12.0853 11.2463 11.7354 11.4002C11.3854 11.5541 11.1061 11.7865 10.8975 12.0975C10.6888 12.4085 10.5845 12.7833 10.5845 13.222Z" fill="#222222"/>
<path d="M13.6733 10.9533C13.3521 10.9709 13.0476 11.0079 12.7597 11.0644C12.4253 11.1299 12.0829 11.2398 11.7326 11.3938C11.3814 11.5482 11.1011 11.7815 10.8917 12.0936C10.6821 12.406 10.5775 12.7822 10.5775 13.222C10.5775 13.7873 10.8033 14.2249 11.2547 14.534L11.2547 14.534C11.6801 14.8232 12.1286 14.8957 12.5994 14.751C13.1414 14.5865 13.5088 14.1817 13.702 13.5383C13.7921 13.2429 13.8371 12.9116 13.8371 12.5444V10.9533H13.8301H13.8231H13.6733ZM13.6733 10.9533C13.7251 10.9505 13.7772 10.9482 13.8299 10.9464L13.6282 10.9533H13.6733ZM14.3754 15.4477L14.3694 15.4514L14.3635 15.4551L14.3558 15.4599L14.3635 15.4477C14.12 15.8332 13.8076 16.1682 13.4263 16.4525C13.0448 16.7368 12.6363 16.9443 12.2005 17.075C11.7644 17.2058 11.3156 17.281 10.8538 17.3006C10.3924 17.3202 9.95196 17.2516 9.53231 17.0948C9.11244 16.9379 8.73589 16.7239 8.40263 16.4527C8.06978 16.1818 7.80395 15.8128 7.60527 15.3456C7.40666 14.8784 7.30727 14.3474 7.30727 13.7524C7.30727 13.2032 7.39703 12.6999 7.57645 12.2425C7.75597 11.7848 7.98669 11.4042 8.26851 11.1005C8.55051 10.7966 8.89187 10.5253 9.29266 10.2866C9.69361 10.0478 10.0864 9.86143 10.4712 9.72739C10.8561 9.59328 11.2731 9.48041 11.7223 9.3888C12.1716 9.29717 12.555 9.23666 12.8725 9.20722C13.1902 9.17777 13.5095 9.1565 13.8304 9.14341L13.8371 9.30745V9.13644V7.88916C13.8371 7.4631 13.7696 7.14395 13.6337 6.93277C13.4137 6.58305 13.0225 6.40902 12.4625 6.40902C12.4237 6.40902 12.3704 6.41232 12.3029 6.41887C12.2344 6.42552 12.1036 6.46517 11.9111 6.53713C11.7179 6.60938 11.5376 6.70625 11.3701 6.82774C11.2023 6.94949 11.022 7.14495 10.8292 7.41368C10.6371 7.68147 10.4832 7.99463 10.3677 8.35311L7.54805 8.08905C7.54881 7.69921 7.61928 7.31257 7.7595 6.92909C7.90046 6.5436 8.11514 6.17434 8.40363 5.82132C8.69209 5.46833 9.03827 5.15779 9.44223 4.88971C9.84602 4.62174 10.3317 4.40759 10.8994 4.24733C11.4669 4.08711 12.0778 4.00698 12.7322 4.00698C13.3737 4.00698 13.954 4.08874 14.4733 4.25218C14.9929 4.41571 15.4078 4.61673 15.7184 4.85506C16.0292 5.09362 16.2887 5.36481 16.497 5.66862C16.7054 5.97269 16.8495 6.2536 16.9294 6.51136C17.0095 6.76945 17.0495 7.00937 17.0495 7.23115V13.0158C17.0495 13.2198 17.0931 13.4302 17.18 13.6469C17.2669 13.8634 17.3699 14.0538 17.4891 14.2181C17.608 14.3819 17.7285 14.5327 17.8506 14.6704C17.9727 14.8079 18.0789 14.913 18.1692 14.9854C18.1693 14.9854 18.1693 14.9854 18.1693 14.9854L18.2887 15.0884L16.1125 17.2782C15.8574 17.0375 15.6055 16.792 15.3568 16.5416C15.1064 16.2895 14.9202 16.098 14.7983 15.9672L14.6153 15.7708L14.6152 15.7706C14.5451 15.6991 14.4651 15.5916 14.3754 15.4477Z" stroke="#444444" stroke-opacity="0.1" stroke-width="0.0139509"/>
<path d="M19.3564 18.6737C19.2858 18.6541 19.2023 18.6639 19.106 18.7032C17.8155 19.3252 16.5602 19.7671 15.3403 20.029C12.7078 20.5921 10.1428 20.2975 7.64514 19.1451C6.95171 18.8243 5.98861 18.2809 4.75584 17.5148C4.72373 17.4886 4.68682 17.4739 4.64508 17.4706C4.60335 17.4674 4.56643 17.4739 4.53433 17.4903C4.50222 17.5066 4.47654 17.5296 4.45728 17.559C4.43802 17.5885 4.4348 17.6278 4.44765 17.6769C4.46049 17.726 4.49259 17.78 4.54396 17.8389C4.76226 18.1074 5.03193 18.3938 5.35296 18.6983C5.67399 19.0027 6.09936 19.3465 6.62907 19.7295C7.15877 20.1125 7.71255 20.453 8.29041 20.7509C8.86827 21.0488 9.53923 21.2992 10.3033 21.5022C11.0674 21.7052 11.8314 21.8067 12.5955 21.8067C13.3531 21.8067 14.0899 21.7264 14.8058 21.566C15.5217 21.4056 16.1252 21.2158 16.6164 20.9964C17.1076 20.7771 17.5602 20.5348 17.9744 20.2697C18.3885 20.0045 18.6951 19.7819 18.8941 19.6018C19.0932 19.4218 19.2344 19.2794 19.3179 19.1746C19.4142 19.0502 19.4624 18.9405 19.4624 18.8456C19.4624 18.7507 19.4271 18.6934 19.3564 18.6737Z" fill="#FF9900"/>
<path d="M21.1237 18.2563C21.1783 17.906 21.1703 17.6785 21.0996 17.5738C21.0098 17.4559 20.7658 17.3773 20.3677 17.338C19.9696 17.2988 19.6229 17.302 19.3275 17.3479C19.0065 17.3872 18.6758 17.4854 18.3355 17.6425C17.9952 17.7996 17.8444 17.9306 17.8829 18.0353L17.8973 18.0648L17.9166 18.0795L17.9455 18.0845H18.0418C18.0579 18.0845 18.0803 18.0828 18.1092 18.0795C18.1381 18.0763 18.1654 18.073 18.1911 18.0697C18.2168 18.0664 18.2521 18.0632 18.297 18.0599C18.342 18.0566 18.3837 18.0517 18.4222 18.0452C18.4286 18.0452 18.5009 18.0386 18.6389 18.0255C18.777 18.0124 18.8765 18.0026 18.9375 17.9961C18.9985 17.9895 19.0996 17.983 19.2409 17.9764C19.3821 17.9699 19.4945 17.9699 19.5779 17.9764C19.6614 17.983 19.7561 17.9912 19.8621 18.001C19.968 18.0108 20.0547 18.0304 20.1221 18.0599C20.1895 18.0894 20.2393 18.127 20.2714 18.1728C20.3805 18.3169 20.3597 18.6393 20.2088 19.1402C20.0579 19.6411 19.915 20.0389 19.7802 20.3335C19.7224 20.4579 19.7224 20.5365 19.7802 20.5692C19.838 20.6019 19.9214 20.5725 20.0306 20.4808C20.3581 20.2124 20.6309 19.8064 20.8492 19.263C20.9776 18.9422 21.0691 18.6066 21.1237 18.2563Z" fill="#FF9900"/>
<path d="M7.64221 19.1515L7.64221 19.1515C10.1412 20.3044 12.7078 20.5993 15.3418 20.0359C16.5622 19.7738 17.8179 19.3317 19.1089 18.7096C19.2042 18.6707 19.286 18.6614 19.3546 18.6804C19.3883 18.6898 19.4133 18.7081 19.4299 18.7351C19.4467 18.7623 19.4554 18.7989 19.4554 18.8456C19.4554 18.9383 19.4083 19.0464 19.3124 19.1703C19.2293 19.2746 19.0884 19.4167 18.8895 19.5966C18.6909 19.7763 18.3846 19.9987 17.9706 20.2638C17.5568 20.5287 17.1045 20.7708 16.6136 20.99C16.1229 21.2091 15.5199 21.3989 14.8043 21.5592C14.0889 21.7195 13.3526 21.7997 12.5955 21.7997C11.832 21.7997 11.0686 21.6983 10.3051 21.4955C9.54141 21.2926 8.87094 21.0423 8.29361 20.7447C7.71606 20.4469 7.16258 20.1067 6.63315 19.7238C6.10359 19.3409 5.67849 18.9974 5.35776 18.6932C5.03689 18.3889 4.76744 18.1027 4.54937 17.8345L4.54937 17.8345L4.54921 17.8343C4.49821 17.7758 4.46686 17.7228 4.45439 17.6751C4.44183 17.6271 4.44534 17.59 4.46312 17.5628C4.4817 17.5344 4.50645 17.5123 4.53749 17.4965C4.56828 17.4808 4.60387 17.4744 4.64454 17.4776C4.68487 17.4808 4.72044 17.495 4.75143 17.5202L4.75139 17.5203L4.75216 17.5208C5.98499 18.2868 6.94838 18.8305 7.64221 19.1515ZM19.3284 17.3548L19.3284 17.3548L19.3286 17.3548C19.6232 17.309 19.9693 17.3057 20.367 17.345C20.5658 17.3646 20.7258 17.394 20.8471 17.4331C20.9685 17.4722 21.0503 17.5207 21.094 17.5778C21.1281 17.6286 21.1477 17.71 21.1517 17.8232C21.1556 17.9364 21.1441 18.0803 21.1168 18.2552C21.0623 18.605 20.971 18.9401 20.8428 19.2604C20.6247 19.8031 20.3524 20.2079 20.0262 20.4754L20.0261 20.4755C19.9718 20.521 19.9244 20.5507 19.8838 20.5651C19.8433 20.5794 19.8102 20.5782 19.7836 20.5631C19.7574 20.5482 19.7438 20.523 19.7438 20.4857C19.7438 20.4479 19.7578 20.3983 19.7865 20.3364L19.7865 20.3364C19.9216 20.0413 20.0645 19.6433 20.2155 19.1422C20.291 18.8916 20.3341 18.6852 20.3445 18.5232C20.355 18.3615 20.3331 18.2428 20.277 18.1687C20.244 18.1216 20.1931 18.0833 20.1249 18.0535C20.0566 18.0236 19.9691 18.0039 19.8627 17.994C19.7567 17.9842 19.662 17.976 19.5785 17.9695C19.4946 17.9629 19.3819 17.9629 19.2405 17.9695C19.0993 17.976 18.998 17.9826 18.9367 17.9891C18.8758 17.9957 18.7763 18.0055 18.6383 18.0186L18.4806 18.0333C18.4442 18.0366 18.425 18.0382 18.4222 18.0381L18.4211 18.0383C18.3828 18.0448 18.3413 18.0497 18.2965 18.0529C18.2515 18.0562 18.2161 18.0595 18.1902 18.0628C18.1645 18.0661 18.1373 18.0693 18.1084 18.0726C18.0796 18.0759 18.0575 18.0775 18.0418 18.0775H17.9461L17.9195 18.073L17.9029 18.0603L17.8893 18.0326C17.8719 17.9848 17.8968 17.9289 17.9717 17.8638C18.0464 17.799 18.1685 17.7273 18.3385 17.6488C18.6782 17.492 19.0082 17.394 19.3284 17.3548Z" stroke="#444444" stroke-opacity="0.1" stroke-width="0.0139509"/>
<rect x="0.25" y="0.25" width="25.0995" height="25.3067" rx="5.75" stroke="#444444" stroke-opacity="0.1" stroke-width="0.5"/>
</svg>
