<svg viewBox="0 0 171 41" fill="none" xmlns="http://www.w3.org/2000/svg"><rect y=".002" width="40" height="40" rx="4" fill="#222"/><path d="M0 15.559v19.643c0 2.65 2.16 4.8 4.826 4.8h9.241c-.126-.184-.069-.368.058-.518.11-.13.274-.236.415-.293a14.698 14.698 0 0 0 1.803-.59c.08-.036.156-.078.224-.127.1-.074.183-.16.237-.26a.567.567 0 0 0 .01-.512l.283-.503.228-.392.564-.946.146-.243c.294-.486.586-.972.87-1.462a.49.49 0 0 1 .093-.148c.08-.103.165-.212.046-.295l-.244-.16-.002-.002c-.34-.227-.685-.457-1.113-.44a1.092 1.092 0 0 1-.787-.406l-.025-.032a1.063 1.063 0 0 1-.21-.538 15.68 15.68 0 0 0-.786-.71l-.48-.405-.343-.286-.34-.292c-.264-.182.046-.423.21-.52.089-.048.174-.105.257-.166l.218-.17c.23-.185.46-.37.736-.445.235.166.463.342.686.525.31.255.613.522.914.789l.01.01c.271.242.543.483.821.715.087.152-.031.29-.15.43-.11.127-.222.257-.178.4.141.125.26.275.347.441.243.074.498.093.752.094l.725-.01.2.008c.45.114.643-.267.818-.61.048-.096.095-.19.146-.268a.661.661 0 0 1 .017-.262.787.787 0 0 1 .053-.142l.065-.116.124-.19.115-.173c.031-.05.06-.1.083-.152a3.927 3.927 0 0 1 1.32-1.311c.035-.412-.327-.307-.597-.229l-.09.025-.075.018c-.094-.12-.229-.148-.363-.177-.156-.033-.311-.066-.402-.238-.05-.11-.173-.11-.288-.111-.126 0-.24 0-.236-.149.063-.591-.405-.94-.832-1.258l-.173-.13a.614.614 0 0 1-.196-.182l-.046-.078a.638.638 0 0 1-.055-.17.594.594 0 0 1 .146-.5c.072-.1.142-.201.207-.304l.224-.35c.124-.199.248-.397.383-.586.116-.164.24-.321.38-.466.704-.568 1.61-.178 2.333.137.548.421.919 1.03 1.04 1.708.058.223.04.458.022.692-.03.372-.058.74.226 1.045a5.023 5.023 0 0 0 1.387.81c.65.33.961 1.006 1.253 1.64l.002.006.087.186c.34.871.606 1.77.794 2.686a.935.935 0 0 1 .03.18l.003.023a.871.871 0 0 0 .04.225.31.31 0 0 0 .1.142 6.708 6.708 0 0 0 1.507-2.033 14.334 14.334 0 0 0 .864-3.626 16.114 16.114 0 0 0 .449-3.502c.003-.249.002-.498-.006-.747l-.041-.327c-.061-.528-.127-1.094-.504-1.477a1.28 1.28 0 0 1-.673-.098 1.96 1.96 0 0 1-.303-.164c-.145-.094-.283-.203-.421-.312a8.063 8.063 0 0 0-.333-.251 2.049 2.049 0 0 0-.509-.273 2.681 2.681 0 0 1-.269-.232c-.069-.066-.135-.135-.201-.205l-.031-.032-.141-.146a3.216 3.216 0 0 0-.35-.315l-.067-.053-.083-.077-.115-.124c-.114-.127-.228-.252-.375-.312a.496.496 0 0 0-.29-.028c.122-.084.232-.195.07-.304a.174.174 0 0 0-.05-.052.074.074 0 0 0-.038-.011.083.083 0 0 0-.044.013.4.4 0 0 0-.075.063l-.044.042c-.038.032-.077.055-.123.045a.38.38 0 0 1 .01-.08l.028-.102c.04-.132.081-.265-.07-.33a.231.231 0 0 1-.092.08.24.24 0 0 1-.12.021l-.048-.009a.223.223 0 0 1-.07-.032l-.04-.036-.016-.02-.022-.037c-.052.023-.07.1-.086.176l-.001.004c-.026.11-.051.213-.184.132-.118-.086-.143.017-.168.12l-.015.055-.019.048c-.025.049-.062.068-.14.001-.188-.266-.39-.099-.422.143-.188.162-.278-.083-.165-.245.036-.103.132-.166.224-.226.134-.086.261-.169.19-.36-.059-.13-.191-.055-.302.008-.12.068-.214.122-.156-.12.168 0 .248-.102.332-.209l.003-.003.006-.008c.034-.042.068-.085.107-.122a.392.392 0 0 1 .122-.078c.198-.178-.146-.37-.312-.277a.447.447 0 0 0-.022.14c-.005.1-.011.206-.116.231-.127.018-.194.114-.26.208l-.001.002c-.08.116-.157.227-.336.176-.209.204-.08.393.055.59.128.186.26.38.12.6-.058.114-.111.03-.168-.062l-.05-.073a.196.196 0 0 0-.06-.059c-.026-.014-.056-.01-.088.024-.056.064-.087.143-.118.221l-.046.112a.475.475 0 0 1-.073.112 1.236 1.236 0 0 1-.251-.677.161.161 0 0 0-.11.02.544.544 0 0 0-.138.143l-.005.007c-.086.114-.174.23-.335.155a.209.209 0 0 1 .024-.172.716.716 0 0 1 .174-.18.75.75 0 0 0 .172-.177.202.202 0 0 0 .018-.174c-.147-.015-.282.041-.416.097-.064.026-.129.053-.193.072a.664.664 0 0 1-.12.023.484.484 0 0 1-.276-.057c.102-.18.418-.756.024-.688a1.42 1.42 0 0 1-.762.537c-.127-.07-.052-.167.031-.273l.001-.002c.079-.101.164-.211.084-.315l-.028-.053a.338.338 0 0 1-.025-.094.851.851 0 0 1 .023-.241.846.846 0 0 0 .025-.222.283.283 0 0 0-.039-.13c-.152.066-.176.216-.2.368-.024.163-.05.332-.235.407-.12-.033-.045-.185.018-.311v-.002c.064-.124.112-.222-.054-.151-.07.096-.143.052-.22.007-.077-.046-.157-.094-.24.002a.648.648 0 0 1-.09.12c-.094.11-.196.229-.07.34.068.073.003.13-.058.184a.363.363 0 0 0-.064.063c-.028.099.05.118.13.138.095.023.188.047.103.201-.005.024-.013.04-.025.052a.075.075 0 0 1-.038.017.316.316 0 0 1-.105-.01c-.08-.016-.164-.032-.175.072-.034.105.05.138.139.172.103.04.208.081.127.237a.938.938 0 0 1-.468.18c.001.104.082.177.164.25.036.032.073.065.103.1l.033.049a.226.226 0 0 1 .012.213c-.031.01-.055.009-.074 0a.12.12 0 0 1-.034-.026l-.036-.051-.028-.041-.018-.02a.078.078 0 0 0-.075-.02c-.11.083-.061.227-.025.331v.003c.038.11.059.172-.148.063-.265.487-.353.016-.41-.286l-.03-.148c-.154-.017-.2.129-.248.282-.05.156-.103.32-.273.324a1.251 1.251 0 0 1 .242-.744 1.29 1.29 0 0 1 .114-.138l.055-.052.082-.069a.592.592 0 0 1-.058-.164l-.025-.13c-.024-.14-.047-.279-.151-.377-.19.093-.104.265-.027.416a.844.844 0 0 1 .061.134.51.51 0 0 1-.17.027l-.078.005-.064.013c-.079.025-.129.088-.098.26-.207.296-.38-.152-.32-.36.148-.18-.212-.42-.264-.181-.082.123-.069.195-.023.245a.305.305 0 0 0 .086.062l.033.017c.103.054.194.1.023.263l-.056-.003a2.347 2.347 0 0 1-.18-.026l-.024-.004-.01-.001a2.804 2.804 0 0 0-.278-.037c-.215-.014-.425.022-.556.225-.036.015-.064.017-.086.01-.035-.011-.054-.045-.066-.09-.011-.043-.016-.097-.02-.15a.556.556 0 0 0-.038-.192l.09.023c.145.04.307.083.376-.094a.686.686 0 0 1 .292-.577c.121-.3-.295-.191-.454-.13-.04-.322.366-.41.594-.277.043-.016.061-.037.065-.06.003-.022-.008-.046-.026-.071l-.044-.055-.031-.04a.196.196 0 0 1-.04-.072c-.005-.034.01-.065.073-.09l.108-.012.12-.004a.918.918 0 0 0 .221-.018c.095-.027.142-.094.073-.268a1.29 1.29 0 0 1 .273-.14c.171-.071.352-.147.424-.294-.11-.185-.315-.046-.479.064-.096.066-.178.122-.215.092-.027-.021-.032-.087-.002-.225a.641.641 0 0 1 .186-.134l.003-.002c.153-.087.314-.179.147-.295-.084-.004-.112-.074-.139-.14-.033-.08-.063-.155-.186-.086.107.328-.07.524-.253.725a1.317 1.317 0 0 0-.251.347c-.29-.18-.503.038-.679.22l-.017.017c-.269-.212-.515-.033-.75.155-.1-.024-.166-.09-.218-.175a1.34 1.34 0 0 1-.093-.199v-.002c-.087-.207-.173-.412-.455-.361l-.03.026a.397.397 0 0 0-.074.11.913.913 0 0 0-.047.146l-.01.026-.004.02-.036.104a.432.432 0 0 0-.2.085 1.152 1.152 0 0 0-.197.21c-.1.126-.2.251-.359.288l.046-.169c.079-.311.165-.647.495-.78-.003-.106.058-.223.118-.334.113-.21.216-.403-.134-.492-.178-.118-.215.022-.25.152v.006c-.02.072-.037.14-.077.16-.017.008-.039.007-.066-.005a.353.353 0 0 1-.09-.067c-.268-.144-.235.028-.205.178.025.126.047.236-.111.135-.118-.073-.134.004-.152.097v.003a.55.55 0 0 1-.021.088.199.199 0 0 1-.027.055.105.105 0 0 1-.036.031c-.111.068-.062.156-.01.248l.03.055a.255.255 0 0 1 .033.117.373.373 0 0 0-.5.161.354.354 0 0 0-.039.188 2.34 2.34 0 0 0-.54.051c.028-.18.148-.3.265-.42l.12-.128.047-.058a.507.507 0 0 0 .086-.197l.008-.064-.001-.066c.111-.184.064-.242-.02-.225a.387.387 0 0 0-.233.182.79.79 0 0 1-.398-.785c-.191-.082-.271.05-.347.178l-.048.077c-.44-.117-.481.64-.057.637a.275.275 0 0 1 .138.057c.05.037.095.09.123.146a.317.317 0 0 1 .034.178.186.186 0 0 1-.083.133c-.005-.187-.415-.463-.407-.202.042.04.096.074.149.107l.007.005c.087.056.174.112.212.187a.18.18 0 0 1 .012.123.374.374 0 0 1-.07.138c-.063.234-.146.13-.248 0-.093-.117-.205-.256-.333-.19-.13.091-.065.232-.004.366.065.14.126.274-.045.332-.266-.161-.662-.164-.688.223-.236.068-.278-.124-.316-.297-.038-.17-.072-.32-.281-.19-.033.152-.189.564-.297.236.033-.146.005-.244-.047-.299a.155.155 0 0 0-.165-.043c-.096.033-.163.164-.063.381a.266.266 0 0 1-.21-.086.943.943 0 0 1-.142-.204c-.049-.086-.096-.166-.157-.2-.052-.03-.115-.025-.2.037a.891.891 0 0 0-.155.336l-.003.009c-.044.15-.09.3-.223.407-.15-.054-.083-.24-.023-.406v-.003l.003-.006c.059-.165.109-.306-.078-.269l-.088.097a3.036 3.036 0 0 1-.179.192c-.094.086-.163.112-.113-.084.263-.25-.209-.414-.363-.205l-.047.06a.394.394 0 0 1-.096.107c-.033.019-.064.011-.09-.053-.08-.154.027-.235.135-.317l.003-.002c.075-.057.15-.115.165-.197a.884.884 0 0 0-.176.027l-.005.002c-.145.033-.295.067-.394-.065-.028-.051 0-.135.026-.217v-.002l.002-.006c.036-.114.069-.22-.054-.217-.132.036-.17.12-.168.222.003.08.032.172.06.263l.005.012.047.155c.008.03.012.058.014.085l-.002.075c-.05.038-.083.033-.11.009a.328.328 0 0 1-.06-.09c-.046-.088-.097-.182-.227-.089-.104.23-.314.112-.424-.02-.121.037-.168.095-.174.164a.358.358 0 0 0 .04.17l.06.118c.03.057.058.111.074.16-.19-.02-.15.116-.113.244.025.085.048.166.003.195a.214.214 0 0 0-.195-.012.64.64 0 0 0-.126.076l-.006.005a.495.495 0 0 1-.188.1l-.033-.031c-.154-.143-.407-.38-.272-.587.157-.187.3-.902.047-.742.049.097.06.177.047.245a.34.34 0 0 1-.052.128 1.033 1.033 0 0 1-.135.158c-.114.117-.23.237-.2.433-.002.131-.148.282-.233.292-.025.003-.044-.007-.052-.033-.01-.026-.006-.07.014-.138-.04-.325.124-.576.284-.82.14-.213.277-.422.269-.668-.172-.034-.229.1-.286.234l-.002.002c-.062.146-.126.292-.33.231-.087-.103-.04-.2.009-.297l.003-.006c.032-.066.065-.132.058-.202-.196-.05-.228.072-.262.204l-.002.007a.705.705 0 0 1-.05.143l-.02.033a.202.202 0 0 1-.06.052.416.416 0 0 0-.109-.134l-.074-.047a.424.424 0 0 0-.416.013.301.301 0 0 1 .023-.068l.032-.063.001-.003a.412.412 0 0 0 .052-.14.098.098 0 0 0-.01-.056c-.015-.024-.042-.046-.087-.064a1.124 1.124 0 0 0-.287.23l-.01.01a2.734 2.734 0 0 1-.143.137.572.572 0 0 1-.269.14.346.346 0 0 1 .044-.207c.02-.039.046-.076.072-.114l.013-.019.011-.016c.035-.05.069-.1.091-.153l-.067-.123c-.093-.158-.193-.33.02-.435.164-.086.302-.214.4-.37a1.05 1.05 0 0 0 .163-.518c-.178-.062-.226.093-.27.233l-.001.002c-.045.142-.085.265-.248.124-.08-.173-.182-.11-.286-.044-.086.054-.174.11-.251.026-.017-.264.187-.412.391-.558.196-.141.393-.282.39-.526a.453.453 0 0 0-.294.04.75.75 0 0 0-.193.151c-.065.066-.123.14-.18.214l-.017.022-.117.145c-.233.419-.69.49-1.14.561l-.197.032-.113.022-.121.028a1.754 1.754 0 0 0-.168.05 1.452 1.452 0 0 1-.737.034c-.04-.05-.03-.077.003-.095a.45.45 0 0 1 .134-.033l.058-.01.045-.01c.019-.008.032-.018.03-.033 0-.012-.01-.027-.03-.047-.237.06-.223-.067-.207-.207v-.003c.014-.118.03-.246-.102-.278a.647.647 0 0 1-.454.016c-.608.022.144-.358.363-.237.15.03.251-.032.298-.113.079-.135.006-.322-.232-.218-.038-.064-.07-.119-.107-.146-.047-.033-.102-.026-.187.052a.324.324 0 0 0-.267-.03.312.312 0 0 0-.195.184zm39.997 1.858v-1.23a3.177 3.177 0 0 0 .003.175v14.403a3.2 3.2 0 0 1-.003.175V29.42c-1.08-.22-2.254-.608-2.911-1.551-.814-1.603-.878-3.41-.94-5.194v-.006a31.896 31.896 0 0 0-.114-2.033c-.122-.363.166-.488.444-.61.094-.04.188-.08.263-.129.136-.047.282-.083.432-.12h.002c.328-.08.665-.164.918-.365l.095-.084.08-.093.066-.097c.066-.189.168-.347.292-.486.088-.1.187-.191.292-.277.098-.08.199-.155.3-.23l.017-.013c.126-.093.252-.187.37-.288.06-.051.119-.104.174-.16.08-.082.155-.17.22-.268zm-6.885-2.345h.002c.164-.057.339-.118.42-.285a.34.34 0 0 0 .135-.005c.105-.014.22-.03.23.09.01.25-.075.485-.16.72-.072.199-.145.4-.16.61-.012.297-.228.312-.448.327h-.004c-.129.009-.26.018-.352.086-.295-.248-.166-.675-.064-1.012l.008-.026.016-.053c-.046-.306.159-.376.377-.452zm-4.846 1.078c-.245.17-.175.367-.103.566l.037.1c.031.103.048.205.007.302-.131-.066-.428-.131-.345.12.083.157-.024.113-.137.065a.537.537 0 0 0-.15-.048c-.114.023-.164-.1-.2-.192a.355.355 0 0 0-.044-.086c-.024-.025-.05-.006-.096.105-.07.191-.096.104-.129-.016-.034-.126-.08-.287-.2-.193-.056.325.35.542.622.688l.045.024.014.008c.251.107.38.325.507.543.088.15.176.299.303.41.056.049.117.09.187.122.112.023.217.058.318.103.153.067.298.154.444.24l.007.005c.094.056.188.112.285.163.125.066.253.124.392.162.223.042.64-.028.58-.342a2.608 2.608 0 0 0-1.325-1.651c-.027-.027-.05-.035-.072-.032-.036.006-.067.042-.097.078l-.004.005a.338.338 0 0 1-.052.056c-.031.026-.066.025-.106-.05.044-.212-.1-.232-.242-.252a.59.59 0 0 1-.159-.036.144.144 0 0 1-.04-.027.134.134 0 0 1-.043-.1.317.317 0 0 0-.02-.093l-.034-.066-.06-.093v-.002c-.083-.122-.164-.24-.039-.373.08-.045.12-.123.107-.174-.01-.044-.061-.069-.158-.039zm9.26 1.136a9.398 9.398 0 0 1-.522.32c-.166.096-.333.193-.491.298a2.655 2.655 0 0 0-.668.596c-.143.105-.162.385.066.38l.264-.04c.54-.078 1.16-.167 1.318-.767l.049-.136v-.003c.09-.244.22-.597-.016-.648z" fill="#4083C3"/><path d="M19.439 18.388c-.275.156-.377.67-.024.769-.02-.226.01-.453.088-.665.047-.077.046-.169-.064-.104zm2.655 13.532c.051-.27.303-.46.541-.64l.008-.006c.087-.066.172-.13.244-.196a.178.178 0 0 1 .086-.011c.032.004.06.019.077.044a.134.134 0 0 1 .025.076c.21.482.447.952.707 1.41A16.302 16.302 0 0 1 23 32.3l-.79-.331-.019-.007-.097-.042zm-2.182 4.23c.399-.459.798-.918 1.173-1.397.305.038.562.226.823.417l.24.17.08.051.101.059c.06.032.12.061.182.086l.299.165c.174.102.342.212.506.33-.596.377-1.224.699-1.877.96-.666.098-1.314.294-1.958.49-.251.077-.504.153-.759.224-.16.045-.32.087-.48.125-.062-.22.019-.36.157-.428a.634.634 0 0 1 .462-.01c.179-.224.363-.444.55-.662l.5-.58zm9.414-22.226c-.19.125-.12.361-.024.526l.002.003.064.115c.044.08.093.159.143.24l.02.03c.231.37.477.76.351 1.211-.083.594.64.958 1.151.951.178-.269.253-.58.327-.891.068-.283.135-.565.28-.818.278-.33.133-.706-.006-1.065l-.008-.019-.085-.236c-.163-.05-.896-.262-1.06-.262l-.206-.003a1.169 1.169 0 0 1-.288-.046c-.185.157-.418.25-.661.264z" fill="#4083C3"/><path d="M5.176 4.045c.338.072.824-.164 1.094.088.02 1.916-.005 3.832.01 5.748.894-.675 1.63-1.614 2.483-2.363.456-.032.913-.039 1.37-.02-.9.927-1.829 1.828-2.736 2.748-.03.244.202.386.335.556.859 1.122 1.843 2.157 2.643 3.317-.417-.027-.879.08-1.27-.048-1.021-.99-1.765-2.229-2.75-3.252-.194 1.025-.016 2.216-.082 3.302-.382 0-.764.015-1.146-.002-.007-3.307.002-6.614-.004-9.921.002-.057-.005-.122.053-.153zm19.454 0c.36.047.809-.113 1.135.046.004 3.246.013 6.493-.005 9.739a5.114 5.114 0 0 1-4.04.095c-2.317-.985-2.394-4.571-.444-5.96a3.837 3.837 0 0 1 3.071-.595.119.119 0 0 0 .208-.06c.095-1.075-.069-2.221.075-3.265zm-1.185 4.228a2.288 2.288 0 0 0-1.997 1.09 3.135 3.135 0 0 0 .133 3.155c.474.48 1.102.778 1.774.84.386-.058.974.067 1.22-.31.002-1.529.013-3.056-.006-4.584a2.047 2.047 0 0 0-1.124-.19zm3.48-4.185c.316-.033.86-.184 1.14.044.018 2.918-.003 5.838.01 8.756.176.371.566.41.935.367.023.286.176.544.185.833l-.048.037c-.63.102-1.4.263-1.902-.249-.267-.174-.26-.51-.322-.788-.002-2.997-.009-6 .003-9zm-15.35.878a.894.894 0 0 1 1.12.482c.202.473-.277.93-.71 1.006-.812.07-1.114-1.131-.41-1.488zm5.4 2.31a2 2 0 0 1 2.237 1.772c.105 1.666.022 3.353.042 5.026a3.15 3.15 0 0 1-1.16.021c-.064-1.441-.008-2.923-.026-4.38-.048-.5-.195-1.106-.722-1.302-.895-.325-1.81.25-2.489.796-.017 1.637.006 3.275-.01 4.911-.381 0-.763.015-1.144-.002-.004-2.207-.004-4.415 0-6.623.346.061 1.093-.249 1.024.357.028.15-.006.48.229.382a3.809 3.809 0 0 1 2.019-.958zm12.842 1.328c.756-1.45 2.903-1.754 4.099-.683.787.809 1.022 2.01.941 3.103-1.425.013-2.85-.012-4.273.01-.221.344.018.817.153 1.177.475 1 1.74 1.408 2.759 1.066.33.015.54-.344.872-.296.1.25.31.487.283.77a4.422 4.422 0 0 1-3.218.384c-.187-.08-.392-.115-.573-.213-.446-.376-1.012-.72-1.188-1.317a4.688 4.688 0 0 1 .145-4.001zm1.925-.339a1.43 1.43 0 0 0-.976.773c-.178.337-.479.944-.097 1.175.995-.025 2.058.143 3.03-.076a2.322 2.322 0 0 0-.425-1.418 1.527 1.527 0 0 0-1.532-.452v-.002zm-20.38-.77c.38 0 .763-.016 1.145.002.003 2.207.003 4.415 0 6.623-.382 0-.764.015-1.146-.003-.004-2.206-.004-4.413 0-6.62v-.002z" fill="#F90"/><path d="M54 8.689V0h2.87c.811 0 1.463.209 1.956.627.493.418.74.974.74 1.667 0 .435-.1.811-.3 1.129-.201.309-.49.547-.866.714.535.16.944.423 1.229.79.284.36.426.807.426 1.342 0 .735-.26 1.325-.777 1.768-.518.434-1.212.652-2.081.652H54zm1.216-3.962V7.71h1.956c1.06 0 1.592-.498 1.592-1.492 0-.493-.138-.865-.414-1.116-.267-.25-.669-.376-1.203-.376h-1.931zm0-3.75v2.797h1.53c1.036 0 1.554-.464 1.554-1.392 0-.46-.13-.806-.389-1.04-.25-.243-.627-.364-1.128-.364h-1.567zM65.888 8.69l-.138-.677c-.778.576-1.576.865-2.395.865-.593 0-1.048-.168-1.366-.502-.318-.334-.476-.806-.476-1.417V2.332h1.24v4.225c0 .452.088.786.264 1.003.175.21.455.314.84.314.601 0 1.207-.201 1.817-.602v-4.94h1.241v6.357h-1.028zm4.603.062l-2.558-6.419h1.33l1.83 5.203 1.767-5.203h1.279l-2.896 7.472c-.218.577-.48.99-.79 1.242-.3.25-.685.376-1.153.376-.351 0-.677-.059-.978-.176v-.89c.226.059.464.088.715.088.309 0 .551-.08.727-.238.183-.15.346-.422.489-.815l.238-.64zm12.241-.062v-4.25c0-.444-.092-.77-.276-.979-.175-.209-.455-.313-.84-.313-.66 0-1.308.213-1.943.64v4.902h-1.24V2.332h1.04l.125.702c.794-.593 1.63-.89 2.507-.89.61 0 1.074.163 1.392.489.317.318.476.781.476 1.392v4.664h-1.241zm5.778.188c-.953 0-1.697-.297-2.232-.89-.535-.594-.802-1.421-.802-2.483 0-1.053.267-1.876.802-2.47.535-.593 1.279-.89 2.232-.89.952 0 1.696.297 2.231.89.535.594.802 1.417.802 2.47 0 1.062-.267 1.889-.802 2.482-.535.594-1.279.89-2.231.89zm0-1.003c1.178 0 1.767-.79 1.767-2.37 0-1.571-.589-2.357-1.767-2.357-1.179 0-1.768.786-1.768 2.357 0 1.58.59 2.37 1.768 2.37zm9.656.815L96.812 3.71 95.471 8.69h-1.254l-2.08-6.357h1.303l1.43 5.09 1.353-5.09h1.241l1.354 5.153 1.467-5.153h1.266L99.42 8.689h-1.254zm11.436 0l-.1-.652c-.301.259-.635.46-1.003.601a2.909 2.909 0 0 1-1.078.214c-.593 0-1.07-.168-1.429-.502-.351-.343-.526-.798-.526-1.367 0-.61.217-1.095.651-1.454.435-.368 1.02-.552 1.755-.552.485 0 1.012.071 1.58.214v-.828c0-.451-.105-.769-.313-.953-.201-.184-.548-.276-1.041-.276-.71 0-1.446.13-2.206.39v-.879c.301-.158.668-.28 1.103-.363a6.342 6.342 0 0 1 1.316-.138c.794 0 1.379.167 1.755.501.376.326.564.828.564 1.505v4.539h-1.028zm-1.88-.778c.568 0 1.145-.213 1.73-.64V5.994a5.463 5.463 0 0 0-1.329-.163c-.944 0-1.416.364-1.416 1.09 0 .318.087.565.263.74.175.168.426.251.752.251zm8.328.627a3.821 3.821 0 0 1-1.391.238c-1.187 0-1.78-.593-1.78-1.78V3.31h-1.154v-.802l1.191-.15.188-1.806h1.016v1.78H116v.978h-1.88v3.623c0 .31.066.527.2.652.142.126.38.188.715.188a4.17 4.17 0 0 0 1.015-.125v.89z" fill="#222"/><path fill-rule="evenodd" clip-rule="evenodd" d="M96.41 20.53v-1.667a.411.411 0 0 1 .422-.421h7.463a.413.413 0 0 1 .4.256.422.422 0 0 1 .032.165v1.427c-.004.24-.205.553-.563 1.048l-3.867 5.523c1.437-.035 2.954.178 4.257.913a.764.764 0 0 1 .396.648v1.779c0 .243-.268.526-.549.38a8.599 8.599 0 0 0-7.885.013c-.26.14-.53-.14-.53-.384v-1.689c-.025-.4.07-.8.274-1.146l4.481-6.426h-3.9a.414.414 0 0 1-.43-.418zM69.184 30.933h-2.27a.43.43 0 0 1-.406-.386V18.893a.427.427 0 0 1 .438-.419h2.118a.428.428 0 0 1 .412.39v1.523h.041c.553-1.472 1.59-2.159 2.99-2.159 1.42 0 2.308.687 2.947 2.16a3.353 3.353 0 0 1 5.764-.886c.719.98.572 2.405.572 3.653l-.004 7.355a.429.429 0 0 1-.438.422h-2.266a.431.431 0 0 1-.41-.422v-6.176c0-.491.044-1.718-.063-2.184-.17-.782-.677-1.003-1.335-1.003a1.51 1.51 0 0 0-1.357.955c-.234.588-.211 1.572-.211 2.232v6.177a.43.43 0 0 1-.439.422h-2.266a.43.43 0 0 1-.409-.422l-.003-6.176c0-1.3.214-3.213-1.4-3.213-1.631 0-1.567 1.865-1.567 3.213v6.176a.43.43 0 0 1-.438.422zm41.969-12.704c3.369 0 5.193 2.893 5.193 6.573 0 3.554-2.015 6.374-5.193 6.374-3.31 0-5.11-2.893-5.11-6.499 0-3.628 1.824-6.448 5.11-6.448zm.019 2.38c-1.673 0-1.779 2.279-1.779 3.7 0 1.423-.022 4.465 1.76 4.465 1.76 0 1.843-2.452 1.843-3.947 0-.983-.042-2.159-.339-3.09-.255-.811-.763-1.128-1.485-1.128zm9.542 10.325h-2.261a.434.434 0 0 1-.408-.422l-.004-11.657a.434.434 0 0 1 .439-.38h2.104a.433.433 0 0 1 .406.327v1.782h.041c.636-1.594 1.527-2.354 3.095-2.354 1.019 0 2.012.367 2.651 1.373.593.933.593 2.501.593 3.628v7.336a.435.435 0 0 1-.438.367h-2.277a.427.427 0 0 1-.402-.367v-6.33c0-1.274.147-3.139-1.421-3.139a1.485 1.485 0 0 0-1.313.933c-.319.712-.361 1.42-.361 2.206v6.275a.436.436 0 0 1-.444.422zm-30.253-5.567c0 .885.022 1.622-.425 2.408-.36.639-.936 1.032-1.571 1.032-.872 0-1.383-.665-1.383-1.644 0-1.935 1.734-2.287 3.38-2.287l-.001.491zm2.29 5.535a.474.474 0 0 1-.537.054c-.754-.626-.89-.917-1.303-1.514-1.245 1.271-2.13 1.651-3.743 1.651-1.913 0-3.397-1.178-3.397-3.538a3.854 3.854 0 0 1 2.42-3.711c1.233-.543 2.954-.639 4.27-.79v-.293c0-.54.041-1.178-.278-1.644a1.513 1.513 0 0 0-1.274-.591c-.866 0-1.636.444-1.824 1.363a.475.475 0 0 1-.396.415l-2.2-.236a.4.4 0 0 1-.339-.476c.505-2.67 2.92-3.474 5.078-3.474 1.105 0 2.549.293 3.42 1.13 1.106 1.032 1 2.408 1 3.906v3.539c0 1.063.441 1.53.856 2.104.144.204.175.45-.01.603a96.154 96.154 0 0 0-1.74 1.508l-.003-.006zm-32.058-5.535c0 .885.022 1.622-.425 2.408-.36.639-.932 1.032-1.571 1.032-.872 0-1.38-.665-1.38-1.644 0-1.935 1.734-2.287 3.375-2.287v.491zm2.29 5.535a.474.474 0 0 1-.537.054c-.753-.626-.888-.917-1.303-1.514-1.245 1.271-2.127 1.65-3.744 1.65-1.909 0-3.397-1.177-3.397-3.537a3.858 3.858 0 0 1 2.421-3.711c1.233-.543 2.954-.639 4.27-.79v-.293c0-.54.041-1.178-.275-1.644a1.518 1.518 0 0 0-1.274-.591c-.865 0-1.638.444-1.827 1.363a.476.476 0 0 1-.393.415l-2.203-.236a.402.402 0 0 1-.339-.476c.508-2.67 2.92-3.474 5.078-3.474 1.105 0 2.549.293 3.42 1.13 1.105 1.032 1 2.408 1 3.906v3.539c0 1.063.44 1.53.856 2.104.147.204.179.45-.006.603a96.16 96.16 0 0 0-1.74 1.508l-.007-.006z" fill="#222"/><path d="M134.864 30.851l-3.963-4.805h-.02v4.805h-1.424v-13.83h1.424v7.852h.02l3.397-3.262h1.855l-4.061 3.77 4.588 5.47h-1.816zm3.476-11.173a.998.998 0 0 1-.978-1.19 1.004 1.004 0 0 1 .783-.784.994.994 0 0 1 1.023.424 1 1 0 0 1 .168.553 1 1 0 0 1-.996.996zm-.703 11.173v-9.24h1.425v9.24h-1.425zm9.436 0v-5.684c0-1.153-.195-2.442-1.601-2.442-1.133 0-2.168.8-2.87 1.407v6.72h-1.425v-9.24h1.171l.196 1.113c1.015-.781 2.011-1.348 3.3-1.348 1.327 0 2.655.957 2.655 3.262v6.212h-1.426zm7.711.196c-2.577 0-4.744-1.505-4.744-4.689 0-2.87 2.069-4.981 4.764-4.981a5.886 5.886 0 0 1 1.503.156v-4.512h1.425v13.361c-.565.332-1.639.665-2.948.665zm1.523-8.186a3.557 3.557 0 0 0-1.425-.234c-1.816 0-3.397 1.426-3.397 3.634 0 2.09 1.152 3.574 3.554 3.574.434.005.865-.074 1.269-.234l-.001-6.74zm5.135 8.186c-1.133 0-1.621-.724-1.621-1.7V17.02h1.425v11.682c0 .878.215 1.055.761 1.055.165.002.329-.018.488-.059l.176 1.035c-.377.208-.8.315-1.229.313zm3.534-4.571c0 1.758 1.016 3.34 3.007 3.34a4.423 4.423 0 0 0 2.246-.684l.449 1.016a5.61 5.61 0 0 1-2.871.898c-2.949 0-4.355-2.363-4.355-5 0-2.677 1.523-4.669 3.748-4.669 2.382 0 3.69 1.895 3.69 4.767v.332h-5.914zm2.246-3.889c-1.367 0-2.226 1.212-2.226 2.676h4.354c0-1.288-.722-2.676-2.128-2.676z" fill="#222"/><path fill-rule="evenodd" clip-rule="evenodd" d="M99.414 35.185c-4.264 3.142-10.443 4.819-15.764 4.819a28.526 28.526 0 0 1-19.257-7.348c-.4-.361-.042-.853.438-.572 5.483 3.19 12.264 5.11 19.267 5.11a38.314 38.314 0 0 0 14.697-3.005c.722-.307 1.325.472.62.996z" fill="#F90"/><path fill-rule="evenodd" clip-rule="evenodd" d="M101.187 33.157c-.543-.696-3.602-.329-4.975-.166-.419.051-.482-.313-.106-.575 2.437-1.715 6.436-1.22 6.902-.645.466.575-.121 4.586-2.411 6.499-.351.294-.687.137-.53-.252.514-1.284 1.666-4.162 1.12-4.86z" fill="#F90"/></svg>