<svg width="170" height="40" viewBox="0 0 170 40" fill="none" xmlns="http://www.w3.org/2000/svg">
<rect width="40" height="40" rx="5" fill="#222222"/>
<path d="M0 15.5567V35.1993C0 37.8507 2.16055 40 4.82573 40H14.0672C13.9415 39.816 13.9981 39.632 14.1253 39.482C14.2353 39.3511 14.3987 39.246 14.54 39.1893C14.7191 39.1436 14.8966 39.0944 15.0726 39.0417C15.503 38.9135 15.9271 38.7658 16.3434 38.599C16.4235 38.5631 16.4989 38.5205 16.5665 38.4717C16.667 38.3982 16.7503 38.3111 16.8037 38.2115C16.8822 38.0649 16.8963 37.8923 16.8131 37.6993L17.0974 37.1965L17.3252 36.8046L17.8891 35.8588L18.0352 35.6161C18.329 35.1301 18.6212 34.6441 18.9055 34.1534C18.9181 34.1081 18.9573 34.0577 18.9982 34.0061C19.0781 33.9028 19.1628 33.7934 19.0437 33.7104L18.8003 33.551L18.7977 33.5493C18.4577 33.322 18.1127 33.0916 17.6849 33.1083C17.4257 33.0931 17.1807 32.9868 16.9937 32.8079C16.9592 32.7747 16.9278 32.7395 16.8979 32.7024L16.8728 32.6704C16.755 32.5137 16.6827 32.3281 16.6639 32.1328C16.4125 31.8874 16.147 31.653 15.8769 31.4229L15.3962 31.0181L15.0537 30.7314L14.7144 30.4399C14.4505 30.2575 14.76 30.0172 14.9233 29.9199C15.0129 29.8719 15.0977 29.8152 15.181 29.7543L15.3993 29.5832C15.6287 29.3984 15.8596 29.214 16.1345 29.1389C16.3701 29.3046 16.5979 29.4812 16.8209 29.664C17.1304 29.9188 17.4336 30.186 17.7352 30.4528L17.7446 30.4634C18.0164 30.7048 18.2881 30.9463 18.5662 31.1783C18.6526 31.3295 18.5348 31.4674 18.4154 31.6069C18.3056 31.7349 18.194 31.865 18.2379 32.0074C18.3793 32.1328 18.4971 32.2824 18.585 32.4492C18.8285 32.5227 19.083 32.5414 19.3375 32.543L20.0617 32.5336L20.2627 32.5403C20.712 32.6543 20.9052 32.2742 21.0796 31.93C21.1283 31.8343 21.1754 31.7417 21.2257 31.6632C21.2131 31.5698 21.221 31.4831 21.243 31.4006C21.2555 31.3522 21.2744 31.3053 21.2964 31.2592L21.3608 31.1424L21.4849 30.9533L21.5996 30.7798C21.631 30.7302 21.6592 30.6798 21.6828 30.6279C21.8509 30.3536 22.0504 30.102 22.2782 29.8781C22.4965 29.6644 22.74 29.4757 23.0023 29.3163C23.0385 28.9051 22.6759 29.0099 22.4057 29.0881L22.3159 29.1132L22.2405 29.1307C22.1466 29.0113 22.0122 28.9825 21.8776 28.9537C21.7221 28.9209 21.5666 28.8873 21.4755 28.7154C21.4252 28.6053 21.3027 28.6049 21.1881 28.6045C21.0624 28.6045 20.9476 28.6041 20.9524 28.456C21.0152 27.8645 20.5471 27.516 20.1198 27.198L19.947 27.0675C19.8684 27.0222 19.8025 26.9601 19.7506 26.8859L19.7051 26.8077C19.6784 26.7542 19.6611 26.6972 19.6501 26.6378C19.636 26.5491 19.6422 26.4577 19.6658 26.3713C19.6909 26.2846 19.7349 26.2045 19.7962 26.1369C19.8684 26.0381 19.9376 25.9365 20.0035 25.8337L20.2266 25.4833C20.3507 25.2852 20.4748 25.0871 20.6099 24.8981C20.7261 24.734 20.8502 24.5765 20.9901 24.432C21.6938 23.8639 22.6002 24.2534 23.3228 24.5691C23.871 24.9903 24.2418 25.5989 24.3627 26.2772C24.4208 26.4999 24.4036 26.7351 24.3847 26.9691C24.3549 27.341 24.3266 27.7086 24.6109 28.0134C24.7209 28.104 24.8356 28.19 24.9534 28.2712C25.0979 28.3709 25.2471 28.4627 25.4011 28.5467C25.5927 28.6514 25.7922 28.744 25.998 28.8233C26.6481 29.1529 26.9592 29.8301 27.2506 30.4646L27.2531 30.47L27.3395 30.656C27.6804 31.5272 27.9459 32.4258 28.1344 33.3419C28.1517 33.3982 28.158 33.4599 28.1642 33.5221L28.1674 33.5443C28.1737 33.6225 28.1815 33.701 28.2067 33.7701C28.2271 33.8244 28.2569 33.8733 28.3072 33.9124C28.934 33.3353 29.4461 32.6457 29.8137 31.8792C30.0556 31.2444 30.2519 30.5939 30.4012 29.9328C30.5268 29.3792 30.6195 28.8182 30.6777 28.2525C30.8881 27.3859 31.0248 26.5042 31.0892 25.6169C31.1096 25.329 31.1222 25.0403 31.1269 24.7512C31.1301 24.5019 31.1285 24.2526 31.1206 24.0034L31.0798 23.6768C31.0185 23.1486 30.9526 22.5825 30.5755 22.1996C30.3242 22.2304 30.1059 22.1871 29.9032 22.1015C29.798 22.057 29.6974 22.0007 29.6 21.9374C29.4555 21.8441 29.3173 21.7351 29.179 21.6261C29.0691 21.5401 28.9591 21.4542 28.846 21.3748C28.6873 21.2631 28.5208 21.1654 28.337 21.1021C28.2412 21.031 28.1533 20.9525 28.0684 20.8701C27.9991 20.8035 27.9333 20.7345 27.867 20.665L27.8359 20.6325L27.6946 20.4868C27.5846 20.3751 27.4715 20.2669 27.3458 20.1719L27.2783 20.1192L27.195 20.0422L27.0803 19.918C26.9659 19.7912 26.8523 19.6655 26.7049 19.6058C26.6735 19.5933 26.6421 19.5835 26.6075 19.5773C26.5494 19.5664 26.4866 19.5656 26.4159 19.5777C26.5368 19.4933 26.6468 19.3831 26.485 19.2737C26.4677 19.2479 26.4504 19.2312 26.4347 19.2214C26.4221 19.214 26.4096 19.2104 26.397 19.2104C26.3813 19.2104 26.3672 19.2155 26.353 19.2241C26.3279 19.2382 26.3028 19.262 26.2776 19.2866L26.2336 19.3284C26.1959 19.3605 26.1567 19.3835 26.1111 19.3741C26.1111 19.3484 26.1143 19.321 26.1205 19.2929L26.1488 19.1921C26.1897 19.0596 26.2305 18.9272 26.0797 18.8616C26.0561 18.8959 26.0247 18.9233 25.987 18.9409C25.9493 18.9588 25.9069 18.9663 25.8661 18.9631L25.8189 18.9538C25.7938 18.9471 25.7702 18.9362 25.7498 18.9221L25.709 18.8862L25.6933 18.8666L25.6713 18.8287C25.6194 18.8518 25.6006 18.9291 25.5849 19.0046L25.5839 19.0088C25.5575 19.1186 25.5329 19.2215 25.3995 19.1409C25.282 19.0544 25.2567 19.1579 25.2316 19.2604L25.2173 19.3155L25.1984 19.3636C25.1733 19.4128 25.1356 19.4316 25.0571 19.3648C24.8701 19.0987 24.6675 19.2663 24.6361 19.5081C24.4476 19.6695 24.358 19.4249 24.4711 19.2632C24.5072 19.1594 24.6028 19.0969 24.6954 19.0364C24.8289 18.9505 24.9565 18.8682 24.8858 18.676C24.8264 18.5465 24.6939 18.6217 24.5827 18.6848C24.4634 18.7532 24.369 18.8072 24.4271 18.5639C24.5952 18.5639 24.6754 18.4623 24.7593 18.3559L24.7617 18.3529L24.7681 18.345C24.8021 18.3026 24.8364 18.2599 24.8748 18.2232C24.9094 18.1915 24.9487 18.1642 24.9974 18.145C25.1953 17.9665 24.8513 17.7751 24.6848 17.868C24.669 17.9048 24.6659 17.9556 24.6628 18.0075C24.6581 18.1075 24.6518 18.2134 24.5465 18.2388C24.4203 18.257 24.3528 18.3533 24.2873 18.4468L24.2858 18.449C24.2056 18.565 24.1287 18.6756 23.9496 18.6248C23.741 18.8284 23.8706 19.0179 24.0054 19.2152C24.1327 19.4012 24.2653 19.5957 24.1255 19.8144C24.0674 19.9293 24.014 19.8449 23.9574 19.7527L23.9072 19.6797C23.8883 19.6535 23.8679 19.632 23.8475 19.6211C23.8208 19.6066 23.7909 19.6101 23.7595 19.6449C23.7032 19.7086 23.6719 19.7875 23.6406 19.866L23.5946 19.9774C23.5757 20.0176 23.5522 20.0559 23.5223 20.0899C23.3731 19.8938 23.2851 19.6582 23.271 19.4128C23.2301 19.4058 23.194 19.4148 23.161 19.4335C23.1097 19.4635 23.0671 19.5187 23.0235 19.5753L23.0181 19.5824C22.9317 19.6965 22.8437 19.8125 22.6835 19.7379C22.6646 19.6722 22.6772 19.6164 22.707 19.566C22.7447 19.4996 22.8123 19.4425 22.8814 19.3859C22.9489 19.3296 23.0149 19.2737 23.0526 19.2093C23.0825 19.1581 23.0935 19.1014 23.0715 19.035C22.9238 19.0202 22.7887 19.076 22.6552 19.1315C22.5908 19.1581 22.5264 19.1847 22.462 19.2034C22.4227 19.2147 22.3834 19.2229 22.3426 19.2269C22.2546 19.2347 22.1635 19.2214 22.0661 19.1702C22.1682 18.9897 22.484 18.4134 22.0897 18.4818C21.9043 18.7408 21.6357 18.9303 21.3278 19.019C21.2006 18.9487 21.276 18.8518 21.3592 18.7455L21.3605 18.7438C21.4387 18.6427 21.5237 18.5328 21.444 18.4287L21.4158 18.3763C21.4016 18.3455 21.3953 18.3138 21.3906 18.2818C21.3828 18.2036 21.3985 18.122 21.4142 18.0407C21.4299 17.9649 21.444 17.8899 21.4393 17.8184C21.4362 17.7731 21.4252 17.7294 21.4001 17.6879C21.2477 17.7547 21.2241 17.9044 21.2006 18.0571C21.1755 18.2203 21.1496 18.3887 20.9649 18.4635C20.8446 18.4304 20.9201 18.2787 20.9828 18.1529L20.9838 18.1509C21.0466 18.0267 21.0953 17.9286 20.9288 17.9993C20.8598 18.0956 20.7861 18.0522 20.7094 18.007C20.6324 17.9609 20.5517 17.9126 20.4685 18.0091C20.4497 18.047 20.4151 18.0876 20.379 18.1294C20.2847 18.2384 20.1826 18.3576 20.3083 18.4681C20.3771 18.5416 20.312 18.5989 20.251 18.6526C20.2259 18.6737 20.2015 18.6951 20.1873 18.7158C20.1591 18.8143 20.2376 18.8342 20.3177 18.8537C20.412 18.8772 20.5047 18.9006 20.4198 19.0553C20.4151 19.0792 20.4073 19.0956 20.3947 19.1065C20.3837 19.1159 20.3711 19.1214 20.357 19.1237C20.3271 19.1288 20.2894 19.1214 20.2517 19.1139C20.1716 19.0979 20.0884 19.0819 20.0774 19.1862C20.0428 19.2905 20.1276 19.3241 20.2156 19.3581C20.3193 19.398 20.4245 19.439 20.3429 19.5949C20.2062 19.6961 20.0444 19.7582 19.8747 19.7746C19.8763 19.8785 19.9574 19.9514 20.0387 20.0246C20.0749 20.0566 20.1119 20.0895 20.1418 20.125L20.1748 20.1735C20.2093 20.2317 20.2219 20.2993 20.1873 20.3864C20.1559 20.3973 20.1324 20.3958 20.1135 20.3872C20.1009 20.3813 20.0899 20.372 20.0789 20.3606L20.0428 20.3094L20.0145 20.2688L19.9973 20.2485C19.9784 20.2313 19.9548 20.2219 19.9219 20.2297C19.8119 20.3114 19.8606 20.456 19.8967 20.5599L19.8978 20.5632C19.9349 20.6725 19.9559 20.7346 19.7491 20.6263C19.4841 21.1125 19.396 20.6418 19.3394 20.3397L19.3092 20.1918C19.1553 20.1743 19.1081 20.3208 19.061 20.4739C19.0109 20.63 18.9582 20.7943 18.7877 20.7978C18.7877 20.604 18.8317 20.413 18.9181 20.2395C18.9495 20.1743 18.9872 20.1121 19.0296 20.0535C19.0642 20.0051 19.1034 19.959 19.1443 19.916L19.1993 19.8637L19.2809 19.7953C19.2527 19.7449 19.2354 19.6886 19.2228 19.6304L19.1977 19.5015C19.1741 19.3612 19.1506 19.2218 19.0469 19.1237C18.8568 19.2171 18.9432 19.3886 19.0202 19.5402C19.0453 19.5878 19.0689 19.6336 19.0814 19.6742C19.0327 19.6949 18.9715 19.698 18.9118 19.7008L18.8332 19.7058L18.7688 19.7187C18.6903 19.7437 18.64 19.807 18.6714 19.9797C18.4641 20.2751 18.2913 19.8266 18.351 19.6191C18.4986 19.439 18.1389 19.1987 18.0871 19.4374C18.0054 19.5609 18.018 19.6332 18.0635 19.6828C18.0855 19.7078 18.1169 19.7269 18.1499 19.7445L18.1829 19.7617C18.2861 19.8154 18.3771 19.8627 18.2065 20.0246L18.1499 20.0215C18.0934 20.0164 18.0337 20.0067 17.9693 19.9957L17.9457 19.9922L17.9352 19.9905C17.8457 19.9757 17.752 19.9603 17.6582 19.9543C17.443 19.9402 17.2325 19.9754 17.1021 20.1786C17.066 20.1938 17.0377 20.1961 17.0157 20.1891C16.9812 20.1778 16.9623 20.1442 16.9498 20.0996C16.9388 20.0561 16.9341 20.0021 16.9294 19.9485C16.9231 19.8746 16.9152 19.8008 16.8916 19.757L16.9827 19.7797C17.1273 19.8191 17.2891 19.8629 17.3582 19.6859C17.355 19.5734 17.3802 19.4617 17.4304 19.3609C17.4823 19.2601 17.5577 19.1733 17.6504 19.1085C17.7713 18.8084 17.355 18.9174 17.1964 18.9795C17.1555 18.6572 17.5624 18.5697 17.7902 18.7018C17.8326 18.6854 17.8514 18.665 17.8546 18.6424C17.8577 18.6201 17.8467 18.5959 17.8295 18.5705L17.7855 18.5154L17.754 18.4756C17.7352 18.4509 17.7195 18.4267 17.7148 18.4041C17.7085 18.3697 17.7242 18.3384 17.787 18.3134L17.8954 18.3013L18.0148 18.2982C18.0981 18.2974 18.1766 18.2966 18.2363 18.2798C18.3306 18.2529 18.3777 18.1857 18.3086 18.0122C18.3808 17.9571 18.4798 17.9153 18.5819 17.8723C18.7531 17.8008 18.9338 17.7251 19.006 17.5778C18.8962 17.3923 18.6906 17.5314 18.5273 17.642C18.4315 17.7076 18.3494 17.7633 18.3117 17.734C18.285 17.7126 18.2803 17.6469 18.3101 17.509C18.3428 17.463 18.4186 17.4192 18.4964 17.3743L18.4986 17.373C18.6523 17.2853 18.8125 17.1939 18.6463 17.0781C18.5621 17.0738 18.5336 17.0034 18.5071 16.9378C18.4741 16.8569 18.4437 16.7827 18.3211 16.8515C18.428 17.1793 18.2504 17.3762 18.0682 17.577C17.9708 17.6844 17.8734 17.793 17.8169 17.9235C17.5263 17.743 17.3142 17.9614 17.1383 18.1431L17.121 18.1611C16.8524 17.9493 16.6057 18.1282 16.3717 18.3158C16.2711 18.2923 16.2052 18.2255 16.1533 18.1411C16.1161 18.0805 16.088 18.0112 16.0601 17.9421L16.0591 17.9395C15.9728 17.7328 15.8874 17.5282 15.6051 17.5785L15.5752 17.6051C15.5438 17.6371 15.5203 17.6747 15.5014 17.7145C15.481 17.7606 15.4669 17.8106 15.4543 17.8606L15.4449 17.8864L15.4401 17.9063L15.404 18.0106C15.327 18.0216 15.2626 18.0528 15.2045 18.0958C15.1291 18.1525 15.0678 18.2294 15.0066 18.3064C14.9076 18.4318 14.8071 18.5572 14.6484 18.5939L14.694 18.4248C14.7725 18.1138 14.8589 17.7782 15.1888 17.6454C15.1857 17.5383 15.2469 17.4223 15.3066 17.3105C15.4197 17.1011 15.5234 16.9077 15.1731 16.8191C14.9949 16.7012 14.9582 16.8404 14.9238 16.9711L14.9223 16.977C14.9038 17.0489 14.8865 17.1167 14.8464 17.1363C14.8291 17.1445 14.8071 17.1441 14.7804 17.1316C14.7552 17.1203 14.7254 17.0988 14.6893 17.0648C14.4222 16.9206 14.4552 17.0925 14.4851 17.2433C14.5102 17.3687 14.5322 17.4789 14.3735 17.3781C14.2557 17.3045 14.2404 17.3815 14.2219 17.4744L14.2211 17.4781C14.2164 17.5074 14.2101 17.5383 14.2007 17.566C14.1944 17.5864 14.185 17.6055 14.174 17.6211C14.1646 17.634 14.152 17.6446 14.1379 17.652C14.0268 17.7201 14.0762 17.8079 14.1278 17.8997L14.1583 17.9548C14.1772 17.9938 14.1929 18.0333 14.1913 18.072C14.1332 18.0423 14.0672 18.0282 14.0028 18.0317C13.9368 18.0349 13.874 18.0552 13.819 18.0907C13.7656 18.1263 13.72 18.1755 13.6918 18.2333C13.6619 18.2915 13.6478 18.356 13.6525 18.4209C13.5708 18.4193 13.4907 18.422 13.4106 18.4287C13.31 18.4369 13.2111 18.4513 13.1121 18.472C13.1404 18.2924 13.2597 18.1713 13.3775 18.0517L13.497 17.9239L13.5441 17.8653C13.5849 17.8067 13.6164 17.7426 13.6305 17.6684L13.6384 17.6047L13.6368 17.5387C13.7483 17.3543 13.7012 17.2973 13.6164 17.3141C13.541 17.3289 13.4341 17.402 13.3839 17.4957C13.2472 17.418 13.1357 17.3023 13.065 17.1625C12.9943 17.023 12.9676 16.8655 12.9864 16.7104C12.7948 16.6292 12.7147 16.7616 12.6393 16.8886L12.5906 16.966C12.1507 16.8491 12.1099 17.6063 12.534 17.6024C12.5827 17.6067 12.6298 17.6278 12.6723 17.6594C12.7225 17.6969 12.7665 17.7493 12.7948 17.8063C12.8231 17.8645 12.8372 17.9274 12.8294 17.9841C12.8262 18.0067 12.8199 18.0286 12.8089 18.0485C12.7964 18.0747 12.7744 18.0978 12.7461 18.1169C12.7414 17.9294 12.3314 17.6539 12.3392 17.9149C12.3813 17.9542 12.4349 17.9884 12.4876 18.0221L12.4948 18.0267C12.5824 18.0831 12.6692 18.139 12.7068 18.2134C12.7241 18.2494 12.7304 18.2896 12.7194 18.3369C12.71 18.3775 12.688 18.4232 12.6487 18.4752C12.5859 18.7088 12.5026 18.6057 12.4005 18.4752C12.3078 18.358 12.1963 18.2185 12.0675 18.2857C11.9387 18.3759 12.0031 18.517 12.0643 18.6506C12.1285 18.7911 12.1895 18.9246 12.0188 18.9823C11.7533 18.8217 11.3574 18.8186 11.3307 19.2058C11.0951 19.2733 11.0527 19.0819 11.015 18.9092C10.9773 18.7397 10.9427 18.5881 10.7338 18.7182C10.7008 18.8705 10.5453 19.2831 10.4369 18.9549C10.4699 18.8092 10.4416 18.7104 10.3898 18.6561C10.3442 18.6076 10.2798 18.5939 10.2248 18.6131C10.129 18.6459 10.0615 18.7768 10.162 18.994C10.0725 18.9987 10.0065 18.9627 9.9515 18.9081C9.89495 18.8518 9.85097 18.776 9.81012 18.7041C9.76143 18.6182 9.7143 18.5377 9.65304 18.5033C9.6012 18.4744 9.53836 18.4787 9.45354 18.5412C9.37085 18.6375 9.33443 18.7565 9.29773 18.8765L9.29488 18.8858C9.25089 19.0358 9.20534 19.1862 9.07181 19.2929C8.92212 19.2386 8.98912 19.0523 9.0485 18.8871L9.04982 18.8834L9.05175 18.878C9.11064 18.7127 9.16089 18.5717 8.97442 18.6092L8.88645 18.7057C8.83147 18.7682 8.76392 18.8444 8.70737 18.8975C8.61312 18.9842 8.544 19.01 8.59426 18.8139C8.8566 18.5635 8.38534 18.3998 8.23139 18.6092L8.18427 18.6697C8.1547 18.7108 8.12104 18.7575 8.08844 18.776C8.05546 18.7944 8.02404 18.7869 7.99733 18.7229C7.91751 18.5691 8.02483 18.4879 8.13283 18.4061L8.13645 18.4034C8.21106 18.3466 8.28653 18.2891 8.30051 18.2064C8.24554 18.2071 8.18612 18.2204 8.12513 18.2341L8.11986 18.2353C7.97534 18.2685 7.82454 18.3025 7.72557 18.1704C7.69756 18.1197 7.72505 18.0353 7.75153 17.9539L7.75228 17.9517L7.75404 17.946C7.78954 17.8321 7.82252 17.7263 7.70044 17.729C7.56848 17.7653 7.52921 17.8485 7.53235 17.9513C7.5355 18.031 7.56377 18.1224 7.59205 18.2138L7.59676 18.2259L7.64389 18.381C7.65174 18.4107 7.65645 18.4392 7.65802 18.4662L7.65645 18.5408C7.60618 18.5783 7.5732 18.574 7.54649 18.5494C7.52293 18.5287 7.50408 18.4947 7.48523 18.4595C7.43967 18.372 7.3894 18.2779 7.25902 18.3709C7.15534 18.6002 6.94485 18.4826 6.83488 18.3517C6.71393 18.3873 6.6668 18.4455 6.66052 18.515C6.6558 18.5674 6.67465 18.626 6.70136 18.6854L6.76105 18.8033C6.7909 18.8596 6.81918 18.9143 6.83488 18.9627C6.64481 18.9428 6.68408 19.0788 6.72178 19.2065C6.74692 19.2913 6.77048 19.3726 6.72492 19.4023C6.68408 19.3812 6.64795 19.3726 6.61339 19.3726C6.58354 19.3726 6.55684 19.3792 6.53013 19.3902C6.48672 19.4077 6.44616 19.4365 6.40437 19.4662L6.39818 19.4706C6.34006 19.5132 6.28036 19.5566 6.20967 19.5707L6.17669 19.5398C6.02274 19.3964 5.76983 19.1597 5.90492 18.9526C6.06201 18.7658 6.20496 18.0509 5.95205 18.2107C6.00075 18.3076 6.01174 18.3873 5.99918 18.456C5.99132 18.5025 5.97247 18.5443 5.94734 18.5834C5.91121 18.6397 5.86251 18.6904 5.81224 18.7416C5.69757 18.8584 5.58132 18.9784 5.61117 19.1749C5.6096 19.3062 5.46351 19.4566 5.37868 19.4667C5.35355 19.4695 5.3347 19.4601 5.32684 19.4343C5.31742 19.4077 5.32056 19.3632 5.34098 19.296C5.30014 18.9706 5.46508 18.7193 5.62531 18.4756C5.76474 18.2628 5.90176 18.0538 5.89393 17.8075C5.72226 17.7741 5.66532 17.9069 5.6076 18.0416L5.60646 18.0442C5.54372 18.1894 5.48049 18.3356 5.27657 18.2751C5.18921 18.1715 5.23664 18.0756 5.285 17.9779L5.28818 17.9715C5.32049 17.9061 5.35337 17.8395 5.34569 17.7696C5.14998 17.7201 5.11812 17.8422 5.0837 17.9742L5.08186 17.9809C5.06821 18.0304 5.05425 18.081 5.03152 18.1236L5.0111 18.1568C4.99539 18.1775 4.97497 18.195 4.9514 18.2087C4.9247 18.1572 4.88857 18.1118 4.84301 18.0751L4.76918 18.0274C4.74405 18.0142 4.71734 18.0036 4.68907 17.9958C4.63251 17.9798 4.57439 17.9755 4.51627 17.9833C4.48799 17.9868 4.45972 17.9935 4.43301 18.0028C4.40474 18.0126 4.37803 18.0251 4.3529 18.0399C4.35761 18.0181 4.36547 17.9954 4.37646 17.9727L4.40788 17.9098L4.40937 17.9069C4.434 17.8579 4.45821 17.8097 4.46129 17.7665C4.46286 17.7469 4.45972 17.7286 4.45029 17.711C4.43616 17.6864 4.40945 17.6645 4.3639 17.6465C4.25506 17.6995 4.16659 17.7876 4.07749 17.8764L4.067 17.8868C4.01987 17.9341 3.97275 17.9813 3.92405 18.0235C3.84551 18.0911 3.75911 18.145 3.65543 18.1642C3.646 18.0876 3.66643 18.0204 3.69941 17.9571C3.71954 17.9181 3.7454 17.8805 3.77111 17.8431L3.78424 17.8239L3.79542 17.8075C3.82954 17.7575 3.86369 17.7075 3.88635 17.6543L3.8188 17.5321C3.72627 17.3737 3.62601 17.2021 3.83922 17.0968C4.00259 17.0105 4.14083 16.8831 4.23822 16.7272C4.33719 16.5714 4.39374 16.3928 4.4016 16.2088C4.2245 16.1472 4.17562 16.3022 4.13171 16.4415L4.13098 16.4438C4.08561 16.5854 4.04607 16.7088 3.88321 16.5678C3.80309 16.3944 3.70099 16.4584 3.59731 16.5237C3.51091 16.578 3.42294 16.6331 3.34597 16.5503C3.32869 16.2854 3.5329 16.1381 3.73712 15.9916C3.93316 15.8508 4.12983 15.7095 4.12669 15.4661C4.07171 15.4552 4.02144 15.454 3.97432 15.4606C3.92248 15.4677 3.87692 15.4837 3.83294 15.5063C3.76225 15.5423 3.69941 15.5954 3.63972 15.6568C3.57531 15.7224 3.51719 15.7974 3.46064 15.8709L3.44336 15.8923L3.32555 16.0373C3.09306 16.4565 2.63593 16.5284 2.18509 16.5991L1.98873 16.6311L1.87563 16.6526L1.75467 16.6804C1.69655 16.6952 1.64 16.712 1.58659 16.7315C1.52846 16.7495 1.46877 16.7636 1.40908 16.7741C1.35252 16.7843 1.2944 16.7909 1.23628 16.7941C1.10747 16.8011 0.977085 16.7913 0.849844 16.7644C0.810572 16.7155 0.819997 16.6874 0.852986 16.6694C0.884403 16.6522 0.936242 16.6444 0.986511 16.637L1.04463 16.6276L1.09019 16.6159C1.10904 16.6085 1.12161 16.5987 1.12004 16.5843C1.12004 16.5717 1.11061 16.5565 1.09019 16.5366C0.852785 16.5976 0.866952 16.4701 0.882562 16.3296L0.882833 16.3272C0.896924 16.2088 0.912152 16.0809 0.780726 16.0486C0.636205 16.1088 0.474405 16.1146 0.326742 16.065C-0.281187 16.0865 0.471263 15.7072 0.689615 15.8275C0.840419 15.8572 0.940955 15.7955 0.988081 15.715C1.06663 15.5802 0.994365 15.393 0.755592 15.4966C0.718149 15.4326 0.686279 15.3781 0.648772 15.3512C0.601646 15.3176 0.546665 15.3251 0.461838 15.4032C0.422566 15.379 0.37701 15.3637 0.331455 15.3583C0.2859 15.3532 0.238773 15.3579 0.194789 15.3727C0.150804 15.3872 0.109961 15.4114 0.0769729 15.4431C0.0424137 15.4751 0.0172796 15.5138 0 15.5567Z" fill="#4083C3"/>
<path d="M39.9969 17.415V16.1851C39.9969 16.2142 39.9976 16.2433 39.9984 16.2724C39.9992 16.3015 40 16.3309 40 16.3602V30.7624C40 30.7918 39.9992 30.821 39.9984 30.8502C39.9976 30.8793 39.9969 30.9084 39.9969 30.9375V29.4192C38.9161 29.1989 37.7426 28.811 37.086 27.8678C36.2716 26.265 36.208 24.4579 36.1453 22.6735L36.1451 22.6678C36.1215 21.9825 36.0979 21.3008 36.032 20.6351C35.9096 20.2722 36.1978 20.1466 36.4755 20.0256C36.5698 19.985 36.6635 19.9443 36.7389 19.8959C36.8754 19.849 37.0214 19.8131 37.1706 19.7764L37.1734 19.7757C37.5009 19.695 37.8376 19.6121 38.0914 19.4107L38.1856 19.3267L38.2658 19.2337L38.3317 19.1372C38.3977 18.9481 38.4998 18.7902 38.6239 18.6504C38.7119 18.5504 38.8108 18.4597 38.9161 18.3734C39.014 18.2944 39.1147 18.2193 39.2156 18.144L39.2334 18.1308C39.3591 18.0374 39.4848 17.944 39.6026 17.8432C39.6638 17.7917 39.722 17.7385 39.7769 17.6826C39.857 17.6006 39.9324 17.5123 39.9969 17.415Z" fill="#4083C3"/>
<path d="M33.1117 15.0701L33.1141 15.0693C33.2783 15.0125 33.453 14.9521 33.5343 14.7845C33.5673 14.7951 33.616 14.7881 33.6694 14.7802C33.7742 14.7655 33.8893 14.7492 33.8987 14.8693C33.9081 15.1206 33.8236 15.3551 33.7388 15.5899C33.6666 15.7888 33.594 15.989 33.5783 16.1992C33.5673 16.4971 33.3507 16.5117 33.131 16.5266L33.1275 16.5268C32.9981 16.5357 32.8675 16.5447 32.7755 16.6129C32.4802 16.3645 32.609 15.9375 32.7111 15.6003L32.719 15.5749L32.7347 15.5214C32.6892 15.216 32.8938 15.1454 33.1117 15.0701Z" fill="#4083C3"/>
<path d="M28.2656 16.148C28.0205 16.3176 28.0912 16.5149 28.1634 16.7134L28.1996 16.8134C28.231 16.9165 28.2483 17.0185 28.2074 17.1158C28.0755 17.0501 27.7786 16.9845 27.8618 17.2353C27.9451 17.3928 27.8383 17.3486 27.7252 17.3009C27.6702 17.2779 27.6121 17.2537 27.5744 17.2525C27.4613 17.2759 27.411 17.1533 27.3749 17.0607C27.3592 17.0228 27.345 16.99 27.3309 16.9743C27.3073 16.9497 27.2806 16.9685 27.2351 17.0798C27.1644 17.2713 27.1392 17.1834 27.1062 17.0638C27.0717 16.938 27.0261 16.777 26.9067 16.8712C26.8502 17.1959 27.2562 17.413 27.528 17.5584L27.5728 17.5826L27.5869 17.5904C27.8383 17.6975 27.9671 17.9159 28.0943 18.1339C28.1823 18.2835 28.2703 18.4324 28.3975 18.5445C28.4525 18.5926 28.5138 18.634 28.5844 18.6656C28.696 18.6883 28.8012 18.7242 28.9018 18.7684C29.0548 18.836 29.2002 18.9226 29.3456 19.0091L29.3526 19.0133C29.4468 19.0696 29.5411 19.1258 29.6385 19.177C29.7626 19.243 29.8914 19.3009 30.0296 19.3392C30.2527 19.3806 30.6706 19.311 30.6109 18.9969C30.5182 18.6449 30.3517 18.316 30.1239 18.0315C29.8961 17.7471 29.6102 17.5135 29.285 17.3455C29.2583 17.3189 29.2348 17.3107 29.2128 17.3142C29.1768 17.3198 29.1465 17.356 29.1165 17.3919L29.1123 17.3971C29.095 17.4189 29.0777 17.44 29.0604 17.4533C29.029 17.4791 28.9944 17.4775 28.9536 17.4021C28.9976 17.1908 28.8546 17.1709 28.7117 17.1513C28.6551 17.1435 28.5986 17.1357 28.553 17.115C28.5373 17.1076 28.5232 17.099 28.5122 17.088C28.487 17.0654 28.4713 17.0333 28.4698 16.9872C28.4682 16.9556 28.4603 16.9247 28.4493 16.8946L28.4164 16.8286L28.3567 16.736L28.3554 16.7342C28.2726 16.6122 28.1923 16.4939 28.3174 16.3606C28.3975 16.3156 28.4368 16.2379 28.4242 16.1867C28.4132 16.143 28.3629 16.118 28.2656 16.148Z" fill="#4083C3"/>
<path d="M37.5259 17.2838C37.3578 17.3967 37.1818 17.4998 37.0043 17.6029C36.8378 17.6998 36.6713 17.7967 36.5127 17.9022C36.2613 18.0686 36.0288 18.2562 35.845 18.498C35.7021 18.6027 35.6832 18.8828 35.911 18.8781L36.1749 18.8375C36.7153 18.7602 37.3358 18.6711 37.4929 18.0706L37.5416 17.935L37.5429 17.9316C37.6324 17.6879 37.7619 17.3351 37.5259 17.2838Z" fill="#4083C3"/>
<path d="M19.4388 18.3855C19.1639 18.5422 19.0618 19.0551 19.4152 19.1544C19.3948 18.9293 19.4247 18.7023 19.5032 18.4902C19.5503 18.4125 19.5488 18.321 19.4388 18.3855Z" fill="#4083C3"/>
<path d="M22.0936 31.9181C22.1454 31.6477 22.3968 31.4575 22.6355 31.2774L22.6433 31.2715C22.7302 31.2059 22.8152 31.1418 22.8869 31.0758C22.9167 31.0648 22.9466 31.0609 22.9733 31.0648C23.0047 31.0691 23.033 31.0836 23.0502 31.1086C23.0644 31.1273 23.0738 31.1523 23.0754 31.1844C23.2859 31.6665 23.5215 32.1373 23.7823 32.5944C23.5199 32.5033 23.2592 32.4025 23 32.2974L22.2098 31.9665L22.191 31.9595L22.0936 31.9181Z" fill="#4083C3"/>
<path d="M19.9116 36.148C20.3106 35.689 20.7096 35.2295 21.0851 34.7506C21.3898 34.7892 21.6474 34.9771 21.9082 35.1678L22.1486 35.3378L22.2287 35.3889L22.3292 35.4475C22.3889 35.4804 22.4486 35.5093 22.5114 35.5335L22.8099 35.6991C22.9843 35.8011 23.1523 35.9113 23.3157 36.0289C22.7204 36.4059 22.092 36.7274 21.4385 36.9892C20.7725 37.0869 20.1253 37.283 19.4812 37.4787C19.2299 37.5557 18.977 37.6323 18.7225 37.703C18.5622 37.7475 18.402 37.7897 18.2418 37.828C18.1805 37.608 18.2606 37.4674 18.3989 37.3994C18.5261 37.3377 18.7021 37.3361 18.8607 37.3896C19.0398 37.1658 19.2236 36.9458 19.4105 36.7278L19.9116 36.148Z" fill="#4083C3"/>
<path d="M29.3259 13.9219C29.1368 14.0471 29.2069 14.2832 29.3024 14.4479L29.3039 14.4505L29.3683 14.5661C29.4123 14.6455 29.461 14.7248 29.5113 14.8049L29.5301 14.8349C29.7623 15.2049 30.0075 15.5954 29.882 16.0468C29.7987 16.6411 30.5229 17.0048 31.0334 16.9978C31.2109 16.729 31.2863 16.418 31.3602 16.1066C31.4277 15.8242 31.4953 15.5417 31.6398 15.2893C31.9178 14.9588 31.7733 14.5833 31.6335 14.2239L31.6257 14.2052L31.5408 13.9688C31.3775 13.918 30.6454 13.707 30.4805 13.707L30.2747 13.7035C30.1789 13.6988 30.0831 13.6867 29.9872 13.6574C29.8019 13.8149 29.5694 13.9078 29.3259 13.9219Z" fill="#4083C3"/>
<path d="M5.17554 4.04272C5.51342 4.11469 5.99925 3.87877 6.26916 4.13068C6.28915 6.04668 6.26483 7.96269 6.28016 9.87869C7.17385 9.20392 7.91025 8.26525 8.76229 7.51551C9.21808 7.48345 9.6753 7.47699 10.1318 7.49618C9.23213 8.42319 8.30379 9.32388 7.3961 10.2442C7.36744 10.4881 7.5987 10.6294 7.73132 10.8C8.59002 11.922 9.57501 12.9566 10.3744 14.1172C9.95755 14.0899 9.4957 14.1965 9.10517 14.0689C8.0832 13.0796 7.33912 11.84 6.3548 10.817C6.16053 11.842 6.3388 13.0329 6.27249 14.1192C5.89062 14.1192 5.50842 14.1342 5.12689 14.1169C5.11989 10.81 5.12889 7.50252 5.12256 4.19566C5.12422 4.13902 5.11789 4.07371 5.17554 4.04272ZM24.6291 4.04272C24.99 4.09003 25.4382 3.93009 25.7641 4.08836C25.7684 7.33457 25.7777 10.5818 25.7594 13.8276C25.1277 14.1172 24.4436 14.2751 23.7489 14.2915C23.0542 14.308 22.3635 14.1827 21.7188 13.9233C19.4026 12.938 19.3256 9.35154 21.2753 7.96202C21.7168 7.65287 22.2185 7.44021 22.7476 7.3379C23.2768 7.23559 23.8216 7.24592 24.3465 7.36823C24.3614 7.38558 24.3809 7.39827 24.4028 7.40478C24.4247 7.4113 24.448 7.41136 24.4699 7.40496C24.4918 7.39855 24.5115 7.38596 24.5264 7.36868C24.5413 7.35141 24.551 7.33019 24.5541 7.30758C24.6491 6.23329 24.4855 5.08669 24.6291 4.04272ZM23.4442 8.27124C23.0453 8.26302 22.6511 8.35926 22.3009 8.55039C21.9506 8.74153 21.6565 9.02093 21.4475 9.36087C21.1886 9.85149 21.0645 10.4021 21.0879 10.9563C21.1113 11.5106 21.2814 12.0487 21.5808 12.5158C22.0549 12.996 22.683 13.2937 23.3549 13.3565C23.7408 13.2978 24.3289 13.4231 24.5741 13.0449C24.5765 11.5171 24.5878 9.98932 24.5685 8.46185C24.2192 8.29339 23.8293 8.22664 23.4442 8.27124ZM26.9253 4.08603C27.2409 4.05271 27.7837 3.90143 28.0643 4.12969C28.0829 7.04801 28.0616 9.96766 28.0742 12.886C28.2509 13.2569 28.6407 13.2958 29.0096 13.2525C29.0329 13.5391 29.1852 13.7967 29.1942 14.0856L29.1462 14.1229C28.5161 14.2252 27.7467 14.3858 27.2445 13.874C26.978 13.6994 26.9846 13.3631 26.9223 13.0862C26.9203 10.0886 26.9137 7.08632 26.9253 4.08603ZM11.574 4.9634C11.7871 4.88694 12.0214 4.89422 12.2294 4.98378C12.4374 5.07334 12.6037 5.2385 12.6946 5.4459C12.8965 5.91873 12.417 6.3749 11.9838 6.45154C11.1728 6.52185 10.8706 5.32061 11.574 4.9634ZM16.9741 7.27426C17.2378 7.24105 17.5054 7.26074 17.7614 7.33219C18.0174 7.40363 18.2566 7.5254 18.4649 7.69037C18.6733 7.85533 18.8467 8.06018 18.975 8.29294C19.1032 8.52571 19.1838 8.78171 19.212 9.04598C19.317 10.7121 19.2333 12.3991 19.2536 14.0719C18.8718 14.1507 18.4786 14.1579 18.094 14.0932C18.0297 12.6514 18.0857 11.1702 18.0674 9.71308C18.0194 9.21325 17.8725 8.60713 17.3456 8.41053C16.451 8.08565 15.5363 8.66011 14.8565 9.20659C14.8398 10.8434 14.8625 12.4815 14.8465 14.1182C14.4653 14.1182 14.0831 14.1332 13.7022 14.1159C13.6987 11.9087 13.6987 9.70108 13.7022 7.49318C14.0485 7.55416 14.7959 7.24427 14.7269 7.85006C14.7542 7.99967 14.7206 8.32989 14.9555 8.23226C15.5175 7.7185 16.2206 7.38437 16.9741 7.27426ZM29.8166 8.60147C30.573 7.1523 32.7196 6.84741 33.9152 7.9187C34.7026 8.72742 34.9379 9.929 34.8566 11.022C33.4321 11.0346 32.0065 11.0096 30.5834 11.0323C30.3621 11.3758 30.6017 11.849 30.7363 12.2085C31.2112 13.2082 32.4764 13.6167 33.495 13.2748C33.8256 13.2898 34.0358 12.931 34.3674 12.9783C34.4674 13.2289 34.678 13.4658 34.651 13.749C33.6655 14.2798 32.5154 14.4171 31.4327 14.1332C31.2455 14.0519 31.0405 14.0173 30.8596 13.92C30.4131 13.5438 29.847 13.2005 29.6717 12.6031C29.3987 11.9667 29.2701 11.2777 29.2951 10.5857C29.3201 9.89371 29.4984 9.21649 29.8166 8.60147ZM31.7416 8.26325C31.5312 8.31011 31.3341 8.40392 31.165 8.53767C30.996 8.67142 30.8593 8.84166 30.7653 9.03565C30.5874 9.3732 30.2865 9.97932 30.6683 10.2109C31.664 10.1863 32.726 10.3539 33.698 10.1343C33.7147 9.62823 33.5657 9.13057 33.2734 8.71709C33.0847 8.50781 32.8418 8.3548 32.5715 8.275C32.3012 8.1952 32.0141 8.19171 31.742 8.26491L31.7416 8.26325ZM11.3607 7.49252C11.7423 7.49252 12.1248 7.47719 12.5063 7.49485C12.5099 9.70209 12.5099 11.9097 12.5063 14.1176C12.1245 14.1176 11.7423 14.1325 11.3607 14.1152C11.3567 11.9091 11.3568 9.70209 11.3611 7.49419L11.3607 7.49252Z" fill="#FF9900"/>
<g clip-path="url(#clip0)">
<path d="M54 8.77253V0.150146H56.8489C57.6533 0.150146 58.3002 0.357515 58.7896 0.772253C59.2789 1.18699 59.5235 1.73859 59.5235 2.42705C59.5235 2.85838 59.424 3.23164 59.225 3.54684C59.0259 3.85375 58.7398 4.09015 58.3666 4.25605C58.8974 4.41365 59.3038 4.67493 59.5857 5.0399C59.8677 5.39657 60.0087 5.84034 60.0087 6.37121C60.0087 7.10114 59.7516 7.68592 59.2374 8.12554C58.7232 8.55687 58.0348 8.77253 57.1723 8.77253H54ZM55.2067 4.84083V7.80205H57.1474C58.2007 7.80205 58.7274 7.30851 58.7274 6.32144C58.7274 5.83205 58.5905 5.46293 58.3168 5.21409C58.0514 4.96525 57.6533 4.84083 57.1225 4.84083H55.2067ZM55.2067 1.12063V3.89522H56.7244C57.7529 3.89522 58.2671 3.43487 58.2671 2.51415C58.2671 2.05794 58.1385 1.71371 57.8814 1.48145C57.6326 1.24091 57.2594 1.12063 56.7618 1.12063H55.2067Z" fill="#222222"/>
<path d="M65.797 8.77253L65.6602 8.10066C64.8888 8.673 64.0968 8.95917 63.284 8.95917C62.6952 8.95917 62.2432 8.79327 61.928 8.46148C61.6129 8.12969 61.4553 7.66104 61.4553 7.05552V2.46438H62.6869V6.65737C62.6869 7.10529 62.774 7.43708 62.9481 7.65274C63.1223 7.86011 63.4001 7.9638 63.7817 7.9638C64.3788 7.9638 64.9801 7.76472 65.5855 7.36657V2.46438H66.8171V8.77253H65.797Z" fill="#222222"/>
<path d="M70.3651 8.83474L67.8272 2.46438H69.1459L70.9622 7.62786L72.7163 2.46438H73.9852L71.1115 9.87988C70.8958 10.4522 70.6346 10.8628 70.3277 11.1117C70.0292 11.3605 69.6477 11.4849 69.1832 11.4849C68.8349 11.4849 68.5114 11.4269 68.2129 11.3107V10.4273C68.4368 10.4854 68.6732 10.5144 68.922 10.5144C69.2288 10.5144 69.4693 10.4356 69.6435 10.278C69.826 10.1287 69.9877 9.85915 70.1287 9.46929L70.3651 8.83474Z" fill="#222222"/>
<path d="M82.5132 8.77253V4.55466C82.5132 4.11503 82.422 3.79154 82.2395 3.58417C82.0653 3.3768 81.7875 3.27312 81.406 3.27312C80.7508 3.27312 80.1081 3.48463 79.4777 3.90767V8.77253H78.2461V2.46438H79.2787L79.4031 3.16114C80.191 2.57221 81.0204 2.27775 81.8912 2.27775C82.4966 2.27775 82.9569 2.4395 83.2721 2.76299C83.5872 3.07819 83.7448 3.53855 83.7448 4.14407V8.77253H82.5132Z" fill="#222222"/>
<path d="M88.2469 8.95917C87.3014 8.95917 86.5633 8.6647 86.0325 8.07578C85.5017 7.48685 85.2363 6.66567 85.2363 5.61224C85.2363 4.5671 85.5017 3.75007 86.0325 3.16114C86.5633 2.57221 87.3014 2.27775 88.2469 2.27775C89.1923 2.27775 89.9305 2.57221 90.4613 3.16114C90.9921 3.75007 91.2574 4.5671 91.2574 5.61224C91.2574 6.66567 90.9921 7.48685 90.4613 8.07578C89.9305 8.6647 89.1923 8.95917 88.2469 8.95917ZM88.2469 7.9638C89.4163 7.9638 90.001 7.17994 90.001 5.61224C90.001 4.05282 89.4163 3.27312 88.2469 3.27312C87.0775 3.27312 86.4928 4.05282 86.4928 5.61224C86.4928 7.17994 87.0775 7.9638 88.2469 7.9638Z" fill="#222222"/>
<path d="M97.8299 8.77253L96.4863 3.83301L95.1552 8.77253H93.9111L91.846 2.46438H93.1398L94.558 7.51588L95.9016 2.46438H97.1332L98.4768 7.57809L99.9323 2.46438H101.189L99.0739 8.77253H97.8299Z" fill="#222222"/>
<path d="M109.179 8.77253L109.079 8.12554C108.781 8.38268 108.449 8.58175 108.084 8.72277C107.728 8.86378 107.371 8.93428 107.014 8.93428C106.425 8.93428 105.953 8.76839 105.596 8.4366C105.248 8.09651 105.074 7.64445 105.074 7.08041C105.074 6.47489 105.289 5.99379 105.72 5.63712C106.152 5.27215 106.732 5.08967 107.462 5.08967C107.943 5.08967 108.466 5.16017 109.03 5.30118V4.48C109.03 4.03209 108.926 3.71689 108.719 3.5344C108.52 3.35192 108.175 3.26068 107.686 3.26068C106.981 3.26068 106.251 3.38924 105.497 3.64638V2.77543C105.795 2.61783 106.16 2.49756 106.591 2.41461C107.023 2.32337 107.458 2.27775 107.898 2.27775C108.685 2.27775 109.266 2.44364 109.639 2.77543C110.012 3.09893 110.199 3.59661 110.199 4.26849V8.77253H109.179ZM107.313 8.00112C107.877 8.00112 108.449 7.78961 109.03 7.36657V6.09748C108.598 5.98965 108.159 5.93573 107.711 5.93573C106.774 5.93573 106.305 6.29655 106.305 7.0182C106.305 7.3334 106.392 7.57809 106.566 7.75228C106.741 7.91818 106.989 8.00112 107.313 8.00112Z" fill="#222222"/>
<path d="M115.578 8.62323C115.171 8.78083 114.711 8.85963 114.197 8.85963C113.019 8.85963 112.43 8.2707 112.43 7.09285V3.43487H111.286V2.63857L112.467 2.48926L112.654 0.697599H113.662V2.46438H115.528V3.43487H113.662V7.03064C113.662 7.33754 113.728 7.55321 113.861 7.67763C114.002 7.80205 114.238 7.86426 114.57 7.86426C114.91 7.86426 115.246 7.82279 115.578 7.73984V8.62323Z" fill="#222222"/>
<path fill-rule="evenodd" clip-rule="evenodd" d="M96.0873 20.5246V18.8694C96.0859 18.8141 96.0958 18.7591 96.1164 18.7078C96.1369 18.6564 96.1677 18.6097 96.2068 18.5706C96.2459 18.5315 96.2925 18.5007 96.3439 18.4802C96.3953 18.4597 96.4503 18.4498 96.5056 18.4512H103.912C103.968 18.4492 104.024 18.4585 104.076 18.4787C104.128 18.4989 104.176 18.5295 104.216 18.5686C104.256 18.6077 104.288 18.6545 104.309 18.7062C104.33 18.7579 104.341 18.8135 104.34 18.8694V20.286C104.337 20.5238 104.137 20.8343 103.782 21.3255L99.9441 26.8061C101.37 26.7713 102.876 26.9836 104.169 27.7125C104.285 27.7757 104.383 27.8685 104.452 27.9815C104.521 28.0944 104.559 28.2235 104.562 28.3558V30.1211C104.562 30.3619 104.296 30.6431 104.017 30.4982C102.806 29.8759 101.464 29.5524 100.103 29.5546C98.7415 29.5568 97.4004 29.8847 96.1917 30.5108C95.9351 30.6503 95.6656 30.3714 95.6656 30.1304V28.4541C95.641 28.0562 95.736 27.66 95.9381 27.3164L100.385 20.9398H96.5152C96.4594 20.9423 96.4037 20.9333 96.3515 20.9135C96.2993 20.8937 96.2517 20.8634 96.2117 20.8245C96.1716 20.7856 96.1399 20.739 96.1185 20.6874C96.0971 20.6358 96.0865 20.5804 96.0873 20.5246Z" fill="#222222"/>
<path fill-rule="evenodd" clip-rule="evenodd" d="M69.0686 30.8471H66.8153C66.7134 30.842 66.6166 30.8005 66.5427 30.7302C66.4688 30.6598 66.4227 30.5652 66.4127 30.4636V18.899C66.4137 18.843 66.4258 18.7879 66.4483 18.7367C66.4707 18.6855 66.5031 18.6392 66.5436 18.6006C66.584 18.562 66.6317 18.5318 66.6839 18.5117C66.7361 18.4917 66.7918 18.4822 66.8477 18.4837H68.949C69.0526 18.4871 69.1515 18.5283 69.2268 18.5996C69.3021 18.6708 69.3488 18.7672 69.3579 18.8705V20.3821H69.399C69.9473 18.9211 70.9774 18.2397 72.3656 18.2397C73.7758 18.2397 74.6569 18.9211 75.2908 20.3821C75.5002 19.8326 75.8516 19.3483 76.3091 18.9788C76.7666 18.6092 77.3138 18.3674 77.8951 18.2782C78.4765 18.1889 79.071 18.2553 79.6183 18.4705C80.1657 18.6858 80.6461 19.0423 81.0109 19.5036C81.7241 20.4765 81.5781 21.8901 81.5781 23.1292L81.5749 30.4279C81.5739 30.484 81.5619 30.5393 81.5395 30.5907C81.5171 30.6421 81.4847 30.6886 81.4443 30.7275C81.4039 30.7664 81.3562 30.7968 81.3039 30.8172C81.2517 30.8376 81.1959 30.8474 81.1399 30.8462H78.8904C78.7825 30.8405 78.6808 30.7943 78.6055 30.7167C78.5303 30.6391 78.4872 30.536 78.4848 30.4279V24.2994C78.4848 23.8113 78.5283 22.5943 78.4215 22.1315C78.2536 21.355 77.7496 21.1364 77.0967 21.1364C76.8041 21.1454 76.5205 21.2399 76.2811 21.4083C76.0417 21.5768 75.857 21.8117 75.7497 22.0841C75.5183 22.6672 75.5404 23.6434 75.5404 24.2994V30.4288C75.5395 30.4849 75.5275 30.5402 75.505 30.5916C75.4826 30.643 75.4503 30.6895 75.4099 30.7284C75.3695 30.7672 75.3217 30.7977 75.2695 30.8181C75.2173 30.8385 75.1615 30.8483 75.1054 30.8471H72.856C72.7479 30.8419 72.6459 30.7958 72.5705 30.7181C72.4952 30.6404 72.4522 30.537 72.4504 30.4288L72.4471 24.2996C72.4471 23.0098 72.6594 21.1114 71.059 21.1114C69.4395 21.1114 69.5028 22.9624 69.5028 24.2996V30.4288C69.5018 30.4849 69.4898 30.5402 69.4674 30.5916C69.445 30.643 69.4126 30.6895 69.3722 30.7284C69.3318 30.7672 69.2841 30.7977 69.2318 30.8181C69.1796 30.8385 69.1247 30.8483 69.0686 30.8471Z" fill="#222222"/>
<path fill-rule="evenodd" clip-rule="evenodd" d="M110.718 18.2397C114.061 18.2397 115.871 21.1107 115.871 24.762C115.871 28.2894 113.871 31.0878 110.718 31.0878C107.433 31.0878 105.647 28.2168 105.647 24.6384C105.647 21.0381 107.456 18.2397 110.718 18.2397ZM110.737 20.6007C109.076 20.6007 108.971 22.8627 108.971 24.2739C108.971 25.6851 108.95 28.7044 110.718 28.7044C112.464 28.7044 112.546 26.2704 112.546 24.7872C112.546 23.811 112.505 22.6448 112.21 21.7204C111.957 20.9156 111.453 20.6007 110.737 20.6007Z" fill="#222222"/>
<path fill-rule="evenodd" clip-rule="evenodd" d="M120.206 30.8471H117.963C117.855 30.8414 117.753 30.7952 117.678 30.7176C117.602 30.64 117.559 30.5369 117.557 30.4289L117.554 18.8609C117.566 18.7551 117.617 18.6576 117.698 18.5878C117.778 18.518 117.882 18.4809 117.989 18.4838H120.077C120.17 18.487 120.259 18.5203 120.332 18.5787C120.405 18.6371 120.456 18.7174 120.48 18.8077V20.5762H120.521C121.151 18.9947 122.036 18.2404 123.592 18.2404C124.603 18.2404 125.588 18.6049 126.222 19.6033C126.812 20.5288 126.812 22.0848 126.812 23.2036V30.4834C126.795 30.5864 126.742 30.68 126.662 30.747C126.582 30.8139 126.481 30.8498 126.377 30.848H124.117C124.019 30.8427 123.925 30.8035 123.852 30.737C123.78 30.6706 123.732 30.581 123.718 30.4834V24.2017C123.718 22.9372 123.864 21.0864 122.308 21.0864C122.024 21.099 121.751 21.193 121.52 21.3571C121.289 21.5213 121.11 21.7487 121.005 22.0119C120.688 22.7186 120.647 23.4222 120.647 24.202V30.4286C120.643 30.5422 120.594 30.6496 120.512 30.7279C120.43 30.8061 120.32 30.8491 120.206 30.8471Z" fill="#222222"/>
<path fill-rule="evenodd" clip-rule="evenodd" d="M90.1832 25.3231C90.1832 26.201 90.2049 26.9327 89.7617 27.7128C89.4034 28.3467 88.8331 28.7364 88.2024 28.7364C87.3372 28.7364 86.8302 28.0772 86.8302 27.1051C86.8302 25.1846 88.551 24.8359 90.1834 24.8359L90.1832 25.3231ZM92.4557 30.8153C92.3829 30.8773 92.293 30.9157 92.1979 30.9254C92.1027 30.935 92.0069 30.9154 91.9232 30.8693C91.1752 30.2481 91.0391 29.9597 90.6302 29.367C89.3941 30.6285 88.5162 31.0054 86.9156 31.0054C85.0173 31.0054 83.5443 29.8359 83.5443 27.4938C83.5172 26.7075 83.7333 25.932 84.163 25.273C84.5928 24.614 85.2153 24.1035 85.9458 23.8113C87.1693 23.2725 88.8773 23.1775 90.1832 23.0283V22.737C90.1832 22.2013 90.2243 21.5675 89.9074 21.1057C89.7599 20.9128 89.5677 20.7586 89.3474 20.6564C89.1272 20.5541 88.8854 20.5068 88.6428 20.5185C87.7839 20.5185 87.02 20.9589 86.8332 21.8718C86.8216 21.9739 86.7769 22.0694 86.7059 22.1438C86.635 22.2182 86.5416 22.2673 86.4402 22.2837L84.2565 22.0493C84.2026 22.042 84.1509 22.0237 84.1044 21.9957C84.0579 21.9676 84.0176 21.9302 83.9861 21.886C83.9546 21.8417 83.9325 21.7915 83.9212 21.7383C83.9099 21.6852 83.9097 21.6303 83.9204 21.5771C84.4215 18.9274 86.8176 18.1288 88.96 18.1288C90.0566 18.1288 91.4891 18.4204 92.3543 19.2507C93.451 20.2742 93.3463 21.6404 93.3463 23.1266V26.6384C93.3463 27.6937 93.7837 28.1566 94.1957 28.7264C94.3384 28.9293 94.3697 29.1734 94.1861 29.3254C93.7265 29.7089 92.9089 30.4221 92.4589 30.8214L92.4557 30.8153Z" fill="#222222"/>
<path fill-rule="evenodd" clip-rule="evenodd" d="M60.6419 25.3231C60.6419 26.201 60.6636 26.9327 60.2204 27.7128C59.8621 28.3467 59.2949 28.7364 58.6611 28.7364C57.7959 28.7364 57.2919 28.0772 57.2919 27.1051C57.2919 25.1846 59.0128 24.8359 60.6415 24.8359L60.6419 25.3231ZM62.9144 30.8153C62.8416 30.8773 62.7517 30.9157 62.6566 30.9254C62.5614 30.935 62.4656 30.9154 62.3819 30.8693C61.6339 30.2481 61.5008 29.9597 61.0889 29.367C59.853 30.6285 58.978 31.005 57.3735 31.005C55.479 31.005 54.0022 29.8361 54.0022 27.494C53.9756 26.7077 54.192 25.9323 54.6218 25.2733C55.0517 24.6144 55.6742 24.1039 56.4045 23.8113C57.628 23.2725 59.336 23.1775 60.6419 23.0283V22.737C60.6419 22.2013 60.683 21.5675 60.3694 21.1057C60.2214 20.9133 60.0292 20.7594 59.809 20.6572C59.5889 20.5549 59.3473 20.5073 59.1048 20.5185C58.2459 20.5185 57.479 20.9589 57.2919 21.8718C57.2803 21.9733 57.236 22.0683 57.1657 22.1425C57.0954 22.2167 57.0029 22.266 56.9021 22.2831L54.7154 22.0493C54.6617 22.0417 54.6101 22.0233 54.5637 21.9951C54.5174 21.967 54.4772 21.9297 54.4458 21.8855C54.4143 21.8413 54.3922 21.7911 54.3808 21.7381C54.3694 21.6851 54.3689 21.6303 54.3793 21.5771C54.8833 18.9274 57.276 18.1288 59.418 18.1288C60.5151 18.1288 61.9476 18.4204 62.8128 19.2509C63.9094 20.2744 63.8048 21.6406 63.8048 23.1268V26.6384C63.8048 27.6937 64.2422 28.1566 64.6542 28.7264C64.7999 28.9293 64.8317 29.1734 64.6479 29.3254C64.1883 29.7089 63.3707 30.4221 62.9207 30.8214L62.9144 30.8153Z" fill="#222222"/>
<path d="M134.248 30.7661L130.315 25.9974H130.296V30.7661H128.882V17.0413H130.296V24.8342H130.315L133.686 21.5966H135.527L131.497 25.3377L136.05 30.7657L134.248 30.7661Z" fill="#222222"/>
<path d="M137.697 19.6778C137.502 19.6779 137.311 19.62 137.148 19.5115C136.986 19.4029 136.859 19.2485 136.784 19.0679C136.709 18.8873 136.689 18.6885 136.727 18.4967C136.766 18.3049 136.86 18.1287 136.998 17.9904C137.136 17.8521 137.312 17.7579 137.504 17.7198C137.696 17.6816 137.895 17.7011 138.075 17.776C138.256 17.8508 138.41 17.9775 138.519 18.14C138.628 18.3026 138.686 18.4938 138.686 18.6893C138.685 18.9511 138.58 19.2019 138.395 19.387C138.21 19.5722 137.959 19.6767 137.697 19.6778ZM137 30.7664V21.5969H138.414V30.7664H137Z" fill="#222222"/>
<path d="M146.364 30.7653V25.1252C146.364 23.9814 146.17 22.702 144.775 22.702C143.651 22.702 142.624 23.4968 141.927 24.0982V30.7668H140.513V21.5969H141.676L141.869 22.7018C142.877 21.9266 143.865 21.3644 145.144 21.3644C146.461 21.3644 147.779 22.3142 147.779 24.6019V30.7666H146.365L146.364 30.7653Z" fill="#222222"/>
<path d="M154.017 30.9602C151.459 30.9602 149.308 29.4677 149.308 26.3078C149.308 23.4585 151.362 21.3644 154.036 21.3644C154.538 21.3517 155.039 21.4038 155.528 21.5194V17.0413H156.942V30.3009C156.381 30.6306 155.315 30.9602 154.017 30.9602ZM155.528 22.8375C155.077 22.6641 154.596 22.585 154.114 22.605C152.312 22.605 150.743 24.0203 150.743 26.2108C150.743 28.2849 151.886 29.7582 154.269 29.7582C154.7 29.7632 155.128 29.6842 155.529 29.5257L155.528 22.8375Z" fill="#222222"/>
<path d="M160.623 30.9602C159.5 30.9602 159.015 30.2424 159.015 29.2734V17.0413H160.429V28.6342C160.429 29.5064 160.642 29.681 161.185 29.681C161.348 29.6834 161.511 29.6638 161.669 29.623L161.843 30.6504C161.47 30.8564 161.05 30.963 160.623 30.9602Z" fill="#222222"/>
<path d="M164.131 26.4242C164.131 28.169 165.139 29.7387 167.115 29.7387C167.905 29.7175 168.675 29.4832 169.343 29.0605L169.789 30.0682C168.938 30.6194 167.953 30.9278 166.94 30.96C164.014 30.96 162.619 28.6144 162.619 25.9972C162.619 23.3415 164.13 21.3644 166.338 21.3644C168.702 21.3644 170 23.2449 170 26.0946V26.4244L164.131 26.4242ZM166.359 22.5654C165.003 22.5654 164.15 23.7673 164.15 25.2211H168.472C168.472 23.9427 167.755 22.5654 166.359 22.5654Z" fill="#222222"/>
<path fill-rule="evenodd" clip-rule="evenodd" d="M99.0679 35.067C94.8368 38.1856 88.7043 39.8495 83.4242 39.8495C76.3676 39.8856 69.552 37.2848 64.3133 32.557C63.9172 32.1988 64.2722 31.7109 64.7483 31.9898C70.19 35.156 76.9185 37.0606 83.8688 37.0606C88.8795 37.0373 93.8362 36.0239 98.4539 34.0784C99.1702 33.7739 99.7683 34.5474 99.0679 35.067Z" fill="#FF9900"/>
<path fill-rule="evenodd" clip-rule="evenodd" d="M100.827 33.0547C100.289 32.3639 97.2525 32.7285 95.8901 32.8898C95.4749 32.9405 95.4116 32.5793 95.7855 32.3193C98.2037 30.6174 102.172 31.1087 102.634 31.6792C103.097 32.2497 102.514 36.2303 100.242 38.1286C99.8939 38.4203 99.5605 38.265 99.7158 37.8783C100.226 36.6042 101.369 33.7488 100.827 33.0547Z" fill="#FF9900"/>
</g>
<defs>
<clipPath id="clip0">
<rect x="54" y="0.150146" width="116" height="39.6997" fill="white"/>
</clipPath>
</defs>
</svg>
