<svg viewBox="0 0 171 41" fill="none" xmlns="http://www.w3.org/2000/svg">
<rect y="0.00219727" width="40" height="40" rx="4" fill="#222222"/>
<path d="M0 15.5589V35.2015C0 37.8528 2.16055 40.0022 4.82573 40.0022H14.0672C13.9415 39.8182 13.9981 39.6342 14.1253 39.4842C14.2353 39.3533 14.3987 39.2482 14.54 39.1915C14.7191 39.1458 14.8966 39.0966 15.0726 39.0439C15.503 38.9157 15.9271 38.768 16.3434 38.6012C16.4235 38.5653 16.4989 38.5227 16.5665 38.4739C16.667 38.4004 16.7503 38.3133 16.8037 38.2137C16.8822 38.0671 16.8963 37.8945 16.8131 37.7015L17.0974 37.1987L17.3252 36.8068L17.8891 35.861L18.0352 35.6183C18.329 35.1323 18.6212 34.6463 18.9055 34.1556C18.9181 34.1103 18.9573 34.0599 18.9982 34.0083C19.0781 33.905 19.1628 33.7956 19.0437 33.7126L18.8003 33.5532L18.7977 33.5515C18.4577 33.3242 18.1127 33.0938 17.6849 33.1105C17.4257 33.0953 17.1807 32.989 16.9937 32.8101C16.9592 32.7769 16.9278 32.7417 16.8979 32.7046L16.8728 32.6726C16.755 32.5159 16.6827 32.3303 16.6639 32.135C16.4125 31.8896 16.147 31.6552 15.8769 31.4251L15.3962 31.0203L15.0537 30.7336L14.7144 30.4421C14.4505 30.2597 14.76 30.0194 14.9233 29.9221C15.0129 29.8741 15.0977 29.8174 15.181 29.7565L15.3993 29.5854C15.6287 29.4006 15.8596 29.2162 16.1345 29.1411C16.3701 29.3068 16.5979 29.4834 16.8209 29.6662C17.1304 29.921 17.4336 30.1882 17.7352 30.455L17.7446 30.4656C18.0164 30.707 18.2881 30.9485 18.5662 31.1805C18.6526 31.3317 18.5348 31.4696 18.4154 31.6091C18.3056 31.7371 18.194 31.8672 18.2379 32.0096C18.3793 32.135 18.4971 32.2846 18.585 32.4514C18.8285 32.5249 19.083 32.5436 19.3375 32.5452L20.0617 32.5358L20.2627 32.5425C20.712 32.6565 20.9052 32.2764 21.0796 31.9322C21.1283 31.8365 21.1754 31.7439 21.2257 31.6654C21.2131 31.572 21.221 31.4853 21.243 31.4028C21.2555 31.3544 21.2744 31.3075 21.2964 31.2614L21.3608 31.1446L21.4849 30.9555L21.5996 30.782C21.631 30.7324 21.6592 30.682 21.6828 30.6301C21.8509 30.3558 22.0504 30.1042 22.2782 29.8803C22.4965 29.6666 22.74 29.4779 23.0023 29.3185C23.0385 28.9073 22.6759 29.0121 22.4057 29.0903L22.3159 29.1154L22.2405 29.1329C22.1466 29.0135 22.0122 28.9847 21.8776 28.9559C21.7221 28.9231 21.5666 28.8895 21.4755 28.7176C21.4252 28.6075 21.3027 28.6071 21.1881 28.6067C21.0624 28.6067 20.9476 28.6063 20.9524 28.4582C21.0152 27.8667 20.5471 27.5182 20.1198 27.2002L19.947 27.0697C19.8684 27.0244 19.8025 26.9623 19.7506 26.8881L19.7051 26.8099C19.6784 26.7564 19.6611 26.6994 19.6501 26.64C19.636 26.5513 19.6422 26.4599 19.6658 26.3735C19.6909 26.2868 19.7349 26.2067 19.7962 26.1391C19.8684 26.0403 19.9376 25.9387 20.0035 25.8359L20.2266 25.4855C20.3507 25.2874 20.4748 25.0893 20.6099 24.9003C20.7261 24.7362 20.8502 24.5787 20.9901 24.4342C21.6938 23.8661 22.6002 24.2556 23.3228 24.5713C23.871 24.9925 24.2418 25.6011 24.3627 26.2794C24.4208 26.5021 24.4036 26.7373 24.3847 26.9713C24.3549 27.3432 24.3266 27.7108 24.6109 28.0156C24.7209 28.1062 24.8356 28.1922 24.9534 28.2734C25.0979 28.3731 25.2471 28.4649 25.4011 28.5489C25.5927 28.6536 25.7922 28.7462 25.998 28.8255C26.6481 29.1551 26.9592 29.8323 27.2506 30.4668L27.2531 30.4722L27.3395 30.6582C27.6804 31.5294 27.9459 32.428 28.1344 33.3441C28.1517 33.4004 28.158 33.4621 28.1642 33.5243L28.1674 33.5465C28.1737 33.6247 28.1815 33.7032 28.2067 33.7723C28.2271 33.8266 28.2569 33.8755 28.3072 33.9145C28.934 33.3375 29.4461 32.6479 29.8137 31.8814C30.0556 31.2466 30.2519 30.5961 30.4012 29.935C30.5268 29.3814 30.6195 28.8204 30.6777 28.2547C30.8881 27.3881 31.0248 26.5064 31.0892 25.6191C31.1096 25.3312 31.1222 25.0425 31.1269 24.7534C31.1301 24.5041 31.1285 24.2548 31.1206 24.0056L31.0798 23.679C31.0185 23.1508 30.9526 22.5847 30.5755 22.2018C30.3242 22.2326 30.1059 22.1893 29.9032 22.1037C29.798 22.0592 29.6974 22.0029 29.6 21.9396C29.4555 21.8463 29.3173 21.7373 29.179 21.6283C29.0691 21.5423 28.9591 21.4564 28.846 21.377C28.6873 21.2653 28.5208 21.1676 28.337 21.1043C28.2412 21.0332 28.1533 20.9547 28.0684 20.8723C27.9991 20.8057 27.9333 20.7367 27.867 20.6672L27.8359 20.6347L27.6946 20.489C27.5846 20.3773 27.4715 20.2691 27.3458 20.1741L27.2783 20.1214L27.195 20.0444L27.0803 19.9202C26.9659 19.7934 26.8523 19.6677 26.7049 19.608C26.6735 19.5955 26.6421 19.5857 26.6075 19.5795C26.5494 19.5686 26.4866 19.5678 26.4159 19.5799C26.5368 19.4955 26.6468 19.3853 26.485 19.2759C26.4677 19.2501 26.4504 19.2333 26.4347 19.2236C26.4221 19.2162 26.4096 19.2126 26.397 19.2126C26.3813 19.2126 26.3672 19.2177 26.353 19.2263C26.3279 19.2404 26.3028 19.2642 26.2776 19.2888L26.2336 19.3306C26.1959 19.3627 26.1567 19.3857 26.1111 19.3763C26.1111 19.3506 26.1143 19.3232 26.1205 19.2951L26.1488 19.1943C26.1897 19.0618 26.2305 18.9294 26.0797 18.8638C26.0561 18.8981 26.0247 18.9255 25.987 18.9431C25.9493 18.961 25.9069 18.9685 25.8661 18.9653L25.8189 18.956C25.7938 18.9493 25.7702 18.9384 25.7498 18.9243L25.709 18.8884L25.6933 18.8688L25.6713 18.8309C25.6194 18.854 25.6006 18.9313 25.5849 19.0067L25.5839 19.011C25.5575 19.1208 25.5329 19.2237 25.3995 19.1431C25.282 19.0566 25.2567 19.1601 25.2316 19.2626L25.2173 19.3177L25.1984 19.3658C25.1733 19.415 25.1356 19.4338 25.0571 19.367C24.8701 19.1009 24.6675 19.2685 24.6361 19.5103C24.4476 19.6717 24.358 19.4271 24.4711 19.2654C24.5072 19.1616 24.6028 19.0991 24.6954 19.0386C24.8289 18.9527 24.9565 18.8704 24.8858 18.6782C24.8264 18.5487 24.6939 18.6239 24.5827 18.687C24.4634 18.7554 24.369 18.8094 24.4271 18.5661C24.5952 18.5661 24.6754 18.4645 24.7593 18.3581L24.7617 18.3551L24.7681 18.3472C24.8021 18.3048 24.8364 18.2621 24.8748 18.2254C24.9094 18.1937 24.9487 18.1664 24.9974 18.1472C25.1953 17.9687 24.8513 17.7773 24.6848 17.8702C24.669 17.907 24.6659 17.9578 24.6628 18.0097C24.6581 18.1097 24.6518 18.2156 24.5465 18.241C24.4203 18.2592 24.3528 18.3555 24.2873 18.449L24.2858 18.4512C24.2056 18.5672 24.1287 18.6778 23.9496 18.627C23.741 18.8306 23.8706 19.0201 24.0054 19.2174C24.1327 19.4034 24.2653 19.5979 24.1255 19.8166C24.0674 19.9315 24.014 19.8471 23.9574 19.7549L23.9072 19.6819C23.8883 19.6557 23.8679 19.6342 23.8475 19.6233C23.8208 19.6088 23.7909 19.6123 23.7595 19.6471C23.7032 19.7108 23.6719 19.7897 23.6406 19.8682L23.5946 19.9796C23.5757 20.0198 23.5522 20.0581 23.5223 20.0921C23.3731 19.8959 23.2851 19.6604 23.271 19.415C23.2301 19.408 23.194 19.417 23.161 19.4357C23.1097 19.4657 23.0671 19.5209 23.0235 19.5775L23.0181 19.5846C22.9317 19.6987 22.8437 19.8147 22.6835 19.7401C22.6646 19.6744 22.6772 19.6186 22.707 19.5682C22.7447 19.5017 22.8123 19.4447 22.8814 19.3881C22.9489 19.3318 23.0149 19.2759 23.0526 19.2115C23.0825 19.1603 23.0935 19.1036 23.0715 19.0372C22.9238 19.0224 22.7887 19.0782 22.6552 19.1337C22.5908 19.1603 22.5264 19.1869 22.462 19.2056C22.4227 19.2169 22.3834 19.2251 22.3426 19.2291C22.2546 19.2369 22.1635 19.2236 22.0661 19.1724C22.1682 18.9919 22.484 18.4156 22.0897 18.484C21.9043 18.743 21.6357 18.9325 21.3278 19.0212C21.2006 18.9509 21.276 18.854 21.3592 18.7477L21.3605 18.746C21.4387 18.6449 21.5237 18.535 21.444 18.4309L21.4158 18.3785C21.4016 18.3477 21.3953 18.316 21.3906 18.284C21.3828 18.2058 21.3985 18.1242 21.4142 18.0429C21.4299 17.9671 21.444 17.8921 21.4393 17.8206C21.4362 17.7753 21.4252 17.7315 21.4001 17.6901C21.2477 17.7569 21.2241 17.9066 21.2006 18.0593C21.1755 18.2225 21.1496 18.3909 20.9649 18.4656C20.8446 18.4326 20.9201 18.2809 20.9828 18.155L20.9838 18.1531C21.0466 18.0289 21.0953 17.9308 20.9288 18.0015C20.8598 18.0978 20.7861 18.0544 20.7094 18.0092C20.6324 17.9631 20.5517 17.9148 20.4685 18.0113C20.4497 18.0492 20.4151 18.0898 20.379 18.1316C20.2847 18.2406 20.1826 18.3598 20.3083 18.4703C20.3771 18.5438 20.312 18.6011 20.251 18.6548C20.2259 18.6759 20.2015 18.6973 20.1873 18.718C20.1591 18.8165 20.2376 18.8364 20.3177 18.8559C20.412 18.8794 20.5047 18.9028 20.4198 19.0575C20.4151 19.0814 20.4073 19.0978 20.3947 19.1087C20.3837 19.1181 20.3711 19.1236 20.357 19.1259C20.3271 19.131 20.2894 19.1236 20.2517 19.1161C20.1716 19.1001 20.0884 19.0841 20.0774 19.1884C20.0428 19.2927 20.1276 19.3263 20.2156 19.3603C20.3193 19.4002 20.4245 19.4412 20.3429 19.5971C20.2062 19.6983 20.0444 19.7604 19.8747 19.7768C19.8763 19.8807 19.9574 19.9536 20.0387 20.0268C20.0749 20.0588 20.1119 20.0917 20.1418 20.1272L20.1748 20.1757C20.2093 20.2339 20.2219 20.3015 20.1873 20.3886C20.1559 20.3995 20.1324 20.398 20.1135 20.3894C20.1009 20.3835 20.0899 20.3742 20.0789 20.3628L20.0428 20.3116L20.0145 20.271L19.9973 20.2507C19.9784 20.2335 19.9548 20.2241 19.9219 20.2319C19.8119 20.3136 19.8606 20.4581 19.8967 20.5621L19.8978 20.5654C19.9349 20.6747 19.9559 20.7368 19.7491 20.6285C19.4841 21.1147 19.396 20.644 19.3394 20.3419L19.3092 20.194C19.1553 20.1765 19.1081 20.323 19.061 20.4761C19.0109 20.6322 18.9582 20.7965 18.7877 20.8C18.7877 20.6062 18.8317 20.4152 18.9181 20.2417C18.9495 20.1765 18.9872 20.1143 19.0296 20.0557C19.0642 20.0073 19.1034 19.9612 19.1443 19.9182L19.1993 19.8659L19.2809 19.7975C19.2527 19.7471 19.2354 19.6908 19.2228 19.6326L19.1977 19.5037C19.1741 19.3634 19.1506 19.224 19.0469 19.1259C18.8568 19.2193 18.9432 19.3908 19.0202 19.5424C19.0453 19.59 19.0689 19.6358 19.0814 19.6764C19.0327 19.6971 18.9715 19.7002 18.9118 19.703L18.8332 19.708L18.7688 19.7209C18.6903 19.7459 18.64 19.8092 18.6714 19.9819C18.4641 20.2773 18.2913 19.8288 18.351 19.6213C18.4986 19.4412 18.1389 19.2009 18.0871 19.4396C18.0054 19.5631 18.018 19.6354 18.0635 19.685C18.0855 19.71 18.1169 19.7291 18.1499 19.7467L18.1829 19.7639C18.2861 19.8176 18.3771 19.8649 18.2065 20.0268L18.1499 20.0237C18.0934 20.0186 18.0337 20.0089 17.9693 19.9979L17.9457 19.9944L17.9352 19.9927C17.8457 19.9779 17.752 19.9625 17.6582 19.9565C17.443 19.9424 17.2325 19.9776 17.1021 20.1808C17.066 20.196 17.0377 20.1983 17.0157 20.1913C16.9812 20.18 16.9623 20.1464 16.9498 20.1018C16.9388 20.0583 16.9341 20.0043 16.9294 19.9507C16.9231 19.8768 16.9152 19.803 16.8916 19.7592L16.9827 19.7819C17.1273 19.8213 17.2891 19.8651 17.3582 19.6881C17.355 19.5756 17.3802 19.4639 17.4304 19.3631C17.4823 19.2623 17.5577 19.1755 17.6504 19.1107C17.7713 18.8106 17.355 18.9196 17.1964 18.9817C17.1555 18.6594 17.5624 18.5719 17.7902 18.704C17.8326 18.6876 17.8514 18.6672 17.8546 18.6446C17.8577 18.6223 17.8467 18.5981 17.8295 18.5727L17.7855 18.5176L17.754 18.4778C17.7352 18.4531 17.7195 18.4289 17.7148 18.4063C17.7085 18.3719 17.7242 18.3406 17.787 18.3156L17.8954 18.3035L18.0148 18.3004C18.0981 18.2996 18.1766 18.2988 18.2363 18.282C18.3306 18.2551 18.3777 18.1879 18.3086 18.0144C18.3808 17.9593 18.4798 17.9175 18.5819 17.8745C18.7531 17.803 18.9338 17.7273 19.006 17.58C18.8962 17.3945 18.6906 17.5336 18.5273 17.6442C18.4315 17.7098 18.3494 17.7655 18.3117 17.7362C18.285 17.7147 18.2803 17.6491 18.3101 17.5112C18.3428 17.4652 18.4186 17.4214 18.4964 17.3765L18.4986 17.3752C18.6523 17.2875 18.8125 17.1961 18.6463 17.0803C18.5621 17.076 18.5336 17.0056 18.5071 16.94C18.4741 16.8591 18.4437 16.7849 18.3211 16.8537C18.428 17.1815 18.2504 17.3784 18.0682 17.5792C17.9708 17.6866 17.8734 17.7952 17.8169 17.9257C17.5263 17.7452 17.3142 17.9636 17.1383 18.1453L17.121 18.1633C16.8524 17.9515 16.6057 18.1304 16.3717 18.318C16.2711 18.2945 16.2052 18.2277 16.1533 18.1433C16.1161 18.0827 16.088 18.0134 16.0601 17.9443L16.0591 17.9417C15.9728 17.735 15.8874 17.5304 15.6051 17.5807L15.5752 17.6073C15.5438 17.6393 15.5203 17.6769 15.5014 17.7167C15.481 17.7628 15.4669 17.8128 15.4543 17.8628L15.4449 17.8886L15.4401 17.9085L15.404 18.0128C15.327 18.0238 15.2626 18.055 15.2045 18.098C15.1291 18.1547 15.0678 18.2316 15.0066 18.3086C14.9076 18.434 14.8071 18.5594 14.6484 18.5961L14.694 18.427C14.7725 18.116 14.8589 17.7804 15.1888 17.6476C15.1857 17.5405 15.2469 17.4245 15.3066 17.3127C15.4197 17.1033 15.5234 16.9099 15.1731 16.8213C14.9949 16.7034 14.9582 16.8426 14.9238 16.9733L14.9223 16.9792C14.9038 17.0511 14.8865 17.1189 14.8464 17.1385C14.8291 17.1467 14.8071 17.1463 14.7804 17.1338C14.7552 17.1225 14.7254 17.101 14.6893 17.067C14.4222 16.9228 14.4552 17.0947 14.4851 17.2455C14.5102 17.3709 14.5322 17.4811 14.3735 17.3803C14.2557 17.3067 14.2404 17.3837 14.2219 17.4766L14.2211 17.4803C14.2164 17.5096 14.2101 17.5405 14.2007 17.5682C14.1944 17.5886 14.185 17.6077 14.174 17.6233C14.1646 17.6362 14.152 17.6468 14.1379 17.6542C14.0268 17.7223 14.0762 17.8101 14.1278 17.9019L14.1583 17.957C14.1772 17.996 14.1929 18.0355 14.1913 18.0742C14.1332 18.0445 14.0672 18.0304 14.0028 18.0339C13.9368 18.0371 13.874 18.0574 13.819 18.0929C13.7656 18.1285 13.72 18.1777 13.6918 18.2355C13.6619 18.2937 13.6478 18.3582 13.6525 18.4231C13.5708 18.4215 13.4907 18.4242 13.4106 18.4309C13.31 18.4391 13.2111 18.4535 13.1121 18.4742C13.1404 18.2946 13.2597 18.1735 13.3775 18.0539L13.497 17.9261L13.5441 17.8675C13.5849 17.8089 13.6164 17.7448 13.6305 17.6706L13.6384 17.6069L13.6368 17.5409C13.7483 17.3565 13.7012 17.2994 13.6164 17.3162C13.541 17.3311 13.4341 17.4042 13.3839 17.4979C13.2472 17.4202 13.1357 17.3045 13.065 17.1647C12.9943 17.0252 12.9676 16.8677 12.9864 16.7126C12.7948 16.6314 12.7147 16.7638 12.6393 16.8908L12.5906 16.9681C12.1507 16.8513 12.1099 17.6085 12.534 17.6046C12.5827 17.6089 12.6298 17.63 12.6723 17.6616C12.7225 17.6991 12.7665 17.7515 12.7948 17.8085C12.8231 17.8667 12.8372 17.9296 12.8294 17.9863C12.8262 18.0089 12.8199 18.0308 12.8089 18.0507C12.7964 18.0769 12.7744 18.1 12.7461 18.1191C12.7414 17.9316 12.3314 17.6561 12.3392 17.9171C12.3813 17.9564 12.4349 17.9906 12.4876 18.0243L12.4948 18.0289C12.5824 18.0853 12.6692 18.1412 12.7068 18.2156C12.7241 18.2516 12.7304 18.2918 12.7194 18.3391C12.71 18.3797 12.688 18.4254 12.6487 18.4774C12.5859 18.711 12.5026 18.6079 12.4005 18.4774C12.3078 18.3602 12.1963 18.2207 12.0675 18.2879C11.9387 18.3781 12.0031 18.5192 12.0643 18.6528C12.1285 18.7933 12.1895 18.9268 12.0188 18.9845C11.7533 18.8239 11.3574 18.8208 11.3307 19.208C11.0951 19.2755 11.0527 19.0841 11.015 18.9114C10.9773 18.7419 10.9427 18.5903 10.7338 18.7204C10.7008 18.8727 10.5453 19.2853 10.4369 18.9571C10.4699 18.8114 10.4416 18.7126 10.3898 18.6583C10.3442 18.6098 10.2798 18.5961 10.2248 18.6153C10.129 18.6481 10.0615 18.779 10.162 18.9962C10.0725 19.0009 10.0065 18.9649 9.9515 18.9102C9.89495 18.854 9.85097 18.7782 9.81012 18.7063C9.76143 18.6204 9.7143 18.5399 9.65304 18.5055C9.6012 18.4766 9.53836 18.4809 9.45354 18.5434C9.37085 18.6397 9.33443 18.7587 9.29773 18.8787L9.29488 18.888C9.25089 19.038 9.20534 19.1884 9.07181 19.2951C8.92212 19.2408 8.98912 19.0545 9.0485 18.8893L9.04982 18.8856L9.05175 18.8802C9.11064 18.7149 9.16089 18.5739 8.97442 18.6114L8.88645 18.7079C8.83147 18.7704 8.76392 18.8466 8.70737 18.8997C8.61312 18.9864 8.544 19.0122 8.59426 18.8161C8.8566 18.5657 8.38534 18.402 8.23139 18.6114L8.18427 18.6719C8.1547 18.713 8.12104 18.7597 8.08844 18.7782C8.05546 18.7966 8.02404 18.7891 7.99733 18.7251C7.91751 18.5713 8.02483 18.4901 8.13283 18.4083L8.13645 18.4056C8.21106 18.3488 8.28653 18.2913 8.30051 18.2086C8.24554 18.2093 8.18612 18.2226 8.12513 18.2363L8.11986 18.2375C7.97534 18.2707 7.82454 18.3047 7.72557 18.1726C7.69756 18.1219 7.72505 18.0375 7.75153 17.9561L7.75228 17.9538L7.75404 17.9482C7.78954 17.8343 7.82252 17.7285 7.70044 17.7312C7.56848 17.7675 7.52921 17.8507 7.53235 17.9535C7.5355 18.0332 7.56377 18.1246 7.59205 18.216L7.59676 18.2281L7.64389 18.3832C7.65174 18.4129 7.65645 18.4414 7.65802 18.4684L7.65645 18.543C7.60618 18.5805 7.5732 18.5762 7.54649 18.5516C7.52293 18.5309 7.50408 18.4969 7.48523 18.4617C7.43967 18.3742 7.3894 18.2801 7.25902 18.3731C7.15534 18.6024 6.94485 18.4848 6.83488 18.3539C6.71393 18.3895 6.6668 18.4477 6.66052 18.5172C6.6558 18.5696 6.67465 18.6282 6.70136 18.6876L6.76105 18.8055C6.7909 18.8618 6.81918 18.9165 6.83488 18.9649C6.64481 18.945 6.68408 19.081 6.72178 19.2087C6.74692 19.2935 6.77048 19.3748 6.72492 19.4045C6.68408 19.3834 6.64795 19.3748 6.61339 19.3748C6.58354 19.3748 6.55684 19.3814 6.53013 19.3924C6.48672 19.4099 6.44616 19.4387 6.40437 19.4684L6.39818 19.4728C6.34006 19.5154 6.28036 19.5588 6.20967 19.5729L6.17669 19.542C6.02274 19.3986 5.76983 19.1619 5.90492 18.9548C6.06201 18.768 6.20496 18.0531 5.95205 18.2129C6.00075 18.3098 6.01174 18.3895 5.99918 18.4582C5.99132 18.5047 5.97247 18.5465 5.94734 18.5856C5.91121 18.6418 5.86251 18.6926 5.81224 18.7438C5.69757 18.8606 5.58132 18.9806 5.61117 19.1771C5.6096 19.3084 5.46351 19.4588 5.37868 19.4689C5.35355 19.4717 5.3347 19.4623 5.32684 19.4365C5.31742 19.4099 5.32056 19.3654 5.34098 19.2982C5.30014 18.9728 5.46508 18.7215 5.62531 18.4778C5.76474 18.265 5.90176 18.056 5.89393 17.8097C5.72226 17.7763 5.66532 17.9091 5.6076 18.0438L5.60646 18.0464C5.54372 18.1916 5.48049 18.3378 5.27657 18.2773C5.18921 18.1737 5.23664 18.0778 5.285 17.9801L5.28818 17.9737C5.32049 17.9083 5.35337 17.8417 5.34569 17.7718C5.14998 17.7223 5.11812 17.8444 5.0837 17.9764L5.08186 17.9831C5.06821 18.0326 5.05425 18.0832 5.03152 18.1258L5.0111 18.159C4.99539 18.1797 4.97497 18.1972 4.9514 18.2109C4.9247 18.1594 4.88857 18.114 4.84301 18.0773L4.76918 18.0296C4.74405 18.0164 4.71734 18.0058 4.68907 17.998C4.63251 17.982 4.57439 17.9777 4.51627 17.9855C4.48799 17.989 4.45972 17.9957 4.43301 18.005C4.40474 18.0148 4.37803 18.0273 4.3529 18.0421C4.35761 18.0203 4.36547 17.9976 4.37646 17.9749L4.40788 17.912L4.40937 17.9091C4.434 17.8601 4.45821 17.8119 4.46129 17.7687C4.46286 17.7491 4.45972 17.7308 4.45029 17.7132C4.43616 17.6886 4.40945 17.6667 4.3639 17.6487C4.25506 17.7017 4.16659 17.7898 4.07749 17.8786L4.067 17.889C4.01987 17.9363 3.97275 17.9835 3.92405 18.0257C3.84551 18.0933 3.75911 18.1472 3.65543 18.1664C3.646 18.0898 3.66643 18.0226 3.69941 17.9593C3.71954 17.9203 3.7454 17.8827 3.77111 17.8453L3.78424 17.8261L3.79542 17.8097C3.82954 17.7597 3.86369 17.7097 3.88635 17.6565L3.8188 17.5343C3.72627 17.3759 3.62601 17.2043 3.83922 17.099C4.00259 17.0127 4.14083 16.8853 4.23822 16.7294C4.33719 16.5736 4.39374 16.395 4.4016 16.211C4.2245 16.1494 4.17562 16.3044 4.13171 16.4437L4.13098 16.446C4.08561 16.5876 4.04607 16.711 3.88321 16.57C3.80309 16.3966 3.70099 16.4606 3.59731 16.5259C3.51091 16.5802 3.42294 16.6353 3.34597 16.5525C3.32869 16.2876 3.5329 16.1403 3.73712 15.9938C3.93316 15.853 4.12983 15.7117 4.12669 15.4683C4.07171 15.4574 4.02144 15.4562 3.97432 15.4628C3.92248 15.4699 3.87692 15.4859 3.83294 15.5085C3.76225 15.5445 3.69941 15.5976 3.63972 15.659C3.57531 15.7246 3.51719 15.7996 3.46064 15.8731L3.44336 15.8945L3.32555 16.0395C3.09306 16.4587 2.63593 16.5306 2.18509 16.6013L1.98873 16.6333L1.87563 16.6548L1.75467 16.6826C1.69655 16.6974 1.64 16.7142 1.58659 16.7337C1.52846 16.7517 1.46877 16.7658 1.40908 16.7763C1.35252 16.7865 1.2944 16.7931 1.23628 16.7962C1.10747 16.8033 0.977085 16.7935 0.849844 16.7666C0.810572 16.7177 0.819997 16.6896 0.852986 16.6716C0.884403 16.6544 0.936242 16.6466 0.986511 16.6392L1.04463 16.6298L1.09019 16.6181C1.10904 16.6107 1.12161 16.6009 1.12004 16.5864C1.12004 16.5739 1.11061 16.5587 1.09019 16.5388C0.852785 16.5998 0.866952 16.4723 0.882562 16.3318L0.882833 16.3294C0.896924 16.211 0.912152 16.0831 0.780726 16.0508C0.636205 16.111 0.474405 16.1168 0.326742 16.0672C-0.281187 16.0887 0.471263 15.7094 0.689615 15.8297C0.840419 15.8594 0.940955 15.7977 0.988081 15.7172C1.06663 15.5824 0.994365 15.3952 0.755592 15.4988C0.718149 15.4348 0.686279 15.3803 0.648772 15.3534C0.601646 15.3198 0.546665 15.3273 0.461838 15.4054C0.422566 15.3812 0.37701 15.3659 0.331455 15.3605C0.2859 15.3554 0.238773 15.3601 0.194789 15.3749C0.150804 15.3894 0.109961 15.4136 0.0769729 15.4453C0.0424137 15.4773 0.0172796 15.516 0 15.5589Z" fill="#4083C3"/>
<path d="M39.9969 17.4172V16.1873C39.9969 16.2164 39.9976 16.2455 39.9984 16.2746C39.9992 16.3037 40 16.3331 40 16.3624V30.7646C40 30.794 39.9992 30.8232 39.9984 30.8524C39.9976 30.8815 39.9969 30.9106 39.9969 30.9397V29.4214C38.9161 29.2011 37.7426 28.8131 37.086 27.87C36.2716 26.2672 36.208 24.4601 36.1453 22.6757L36.1451 22.67C36.1215 21.9847 36.0979 21.303 36.032 20.6373C35.9096 20.2744 36.1978 20.1488 36.4755 20.0278C36.5698 19.9872 36.6635 19.9465 36.7389 19.8981C36.8754 19.8512 37.0214 19.8153 37.1706 19.7786L37.1734 19.7779C37.5009 19.6972 37.8376 19.6143 38.0914 19.4128L38.1856 19.3289L38.2658 19.2359L38.3317 19.1394C38.3977 18.9503 38.4998 18.7924 38.6239 18.6526C38.7119 18.5526 38.8108 18.4619 38.9161 18.3756C39.014 18.2966 39.1147 18.2215 39.2156 18.1462L39.2334 18.133C39.3591 18.0396 39.4848 17.9462 39.6026 17.8454C39.6638 17.7938 39.722 17.7407 39.7769 17.6848C39.857 17.6028 39.9324 17.5145 39.9969 17.4172Z" fill="#4083C3"/>
<path d="M33.1117 15.0723L33.1141 15.0715C33.2783 15.0147 33.453 14.9543 33.5343 14.7867C33.5673 14.7973 33.616 14.7903 33.6694 14.7824C33.7742 14.7677 33.8893 14.7514 33.8987 14.8715C33.9081 15.1228 33.8236 15.3573 33.7388 15.5921C33.6666 15.791 33.594 15.9912 33.5783 16.2014C33.5673 16.4993 33.3507 16.5139 33.131 16.5288L33.1275 16.529C32.9981 16.5379 32.8675 16.5469 32.7755 16.6151C32.4802 16.3667 32.609 15.9397 32.7111 15.6025L32.719 15.5771L32.7347 15.5236C32.6892 15.2182 32.8938 15.1476 33.1117 15.0723Z" fill="#4083C3"/>
<path d="M28.2656 16.1502C28.0205 16.3198 28.0912 16.5171 28.1634 16.7156L28.1996 16.8156C28.231 16.9187 28.2483 17.0207 28.2074 17.118C28.0755 17.0523 27.7786 16.9867 27.8618 17.2375C27.9451 17.395 27.8383 17.3508 27.7252 17.3031C27.6702 17.2801 27.6121 17.2559 27.5744 17.2547C27.4613 17.2781 27.411 17.1555 27.3749 17.0629C27.3592 17.025 27.345 16.9922 27.3309 16.9765C27.3073 16.9519 27.2806 16.9707 27.2351 17.082C27.1644 17.2735 27.1392 17.1855 27.1062 17.066C27.0717 16.9402 27.0261 16.7792 26.9067 16.8734C26.8502 17.1981 27.2562 17.4152 27.528 17.5606L27.5728 17.5848L27.5869 17.5926C27.8383 17.6997 27.9671 17.9181 28.0943 18.1361C28.1823 18.2857 28.2703 18.4346 28.3975 18.5467C28.4525 18.5948 28.5138 18.6362 28.5844 18.6678C28.696 18.6905 28.8012 18.7264 28.9018 18.7706C29.0548 18.8382 29.2002 18.9248 29.3456 19.0113L29.3526 19.0155C29.4468 19.0718 29.5411 19.128 29.6385 19.1792C29.7626 19.2452 29.8914 19.3031 30.0296 19.3414C30.2527 19.3828 30.6706 19.3132 30.6109 18.9991C30.5182 18.6471 30.3517 18.3181 30.1239 18.0337C29.8961 17.7493 29.6102 17.5157 29.285 17.3477C29.2583 17.3211 29.2348 17.3129 29.2128 17.3164C29.1768 17.322 29.1465 17.3582 29.1165 17.3941L29.1123 17.3993C29.095 17.4211 29.0777 17.4422 29.0604 17.4555C29.029 17.4813 28.9944 17.4797 28.9536 17.4043C28.9976 17.193 28.8546 17.173 28.7117 17.1535C28.6551 17.1457 28.5986 17.1379 28.553 17.1172C28.5373 17.1098 28.5232 17.1012 28.5122 17.0902C28.487 17.0676 28.4713 17.0355 28.4698 16.9894C28.4682 16.9578 28.4603 16.9269 28.4493 16.8968L28.4164 16.8308L28.3567 16.7382L28.3554 16.7364C28.2726 16.6144 28.1923 16.4961 28.3174 16.3628C28.3975 16.3178 28.4368 16.2401 28.4242 16.1889C28.4132 16.1452 28.3629 16.1201 28.2656 16.1502Z" fill="#4083C3"/>
<path d="M37.5259 17.286C37.3578 17.3989 37.1818 17.502 37.0043 17.6051C36.8378 17.702 36.6713 17.7989 36.5127 17.9044C36.2613 18.0708 36.0288 18.2584 35.845 18.5002C35.7021 18.6049 35.6832 18.885 35.911 18.8803L36.1749 18.8397C36.7153 18.7624 37.3358 18.6733 37.4929 18.0728L37.5416 17.9372L37.5429 17.9337C37.6324 17.6901 37.7619 17.3373 37.5259 17.286Z" fill="#4083C3"/>
<path d="M19.4388 18.3877C19.1639 18.5444 19.0618 19.0573 19.4152 19.1566C19.3948 18.9315 19.4247 18.7045 19.5032 18.4924C19.5503 18.4146 19.5488 18.3232 19.4388 18.3877Z" fill="#4083C3"/>
<path d="M22.0936 31.9203C22.1454 31.6499 22.3968 31.4597 22.6355 31.2795L22.6433 31.2737C22.7302 31.2081 22.8152 31.144 22.8869 31.078C22.9167 31.067 22.9466 31.0631 22.9733 31.067C23.0047 31.0713 23.033 31.0858 23.0502 31.1108C23.0644 31.1295 23.0738 31.1545 23.0754 31.1866C23.2859 31.6687 23.5215 32.1394 23.7823 32.5965C23.5199 32.5055 23.2592 32.4047 23 32.2996L22.2098 31.9687L22.191 31.9617L22.0936 31.9203Z" fill="#4083C3"/>
<path d="M19.9116 36.1502C20.3106 35.6912 20.7096 35.2317 21.0851 34.7527C21.3898 34.7914 21.6474 34.9793 21.9082 35.17L22.1486 35.34L22.2287 35.3911L22.3292 35.4497C22.3889 35.4825 22.4486 35.5115 22.5114 35.5357L22.8099 35.7013C22.9843 35.8033 23.1523 35.9135 23.3157 36.0311C22.7204 36.4081 22.092 36.7296 21.4385 36.9914C20.7725 37.0891 20.1253 37.2852 19.4812 37.4809C19.2299 37.5579 18.977 37.6344 18.7225 37.7052C18.5622 37.7497 18.402 37.7919 18.2418 37.8302C18.1805 37.6102 18.2606 37.4696 18.3989 37.4016C18.5261 37.3399 18.7021 37.3383 18.8607 37.3918C19.0398 37.168 19.2236 36.948 19.4105 36.73L19.9116 36.1502Z" fill="#4083C3"/>
<path d="M29.3259 13.9241C29.1368 14.0492 29.2069 14.2854 29.3024 14.4501L29.3039 14.4527L29.3683 14.5683C29.4123 14.6477 29.461 14.727 29.5113 14.8071L29.5301 14.8371C29.7623 15.2071 30.0075 15.5976 29.882 16.049C29.7987 16.6433 30.5229 17.007 31.0334 17C31.2109 16.7312 31.2863 16.4202 31.3602 16.1088C31.4277 15.8264 31.4953 15.5439 31.6398 15.2915C31.9178 14.961 31.7733 14.5855 31.6335 14.2261L31.6257 14.2073L31.5408 13.971C31.3775 13.9202 30.6454 13.7092 30.4805 13.7092L30.2747 13.7057C30.1789 13.701 30.0831 13.6889 29.9872 13.6596C29.8019 13.8171 29.5694 13.91 29.3259 13.9241Z" fill="#4083C3"/>
<path d="M5.17603 4.04491C5.51391 4.11689 5.99974 3.88097 6.26965 4.13288C6.28964 6.04888 6.26532 7.96488 6.28064 9.88089C7.17433 9.20612 7.91074 8.26745 8.76278 7.51771C9.21856 7.48564 9.67579 7.47919 10.1323 7.49838C9.23262 8.42539 8.30427 9.32608 7.39659 10.2464C7.36793 10.4903 7.59918 10.6316 7.73181 10.8022C8.59051 11.9242 9.5755 12.9588 10.3749 14.1194C9.95803 14.0921 9.49619 14.1987 9.10566 14.0711C8.08368 13.0818 7.33961 11.8422 6.35528 10.8192C6.16102 11.8442 6.33929 13.0351 6.27298 14.1214C5.89111 14.1214 5.50891 14.1364 5.12738 14.1191C5.12038 10.8122 5.12938 7.50471 5.12305 4.19786C5.12471 4.14121 5.11838 4.0759 5.17603 4.04491ZM24.6296 4.04491C24.9905 4.09223 25.4387 3.93228 25.7645 4.09056C25.7689 7.33677 25.7782 10.584 25.7599 13.8298C25.1282 14.1194 24.4441 14.2773 23.7494 14.2937C23.0547 14.3102 22.364 14.1849 21.7193 13.9255C19.4031 12.9402 19.3261 9.35373 21.2758 7.96422C21.7173 7.65507 22.219 7.44241 22.7481 7.3401C23.2773 7.23778 23.8221 7.24812 24.347 7.37042C24.3619 7.38777 24.3814 7.40047 24.4033 7.40698C24.4252 7.4135 24.4485 7.41356 24.4704 7.40715C24.4923 7.40075 24.5119 7.38815 24.5269 7.37088C24.5418 7.35361 24.5515 7.33239 24.5546 7.30978C24.6496 6.23548 24.486 5.08888 24.6296 4.04491ZM23.4447 8.27344C23.0458 8.26522 22.6516 8.36145 22.3014 8.55259C21.9511 8.74373 21.657 9.02313 21.448 9.36306C21.1891 9.85369 21.065 10.4043 21.0884 10.9585C21.1118 11.5128 21.2819 12.0509 21.5813 12.518C22.0553 12.9982 22.6835 13.2959 23.3554 13.3587C23.7412 13.3 24.3294 13.4253 24.5746 13.0471C24.577 11.5193 24.5883 9.99151 24.569 8.46404C24.2197 8.29559 23.8298 8.22883 23.4447 8.27344ZM26.9258 4.08823C27.2414 4.05491 27.7842 3.90363 28.0647 4.13188C28.0834 7.0502 28.0621 9.96986 28.0747 12.8882C28.2513 13.259 28.6412 13.298 29.0101 13.2547C29.0334 13.5413 29.1857 13.7989 29.1947 14.0878L29.1467 14.1251C28.5166 14.2274 27.7472 14.388 27.245 13.8762C26.9785 13.7016 26.9851 13.3653 26.9228 13.0884C26.9208 10.0908 26.9141 7.08852 26.9258 4.08823ZM11.5745 4.96559C11.7876 4.88913 12.0219 4.89642 12.2299 4.98598C12.4379 5.07554 12.6041 5.24069 12.6951 5.44809C12.897 5.92093 12.4175 6.3771 11.9843 6.45374C11.1733 6.52405 10.871 5.3228 11.5745 4.96559ZM16.9746 7.27646C17.2383 7.24325 17.5059 7.26294 17.7619 7.33439C18.0179 7.40583 18.2571 7.5276 18.4654 7.69256C18.6738 7.85753 18.8472 8.06238 18.9755 8.29514C19.1037 8.5279 19.1843 8.78391 19.2125 9.04818C19.3174 10.7143 19.2338 12.4013 19.2541 14.0741C18.8723 14.1529 18.4791 14.1601 18.0945 14.0954C18.0302 12.6536 18.0862 11.1724 18.0679 9.71528C18.0199 9.21545 17.8729 8.60933 17.3461 8.41273C16.4514 8.08784 15.5368 8.66231 14.857 9.20879C14.8403 10.8456 14.863 12.4837 14.847 14.1204C14.4658 14.1204 14.0836 14.1354 13.7027 14.1181C13.6992 11.9108 13.6992 9.70328 13.7027 7.49538C14.0489 7.55636 14.7964 7.24647 14.7274 7.85226C14.7547 8.00187 14.721 8.33209 14.956 8.23446C15.518 7.7207 16.2211 7.38657 16.9746 7.27646ZM29.8171 8.60366C30.5735 7.1545 32.7201 6.8496 33.9157 7.9209C34.7031 8.72962 34.9384 9.9312 34.857 11.0242C33.4325 11.0368 32.007 11.0118 30.5839 11.0345C30.3626 11.378 30.6022 11.8512 30.7368 12.2107C31.2116 13.2104 32.4769 13.6189 33.4955 13.277C33.8261 13.292 34.0363 12.9332 34.3679 12.9805C34.4678 13.2311 34.6784 13.468 34.6515 13.7512C33.666 14.282 32.5159 14.4193 31.4332 14.1354C31.246 14.0541 31.041 14.0195 30.8601 13.9222C30.4136 13.5459 29.8475 13.2027 29.6722 12.6053C29.3992 11.9689 29.2706 11.2799 29.2956 10.5879C29.3206 9.8959 29.4989 9.21869 29.8171 8.60366ZM31.7421 8.26545C31.5317 8.31231 31.3346 8.40612 31.1655 8.53987C30.9965 8.67362 30.8598 8.84385 30.7658 9.03784C30.5879 9.37539 30.287 9.98152 30.6688 10.2131C31.6645 10.1884 32.7265 10.3561 33.6984 10.1365C33.7152 9.63042 33.5661 9.13277 33.2739 8.71929C33.0852 8.51001 32.8423 8.357 32.572 8.2772C32.3017 8.1974 32.0146 8.1939 31.7425 8.26711L31.7421 8.26545ZM11.3612 7.49471C11.7427 7.49471 12.1253 7.47939 12.5068 7.49705C12.5104 9.70428 12.5104 11.9118 12.5068 14.1197C12.1249 14.1197 11.7427 14.1347 11.3612 14.1174C11.3572 11.9113 11.3573 9.70428 11.3615 7.49638L11.3612 7.49471Z" fill="#FF9900"/>
<path d="M54 8.68856V0H56.8707C57.6814 0 58.3332 0.20896 58.8263 0.626881C59.3194 1.0448 59.5659 1.60063 59.5659 2.29438C59.5659 2.72902 59.4656 3.10515 59.2651 3.42277C59.0645 3.73203 58.7762 3.97024 58.4001 4.13741C58.935 4.29622 59.3445 4.55951 59.6286 4.92728C59.9128 5.28669 60.0548 5.73387 60.0548 6.2688C60.0548 7.00434 59.7958 7.59361 59.2776 8.03661C58.7595 8.47124 58.0658 8.68856 57.1966 8.68856H54ZM55.216 4.72668V7.71063H57.1716C58.2329 7.71063 58.7636 7.2133 58.7636 6.21865C58.7636 5.72551 58.6257 5.35356 58.3499 5.10281C58.0825 4.85205 57.6814 4.72668 57.1465 4.72668H55.216ZM55.216 0.977933V3.77382H56.7454C57.7817 3.77382 58.2998 3.30993 58.2998 2.38215C58.2998 1.92243 58.1703 1.57556 57.9112 1.34152C57.6605 1.09913 57.2844 0.977933 56.783 0.977933H55.216Z" fill="#222222"/>
<path d="M65.8875 8.68856L65.7496 8.01153C64.9724 8.58826 64.1743 8.87663 63.3553 8.87663C62.7619 8.87663 62.3065 8.70946 61.9889 8.37512C61.6713 8.04079 61.5125 7.56854 61.5125 6.95837V2.332H62.7536V6.55717C62.7536 7.00852 62.8413 7.34286 63.0168 7.56018C63.1923 7.76914 63.4723 7.87362 63.8567 7.87362C64.4584 7.87362 65.0643 7.67302 65.6744 7.27181V2.332H66.9155V8.68856H65.8875Z" fill="#222222"/>
<path d="M70.4907 8.75125L67.9333 2.332H69.2621L71.0924 7.5351L72.8599 2.332H74.1386L71.2428 9.80441C71.0255 10.3811 70.7623 10.7949 70.453 11.0456C70.1522 11.2964 69.7677 11.4218 69.2997 11.4218C68.9487 11.4218 68.6228 11.3633 68.3219 11.2462V10.3561C68.5476 10.4146 68.7858 10.4438 69.0365 10.4438C69.3457 10.4438 69.5881 10.3644 69.7636 10.2056C69.9474 10.0552 70.1104 9.78351 70.2525 9.39067L70.4907 8.75125Z" fill="#222222"/>
<path d="M82.732 8.68856V4.43831C82.732 3.99532 82.6401 3.66934 82.4562 3.46038C82.2807 3.25142 82.0008 3.14694 81.6163 3.14694C80.9561 3.14694 80.3084 3.36008 79.6733 3.78636V8.68856H78.4322V2.332H79.4727L79.5981 3.0341C80.392 2.44065 81.2277 2.14393 82.1052 2.14393C82.7153 2.14393 83.1791 2.30692 83.4967 2.6329C83.8143 2.95052 83.9731 3.41441 83.9731 4.02457V8.68856H82.732Z" fill="#222222"/>
<path d="M88.5097 8.87663C87.557 8.87663 86.8132 8.5799 86.2783 7.98646C85.7435 7.39301 85.476 6.56553 85.476 5.50401C85.476 4.45085 85.7435 3.62755 86.2783 3.0341C86.8132 2.44065 87.557 2.14393 88.5097 2.14393C89.4624 2.14393 90.2062 2.44065 90.7411 3.0341C91.276 3.62755 91.5434 4.45085 91.5434 5.50401C91.5434 6.56553 91.276 7.39301 90.7411 7.98646C90.2062 8.5799 89.4624 8.87663 88.5097 8.87663ZM88.5097 7.87362C89.6881 7.87362 90.2773 7.08375 90.2773 5.50401C90.2773 3.93263 89.6881 3.14694 88.5097 3.14694C87.3313 3.14694 86.7421 3.93263 86.7421 5.50401C86.7421 7.08375 87.3313 7.87362 88.5097 7.87362Z" fill="#222222"/>
<path d="M98.1662 8.68856L96.8124 3.71113L95.471 8.68856H94.2174L92.1365 2.332H93.4402L94.8693 7.42226L96.2232 2.332H97.4642L98.8181 7.48495L100.285 2.332H101.551L99.4198 8.68856H98.1662Z" fill="#222222"/>
<path d="M109.602 8.68856L109.502 8.03661C109.201 8.29572 108.867 8.49632 108.499 8.63841C108.14 8.78051 107.781 8.85155 107.421 8.85155C106.828 8.85155 106.351 8.68438 105.992 8.35005C105.641 8.00735 105.466 7.55182 105.466 6.98345C105.466 6.37328 105.683 5.8885 106.117 5.52909C106.552 5.16132 107.137 4.97743 107.872 4.97743C108.357 4.97743 108.884 5.04848 109.452 5.19057V4.36309C109.452 3.91173 109.347 3.59411 109.139 3.41023C108.938 3.22634 108.591 3.1344 108.098 3.1344C107.388 3.1344 106.652 3.26396 105.892 3.52307V2.64544C106.193 2.48663 106.56 2.36543 106.995 2.28184C107.43 2.1899 107.868 2.14393 108.311 2.14393C109.105 2.14393 109.69 2.3111 110.066 2.64544C110.442 2.97141 110.63 3.47292 110.63 4.14995V8.68856H109.602ZM107.722 7.91123C108.29 7.91123 108.867 7.69809 109.452 7.27181V5.99298C109.017 5.88432 108.574 5.82999 108.123 5.82999C107.179 5.82999 106.707 6.19358 106.707 6.92076C106.707 7.23838 106.794 7.48495 106.97 7.66048C107.145 7.82765 107.396 7.91123 107.722 7.91123Z" fill="#222222"/>
<path d="M116.05 8.53811C115.641 8.69692 115.177 8.77633 114.659 8.77633C113.472 8.77633 112.879 8.18288 112.879 6.99599V3.30993H111.725V2.50752L112.916 2.35707L113.104 0.551654H114.12V2.332H116V3.30993H114.12V6.9333C114.12 7.24256 114.186 7.45988 114.32 7.58525C114.462 7.71063 114.7 7.77332 115.035 7.77332C115.377 7.77332 115.716 7.73153 116.05 7.64794V8.53811Z" fill="#222222"/>
<path fill-rule="evenodd" clip-rule="evenodd" d="M96.4103 20.5309V18.8629C96.4089 18.8072 96.4189 18.7518 96.4396 18.7C96.4603 18.6483 96.4913 18.6013 96.5307 18.5618C96.5701 18.5224 96.6171 18.4914 96.6689 18.4707C96.7206 18.4501 96.7761 18.4401 96.8318 18.4415H104.295C104.352 18.4395 104.408 18.4489 104.46 18.4692C104.513 18.4896 104.561 18.5204 104.601 18.5598C104.642 18.5992 104.674 18.6464 104.695 18.6985C104.717 18.7506 104.727 18.8066 104.727 18.8629V20.2904C104.723 20.53 104.522 20.843 104.164 21.3378L100.297 26.8606C101.734 26.8255 103.251 27.0394 104.554 27.7738C104.671 27.8376 104.769 27.9311 104.839 28.0449C104.908 28.1587 104.947 28.2888 104.95 28.4222V30.201C104.95 30.4436 104.682 30.727 104.401 30.581C103.181 29.9539 101.828 29.6279 100.457 29.6301C99.0848 29.6323 97.7335 29.9627 96.5155 30.5937C96.2569 30.7342 95.9854 30.4532 95.9854 30.2104V28.5212C95.9606 28.1202 96.0563 27.721 96.26 27.3747L100.741 20.9493H96.8414C96.7852 20.9517 96.7291 20.9427 96.6765 20.9227C96.624 20.9027 96.576 20.8722 96.5356 20.833C96.4953 20.7939 96.4633 20.7469 96.4418 20.6949C96.4202 20.6429 96.4095 20.5871 96.4103 20.5309Z" fill="#222222"/>
<path fill-rule="evenodd" clip-rule="evenodd" d="M69.1843 30.9325H66.9137C66.8109 30.9274 66.7135 30.8856 66.639 30.8147C66.5645 30.7438 66.518 30.6485 66.508 30.5461V18.8927C66.509 18.8364 66.5212 18.7808 66.5438 18.7292C66.5664 18.6776 66.5991 18.631 66.6398 18.5921C66.6806 18.5532 66.7287 18.5227 66.7813 18.5025C66.8339 18.4823 66.89 18.4727 66.9463 18.4743H69.0637C69.1682 18.4777 69.2677 18.5192 69.3437 18.591C69.4196 18.6628 69.4666 18.7599 69.4758 18.864V20.3872H69.5172C70.0697 18.9151 71.1077 18.2284 72.5065 18.2284C73.9276 18.2284 74.8155 18.9151 75.4542 20.3872C75.6652 19.8335 76.0193 19.3455 76.4803 18.9731C76.9413 18.6007 77.4928 18.3571 78.0785 18.2672C78.6643 18.1772 79.2635 18.2441 79.815 18.461C80.3665 18.6779 80.8506 19.0371 81.2182 19.502C81.9368 20.4824 81.7898 21.9068 81.7898 23.1554L81.7865 30.5102C81.7855 30.5667 81.7734 30.6224 81.7508 30.6742C81.7282 30.726 81.6957 30.7729 81.6549 30.812C81.6142 30.8512 81.5661 30.8819 81.5135 30.9024C81.4608 30.923 81.4046 30.9329 81.3482 30.9316H79.0815C78.9727 30.9259 78.8702 30.8793 78.7944 30.8011C78.7186 30.723 78.6751 30.619 78.6727 30.5102V24.3345C78.6727 23.8427 78.7165 22.6165 78.6089 22.1501C78.4397 21.3676 77.9319 21.1473 77.2739 21.1473C76.9791 21.1564 76.6934 21.2516 76.4521 21.4213C76.2109 21.5911 76.0247 21.8278 75.9166 22.1023C75.6834 22.6899 75.7058 23.6735 75.7058 24.3345V30.5111C75.7048 30.5675 75.6927 30.6233 75.6701 30.6751C75.6475 30.7269 75.6149 30.7737 75.5742 30.8129C75.5335 30.8521 75.4854 30.8828 75.4327 30.9033C75.3801 30.9238 75.3239 30.9338 75.2674 30.9325H73.0007C72.8918 30.9273 72.789 30.8808 72.7131 30.8026C72.6371 30.7243 72.5939 30.6201 72.592 30.5111L72.5887 24.3348C72.5887 23.0351 72.8026 21.1221 71.1899 21.1221C69.558 21.1221 69.6218 22.9873 69.6218 24.3348V30.5111C69.6208 30.5675 69.6087 30.6233 69.5861 30.6751C69.5635 30.7269 69.5309 30.7737 69.4902 30.8129C69.4494 30.8521 69.4014 30.8828 69.3487 30.9033C69.2961 30.9238 69.2408 30.9338 69.1843 30.9325Z" fill="#222222"/>
<path fill-rule="evenodd" clip-rule="evenodd" d="M111.153 18.2284C114.522 18.2284 116.346 21.1215 116.346 24.8007C116.346 28.3553 114.331 31.1751 111.153 31.1751C107.843 31.1751 106.043 28.2821 106.043 24.6762C106.043 21.0483 107.867 18.2284 111.153 18.2284ZM111.172 20.6075C109.499 20.6075 109.393 22.8869 109.393 24.3089C109.393 25.7309 109.371 28.7734 111.153 28.7734C112.913 28.7734 112.996 26.3207 112.996 24.8261C112.996 23.8425 112.954 22.6673 112.657 21.7358C112.402 20.9249 111.894 20.6075 111.172 20.6075Z" fill="#222222"/>
<path fill-rule="evenodd" clip-rule="evenodd" d="M120.714 30.9326H118.453C118.345 30.9268 118.242 30.8802 118.166 30.8021C118.091 30.7239 118.047 30.62 118.045 30.5111L118.041 18.8544C118.054 18.7477 118.106 18.6495 118.187 18.5792C118.268 18.5089 118.372 18.4714 118.48 18.4744H120.584C120.678 18.4776 120.768 18.5112 120.841 18.57C120.914 18.6288 120.966 18.7098 120.99 18.8007V20.5828H121.031C121.667 18.9892 122.558 18.2291 124.126 18.2291C125.145 18.2291 126.138 18.5964 126.777 19.6024C127.37 20.535 127.37 22.103 127.37 23.2304V30.5661C127.354 30.6699 127.3 30.7642 127.22 30.8316C127.139 30.8991 127.037 30.9353 126.932 30.9334H124.655C124.556 30.9281 124.462 30.8886 124.389 30.8216C124.315 30.7547 124.267 30.6644 124.253 30.5661V24.2362C124.253 22.9619 124.4 21.097 122.832 21.097C122.547 21.1096 122.271 21.2043 122.038 21.3698C121.805 21.5352 121.625 21.7643 121.519 22.0296C121.2 22.7416 121.158 23.4507 121.158 24.2364V30.5109C121.154 30.6253 121.106 30.7336 121.023 30.8124C120.94 30.8912 120.829 30.9345 120.714 30.9326Z" fill="#222222"/>
<path fill-rule="evenodd" clip-rule="evenodd" d="M90.4609 25.3662C90.4609 26.2508 90.4828 26.9881 90.0361 27.7742C89.6752 28.4129 89.1005 28.8057 88.4649 28.8057C87.593 28.8057 87.0821 28.1414 87.0821 27.1619C87.0821 25.2266 88.8162 24.8752 90.4611 24.8752L90.4609 25.3662ZM92.7508 30.9005C92.6775 30.963 92.5869 31.0017 92.491 31.0114C92.3952 31.0211 92.2986 31.0014 92.2143 30.9549C91.4605 30.3289 91.3233 30.0383 90.9113 29.441C89.6657 30.7122 88.7812 31.0921 87.1683 31.0921C85.2553 31.0921 83.7711 29.9136 83.7711 27.5535C83.7438 26.7612 83.9615 25.9797 84.3945 25.3157C84.8276 24.6516 85.4549 24.1372 86.191 23.8427C87.4238 23.2998 89.145 23.2041 90.4609 23.0537V22.7602C90.4609 22.2204 90.5023 21.5817 90.183 21.1164C90.0343 20.9221 89.8407 20.7667 89.6187 20.6636C89.3968 20.5605 89.1531 20.5128 88.9087 20.5247C88.0432 20.5247 87.2735 20.9685 87.0852 21.8884C87.0735 21.9913 87.0284 22.0875 86.9569 22.1625C86.8854 22.2374 86.7914 22.2869 86.6892 22.3035L84.4887 22.0672C84.4344 22.0599 84.3823 22.0415 84.3354 22.0132C84.2886 21.9849 84.248 21.9473 84.2163 21.9027C84.1845 21.8581 84.1623 21.8074 84.1509 21.7539C84.1395 21.7003 84.1392 21.645 84.15 21.5914C84.655 18.9214 87.0694 18.1166 89.2283 18.1166C90.3333 18.1166 91.7768 18.4105 92.6487 19.2471C93.7537 20.2785 93.6483 21.6552 93.6483 23.1528V26.6915C93.6483 27.755 94.0891 28.2214 94.5042 28.7956C94.648 29.0001 94.6795 29.246 94.4945 29.3992C94.0314 29.7856 93.2076 30.5043 92.7541 30.9067L92.7508 30.9005Z" fill="#222222"/>
<path fill-rule="evenodd" clip-rule="evenodd" d="M60.6929 25.3662C60.6929 26.2508 60.7148 26.9881 60.2681 27.7742C59.9071 28.4129 59.3355 28.8057 58.6969 28.8057C57.825 28.8057 57.3172 28.1414 57.3172 27.1619C57.3172 25.2266 59.0513 24.8752 60.6924 24.8752L60.6929 25.3662ZM62.9828 30.9005C62.9095 30.963 62.8188 31.0017 62.723 31.0114C62.6271 31.0211 62.5306 31.0014 62.4462 30.9549C61.6925 30.3289 61.5584 30.0383 61.1433 29.441C59.8979 30.7122 59.0162 31.0916 57.3994 31.0916C55.4904 31.0916 54.0022 29.9138 54.0022 27.5538C53.9754 26.7614 54.1935 25.98 54.6266 25.316C55.0598 24.652 55.687 24.1375 56.423 23.8427C57.6558 23.2998 59.377 23.2041 60.6929 23.0537V22.7602C60.6929 22.2204 60.7343 21.5817 60.4182 21.1164C60.2692 20.9225 60.0755 20.7674 59.8536 20.6644C59.6318 20.5614 59.3883 20.5134 59.144 20.5247C58.2785 20.5247 57.5057 20.9685 57.3172 21.8884C57.3055 21.9907 57.2608 22.0864 57.19 22.1612C57.1192 22.2359 57.026 22.2856 56.9244 22.3028L54.7209 22.0672C54.6667 22.0596 54.6147 22.041 54.568 22.0126C54.5213 21.9843 54.4809 21.9467 54.4492 21.9021C54.4175 21.8576 54.3952 21.8071 54.3837 21.7537C54.3722 21.7002 54.3717 21.645 54.3822 21.5914C54.8901 18.9214 57.3012 18.1166 59.4596 18.1166C60.5651 18.1166 62.0086 18.4105 62.8804 19.2473C63.9855 20.2788 63.8801 21.6554 63.8801 23.153V26.6915C63.8801 27.755 64.3208 28.2214 64.7359 28.7956C64.8828 29.0001 64.9148 29.246 64.7296 29.3992C64.2665 29.7856 63.4426 30.5043 62.9891 30.9067L62.9828 30.9005Z" fill="#222222"/>
<path d="M134.864 30.851L130.901 26.0456H130.881V30.851H129.457V17.0208H130.881V24.8735H130.901L134.298 21.6111H136.153L132.092 25.3809L136.68 30.8505L134.864 30.851Z" fill="#222222"/>
<path d="M138.34 19.6776C138.143 19.6777 137.95 19.6193 137.786 19.5099C137.622 19.4005 137.495 19.245 137.419 19.0629C137.344 18.8809 137.324 18.6806 137.362 18.4874C137.401 18.2941 137.496 18.1166 137.635 17.9772C137.774 17.8379 137.952 17.7429 138.145 17.7045C138.338 17.666 138.538 17.6857 138.72 17.7611C138.903 17.8365 139.058 17.9641 139.168 18.128C139.277 18.2918 139.336 18.4844 139.336 18.6814C139.334 18.9452 139.229 19.1979 139.043 19.3845C138.856 19.5711 138.604 19.6764 138.34 19.6776ZM137.637 30.8512V21.6113H139.062V30.8512H137.637Z" fill="#222222"/>
<path d="M147.073 30.8501V25.1668C147.073 24.0141 146.878 22.725 145.472 22.725C144.339 22.725 143.304 23.5258 142.602 24.1318V30.8517H141.177V21.6113H142.348L142.544 22.7247C143.559 21.9436 144.555 21.377 145.844 21.377C147.171 21.377 148.499 22.3342 148.499 24.6394V30.8514H147.074L147.073 30.8501Z" fill="#222222"/>
<path d="M154.784 31.0465C152.207 31.0465 150.04 29.5425 150.04 26.3584C150.04 23.4872 152.109 21.377 154.804 21.377C155.309 21.3643 155.815 21.4168 156.307 21.5333V17.0208H157.732V30.3822C157.167 30.7144 156.093 31.0465 154.784 31.0465ZM156.307 22.8615C155.853 22.6868 155.368 22.607 154.882 22.6272C153.066 22.6272 151.485 24.0533 151.485 26.2606C151.485 28.3507 152.637 29.8353 155.039 29.8353C155.473 29.8403 155.904 29.7607 156.308 29.601L156.307 22.8615Z" fill="#222222"/>
<path d="M161.442 31.0465C160.309 31.0465 159.821 30.3232 159.821 29.3468V17.0208H161.246V28.7026C161.246 29.5815 161.461 29.7575 162.007 29.7575C162.172 29.7599 162.336 29.7402 162.495 29.699L162.671 30.7344C162.294 30.9419 161.871 31.0494 161.442 31.0465Z" fill="#222222"/>
<path d="M164.976 26.4757C164.976 28.2339 165.992 29.8156 167.983 29.8156C168.78 29.7943 169.555 29.5582 170.229 29.1322L170.678 30.1477C169.82 30.7031 168.828 31.0139 167.807 31.0463C164.858 31.0463 163.452 28.6827 163.452 26.0454C163.452 23.3693 164.975 21.377 167.2 21.377C169.582 21.377 170.89 23.272 170.89 26.1436V26.4759L164.976 26.4757ZM167.222 22.5873C165.855 22.5873 164.996 23.7985 164.996 25.2634H169.35C169.35 23.9751 168.628 22.5873 167.222 22.5873Z" fill="#222222"/>
<path fill-rule="evenodd" clip-rule="evenodd" d="M99.4141 35.1849C95.1505 38.3274 88.971 40.004 83.6503 40.004C76.5396 40.0404 69.6716 37.4197 64.3927 32.6556C63.9936 32.2946 64.3513 31.803 64.8311 32.084C70.3145 35.2745 77.0946 37.1938 84.0983 37.1938C89.1475 37.1703 94.1422 36.1491 98.7954 34.1887C99.5171 33.8819 100.12 34.6613 99.4141 35.1849Z" fill="#FF9900"/>
<path fill-rule="evenodd" clip-rule="evenodd" d="M101.187 33.1571C100.644 32.461 97.5848 32.8284 96.2119 32.991C95.7935 33.0421 95.7297 32.678 96.1065 32.4161C98.5432 30.7011 102.542 31.1962 103.008 31.7711C103.474 32.346 102.887 36.3571 100.597 38.27C100.246 38.5639 99.9104 38.4074 100.067 38.0177C100.581 36.7338 101.733 33.8565 101.187 33.1571Z" fill="#FF9900"/>
</svg>
