<svg viewBox="0 0 25 26" fill="none" xmlns="http://www.w3.org/2000/svg">
<g clip-path="url(#clip0)">
<rect y="0.40332" width="25" height="25" rx="4" fill="#222222"/>
<path d="M0 10.1263V22.4029C0 24.06 1.35035 25.4033 3.01608 25.4033H8.792C8.71346 25.2883 8.7488 25.1733 8.82833 25.0796C8.89705 24.9978 8.99916 24.9321 9.08752 24.8967C9.19945 24.8681 9.31039 24.8373 9.42035 24.8044C9.68936 24.7243 9.95445 24.632 10.2146 24.5277C10.2647 24.5052 10.3118 24.4786 10.354 24.4481C10.4169 24.4022 10.4689 24.3478 10.5023 24.2855C10.5514 24.1939 10.5602 24.086 10.5082 23.9654L10.6859 23.6511L10.8282 23.4062L11.1807 22.815L11.272 22.6634C11.4556 22.3597 11.6382 22.0559 11.8159 21.7492C11.8238 21.7209 11.8483 21.6894 11.8739 21.6572C11.9238 21.5926 11.9768 21.5242 11.9023 21.4723L11.7502 21.3727L11.7486 21.3716C11.536 21.2296 11.3204 21.0856 11.0531 21.096C10.8911 21.0865 10.7379 21.0201 10.6211 20.9083C10.5995 20.8875 10.5799 20.8655 10.5612 20.8423L10.5455 20.8223C10.4719 20.7244 10.4267 20.6084 10.4149 20.4863C10.2578 20.333 10.0919 20.1865 9.92303 20.0426L9.6226 19.7897L9.40857 19.6104L9.1965 19.4283C9.03156 19.3143 9.22497 19.1641 9.32708 19.1033C9.38304 19.0733 9.43606 19.0378 9.4881 18.9998L9.62457 18.8928C9.76791 18.7773 9.91223 18.6621 10.084 18.6152C10.2313 18.7187 10.3737 18.8291 10.5131 18.9433C10.7065 19.1026 10.896 19.2696 11.0845 19.4363L11.0904 19.4429C11.2602 19.5938 11.4301 19.7447 11.6039 19.8898C11.6579 19.9843 11.5842 20.0705 11.5096 20.1576C11.441 20.2376 11.3712 20.3189 11.3987 20.4079C11.487 20.4863 11.5607 20.5798 11.6157 20.6841C11.7678 20.73 11.9269 20.7417 12.0859 20.7427L12.5385 20.7368L12.6642 20.741C12.945 20.8123 13.0658 20.5747 13.1747 20.3596C13.2052 20.2998 13.2346 20.2419 13.2661 20.1928C13.2582 20.1345 13.2631 20.0802 13.2769 20.0287C13.2847 19.9984 13.2965 19.9691 13.3102 19.9403L13.3505 19.8673L13.428 19.7491L13.4997 19.6407C13.5194 19.6097 13.537 19.5782 13.5518 19.5457C13.6568 19.3743 13.7815 19.2171 13.9239 19.0772C14.0603 18.9436 14.2125 18.8257 14.3765 18.726C14.399 18.469 14.1724 18.5345 14.0036 18.5834L13.9474 18.5991L13.9003 18.61C13.8416 18.5354 13.7576 18.5174 13.6735 18.4994C13.5763 18.4789 13.4791 18.4579 13.4222 18.3505C13.3907 18.2816 13.3142 18.2814 13.2425 18.2811C13.164 18.2811 13.0923 18.2809 13.0952 18.1883C13.1345 17.8187 12.8419 17.6009 12.5749 17.4021L12.4669 17.3205C12.4178 17.2922 12.3765 17.2534 12.3441 17.207L12.3157 17.1582C12.299 17.1247 12.2882 17.0891 12.2813 17.0519C12.2725 16.9965 12.2764 16.9394 12.2911 16.8854C12.3068 16.8312 12.3343 16.7811 12.3726 16.7389C12.4178 16.6771 12.461 16.6136 12.5022 16.5494L12.6416 16.3304C12.7192 16.2066 12.7968 16.0828 12.8812 15.9646C12.9538 15.8621 13.0314 15.7637 13.1188 15.6733C13.5586 15.3183 14.1251 15.5617 14.5768 15.759C14.9194 16.0222 15.1511 16.4027 15.2267 16.8266C15.263 16.9657 15.2522 17.1127 15.2404 17.259C15.2218 17.4915 15.2041 17.7212 15.3818 17.9117C15.4506 17.9683 15.5222 18.0221 15.5959 18.0729C15.6862 18.1351 15.7795 18.1925 15.8757 18.245C15.9955 18.3104 16.1201 18.3683 16.2488 18.4179C16.655 18.6239 16.8495 19.0472 17.0317 19.4437L17.0332 19.4471L17.0872 19.5633C17.3003 20.1078 17.4662 20.6694 17.584 21.242C17.5948 21.2772 17.5987 21.3158 17.6027 21.3546L17.6046 21.3685C17.6085 21.4174 17.6135 21.4664 17.6292 21.5097C17.6419 21.5436 17.6606 21.5741 17.692 21.5985C18.0837 21.2379 18.4038 20.8069 18.6335 20.3278C18.7847 19.9311 18.9075 19.5245 19.0007 19.1113C19.0793 18.7653 19.1372 18.4147 19.1735 18.0611C19.3051 17.5195 19.3905 16.9684 19.4308 16.4139C19.4435 16.2339 19.4514 16.0535 19.4543 15.8728C19.4563 15.717 19.4553 15.5612 19.4504 15.4054L19.4249 15.2013C19.3866 14.8712 19.3453 14.5174 19.1097 14.2781C18.9526 14.2974 18.8162 14.2703 18.6895 14.2168C18.6237 14.1889 18.5609 14.1538 18.5 14.1142C18.4097 14.0559 18.3233 13.9877 18.2369 13.9196C18.1682 13.8659 18.0994 13.8122 18.0288 13.7626C17.9296 13.6928 17.8255 13.6317 17.7107 13.5922C17.6508 13.5477 17.5958 13.4986 17.5428 13.4471C17.4994 13.4055 17.4583 13.3624 17.4169 13.319L17.3975 13.2987L17.3091 13.2076C17.2404 13.1378 17.1697 13.0701 17.0911 13.0108L17.0489 12.9778L16.9969 12.9297L16.9252 12.8521C16.8537 12.7729 16.7827 12.6943 16.6906 12.657C16.6709 12.6492 16.6513 12.643 16.6297 12.6391C16.5934 12.6323 16.5541 12.6318 16.5099 12.6394C16.5855 12.5866 16.6542 12.5178 16.5531 12.4494C16.5423 12.4333 16.5315 12.4228 16.5217 12.4167C16.5138 12.4121 16.506 12.4099 16.4981 12.4099C16.4883 12.4099 16.4795 12.413 16.4706 12.4184C16.4549 12.4272 16.4392 12.4421 16.4235 12.4575L16.396 12.4836C16.3725 12.5036 16.3479 12.518 16.3194 12.5122C16.3194 12.4961 16.3214 12.479 16.3253 12.4614L16.343 12.3984C16.3685 12.3156 16.3941 12.2328 16.2998 12.1918C16.2851 12.2133 16.2654 12.2304 16.2419 12.2414C16.2183 12.2526 16.1918 12.2572 16.1663 12.2553L16.1368 12.2494C16.1211 12.2453 16.1064 12.2384 16.0936 12.2297L16.0681 12.2072L16.0583 12.195L16.0445 12.1713C16.0121 12.1857 16.0004 12.234 15.9905 12.2812L15.9899 12.2838C15.9735 12.3524 15.9581 12.4168 15.8747 12.3664C15.8013 12.3123 15.7854 12.377 15.7698 12.4411L15.7608 12.4755L15.749 12.5056C15.7333 12.5363 15.7097 12.5481 15.6607 12.5063C15.5438 12.34 15.4172 12.4448 15.3975 12.5959C15.2797 12.6968 15.2238 12.5439 15.2944 12.4428C15.317 12.378 15.3768 12.3389 15.4346 12.3011C15.5181 12.2474 15.5978 12.196 15.5536 12.0758C15.5165 11.9949 15.4337 12.0419 15.3642 12.0813C15.2896 12.1241 15.2306 12.1578 15.267 12.0057C15.372 12.0057 15.4221 11.9422 15.4746 11.8758L15.4761 11.8739L15.4801 11.8689C15.5013 11.8425 15.5227 11.8158 15.5468 11.7928C15.5684 11.773 15.5929 11.7559 15.6233 11.744C15.7471 11.6324 15.532 11.5127 15.428 11.5709C15.4182 11.5938 15.4162 11.6256 15.4142 11.658C15.4113 11.7205 15.4074 11.7867 15.3416 11.8026C15.2627 11.814 15.2205 11.8742 15.1795 11.9326L15.1786 11.934C15.1285 12.0065 15.0804 12.0756 14.9685 12.0438C14.8381 12.1711 14.9191 12.2895 15.0034 12.4129C15.0829 12.5291 15.1658 12.6506 15.0785 12.7874C15.0421 12.8591 15.0087 12.8064 14.9734 12.7488L14.942 12.7031C14.9302 12.6868 14.9174 12.6733 14.9047 12.6665C14.888 12.6575 14.8693 12.6597 14.8497 12.6814C14.8145 12.7212 14.7949 12.7705 14.7754 12.8196L14.7466 12.8892C14.7348 12.9143 14.7201 12.9383 14.7014 12.9595C14.6082 12.8369 14.5532 12.6897 14.5444 12.5363C14.5188 12.5319 14.4962 12.5376 14.4756 12.5493C14.4436 12.568 14.417 12.6025 14.3897 12.6379L14.3863 12.6423C14.3323 12.7136 14.2773 12.7861 14.1772 12.7395C14.1654 12.6985 14.1732 12.6636 14.1919 12.6321C14.2155 12.5905 14.2577 12.5549 14.3009 12.5195C14.3431 12.4843 14.3843 12.4494 14.4079 12.4091C14.4265 12.3771 14.4334 12.3417 14.4197 12.3002C14.3274 12.2909 14.2429 12.3259 14.1595 12.3605C14.1192 12.3771 14.079 12.3937 14.0387 12.4055C14.0142 12.4125 13.9896 12.4177 13.9641 12.4201C13.9091 12.425 13.8522 12.4167 13.7913 12.3847C13.8551 12.2719 14.0525 11.9117 13.806 11.9545C13.6902 12.1164 13.5223 12.2348 13.3299 12.2902C13.2503 12.2463 13.2975 12.1857 13.3495 12.1193L13.3503 12.1182C13.3992 12.055 13.4523 11.9863 13.4025 11.9213L13.3849 11.8885C13.376 11.8692 13.3721 11.8495 13.3691 11.8294C13.3642 11.7806 13.3741 11.7296 13.3839 11.6788C13.3937 11.6314 13.4025 11.5845 13.3996 11.5398C13.3976 11.5115 13.3907 11.4842 13.375 11.4583C13.2798 11.5 13.2651 11.5936 13.2503 11.689C13.2347 11.791 13.2185 11.8963 13.1031 11.943C13.0279 11.9223 13.0751 11.8275 13.1142 11.7489L13.1149 11.7476C13.1541 11.67 13.1846 11.6087 13.0805 11.6529C13.0374 11.7131 12.9913 11.686 12.9433 11.6577C12.8953 11.6289 12.8448 11.5987 12.7928 11.659C12.781 11.6827 12.7594 11.7081 12.7369 11.7342C12.678 11.8023 12.6141 11.8768 12.6927 11.9459C12.7357 11.9919 12.695 12.0276 12.6569 12.0612C12.6412 12.0744 12.6259 12.0878 12.6171 12.1007C12.5994 12.1623 12.6485 12.1747 12.6986 12.1869C12.7575 12.2016 12.8154 12.2162 12.7624 12.3129C12.7594 12.3278 12.7545 12.3381 12.7467 12.3449C12.7398 12.3508 12.732 12.3542 12.7231 12.3556C12.7045 12.3588 12.6809 12.3542 12.6573 12.3495C12.6073 12.3395 12.5552 12.3295 12.5484 12.3947C12.5268 12.4599 12.5798 12.4809 12.6348 12.5022C12.6996 12.5271 12.7653 12.5527 12.7143 12.6501C12.6289 12.7134 12.5277 12.7522 12.4217 12.7624C12.4227 12.8274 12.4734 12.873 12.5242 12.9187C12.5468 12.9387 12.57 12.9593 12.5886 12.9815L12.6092 13.0118C12.6308 13.0481 12.6387 13.0904 12.6171 13.1448C12.5974 13.1517 12.5827 13.1507 12.5709 13.1453C12.5631 13.1417 12.5562 13.1358 12.5493 13.1287L12.5268 13.0967L12.5091 13.0713L12.4983 13.0586C12.4865 13.0479 12.4718 13.042 12.4512 13.0469C12.3824 13.098 12.4129 13.1883 12.4355 13.2532L12.4362 13.2553C12.4593 13.3236 12.4724 13.3624 12.3432 13.2948C12.1776 13.5987 12.1225 13.3045 12.0871 13.1157L12.0683 13.0232C11.972 13.0122 11.9426 13.1038 11.9131 13.1995C11.8818 13.2971 11.8489 13.3998 11.7423 13.402C11.7423 13.2808 11.7698 13.1614 11.8238 13.053C11.8434 13.0122 11.867 12.9734 11.8935 12.9368C11.9151 12.9065 11.9396 12.8777 11.9652 12.8508L11.9995 12.8181L12.0506 12.7754C12.0329 12.7439 12.0221 12.7087 12.0143 12.6723L11.9986 12.5918C11.9838 12.5041 11.9691 12.4169 11.9043 12.3556C11.7855 12.414 11.8395 12.5212 11.8876 12.6159C11.9033 12.6457 11.918 12.6743 11.9259 12.6997C11.8955 12.7126 11.8572 12.7146 11.8199 12.7163L11.7708 12.7195L11.7305 12.7275C11.6814 12.7432 11.65 12.7827 11.6697 12.8906C11.5401 13.0752 11.4321 12.7949 11.4694 12.6653C11.5617 12.5527 11.3368 12.4025 11.3044 12.5517C11.2534 12.6289 11.2612 12.6741 11.2897 12.7051C11.3034 12.7207 11.3231 12.7327 11.3437 12.7436L11.3643 12.7544C11.4288 12.7879 11.4857 12.8175 11.379 12.9187L11.3437 12.9168C11.3083 12.9136 11.271 12.9075 11.2308 12.9007L11.2161 12.8985L11.2095 12.8974C11.1536 12.8882 11.095 12.8785 11.0364 12.8748C10.9019 12.866 10.7703 12.888 10.6888 13.0149C10.6663 13.0245 10.6486 13.0259 10.6348 13.0215C10.6132 13.0144 10.6015 12.9934 10.5936 12.9656C10.5868 12.9384 10.5838 12.9047 10.5809 12.8711C10.577 12.825 10.572 12.7788 10.5573 12.7515L10.6142 12.7656C10.7045 12.7903 10.8057 12.8176 10.8489 12.707C10.8469 12.6367 10.8626 12.5669 10.894 12.5039C10.9264 12.4409 10.9736 12.3867 11.0315 12.3461C11.1071 12.1586 10.8469 12.2267 10.7477 12.2655C10.7222 12.0641 10.9765 12.0094 11.1189 12.0919C11.1454 12.0817 11.1572 12.069 11.1591 12.0548C11.1611 12.0409 11.1542 12.0258 11.1434 12.0099L11.1159 11.9755L11.0963 11.9506C11.0845 11.9352 11.0747 11.92 11.0717 11.9059C11.0678 11.8844 11.0776 11.8648 11.1169 11.8492L11.1846 11.8417L11.2593 11.8397C11.3113 11.8392 11.3604 11.8387 11.3977 11.8282C11.4566 11.8114 11.4861 11.7694 11.4429 11.661C11.488 11.6265 11.5499 11.6004 11.6137 11.5735C11.7207 11.5289 11.8336 11.4815 11.8788 11.3894C11.8101 11.2735 11.6816 11.3605 11.5796 11.4296C11.5197 11.4706 11.4684 11.5054 11.4448 11.4871C11.4281 11.4737 11.4252 11.4327 11.4438 11.3465C11.4643 11.3177 11.5117 11.2903 11.5603 11.2623L11.5617 11.2615C11.6577 11.2067 11.7578 11.1495 11.6539 11.0771C11.6013 11.0745 11.5835 11.0304 11.5669 10.9894C11.5463 10.9389 11.5273 10.8925 11.4507 10.9355C11.5175 11.1404 11.4065 11.2634 11.2926 11.3889C11.2318 11.4561 11.1709 11.524 11.1356 11.6055C10.9539 11.4927 10.8214 11.6292 10.7114 11.7428L10.7006 11.754C10.5327 11.6216 10.3786 11.7335 10.2323 11.8507C10.1695 11.836 10.1282 11.7943 10.0958 11.7415C10.0725 11.7037 10.055 11.6603 10.0376 11.6171L10.0369 11.6155C9.983 11.4863 9.92965 11.3585 9.75318 11.3899L9.73453 11.4065C9.71489 11.4265 9.70016 11.45 9.68838 11.4749C9.67562 11.5037 9.66678 11.535 9.65893 11.5662L9.65304 11.5823L9.65009 11.5948L9.62751 11.66C9.5794 11.6668 9.53915 11.6864 9.50282 11.7132C9.4557 11.7486 9.41741 11.7967 9.37912 11.8448C9.31726 11.9232 9.25443 12.0016 9.15526 12.0245L9.18374 11.9188C9.23283 11.7244 9.28683 11.5147 9.493 11.4317C9.49104 11.3648 9.52933 11.2922 9.56664 11.2224C9.63733 11.0915 9.70213 10.9707 9.48319 10.9152C9.37179 10.8416 9.34889 10.9286 9.32738 11.0103L9.32644 11.0139C9.3149 11.0589 9.30404 11.1013 9.27897 11.1135C9.26817 11.1186 9.25443 11.1184 9.23774 11.1106C9.22203 11.1035 9.20337 11.0901 9.18079 11.0688C9.01389 10.9787 9.0345 11.0862 9.05316 11.1804C9.06887 11.2588 9.08261 11.3277 8.98345 11.2647C8.90983 11.2186 8.90024 11.2668 8.88869 11.3248L8.88822 11.3272C8.88527 11.3455 8.88134 11.3648 8.87545 11.3821C8.87153 11.3948 8.86563 11.4068 8.85876 11.4165C8.85287 11.4246 8.84502 11.4312 8.83618 11.4358C8.76676 11.4784 8.79763 11.5333 8.82989 11.5907L8.84894 11.6251C8.86073 11.6495 8.87054 11.6741 8.86956 11.6983C8.83324 11.6798 8.792 11.671 8.75175 11.6732C8.71051 11.6751 8.67124 11.6878 8.63688 11.71C8.6035 11.7323 8.57502 11.763 8.55735 11.7992C8.5387 11.8355 8.52986 11.8758 8.5328 11.9164C8.48175 11.9154 8.43168 11.9171 8.38161 11.9213C8.31877 11.9264 8.25692 11.9354 8.19507 11.9484C8.21274 11.8361 8.28732 11.7604 8.36094 11.6857L8.43561 11.6058L8.46506 11.5691C8.49059 11.5325 8.51022 11.4925 8.51906 11.4461L8.52397 11.4063L8.52299 11.365C8.5927 11.2498 8.56324 11.2141 8.51022 11.2246C8.4631 11.2339 8.39634 11.2796 8.36492 11.3382C8.2795 11.2896 8.20979 11.2173 8.16561 11.1299C8.12143 11.0427 8.10474 10.9443 8.11652 10.8474C7.99674 10.7966 7.94667 10.8793 7.89955 10.9587L7.86911 11.007C7.59421 10.934 7.56868 11.4073 7.83377 11.4048C7.8642 11.4075 7.89365 11.4207 7.92016 11.4405C7.95158 11.4639 7.97907 11.4966 7.99674 11.5323C8.01442 11.5687 8.02325 11.608 8.01834 11.6434C8.01638 11.6575 8.01245 11.6712 8.00558 11.6837C7.99773 11.7 7.98398 11.7144 7.96631 11.7264C7.96336 11.6092 7.70711 11.437 7.71202 11.6002C7.73832 11.6247 7.7718 11.6461 7.80474 11.6671L7.80922 11.67C7.86402 11.7053 7.91827 11.7402 7.94176 11.7867C7.95256 11.8092 7.95649 11.8343 7.94962 11.8639C7.94373 11.8893 7.92998 11.9178 7.90544 11.9503C7.86617 12.0963 7.81413 12.0319 7.75031 11.9503C7.69239 11.8771 7.62268 11.7899 7.54217 11.8319C7.46166 11.8883 7.50192 11.9764 7.54021 12.0599C7.58033 12.1478 7.61843 12.2312 7.51174 12.2673C7.34581 12.1669 7.0984 12.1649 7.08171 12.4069C6.93444 12.4492 6.90793 12.3295 6.88437 12.2216C6.8608 12.1156 6.8392 12.0209 6.70862 12.1022C6.68801 12.1974 6.59081 12.4553 6.52307 12.2502C6.54368 12.1591 6.52601 12.0973 6.49361 12.0634C6.46514 12.0331 6.42489 12.0245 6.39052 12.0365C6.33063 12.057 6.28842 12.1388 6.35125 12.2746C6.29529 12.2775 6.25405 12.255 6.21969 12.2209C6.18434 12.1857 6.15685 12.1383 6.13133 12.0934C6.10089 12.0397 6.07144 11.9894 6.03315 11.9679C6.00075 11.9498 5.96148 11.9525 5.90846 11.9916C5.85678 12.0518 5.83402 12.1262 5.81108 12.2011L5.8093 12.2069C5.78181 12.3007 5.75333 12.3947 5.66988 12.4614C5.57633 12.4274 5.6182 12.311 5.65531 12.2078L5.65614 12.2055L5.65734 12.2021C5.69415 12.0988 5.72556 12.0106 5.60901 12.0341L5.55403 12.0944C5.51967 12.1334 5.47745 12.1811 5.44211 12.2143C5.3832 12.2685 5.34 12.2846 5.37142 12.162C5.53538 12.0055 5.24084 11.9032 5.14462 12.0341L5.11517 12.0719C5.09669 12.0976 5.07565 12.1267 5.05528 12.1383C5.03466 12.1498 5.01502 12.1452 4.99833 12.1051C4.94844 12.009 5.01552 11.9582 5.08302 11.9072L5.08528 11.9054C5.13191 11.8699 5.17908 11.834 5.18782 11.7823C5.15346 11.7828 5.11632 11.7911 5.07821 11.7996L5.07491 11.8004C4.98459 11.8211 4.89034 11.8424 4.82848 11.7599C4.81097 11.7282 4.82816 11.6754 4.84471 11.6245L4.84517 11.6231L4.84627 11.6196C4.86846 11.5484 4.88907 11.4822 4.81277 11.4839C4.7303 11.5066 4.70576 11.5586 4.70772 11.6229C4.70968 11.6727 4.72736 11.7298 4.74503 11.787L4.74797 11.7945L4.77743 11.8915C4.78234 11.91 4.78528 11.9278 4.78626 11.9447L4.78528 11.9913C4.75387 12.0148 4.73325 12.0121 4.71656 11.9967C4.70183 11.9838 4.69005 11.9625 4.67827 11.9405C4.6498 11.8858 4.61838 11.827 4.53689 11.8851C4.47209 12.0284 4.34053 11.9549 4.2718 11.8731C4.1962 11.8954 4.16675 11.9318 4.16282 11.9752C4.15988 12.0079 4.17166 12.0446 4.18835 12.0817L4.22566 12.1554C4.24431 12.1906 4.26198 12.2248 4.2718 12.255C4.15301 12.2426 4.17755 12.3276 4.20111 12.4074C4.21682 12.4604 4.23155 12.5112 4.20308 12.5297C4.17755 12.5166 4.15497 12.5112 4.13337 12.5112C4.11472 12.5112 4.09802 12.5153 4.08133 12.5222C4.0542 12.5331 4.02885 12.5511 4.00273 12.5697L3.99886 12.5725C3.96254 12.5991 3.92523 12.6262 3.88105 12.635L3.86043 12.6157C3.76421 12.5261 3.60614 12.3781 3.69058 12.2487C3.78876 12.132 3.8781 11.6851 3.72003 11.785C3.75047 11.8456 3.75734 11.8954 3.74949 11.9383C3.74458 11.9674 3.7328 11.9935 3.71709 12.0179C3.69451 12.0531 3.66407 12.0849 3.63265 12.1168C3.56098 12.1899 3.48833 12.2648 3.50698 12.3876C3.506 12.4697 3.41469 12.5637 3.36168 12.57C3.34597 12.5717 3.33419 12.5659 3.32928 12.5498C3.32339 12.5332 3.32535 12.5053 3.33811 12.4633C3.31259 12.2599 3.41567 12.1029 3.51582 11.9506C3.60296 11.8176 3.6886 11.6869 3.68371 11.533C3.57641 11.5121 3.54083 11.5952 3.50475 11.6793L3.50404 11.681C3.46482 11.7717 3.42531 11.8631 3.29786 11.8253C3.24325 11.7605 3.2729 11.7006 3.30313 11.6395L3.30511 11.6355C3.3253 11.5946 3.34586 11.553 3.34106 11.5093C3.21874 11.4784 3.19883 11.5547 3.17731 11.6372L3.17616 11.6414C3.16763 11.6723 3.15891 11.7039 3.1447 11.7306L3.13194 11.7513C3.12212 11.7642 3.10935 11.7752 3.09463 11.7838C3.07794 11.7515 3.05536 11.7232 3.02688 11.7003L2.98074 11.6705C2.96503 11.6622 2.94834 11.6556 2.93067 11.6507C2.89532 11.6407 2.859 11.638 2.82267 11.6429C2.805 11.6451 2.78732 11.6492 2.77063 11.6551C2.75296 11.6612 2.73627 11.669 2.72056 11.6783C2.72351 11.6646 2.72842 11.6505 2.73529 11.6363L2.75493 11.597L2.75586 11.5951C2.77125 11.5645 2.78638 11.5344 2.78831 11.5074C2.78929 11.4952 2.78732 11.4837 2.78143 11.4727C2.7726 11.4573 2.75591 11.4436 2.72743 11.4324C2.65941 11.4655 2.60412 11.5206 2.54843 11.5761L2.54187 11.5826C2.51242 11.6121 2.48297 11.6417 2.45253 11.668C2.40344 11.7103 2.34944 11.744 2.28464 11.7559C2.27875 11.7081 2.29152 11.6661 2.31213 11.6265C2.32471 11.6021 2.34087 11.5786 2.35694 11.5552L2.36515 11.5433L2.37214 11.533C2.39347 11.5018 2.41481 11.4705 2.42897 11.4373L2.38675 11.3609C2.32892 11.2619 2.26625 11.1546 2.39951 11.0888C2.50162 11.0349 2.58802 10.9553 2.64889 10.8579C2.71074 10.7604 2.74609 10.6488 2.751 10.5338C2.64031 10.4953 2.60976 10.5922 2.58232 10.6792L2.58186 10.6807C2.5535 10.7692 2.52879 10.8463 2.427 10.7582C2.37693 10.6498 2.31312 10.6899 2.24832 10.7306C2.19432 10.7646 2.13934 10.799 2.09123 10.7472C2.08043 10.5817 2.20806 10.4896 2.3357 10.3981C2.45823 10.3101 2.58114 10.2218 2.57918 10.0696C2.54482 10.0628 2.5134 10.0621 2.48395 10.0662C2.45155 10.0706 2.42308 10.0806 2.39559 10.0948C2.35141 10.1173 2.31213 10.1505 2.27483 10.1888C2.23457 10.2298 2.19825 10.2767 2.1629 10.3226L2.1521 10.336L2.07847 10.4266C1.93316 10.6886 1.64746 10.7336 1.36568 10.7778L1.24296 10.7978L1.17227 10.8112L1.09667 10.8286C1.06034 10.8378 1.025 10.8483 0.991616 10.8605C0.955289 10.8718 0.917981 10.8806 0.880673 10.8872C0.845328 10.8935 0.809001 10.8977 0.772675 10.8996C0.692168 10.904 0.610678 10.8979 0.531153 10.8811C0.506608 10.8505 0.512498 10.8329 0.533116 10.8217C0.552752 10.811 0.585152 10.8061 0.616569 10.8014L0.652896 10.7956L0.681368 10.7883C0.693149 10.7836 0.701004 10.7775 0.700022 10.7685C0.700022 10.7607 0.694131 10.7511 0.681368 10.7387C0.53299 10.7768 0.541845 10.6971 0.551602 10.6093L0.55177 10.6078C0.560578 10.5338 0.570095 10.4539 0.487954 10.4337C0.397628 10.4713 0.296503 10.475 0.204214 10.444C-0.175742 10.4574 0.294539 10.2203 0.431009 10.2955C0.525262 10.3141 0.588097 10.2755 0.617551 10.2252C0.666641 10.1409 0.621478 10.024 0.472245 10.0887C0.448843 10.0487 0.428924 10.0146 0.405483 9.99786C0.376029 9.97686 0.341666 9.9815 0.288649 10.0303C0.264104 10.0152 0.235631 10.0057 0.207159 10.0023C0.178687 9.99908 0.149233 10.002 0.121743 10.0113C0.0942526 10.0203 0.0687258 10.0355 0.0481081 10.0552C0.0265085 10.0753 0.0107998 10.0994 0 10.1263Z" fill="#4083C3"/>
<path d="M24.998 11.2877V10.519C24.998 10.5372 24.9985 10.5554 24.999 10.5736C24.9995 10.5918 25 10.6101 25 10.6284V19.6298C25 19.6482 24.9995 19.6665 24.999 19.6847C24.9985 19.7029 24.998 19.7211 24.998 19.7392V18.7904C24.3226 18.6526 23.5892 18.4102 23.1788 17.8207C22.6698 16.819 22.63 15.6895 22.5908 14.5743L22.5907 14.5707C22.5759 14.1424 22.5612 13.7163 22.52 13.3002C22.4435 13.0734 22.6236 12.995 22.7972 12.9193C22.8561 12.894 22.9147 12.8685 22.9618 12.8383C23.0471 12.809 23.1384 12.7865 23.2316 12.7636L23.2334 12.7631C23.4381 12.7127 23.6485 12.6609 23.8071 12.535L23.866 12.4825L23.9161 12.4244L23.9573 12.3641C23.9986 12.2459 24.0624 12.1472 24.1399 12.0598C24.1949 11.9973 24.2568 11.9407 24.3226 11.8867C24.3838 11.8373 24.4467 11.7904 24.5098 11.7434L24.5209 11.7351C24.5994 11.6767 24.678 11.6183 24.7516 11.5553C24.7899 11.5231 24.8262 11.4899 24.8606 11.455C24.9107 11.4037 24.9578 11.3485 24.998 11.2877Z" fill="#4083C3"/>
<path d="M20.6948 9.82216L20.6963 9.82165C20.799 9.78615 20.9081 9.7484 20.9589 9.64366C20.9795 9.65026 21.01 9.64586 21.0434 9.64098C21.1089 9.63174 21.1808 9.62158 21.1867 9.69665C21.1926 9.85368 21.1397 10.0002 21.0868 10.147C21.0416 10.2713 20.9962 10.3965 20.9864 10.5278C20.9795 10.714 20.8442 10.7232 20.7068 10.7324L20.7047 10.7326C20.6238 10.7382 20.5422 10.7438 20.4847 10.7864C20.3001 10.6311 20.3806 10.3642 20.4445 10.1535L20.4494 10.1376L20.4592 10.1042C20.4308 9.91334 20.5586 9.86919 20.6948 9.82216Z" fill="#4083C3"/>
<path d="M17.666 10.4958C17.5128 10.6018 17.557 10.7251 17.6022 10.8492L17.6247 10.9117C17.6444 10.9761 17.6552 11.0399 17.6296 11.1007C17.5472 11.0597 17.3616 11.0186 17.4136 11.1754C17.4657 11.2738 17.3989 11.2462 17.3282 11.2164C17.2939 11.202 17.2575 11.1869 17.234 11.1861C17.1633 11.2008 17.1319 11.1241 17.1093 11.0663C17.0995 11.0426 17.0906 11.0221 17.0818 11.0123C17.0671 10.9969 17.0504 11.0086 17.0219 11.0782C16.9777 11.1979 16.962 11.1429 16.9414 11.0682C16.9198 10.9896 16.8913 10.889 16.8167 10.9478C16.7814 11.1508 17.0351 11.2865 17.205 11.3773L17.233 11.3925L17.2418 11.3974C17.3989 11.4643 17.4794 11.6008 17.559 11.737C17.6139 11.8305 17.6689 11.9236 17.7484 11.9936C17.7828 12.0237 17.8211 12.0496 17.8653 12.0693C17.935 12.0835 18.0008 12.106 18.0636 12.1336C18.1593 12.1758 18.2502 12.23 18.341 12.284L18.3454 12.2867C18.4043 12.3218 18.4632 12.357 18.5241 12.389C18.6016 12.4302 18.6821 12.4664 18.7685 12.4903C18.9079 12.5162 19.1691 12.4727 19.1318 12.2764C19.0739 12.0564 18.9698 11.8508 18.8274 11.673C18.6851 11.4953 18.5064 11.3493 18.3032 11.2443C18.2865 11.2277 18.2717 11.2225 18.258 11.2247C18.2355 11.2282 18.2166 11.2509 18.1978 11.2733L18.1952 11.2765C18.1844 11.2902 18.1736 11.3033 18.1628 11.3117C18.1431 11.3278 18.1215 11.3268 18.096 11.2797C18.1235 11.1476 18.0341 11.1351 17.9448 11.1229C17.9095 11.118 17.8741 11.1131 17.8456 11.1002C17.8358 11.0956 17.827 11.0902 17.8201 11.0833C17.8044 11.0692 17.7946 11.0492 17.7936 11.0203C17.7926 11.0006 17.7877 10.9813 17.7808 10.9625L17.7602 10.9212L17.7229 10.8633L17.7221 10.8622C17.6704 10.7859 17.6202 10.712 17.6984 10.6287C17.7484 10.6006 17.773 10.552 17.7651 10.52C17.7583 10.4927 17.7268 10.477 17.666 10.4958Z" fill="#4083C3"/>
<path d="M23.4537 11.2057C23.3486 11.2762 23.2387 11.3407 23.1277 11.4052C23.0236 11.4657 22.9196 11.5263 22.8204 11.5922C22.6633 11.6962 22.518 11.8134 22.4031 11.9646C22.3138 12.03 22.302 12.2051 22.4444 12.2022L22.6093 12.1768C22.9471 12.1284 23.3349 12.0728 23.433 11.6975L23.4635 11.6127L23.4643 11.6105C23.5202 11.4582 23.6012 11.2378 23.4537 11.2057Z" fill="#4083C3"/>
<path d="M12.1492 11.8943C11.9774 11.9922 11.9136 12.3128 12.1345 12.3748C12.1218 12.2342 12.1404 12.0923 12.1895 11.9597C12.219 11.9111 12.218 11.854 12.1492 11.8943Z" fill="#4083C3"/>
<path d="M13.8085 20.3521C13.8409 20.1832 13.998 20.0642 14.1472 19.9517L14.1521 19.948C14.2064 19.907 14.2595 19.8669 14.3043 19.8257C14.3229 19.8188 14.3416 19.8164 14.3583 19.8188C14.3779 19.8215 14.3956 19.8306 14.4064 19.8462C14.4152 19.8579 14.4211 19.8735 14.4221 19.8936C14.5537 20.1949 14.7009 20.4891 14.8639 20.7748C14.7 20.7179 14.537 20.6549 14.375 20.5892L13.8811 20.3824L13.8694 20.378L13.8085 20.3521Z" fill="#4083C3"/>
<path d="M12.4448 22.9958C12.6941 22.7089 12.9435 22.4218 13.1782 22.1224C13.3686 22.1466 13.5297 22.264 13.6926 22.3832L13.8428 22.4894L13.8929 22.5214L13.9558 22.558C13.9931 22.5785 14.0304 22.5966 14.0696 22.6118L14.2562 22.7153C14.3652 22.779 14.4702 22.8479 14.5723 22.9214C14.2002 23.157 13.8075 23.358 13.3991 23.5216C12.9828 23.5826 12.5783 23.7052 12.1758 23.8275C12.0187 23.8756 11.8606 23.9235 11.7015 23.9677C11.6014 23.9955 11.5013 24.0219 11.4011 24.0458C11.3628 23.9083 11.4129 23.8204 11.4993 23.778C11.5788 23.7394 11.6888 23.7384 11.7879 23.7718C11.8999 23.6319 12.0147 23.4945 12.1316 23.3582L12.4448 22.9958Z" fill="#4083C3"/>
<path d="M18.3287 9.10452C18.2105 9.18274 18.2543 9.33031 18.314 9.43329L18.3149 9.43489L18.3552 9.50717C18.3827 9.55674 18.4131 9.60631 18.4445 9.65636L18.4563 9.67516C18.6014 9.90637 18.7547 10.1505 18.6762 10.4326C18.6242 10.804 19.0768 11.0313 19.3959 11.0269C19.5068 10.8589 19.554 10.6646 19.6001 10.47C19.6423 10.2934 19.6845 10.1169 19.7749 9.95914C19.9486 9.75257 19.8583 9.51791 19.7709 9.29327L19.766 9.28155L19.713 9.13382C19.6109 9.10208 19.1534 8.97022 19.0503 8.97022L18.9217 8.96802C18.8618 8.96509 18.8019 8.95752 18.742 8.93921C18.6262 9.03761 18.4809 9.09573 18.3287 9.10452Z" fill="#4083C3"/>
<path d="M3.2338 2.92996C3.44497 2.97495 3.74862 2.8275 3.91731 2.98494C3.9298 4.18244 3.9146 5.37995 3.92418 6.57745C4.48274 6.15572 4.94299 5.56905 5.47552 5.10046C5.76038 5.08042 6.04615 5.07639 6.33147 5.08838C5.76916 5.66776 5.18895 6.23069 4.62165 6.80591C4.60374 6.95836 4.74827 7.04666 4.83116 7.15329C5.36785 7.8545 5.98347 8.50115 6.48309 9.22653C6.22255 9.20945 5.9339 9.27609 5.68982 9.19633C5.05108 8.578 4.58604 7.80327 3.97083 7.16391C3.84942 7.80452 3.96083 8.54885 3.91939 9.22778C3.68072 9.22778 3.44185 9.23715 3.20339 9.22632C3.19902 7.15954 3.20464 5.09234 3.20068 3.02556C3.20172 2.99015 3.19777 2.94933 3.2338 2.92996ZM15.3923 2.92996C15.6178 2.95954 15.8979 2.85957 16.1016 2.9585C16.1043 4.98737 16.1102 7.01688 16.0987 9.04555C15.7039 9.22655 15.2764 9.32519 14.8422 9.33547C14.408 9.34575 13.9763 9.26744 13.5733 9.10532C12.1257 8.48949 12.0776 6.24798 13.2961 5.37953C13.5721 5.18631 13.8856 5.0534 14.2164 4.98945C14.5471 4.92551 14.8876 4.93197 15.2157 5.00841C15.225 5.01925 15.2372 5.02719 15.2508 5.03126C15.2645 5.03533 15.2791 5.03537 15.2928 5.03137C15.3065 5.02736 15.3187 5.01949 15.3281 5.00869C15.3374 4.9979 15.3434 4.98464 15.3454 4.9705C15.4048 4.29907 15.3025 3.58245 15.3923 2.92996ZM14.6517 5.57279C14.4024 5.56765 14.156 5.6278 13.9371 5.74726C13.7182 5.86672 13.5344 6.04135 13.4038 6.25381C13.242 6.56045 13.1644 6.90455 13.179 7.25097C13.1937 7.5974 13.3 7.93373 13.4871 8.22562C13.7834 8.52577 14.176 8.71182 14.5959 8.75107C14.8371 8.71441 15.2046 8.79272 15.3579 8.55634C15.3594 7.60147 15.3665 6.64659 15.3544 5.69192C15.1361 5.58664 14.8924 5.54491 14.6517 5.57279ZM16.8274 2.95704C17.0246 2.93621 17.3639 2.84166 17.5392 2.98432C17.5509 4.80827 17.5376 6.63305 17.5455 8.457C17.6559 8.6888 17.8995 8.71316 18.1301 8.68609C18.1447 8.86519 18.2398 9.02618 18.2455 9.20674L18.2155 9.23007C17.8216 9.294 17.3408 9.39439 17.0269 9.0745C16.8603 8.96537 16.8645 8.75523 16.8255 8.58217C16.8243 6.70865 16.8201 4.83222 16.8274 2.95704ZM7.23282 3.50539C7.36605 3.4576 7.51245 3.46216 7.64245 3.51813C7.77245 3.5741 7.87637 3.67733 7.93321 3.80695C8.05941 4.10247 7.75972 4.38758 7.48898 4.43548C6.98208 4.47942 6.79318 3.72865 7.23282 3.50539ZM10.6079 4.94968C10.7727 4.92892 10.94 4.94123 11.1 4.98588C11.26 5.03054 11.4094 5.10664 11.5397 5.20975C11.6699 5.31285 11.7783 5.44088 11.8584 5.58636C11.9386 5.73183 11.989 5.89184 12.0066 6.057C12.0722 7.09831 12.0199 8.15273 12.0326 9.1982C11.7939 9.24746 11.5482 9.25198 11.3079 9.21153C11.2677 8.31039 11.3027 7.38467 11.2912 6.47394C11.2612 6.16155 11.1694 5.78272 10.8401 5.65985C10.2809 5.4568 9.70925 5.81584 9.2844 6.15738C9.27399 7.18036 9.28815 8.20417 9.27815 9.22715C9.0399 9.22715 8.80103 9.23652 8.56299 9.22569C8.56077 7.84617 8.56077 6.46644 8.56299 5.08651C8.77937 5.12462 9.2465 4.93094 9.20339 5.30955C9.22047 5.40306 9.19943 5.60945 9.34625 5.54843C9.69752 5.22733 10.137 5.0185 10.6079 4.94968ZM18.6345 5.77918C19.1072 4.87346 20.4489 4.6829 21.1961 5.35245C21.6882 5.8579 21.8353 6.60889 21.7844 7.29199C20.8941 7.2999 20.0032 7.28429 19.1137 7.29845C18.9754 7.51316 19.1252 7.8089 19.2093 8.03361C19.5061 8.65839 20.2968 8.91372 20.9335 8.70004C21.1401 8.70941 21.2715 8.48512 21.4787 8.51469C21.5412 8.6713 21.6728 8.81938 21.6559 8.9964C21.04 9.32813 20.3212 9.41394 19.6446 9.23652C19.5275 9.18571 19.3994 9.16405 19.2863 9.10324C19.0073 8.86811 18.6534 8.6536 18.5439 8.28019C18.3733 7.88245 18.2929 7.45185 18.3085 7.01934C18.3242 6.58683 18.4356 6.16358 18.6345 5.77918ZM19.8376 5.5678C19.7061 5.59709 19.5829 5.65572 19.4772 5.73931C19.3716 5.82291 19.2862 5.9293 19.2274 6.05055C19.1162 6.26151 18.9281 6.64034 19.1668 6.78508C19.7891 6.76967 20.4528 6.87443 21.0603 6.73718C21.0708 6.42091 20.9776 6.10988 20.795 5.85145C20.677 5.72065 20.5252 5.62502 20.3563 5.57514C20.1873 5.52527 20.0079 5.52308 19.8378 5.56884L19.8376 5.5678ZM7.09954 5.08609C7.338 5.08609 7.57708 5.07651 7.81554 5.08755C7.81776 6.46707 7.81776 7.8468 7.81554 9.22674C7.57687 9.22674 7.338 9.23611 7.09954 9.22528C7.09704 7.84645 7.09711 6.46707 7.09975 5.08713L7.09954 5.08609Z" fill="#FF9900"/>
</g>
<defs>
<clipPath id="clip0">
<rect y="0.40332" width="25" height="25" rx="4" fill="white"/>
</clipPath>
</defs>
</svg>
