<svg viewBox="0 0 400 400" fill="none" xmlns="http://www.w3.org/2000/svg">
<rect width="400" height="400" fill="#FFFDC4"/>
<path d="M64.812 123.805C60.5187 123.805 57.2718 122.598 55.0715 120.182C52.8712 117.714 51.771 114.199 51.771 109.637V106.417H60.143V110.281C60.143 113.93 61.6725 115.755 64.7315 115.755C66.2342 115.755 67.3612 115.326 68.1125 114.467C68.9175 113.555 69.32 112.106 69.32 110.12C69.32 107.759 68.7833 105.692 67.71 103.921C66.6367 102.097 64.651 99.9233 61.753 97.401C58.1037 94.181 55.5545 91.283 54.1055 88.707C52.6565 86.0773 51.932 83.1257 51.932 79.852C51.932 75.3977 53.059 71.963 55.313 69.548C57.567 67.0793 60.8407 65.845 65.134 65.845C69.3737 65.845 72.5668 67.0793 74.7135 69.548C76.9138 71.963 78.014 75.4513 78.014 80.013V82.3475H69.642V79.4495C69.642 77.5175 69.2663 76.1222 68.515 75.2635C67.7637 74.3512 66.6635 73.895 65.2145 73.895C62.2628 73.895 60.787 75.6928 60.787 79.2885C60.787 81.3278 61.3237 83.233 62.397 85.004C63.524 86.775 65.5365 88.9217 68.4345 91.444C72.1375 94.664 74.6867 97.5888 76.082 100.218C77.4773 102.848 78.175 105.934 78.175 109.476C78.175 114.091 77.0212 117.633 74.7135 120.102C72.4595 122.571 69.159 123.805 64.812 123.805ZM83.2522 66.65H96.2932C100.694 66.65 103.994 67.8307 106.195 70.192C108.395 72.5533 109.495 76.0148 109.495 80.5765V86.131C109.495 90.6927 108.395 94.1542 106.195 96.5155C103.994 98.8768 100.694 100.057 96.2932 100.057H92.1072V123H83.2522V66.65ZM96.2932 92.0075C97.7422 92.0075 98.8155 91.605 99.5132 90.8C100.264 89.995 100.64 88.6265 100.64 86.6945V80.013C100.64 78.081 100.264 76.7125 99.5132 75.9075C98.8155 75.1025 97.7422 74.7 96.2932 74.7H92.1072V92.0075H96.2932ZM114.304 66.65H138.454V74.7H123.159V89.5925H135.315V97.6425H123.159V114.95H138.454V123H114.304V66.65ZM150.391 66.65H162.386L171.563 123H162.708L161.098 111.81V111.971H151.035L149.425 123H141.214L150.391 66.65ZM160.051 104.324L156.107 76.471H155.946L152.082 104.324H160.051ZM175.859 66.65H184.714V90.3975L195.984 66.65H204.839L194.293 87.3385L205 123H195.742L188.256 97.884L184.714 105.048V123H175.859V66.65ZM209.191 66.65H218.046V123H209.191V66.65ZM224.677 66.65H235.786L244.4 100.379H244.561V66.65H252.45V123H243.353L232.727 81.8645H232.566V123H224.677V66.65ZM271.589 123.805C267.296 123.805 264.022 122.598 261.768 120.182C259.514 117.714 258.387 114.199 258.387 109.637V80.013C258.387 75.4513 259.514 71.963 261.768 69.548C264.022 67.0793 267.296 65.845 271.589 65.845C275.883 65.845 279.156 67.0793 281.41 69.548C283.664 71.963 284.791 75.4513 284.791 80.013V84.843H276.419V79.4495C276.419 75.7465 274.89 73.895 271.831 73.895C268.772 73.895 267.242 75.7465 267.242 79.4495V110.281C267.242 113.93 268.772 115.755 271.831 115.755C274.89 115.755 276.419 113.93 276.419 110.281V99.2525H271.992V91.2025H284.791V109.637C284.791 114.199 283.664 117.714 281.41 120.182C279.156 122.598 275.883 123.805 271.589 123.805ZM60.2235 171.7H50.966V163.65H78.336V171.7H69.0785V220H60.2235V171.7ZM82.6233 163.65H91.4783V186.592H100.977V163.65H109.832V220H100.977V194.642H91.4783V220H82.6233V163.65ZM116.427 163.65H125.282V220H116.427V163.65ZM131.914 163.65H143.023L151.636 197.379H151.797V163.65H159.686V220H150.59L139.964 178.864H139.803V220H131.914V163.65ZM178.826 220.805C174.532 220.805 171.259 219.598 169.005 217.182C166.751 214.714 165.624 211.199 165.624 206.637V177.013C165.624 172.451 166.751 168.963 169.005 166.548C171.259 164.079 174.532 162.845 178.826 162.845C183.119 162.845 186.393 164.079 188.647 166.548C190.901 168.963 192.028 172.451 192.028 177.013V181.843H183.656V176.449C183.656 172.746 182.126 170.895 179.067 170.895C176.008 170.895 174.479 172.746 174.479 176.449V207.281C174.479 210.93 176.008 212.755 179.067 212.755C182.126 212.755 183.656 210.93 183.656 207.281V196.252H179.228V188.202H192.028V206.637C192.028 211.199 190.901 214.714 188.647 217.182C186.393 219.598 183.119 220.805 178.826 220.805ZM209.225 220.805C204.931 220.805 201.684 219.598 199.484 217.182C197.284 214.714 196.184 211.199 196.184 206.637V203.417H204.556V207.281C204.556 210.93 206.085 212.755 209.144 212.755C210.647 212.755 211.774 212.326 212.525 211.467C213.33 210.555 213.733 209.106 213.733 207.12C213.733 204.759 213.196 202.692 212.123 200.921C211.049 199.097 209.064 196.923 206.166 194.401C202.516 191.181 199.967 188.283 198.518 185.707C197.069 183.077 196.345 180.126 196.345 176.852C196.345 172.398 197.472 168.963 199.726 166.548C201.98 164.079 205.253 162.845 209.547 162.845C213.786 162.845 216.979 164.079 219.126 166.548C221.326 168.963 222.427 172.451 222.427 177.013V179.348H214.055V176.449C214.055 174.517 213.679 173.122 212.928 172.263C212.176 171.351 211.076 170.895 209.627 170.895C206.675 170.895 205.2 172.693 205.2 176.288C205.2 178.328 205.736 180.233 206.81 182.004C207.937 183.775 209.949 185.922 212.847 188.444C216.55 191.664 219.099 194.589 220.495 197.218C221.89 199.848 222.588 202.934 222.588 206.476C222.588 211.091 221.434 214.633 219.126 217.102C216.872 219.571 213.572 220.805 209.225 220.805ZM240.557 163.65H249.412V220H240.557V163.65ZM256.044 163.65H267.153L275.767 197.379H275.928V163.65H283.817V220H274.72L264.094 178.864H263.933V220H256.044V163.65ZM297.321 171.7H288.064V163.65H315.434V171.7H306.176V220H297.321V171.7ZM332.206 220.805C327.859 220.805 324.532 219.571 322.224 217.102C319.916 214.633 318.762 211.145 318.762 206.637V177.013C318.762 172.505 319.916 169.017 322.224 166.548C324.532 164.079 327.859 162.845 332.206 162.845C336.553 162.845 339.88 164.079 342.188 166.548C344.496 169.017 345.649 172.505 345.649 177.013V206.637C345.649 211.145 344.496 214.633 342.188 217.102C339.88 219.571 336.553 220.805 332.206 220.805ZM332.206 212.755C335.265 212.755 336.794 210.903 336.794 207.2V176.449C336.794 172.746 335.265 170.895 332.206 170.895C329.147 170.895 327.617 172.746 327.617 176.449V207.2C327.617 210.903 329.147 212.755 332.206 212.755ZM53.3005 260.65H77.4505V268.7H62.1555V283.592H74.311V291.642H62.1555V308.95H77.4505V317H53.3005V260.65ZM90.5104 288.181L80.7699 260.65H90.1079L96.0649 278.843H96.2259L102.344 260.65H110.716L100.975 288.181L111.199 317H101.861L95.4209 297.358H95.2599L88.6589 317H80.2869L90.5104 288.181ZM115.405 260.65H124.26V317H115.405V260.65ZM142.403 317.805C138.11 317.805 134.863 316.598 132.663 314.182C130.462 311.714 129.362 308.199 129.362 303.637V300.417H137.734V304.281C137.734 307.93 139.264 309.755 142.323 309.755C143.825 309.755 144.952 309.326 145.704 308.467C146.509 307.555 146.911 306.106 146.911 304.12C146.911 301.759 146.375 299.692 145.301 297.921C144.228 296.097 142.242 293.923 139.344 291.401C135.695 288.181 133.146 285.283 131.697 282.707C130.248 280.077 129.523 277.126 129.523 273.852C129.523 269.398 130.65 265.963 132.904 263.548C135.158 261.079 138.432 259.845 142.725 259.845C146.965 259.845 150.158 261.079 152.305 263.548C154.505 265.963 155.605 269.451 155.605 274.013V276.348H147.233V273.449C147.233 271.517 146.858 270.122 146.106 269.263C145.355 268.351 144.255 267.895 142.806 267.895C139.854 267.895 138.378 269.693 138.378 273.288C138.378 275.328 138.915 277.233 139.988 279.004C141.115 280.775 143.128 282.922 146.026 285.444C149.729 288.664 152.278 291.589 153.673 294.218C155.069 296.848 155.766 299.934 155.766 303.476C155.766 308.091 154.612 311.633 152.305 314.102C150.051 316.571 146.75 317.805 142.403 317.805ZM167.766 268.7H158.509V260.65H185.879V268.7H176.621V317H167.766V268.7ZM190.166 260.65H214.316V268.7H199.021V283.592H211.177V291.642H199.021V308.95H214.316V317H190.166V260.65ZM219.41 260.65H230.519L239.133 294.379H239.294V260.65H247.183V317H238.086L227.46 275.864H227.299V317H219.41V260.65ZM266.242 317.805C262.002 317.805 258.755 316.598 256.501 314.182C254.301 311.767 253.201 308.36 253.201 303.959V273.691C253.201 269.29 254.301 265.882 256.501 263.467C258.755 261.052 262.002 259.845 266.242 259.845C270.482 259.845 273.702 261.052 275.902 263.467C278.156 265.882 279.283 269.29 279.283 273.691V279.648H270.911V273.127C270.911 269.639 269.435 267.895 266.483 267.895C263.532 267.895 262.056 269.639 262.056 273.127V304.603C262.056 308.038 263.532 309.755 266.483 309.755C269.435 309.755 270.911 308.038 270.911 304.603V295.989H279.283V303.959C279.283 308.36 278.156 311.767 275.902 314.182C273.702 316.598 270.482 317.805 266.242 317.805ZM284.581 260.65H308.731V268.7H293.436V283.592H305.591V291.642H293.436V308.95H308.731V317H284.581V260.65Z" fill="#E6C932"/>
</svg>
