<svg xmlns="http://www.w3.org/2000/svg" width="841" height="222" viewBox="0 0 841 222"><g transform="translate(-149 -388)"><rect width="841" height="222" rx="40" transform="translate(149 388)" fill="#fff"/><g transform="translate(0.315 2)"><g transform="translate(395 417)"><g transform="translate(0 -285)"><g transform="translate(1 343.505)"><path d="M251.846,139.259c-19.453,14.338-47.648,21.988-71.924,21.988a130.151,130.151,0,0,1-87.865-33.528c-1.821-1.647-.189-3.89,2-2.608,25.019,14.557,55.954,23.314,87.909,23.314a174.811,174.811,0,0,0,67.057-13.711c3.293-1.4,6.047,2.157,2.827,4.546" transform="translate(-44.175 -60.371)" fill="#f90" fill-rule="evenodd"/><path d="M395.325,126.725c-2.477-3.176-16.436-1.5-22.7-.758-1.909.233-2.2-1.428-.481-2.623,11.118-7.825,29.361-5.566,31.489-2.943s-.554,20.924-11,29.652c-1.6,1.341-3.133.627-2.419-1.151,2.346-5.858,7.606-18.986,5.115-22.177" transform="translate(-179.567 -57.089)" fill="#f90" fill-rule="evenodd"/><g transform="translate(0 0.496)"><path d="M373.168,12.41V4.8a1.877,1.877,0,0,1,1.923-1.923h34.053A1.9,1.9,0,0,1,411.112,4.8v6.513c-.015,1.093-.933,2.521-2.565,4.779L390.9,41.29c6.557-.16,13.478.816,19.424,4.167a3.465,3.465,0,0,1,1.807,2.958v8.116c0,1.107-1.224,2.4-2.506,1.734a39.228,39.228,0,0,0-35.977.058c-1.18.641-2.419-.641-2.419-1.749V48.867a9.2,9.2,0,0,1,1.253-5.231l20.444-29.317H375.135a1.884,1.884,0,0,1-1.967-1.909" transform="translate(-179.675 -1.395)" fill-rule="evenodd"/><path d="M122.794,58.953h-10.36a1.957,1.957,0,0,1-1.851-1.763V4.02a1.945,1.945,0,0,1,2-1.909h9.661a1.951,1.951,0,0,1,1.88,1.778v6.95h.189c2.521-6.717,7.257-9.85,13.639-9.85,6.484,0,10.535,3.133,13.449,9.85A15.3,15.3,0,0,1,177.7,6.8c3.279,4.473,2.608,10.972,2.608,16.669l-.015,33.557a1.957,1.957,0,0,1-2,1.923H167.951a1.969,1.969,0,0,1-1.865-1.923V28.849c0-2.244.2-7.839-.291-9.967-.772-3.57-3.089-4.575-6.091-4.575a6.882,6.882,0,0,0-6.193,4.357c-1.064,2.681-.962,7.169-.962,10.185V57.03a1.957,1.957,0,0,1-2,1.923H140.207a1.959,1.959,0,0,1-1.865-1.923l-.015-28.18c0-5.93.976-14.658-6.382-14.658-7.446,0-7.155,8.51-7.155,14.658V57.03a1.957,1.957,0,0,1-2,1.923" transform="translate(-53.523 -0.479)" fill-rule="evenodd"/><path d="M483.469.989c15.373,0,23.693,13.2,23.693,29.987,0,16.218-9.194,29.084-23.693,29.084-15.1,0-23.314-13.2-23.314-29.652,0-16.553,8.32-29.419,23.314-29.419m.087,10.855c-7.635,0-8.116,10.4-8.116,16.888s-.1,20.37,8.029,20.37c8.029,0,8.408-11.191,8.408-18.01,0-4.488-.189-9.85-1.545-14.1-1.166-3.7-3.483-5.144-6.776-5.144" transform="translate(-222.715 -0.479)" fill-rule="evenodd"/><path d="M578.444,58.953H568.128a1.969,1.969,0,0,1-1.865-1.923l-.015-53.185a1.96,1.96,0,0,1,2-1.734h9.6A1.983,1.983,0,0,1,579.7,3.6v8.131h.189c2.9-7.271,6.965-10.739,14.12-10.739,4.648,0,9.18,1.676,12.094,6.266,2.71,4.255,2.71,11.409,2.71,16.553v33.47a1.99,1.99,0,0,1-2,1.676H596.425a1.962,1.962,0,0,1-1.836-1.676V28.4c0-5.814.67-14.323-6.484-14.323a6.771,6.771,0,0,0-5.989,4.255c-1.457,3.249-1.647,6.484-1.647,10.069V57.029a1.992,1.992,0,0,1-2.025,1.923" transform="translate(-274.064 -0.479)" fill-rule="evenodd"/><path d="M293.742,33.077c0,4.036.1,7.4-1.938,10.987-1.647,2.914-4.269,4.706-7.169,4.706-3.978,0-6.309-3.031-6.309-7.5,0-8.83,7.912-10.433,15.417-10.433v2.244M304.19,58.328a2.163,2.163,0,0,1-2.448.248c-3.439-2.856-4.065-4.182-5.945-6.907-5.683,5.8-9.719,7.533-17.078,7.533-8.728,0-15.5-5.377-15.5-16.145A17.583,17.583,0,0,1,274.26,26.126c5.625-2.477,13.478-2.914,19.482-3.6V21.187c0-2.463.189-5.377-1.268-7.5a6.9,6.9,0,0,0-5.814-2.7c-3.949,0-7.461,2.025-8.32,6.222a2.167,2.167,0,0,1-1.807,1.894l-10.04-1.078a1.826,1.826,0,0,1-1.545-2.171C267.252,3.672,278.268,0,288.118,0c5.042,0,11.628,1.341,15.606,5.158,5.042,4.706,4.561,10.987,4.561,17.82V39.124c0,4.852,2.011,6.98,3.905,9.6.656.933.8,2.055-.044,2.754-2.113,1.763-5.872,5.042-7.941,6.878l-.015-.029" transform="translate(-127.396 0)" fill-rule="evenodd"/><path d="M30.527,33.077c0,4.036.1,7.4-1.938,10.987-1.647,2.914-4.255,4.706-7.169,4.706-3.978,0-6.295-3.031-6.295-7.5,0-8.83,7.912-10.433,15.4-10.433v2.244M40.975,58.328a2.163,2.163,0,0,1-2.448.248c-3.439-2.856-4.051-4.182-5.945-6.907C26.9,57.469,22.877,59.2,15.5,59.2,6.79,59.2,0,53.826,0,43.058A17.6,17.6,0,0,1,11.045,26.126c5.625-2.477,13.478-2.914,19.482-3.6V21.187c0-2.463.189-5.377-1.253-7.5a6.932,6.932,0,0,0-5.814-2.7c-3.949,0-7.475,2.025-8.335,6.222A2.168,2.168,0,0,1,13.333,19.1L3.279,18.025a1.835,1.835,0,0,1-1.545-2.171C4.051,3.672,15.052,0,24.9,0,29.944,0,36.53,1.341,40.508,5.159c5.042,4.706,4.561,10.987,4.561,17.82V39.124c0,4.852,2.011,6.98,3.905,9.6.67.933.816,2.055-.029,2.754-2.113,1.763-5.872,5.042-7.941,6.878l-.029-.029" transform="translate(0 0)" fill-rule="evenodd"/></g><g transform="translate(344.264 -4.504)"><path d="M249.721,65.979,231.637,44.054h-.088V65.979h-6.5V2.877h6.5V38.706h.088l15.5-14.885H255.6l-18.53,17.2,20.936,24.956Z" transform="translate(-225.045 -2.877)" fill="#f90"/><path d="M260.191,14.545A4.545,4.545,0,1,1,264.734,10,4.563,4.563,0,0,1,260.191,14.545Zm-3.207,50.981V23.368h6.5V65.526Z" transform="translate(-219.659 -2.423)" fill="#f90"/><path d="M297.419,63V37.069c0-5.259-.89-11.141-7.305-11.141-5.167,0-9.888,3.654-13.095,6.419v30.66h-6.5V20.847h5.345l.891,5.08c4.631-3.564,9.176-6.149,15.056-6.149,6.056,0,12.115,4.367,12.115,14.885V63.006h-6.5Z" transform="translate(-217.042 0.098)" fill="#f90"/><path d="M326.553,66.871c-11.759,0-21.648-6.862-21.648-21.39,0-13.1,9.442-22.728,21.736-22.728a26.847,26.847,0,0,1,6.86.713V2.877H340V63.84C337.422,65.356,332.522,66.871,326.553,66.871ZM333.5,29.526a16.219,16.219,0,0,0-6.5-1.069c-8.286,0-15.5,6.507-15.5,16.578,0,9.536,5.257,16.31,16.214,16.31a15.274,15.274,0,0,0,5.791-1.069Z" transform="translate(-210.989 -2.877)" fill="#f90"/><path d="M350.251,66.871c-5.167,0-7.394-3.3-7.394-7.755V2.877h6.5v53.3c0,4.01.98,4.813,3.474,4.813a8.412,8.412,0,0,0,2.227-.267l.8,4.724A11.449,11.449,0,0,1,350.251,66.871Z" transform="translate(-204.309 -2.877)" fill="#f90"/><path d="M363.894,43.041c0,8.022,4.632,15.239,13.719,15.239a20.17,20.17,0,0,0,10.245-3.118l2.049,4.633a25.586,25.586,0,0,1-13.1,4.1c-13.451,0-19.867-10.784-19.867-22.817,0-12.21,6.949-21.3,17.1-21.3,10.869,0,16.837,8.646,16.837,21.748v1.516ZM374.139,25.3c-6.235,0-10.156,5.526-10.156,12.21H383.85C383.85,31.632,380.555,25.3,374.139,25.3Z" transform="translate(-201.83 0.098)" fill="#f90"/></g></g><text transform="translate(0 314)" font-size="30" font-family="AmazonEmber-Regular, Amazon Ember"><tspan x="0" y="0">Buy now at</tspan></text></g></g><g transform="translate(208.685 438)"><path d="M8.66,0H113.448a10.821,10.821,0,0,1,6.18,3.446c1.382,1.372,1.8,3.345,2.372,5.1V56.9c-1.371,2.075-4.2,2.8-5.052,5.251-1.007,1.686-3.172,1.744-4.835,2.314-.908.589-2.639.773-2.145,2.255.723,7.32-.226,15.287,3.2,22.057,1.991,2.877,5.552,4.059,8.83,4.731v19.931a10.784,10.784,0,0,1-4.031,6.667,13.357,13.357,0,0,1-4.518,1.9H42.679c-.714-1.051.518-2.1,1.436-2.472a44.32,44.32,0,0,0,5.469-1.8c1.154-.521,1.961-1.492,1.426-2.745,2.024-3.655,4.262-7.193,6.349-10.813.116-.416.963-.972.421-1.351-1.286-.8-2.51-1.9-4.126-1.837a3.3,3.3,0,0,1-3.094-2.975c-1.859-1.817-3.952-3.44-5.917-5.162-.8-.556.137-1.289.637-1.586,1.266-.691,2.283-2,3.673-2.382,2.618,1.855,4.919,4.158,7.378,6.22.5.884-1.28,1.62-.995,2.528a4.768,4.768,0,0,1,1.05,1.347c1.638.494,3.4.179,5.092.278,1.737.444,2.211-1.568,2.921-2.675-.181-1.25.913-2.105,1.388-3.157a11.981,11.981,0,0,1,4-4c.136-1.539-1.554-.708-2.308-.566-.617-.786-1.81-.287-2.323-1.266-.324-.708-1.614.07-1.588-.792.217-2.052-1.652-3.146-3.048-4.234a1.862,1.862,0,0,1-.461-2.838c1.244-1.7,2.158-3.679,3.625-5.2,2.135-1.732,4.886-.544,7.076.419a8.451,8.451,0,0,1,3.155,5.209c.463,1.76-.652,3.782.753,5.295a15.363,15.363,0,0,0,4.209,2.47c2.171,1.107,3.1,3.5,4.07,5.589a50.184,50.184,0,0,1,2.41,8.191c.176.575.007,1.334.527,1.739a20.448,20.448,0,0,0,4.568-6.2,43.831,43.831,0,0,0,2.623-11.06,48.747,48.747,0,0,0,1.344-12.959c-.268-1.854-.267-4.087-1.656-5.5-2.865.355-4.363-2.506-6.789-3.347-1.109-.827-1.905-2-3.009-2.837-.938-.661-1.445-2.05-2.821-1.813.368-.257.7-.593.21-.926-.419-.6-.668.4-1.135.306-.012-.528.58-1.268-.094-1.563a.716.716,0,0,1-1.239-.1c-.394.172-.141,1.37-.823.951-.723-.533-.305,1.311-1.04.683-.567-.811-1.185-.3-1.277.438-.572.491-.846-.254-.5-.747.26-.771,1.616-.795,1.259-1.791-.378-.828-1.736,1.084-1.393-.342.9,0,.979-.976,1.73-1.278.6-.544-.442-1.128-.948-.844-.149.326.067,1.013-.423,1.131-.858.123-.828,1.458-1.81,1.176-1.228,1.209,1.415,2.252.534,3.629-.351.7-.641-1.032-1.108-.518-.344.391-.379.967-.723,1.358a3.8,3.8,0,0,1-.76-2.065c-.74-.125-.89,1.407-1.782.991C68.558,59.287,70.3,58.983,70,58.07c-1.079-.11-1.905,1.015-3.05.412.309-.55,1.264-2.308.068-2.1a4.311,4.311,0,0,1-2.308,1.639c-.759-.421.845-1.149.353-1.8-.483-.7.263-1.582-.136-2.26-.96.422-.23,1.924-1.322,2.365-.726-.2.914-1.849-.108-1.415-.425.595-.9-.554-1.394.03-.216.415-1.015.932-.487,1.4.292.313-.211.53-.369.755-.186.656,1.183.167.708,1.035-.089.554-.973-.22-1.04.4-.232.689,1.263.363.807,1.246a2.834,2.834,0,0,1-1.42.548c.011.734,1.3.957.944,1.866-.456.163-.4-.573-.805-.478-.693.517.7,1.855-.524,1.209-.956,1.77-1.153-.616-1.331-1.325-.948-.107-.555,1.828-1.586,1.848A3.866,3.866,0,0,1,58.5,60.388c-.356-.627-.164-1.529-.714-2.048-.757.375-.062,1.159.108,1.679-.517.218-1.445-.208-1.246.932-.628.9-1.151-.468-.971-1.1.447-.549-.646-1.282-.8-.554-.807,1.235,1.417.784.363,1.791-.936-.019-2.588-.722-3.35.469-.677.28-.423-.888-.641-1.286.491.1,1.158.441,1.415-.216a2.085,2.085,0,0,1,.885-1.761c.367-.916-.892-.583-1.375-.394-.123-.982,1.112-1.249,1.8-.847.7-.274-.761-.882-.006-1.184.81-.158,2.038.247,1.582-.919.573-.447,1.763-.605,2.116-1.324-.676-1.146-2.548,1.772-2.112-.21.286-.419,1.779-.78,1.019-1.315-.569-.027-.311-1.071-.988-.691.5,1.535-1.041,2.129-1.529,3.27-.91-.569-1.566.16-2.112.724-.813-.645-1.562-.1-2.271.472-1.188-.279-.78-2.525-2.329-2.248-.413.316-.411.879-.61,1.318-1.057.151-1.294,1.546-2.291,1.779.307-1.064.452-2.413,1.638-2.894-.026-.938,1.583-2.105-.046-2.519-1.091-.724-.435,1.73-1.469.749-1.487-.807.1,1.632-.956.956-.622-.394-.309.621-.717.835-.54.336.182.829.162,1.281a1.121,1.121,0,0,0-1.633,1.064,7.148,7.148,0,0,0-1.641.156c.188-1.2,1.707-1.542,1.592-2.847.646-1.062-.438-.737-.768-.131a2.425,2.425,0,0,1-1.206-2.395c-.7-.3-.907.356-1.2.78-1.333-.357-1.455,1.952-.17,1.94.656.058,1.262,1.153.643,1.57-.012-.572-1.257-1.412-1.235-.616.552.506,1.65.746.942,1.708-.371,1.356-.935-1.008-1.768-.578-.8.566.871,1.781-.145,2.125-.807-.49-2.006-.5-2.086.681-1.421.41-.531-2.288-1.813-1.487-.1.465-.571,1.723-.9.722.342-1.524-1.514-1.358-.833.119-1.166.062-1.087-2.166-2.149-1.38-.575.668-.424,1.7-1.16,2.292-.915-.335.838-2.315-.294-2.085-.286.269-1.469,1.838-1.157.624.8-.763-.633-1.263-1.1-.624-.192.2-.493.853-.71.347-.41-.8.821-.956.919-1.575-.569.007-1.311.465-1.743-.11-.2-.375.564-1.361-.074-1.347-1.128.311-.014,1.728-.137,2.476-.58.447-.457-1.053-1.206-.518-.313.7-.952.341-1.284-.058-1.091.322-.192,1.256,0,1.863-.963-.1.011,1.114-.336,1.34-.655-.343-.995.4-1.561.514-.444-.423-1.365-1.206-.925-1.885.475-.569.908-2.75.142-2.262.712,1.436-1.238,1.626-1.032,2.94-.006.642-1.147,1.432-.82.369-.231-1.859,1.725-2.924,1.676-4.539-1.081-.213-.674,1.784-1.871,1.426-.452-.533.267-1,.208-1.542-1.007-.256-.59,1-1.195,1.34a1.294,1.294,0,0,0-1.815-.515c.082-.43.679-.941.031-1.2-.8.393-1.249,1.412-2.15,1.579-.077-.614.481-1.035.7-1.555-.254-.564-.961-1.293-.142-1.7a3.227,3.227,0,0,0,1.708-2.708c-1.09-.382-.587,1.948-1.575,1.095-.448-.972-1.116.5-1.63-.054-.1-1.583,2.384-1.789,2.371-3.306-1.175-.232-1.766.995-2.432,1.741C9.057,50.8,6.567,50.4,4.815,51.045a4.446,4.446,0,0,1-2.233.1c-.456-.565,1.225-.226.727-.695-1.328.343-.062-1.271-.938-1.488a1.95,1.95,0,0,1-1.378.05c-1.842.066.441-1.091,1.1-.724,1.226.241,1.358-1.514.2-1.01-.249-.438-.421-.717-.891-.284a.961.961,0,0,0-1.4.468V8.548C.548,6.7,1.077,4.661,2.543,3.257A10.8,10.8,0,0,1,8.66,0m8.887,16.1c-.174.093-.155.29-.158.459.019,9.924-.008,19.85.013,29.774,1.145.052,2.292.007,3.438.007.2-3.26-.336-6.834.247-9.91,2.956,3.07,5.187,6.79,8.254,9.759,1.172.384,2.558.063,3.809.145-2.4-3.484-5.355-6.588-7.932-9.955-.4-.512-1.091-.936-1.006-1.668,2.724-2.762,5.508-5.465,8.21-8.247a36.629,36.629,0,0,0-4.11.058c-2.557,2.251-4.767,5.067-7.449,7.092-.046-5.75.026-11.5-.033-17.25-.81-.757-2.268-.049-3.282-.264m58.381,0c-.431,3.13.06,6.573-.225,9.8a.356.356,0,0,1-.623.182,11.514,11.514,0,0,0-9.217,1.782c-5.851,4.17-5.62,14.933,1.331,17.89a15.349,15.349,0,0,0,12.126-.287c.055-9.741.027-19.485.014-29.228-.978-.475-2.323,0-3.406-.137m6.891.132c-.035,9-.015,18.01-.01,27.014.187.83.166,1.84.967,2.364,1.506,1.536,3.816,1.054,5.707.747-.718.48.018,1.317.267,1.853.77,1.38,2.034,2.8,1.562,4.515-.256,1.812,1.941,2.921,3.491,2.9,1.031-1.563.916-3.591,1.842-5.21,1.042-1.25.118-2.709-.3-4.027A13.27,13.27,0,0,0,106,45.231c.081-.849-.55-1.561-.851-2.313-.995-.142-1.625.935-2.618.89-3.057,1.025-6.854-.2-8.279-3.2-.4-1.079-1.122-2.5-.459-3.53,4.271-.068,8.55.007,12.824-.031.244-3.28-.462-6.886-2.825-9.313-3.591-3.214-10.033-2.3-12.3,2.049a14.069,14.069,0,0,0-.434,12.011c.525,1.793,2.224,2.822,3.565,3.952-.988-.309-2,0-2.992-.306a3.394,3.394,0,0,1-2.006.807c-.027-.867-.484-1.641-.554-2.5-1.106.126-2.277.01-2.807-1.1-.038-8.758.026-17.52-.03-26.278-.842-.685-2.471-.229-3.418-.131m-46.07,2.632c-2.111,1.072-1.2,4.676,1.231,4.465,1.3-.23,2.739-1.6,2.133-3.018a2.683,2.683,0,0,0-3.363-1.448M52.955,25.8A11.428,11.428,0,0,0,46.9,28.675c-.705.293-.6-.7-.686-1.147.207-1.818-2.036-.888-3.075-1.071q-.027,9.936,0,19.875c1.143.052,2.29.007,3.434.007.048-4.912-.02-9.828.03-14.74,2.04-1.639,4.785-3.363,7.47-2.389,1.581.59,2.022,2.413,2.166,3.909.055,4.372-.113,8.818.08,13.145A9.455,9.455,0,0,0,59.8,46.2c-.061-5.021.189-10.088-.125-15.083A6,6,0,0,0,52.955,25.8m-16.845.658q-.027,9.936,0,19.875c1.145.052,2.292.007,3.438.007q.027-9.936,0-19.875c-1.145-.054-2.293-.008-3.438-.007m66.282,22.419c-.579,1.191-2.666.608-2.426,2.248-.311,1.059-.844,2.51.124,3.328.749-.56,2.378.188,2.436-1.261.106-1.4,1.02-2.641.972-4.056-.044-.553-.813-.16-1.107-.26m-15.985,4.16c-1.256.873.228,1.992-.176,2.951-.4-.2-1.3-.4-1.046.365.372.715-.525.064-.874.052-.711.148-.592-1.6-1.029-.527-.44,1.2-.293-1.195-.995-.636-.185,1.066,1.253,1.751,2.064,2.193,1.51.647,1.556,2.627,3.025,3.28,1.629.335,2.8,1.613,4.382,2.054.677.126,1.946-.086,1.766-1.044A7.956,7.956,0,0,0,89.5,56.687c-.455-.452-.64.857-1.007.173.247-1.189-1.44-.39-1.468-1.265-.007-.689-1.089-1.235-.463-1.911.45-.253.49-.849-.158-.648m28.1,3.461c-1.731,1.177-3.815,2-5.1,3.705-.436.32-.492,1.174.2,1.16,1.762-.313,4.239-.323,4.8-2.463.2-.659.969-2.212.094-2.4M59.628,59.859c-.835.478-1.145,2.042-.071,2.345a4.629,4.629,0,0,1,.264-2.025c.144-.238.138-.515-.193-.319m10.461,38.7c-.828.764-2.191,1.436-2.408,2.569,1.688.72,3.4,1.459,5.124,2.062a44.923,44.923,0,0,1-2.146-4.3c-.012-.341-.307-.428-.571-.33m-5.464,11.206c-2.153,2.762-4.569,5.31-6.751,8.049-1.009-.344-2.235.055-1.878,1.336,3.229-.771,6.385-2.069,9.7-2.558a34.667,34.667,0,0,0,5.694-2.928,19.93,19.93,0,0,0-2.44-1.511c-1.544-.6-2.719-2.186-4.33-2.388Z" transform="translate(0)" fill="#252525"/><path d="M555.107,240.521a6.139,6.139,0,0,1,3.374.573c.057,4.583.024,9.169.017,13.754-.736,1.14-2.5.759-3.659.935a8.606,8.606,0,0,1-5.324-2.523,9.407,9.407,0,0,1-.4-9.468A6.867,6.867,0,0,1,555.107,240.521Zm24.9-.023a4.585,4.585,0,0,1,4.6,1.362,6.969,6.969,0,0,1,1.274,4.253c-2.917.659-6.1.156-9.092.23-1.146-.695-.243-2.514.291-3.527A4.293,4.293,0,0,1,580.008,240.5Z" transform="translate(-482.735 -211.73)" fill="#252525"/><path d="M146.108,134.337c1.014.216,2.472-.492,3.282.264.06,5.75-.013,11.5.033,17.25,2.682-2.025,4.892-4.842,7.449-7.092a36.639,36.639,0,0,1,4.11-.058c-2.7,2.782-5.486,5.485-8.21,8.247-.086.732.608,1.156,1.006,1.668,2.577,3.367,5.533,6.472,7.932,9.955-1.251-.082-2.637.238-3.809-.145-3.067-2.969-5.3-6.689-8.254-9.759-.583,3.076-.048,6.65-.247,9.91-1.146,0-2.293.045-3.438-.007-.021-9.924.006-19.85-.013-29.774C145.954,134.626,145.935,134.43,146.108,134.337Zm58.381,0c1.083.142,2.428-.338,3.406.137.013,9.742.041,19.487-.014,29.228a15.349,15.349,0,0,1-12.126.287c-6.951-2.957-7.182-13.72-1.331-17.89a11.514,11.514,0,0,1,9.217-1.782.356.356,0,0,0,.623-.182c.285-3.224-.206-6.667.225-9.8m-3.556,12.692a6.867,6.867,0,0,0-5.992,3.27,9.407,9.407,0,0,0,.4,9.468,8.606,8.606,0,0,0,5.324,2.523c1.158-.176,2.923.2,3.659-.935.007-4.585.041-9.17-.017-13.754A6.14,6.14,0,0,0,200.933,147.03Zm10.447-12.56c.947-.1,2.576-.554,3.418.131.056,8.758-.008,17.52.03,26.278.53,1.113,1.7,1.23,2.807,1.1.07.86.527,1.633.554,2.5l-.144.112c-1.891.307-4.2.789-5.707-.747-.8-.524-.78-1.533-.967-2.364C211.365,152.481,211.346,143.474,211.381,134.47ZM165.31,137.1a2.683,2.683,0,0,1,3.363,1.448c.606,1.419-.833,2.788-2.133,3.018-2.434.211-3.342-3.393-1.231-4.465Zm16.206,6.935a6,6,0,0,1,6.716,5.317c.315,5,.064,10.063.125,15.083a9.455,9.455,0,0,1-3.48.064c-.193-4.327-.025-8.772-.08-13.145-.144-1.5-.585-3.319-2.166-3.909-2.685-.975-5.43.749-7.47,2.389-.05,4.912.018,9.828-.03,14.74-1.144,0-2.291.045-3.434-.007q-.016-9.936,0-19.875c1.039.183,3.282-.747,3.075,1.071.082.449-.019,1.44.686,1.147A11.428,11.428,0,0,1,181.516,144.037Zm38.541,3.983c2.27-4.349,8.712-5.264,12.3-2.049,2.363,2.427,3.069,6.033,2.825,9.313-4.275.038-8.553-.037-12.824.031-.664,1.031.055,2.451.459,3.53,1.425,3,5.222,4.226,8.279,3.2.992.045,1.623-1.032,2.618-.89.3.752.932,1.463.851,2.313a13.27,13.27,0,0,1-9.658,1.153c-.562-.244-1.177-.348-1.72-.64-1.34-1.129-3.039-2.159-3.565-3.952a14.069,14.069,0,0,1,.434-12.011m5.778-1.013a4.293,4.293,0,0,0-2.93,2.318c-.534,1.013-1.437,2.832-.291,3.527,2.988-.074,6.175.429,9.092-.23a6.969,6.969,0,0,0-1.274-4.253A4.585,4.585,0,0,0,225.835,147.008Zm-61.164-2.313c1.145,0,2.293-.046,3.438.007q.016,9.936,0,19.875c-1.146,0-2.293.045-3.438-.007Q164.652,154.634,164.671,144.695Z" transform="translate(-128.561 -118.239)" fill="#f59c24"/><path d="M91.635,381.38c.99.3,2,0,2.992.306.543.292,1.158.4,1.72.64.417,1.318,1.342,2.777.3,4.027-.926,1.619-.811,3.647-1.842,5.21-1.55.025-3.747-1.084-3.491-2.9.472-1.713-.792-3.136-1.562-4.515-.249-.536-.985-1.372-.267-1.853l.144-.112a3.394,3.394,0,0,0,2.006-.807ZM1.4,382.938c.471-.434.642-.155.891.284,1.163-.5,1.031,1.251-.2,1.01-.664-.367-2.946.79-1.1.724a1.95,1.95,0,0,0,1.378-.05c.876.217-.391,1.831.938,1.488.5.468-1.183.13-.727.695a4.446,4.446,0,0,0,2.233-.1c1.753-.646,4.243-.248,5.267-2.127.666-.746,1.257-1.973,2.432-1.741.013,1.517-2.471,1.723-2.371,3.306.513.55,1.182-.919,1.63.054.988.853.485-1.477,1.575-1.095a3.227,3.227,0,0,1-1.708,2.708c-.82.412-.112,1.141.142,1.7-.22.519-.779.941-.7,1.555.9-.167,1.351-1.185,2.15-1.579.648.262.051.773-.031,1.2a1.294,1.294,0,0,1,1.815.515c.605-.34.188-1.6,1.195-1.34.058.546-.66,1.009-.208,1.542,1.2.357.79-1.639,1.871-1.426.049,1.616-1.907,2.681-1.676,4.539-.328,1.063.814.273.82-.369-.206-1.314,1.744-1.5,1.032-2.94.766-.487.334,1.693-.142,2.262-.441.679.48,1.462.925,1.885.566-.118.905-.857,1.561-.513.347-.226-.627-1.438.336-1.34-.189-.608-1.089-1.542,0-1.863.332.4.971.762,1.284.058.748-.535.625.965,1.206.518.123-.748-.991-2.165.137-2.476.637-.013-.131.972.074,1.347.432.574,1.174.117,1.743.11-.1.62-1.328.777-.919,1.575.217.506.518-.15.71-.347.469-.639,1.9-.138,1.1.624-.312,1.214.871-.355,1.157-.624,1.132-.23-.621,1.75.294,2.085.736-.587.585-1.624,1.16-2.292,1.063-.786.983,1.442,2.149,1.38-.681-1.477,1.175-1.643.833-.119.332,1,.808-.257.9-.722,1.282-.8.392,1.9,1.813,1.487.08-1.18,1.28-1.171,2.086-.681,1.016-.344-.653-1.56.145-2.125.833-.43,1.4,1.934,1.768.578.708-.963-.391-1.2-.942-1.708-.021-.8,1.224.044,1.235.616.618-.417.013-1.512-.643-1.57-1.284.012-1.163-2.3.17-1.94.292-.424.5-1.082,1.2-.78a2.425,2.425,0,0,0,1.206,2.395c.33-.606,1.414-.931.768.131.116,1.306-1.4,1.645-1.592,2.847a7.15,7.15,0,0,1,1.641-.156,1.121,1.121,0,0,1,1.633-1.064c.02-.452-.7-.945-.162-1.281.409-.214.1-1.23.717-.835,1.056.677-.531-1.762.956-.956,1.034.981.378-1.474,1.469-.749,1.63.413.02,1.581.046,2.519-1.187.481-1.331,1.83-1.638,2.894,1-.232,1.234-1.627,2.291-1.779.2-.438.2-1,.61-1.318,1.549-.276,1.141,1.969,2.329,2.248.709-.573,1.458-1.116,2.271-.472.547-.565,1.2-1.294,2.112-.724.487-1.141,2.024-1.736,1.529-3.27.677-.38.418.664.988.691.76.535-.733.9-1.019,1.315-.436,1.981,1.437-.936,2.112.21-.353.718-1.543.877-2.116,1.324.456,1.165-.772.76-1.582.919-.755.3.7.91.006,1.184-.685-.4-1.919-.135-1.8.847.483-.188,1.742-.522,1.375.394a2.085,2.085,0,0,0-.885,1.761c-.257.656-.925.318-1.415.216.218.4-.036,1.566.641,1.286.763-1.191,2.414-.488,3.35-.469,1.053-1.007-1.17-.555-.363-1.791.158-.728,1.251,0,.8.554-.18.635.343,2,.971,1.1-.2-1.14.729-.714,1.246-.932-.17-.519-.865-1.3-.108-1.679.549.519.357,1.421.714,2.048a3.866,3.866,0,0,0-1.508,3.064c1.031-.02.637-1.955,1.586-1.848.178.709.375,3.1,1.331,1.325,1.22.646-.169-.692.524-1.209.409-.1.349.641.805.478.356-.909-.933-1.132-.944-1.866a2.834,2.834,0,0,0,1.42-.548c.456-.883-1.039-.558-.807-1.246.067-.623.951.151,1.04-.4.475-.869-.894-.379-.708-1.035.158-.225.661-.442.369-.755-.528-.467.272-.984.487-1.4.5-.584.969.565,1.394-.03,1.022-.434-.617,1.213.108,1.415,1.093-.441.362-1.943,1.322-2.365.4.678-.347,1.561.136,2.26.492.652-1.112,1.38-.353,1.8a4.311,4.311,0,0,0,2.308-1.639c1.2-.212.241,1.545-.068,2.1,1.145.6,1.971-.522,3.05-.412.31.913-1.437,1.216-1.169,2.146.892.416,1.042-1.116,1.782-.991a3.8,3.8,0,0,0,.76,2.065c.344-.391.379-.967.723-1.358.467-.513.757,1.219,1.108.518.882-1.377-1.762-2.42-.534-3.629.982.282.952-1.053,1.81-1.176.49-.118.274-.8.423-1.131.506-.285,1.544.3.948.844-.751.3-.829,1.275-1.73,1.278-.343,1.426,1.015-.486,1.393.342.356,1-1,1.02-1.259,1.791-.348.493-.074,1.238.5.747.092-.739.71-1.25,1.277-.438.735.628.317-1.215,1.04-.683.683.419.429-.779.823-.951a.716.716,0,0,0,1.239.1c.674.3.082,1.035.094,1.563.467.093.716-.905,1.135-.306.494.332.158.668-.21.926,1.376-.237,1.884,1.152,2.821,1.813,1.1.838,1.9,2.01,3.009,2.837,2.426.841,3.923,3.7,6.789,3.347,1.389,1.411,1.388,3.643,1.656,5.5a48.746,48.746,0,0,1-1.344,12.959,43.831,43.831,0,0,1-2.623,11.06,20.448,20.448,0,0,1-4.568,6.2c-.519-.405-.35-1.164-.527-1.739a50.183,50.183,0,0,0-2.41-8.191c-.97-2.085-1.9-4.482-4.07-5.589a15.363,15.363,0,0,1-4.209-2.47c-1.4-1.513-.29-3.535-.753-5.295a8.451,8.451,0,0,0-3.155-5.209c-2.19-.964-4.941-2.152-7.076-.419-1.468,1.517-2.382,3.5-3.625,5.2a1.862,1.862,0,0,0,.461,2.838c1.4,1.088,3.264,2.183,3.048,4.234-.026.863,1.264.085,1.588.792.513.979,1.706.48,2.323,1.266.754-.142,2.444-.973,2.308.566a11.98,11.98,0,0,0-4,4c-.475,1.052-1.569,1.907-1.388,3.157-.71,1.107-1.184,3.119-2.921,2.675-1.688-.1-3.454.217-5.092-.278a4.767,4.767,0,0,0-1.05-1.348c-.285-.908,1.5-1.644.995-2.528-2.459-2.062-4.761-4.365-7.378-6.22-1.39.378-2.407,1.691-3.673,2.382-.5.3-1.44,1.029-.637,1.586,1.965,1.723,4.058,3.345,5.917,5.162a3.3,3.3,0,0,0,3.094,2.975c1.616-.061,2.84,1.034,4.126,1.837.542.379-.305.935-.421,1.351-2.087,3.621-4.325,7.158-6.349,10.813.535,1.253-.272,2.224-1.426,2.745a44.332,44.332,0,0,1-5.469,1.8c-.917.371-2.149,1.421-1.436,2.472H8.421A10.458,10.458,0,0,1,0,449.524V383.407A.961.961,0,0,1,1.4,382.938Zm100.99,1.879c.294.1,1.063-.293,1.107.26.048,1.414-.866,2.652-.972,4.056-.058,1.449-1.687.7-2.436,1.261-.967-.817-.435-2.268-.124-3.328C99.724,385.425,101.812,386.009,102.391,384.817Zm-15.985,4.16c.648-.2.609.4.158.648-.625.676.456,1.222.463,1.911.027.876,1.714.076,1.468,1.265.367.684.552-.624,1.007-.173a7.956,7.956,0,0,1,4.019,5.037c.18.958-1.089,1.17-1.766,1.044-1.583-.441-2.753-1.719-4.382-2.054-1.469-.653-1.515-2.633-3.025-3.28-.81-.442-2.248-1.127-2.064-2.193.7-.559.555,1.832.995.636.437-1.077.318.674,1.029.527.349.012,1.246.662.874-.052-.254-.764.642-.566,1.046-.365C86.633,390.97,85.15,389.851,86.406,388.978Zm28.1,3.461c.874.191.111,1.744-.094,2.4-.565,2.14-3.042,2.149-4.8,2.463-.691.013-.635-.84-.2-1.16C110.694,394.437,112.777,393.616,114.508,392.439Zm2.44,5.653c.848-2.448,3.68-3.175,5.052-5.251v36.607c-3.278-.672-6.839-1.854-8.83-4.731-3.428-6.77-2.478-14.737-3.2-22.057-.494-1.482,1.237-1.667,2.145-2.255,1.663-.569,3.828-.628,4.835-2.314Z" transform="translate(0 -335.942)" fill="#4083c3"/><path d="M473.163,501.931c.331-.2.337.081.193.319a4.63,4.63,0,0,0-.265,2.025C472.018,503.973,472.328,502.408,473.163,501.931Zm10.461,38.7c.263-.1.559-.011.571.33a44.925,44.925,0,0,0,2.146,4.3c-1.729-.6-3.436-1.343-5.124-2.062C481.432,542.062,482.8,541.39,483.623,540.626Zm-5.464,11.206c1.611.2,2.785,1.792,4.33,2.388a19.935,19.935,0,0,1,2.44,1.511,34.668,34.668,0,0,1-5.694,2.929c-3.319.488-6.475,1.787-9.7,2.558-.357-1.281.869-1.68,1.878-1.336C473.59,557.143,476.007,554.594,478.16,551.833Z" transform="translate(-413.535 -442.072)" fill="#4083c3"/></g></g></g></svg>