<svg xmlns="http://www.w3.org/2000/svg" viewBox="0 0 245.598 61"><defs><style>.a,.b{fill:#fff;}.a{stroke:#fff;}.c{stroke:none;}.d{fill:none;}</style></defs><g transform="translate(-0.352)"><g transform="translate(0.409)"><g class="a" transform="translate(-0.057)"><rect class="c" width="61" height="61" rx="17"/><rect class="d" x="0.5" y="0.5" width="60" height="60" rx="16.5"/></g><path d="M2.128-11.4a.984.984,0,0,0-1.1-1.1q-.095,0-.342.019l-.038-.171q1.6-.114,3.857-.494t2.841-.437q.579-.057,1.074-.057a8.367,8.367,0,0,1,2.4.276,6.124,6.124,0,0,1,1.549.713,3.153,3.153,0,0,1,1.064,1.2,3.781,3.781,0,0,1,.437,1.777,5.13,5.13,0,0,1-.247,1.662,3.575,3.575,0,0,1-.7,1.235,4.444,4.444,0,0,1-3.5,1.558,3.816,3.816,0,0,1-1.349-.228A2.221,2.221,0,0,1,6.631-6.935l.19-.114a.991.991,0,0,0,.874.38,2.02,2.02,0,0,0,1.653-1.1,3.493,3.493,0,0,0,.437-1.862,3.167,3.167,0,0,0-.817-2.394,2.122,2.122,0,0,0-1.539-.589,3.125,3.125,0,0,0-.475.038l-.931.133V-1.387a1.223,1.223,0,0,0,.371.846,1.153,1.153,0,0,0,.845.352h.247V0H.665V-.19H.912a1.153,1.153,0,0,0,.846-.352,1.223,1.223,0,0,0,.37-.846Zm10.051-2.774a5.591,5.591,0,0,1,2.651-.722,5.182,5.182,0,0,1,2.384.551,9.5,9.5,0,0,1,3.7,3.667l3.4,5.529,5.643-8.417h.171L32.281-2.451A9.533,9.533,0,0,0,34.2,2.3a3.408,3.408,0,0,0,2.565,1.045h.285v.19a6.277,6.277,0,0,1-2.451.494A5.84,5.84,0,0,1,30.21,2.052a9.316,9.316,0,0,1-2.185-4.617l-.874-4.009L23.9-1.748a4.977,4.977,0,0,0-.57,1.1A2.848,2.848,0,0,0,23.1.456h-.171l-4.617-7.9-.95,6.384v.076a.846.846,0,0,0,.219.561.665.665,0,0,0,.523.257h.285V0H14.231V-.19h.3a1.4,1.4,0,0,0,.9-.314,1.349,1.349,0,0,0,.484-.846L17.233-9.5a17.454,17.454,0,0,0-2.147-3,3.765,3.765,0,0,0-2.7-1.482h-.152Z" transform="translate(11.297 35.896)"/></g><g transform="translate(75 13)"><path class="b" d="M4.4-7.72H6.58A2.3,2.3,0,0,0,8.2-8.27a1.9,1.9,0,0,0,.6-1.47,1.938,1.938,0,0,0-.59-1.49,2.3,2.3,0,0,0-1.63-.55H4.4ZM6.92-5.34H4.38V0H1.62V-14.18h5.3a4.66,4.66,0,0,1,3.37,1.24,4.217,4.217,0,0,1,1.29,3.18,4.217,4.217,0,0,1-1.29,3.18A4.66,4.66,0,0,1,6.92-5.34Zm11.5-4.54V-7.2a4.07,4.07,0,0,0-.8-.08,2.6,2.6,0,0,0-1.84.65,2.8,2.8,0,0,0-.7,2.13V0H12.42V-9.84H15v1.46a2.787,2.787,0,0,1,2.8-1.54Q18.02-9.92,18.42-9.88Zm.46,7.2A2.623,2.623,0,0,1,19.7-4.7a3.905,3.905,0,0,1,2.12-.96l2.42-.36q.74-.1.74-.7a1.147,1.147,0,0,0-.43-.92A1.867,1.867,0,0,0,23.32-8a1.865,1.865,0,0,0-1.33.46,1.719,1.719,0,0,0-.55,1.14l-2.36-.5a3.461,3.461,0,0,1,1.26-2.26,4.333,4.333,0,0,1,2.96-.98,4.394,4.394,0,0,1,3.24,1.05A3.661,3.661,0,0,1,27.58-6.4v4.84A9.051,9.051,0,0,0,27.7,0H25.26a5.542,5.542,0,0,1-.1-1.18A3.207,3.207,0,0,1,22.26.28,3.418,3.418,0,0,1,19.81-.6,2.771,2.771,0,0,1,18.88-2.68Zm3.94.98a2.278,2.278,0,0,0,1.55-.53,2.21,2.21,0,0,0,.61-1.75v-.44l-2.22.34q-1.22.18-1.22,1.24a1.085,1.085,0,0,0,.34.81A1.293,1.293,0,0,0,22.82-1.7Zm9.7,5.58H29.7l2.32-5.12-4.18-8.6h2.98l2.62,5.76,2.42-5.76H38.7Zm8.4-9.92h4.4a2.043,2.043,0,0,0-.59-1.38,2.158,2.158,0,0,0-1.61-.56,2.11,2.11,0,0,0-1.56.6A2.017,2.017,0,0,0,40.92-6.04Zm4.66,2.56,2.22.66A4.242,4.242,0,0,1,46.23-.58,4.7,4.7,0,0,1,43.32.3a4.988,4.988,0,0,1-3.6-1.43,5.079,5.079,0,0,1-1.48-3.83,5.068,5.068,0,0,1,1.44-3.73,4.634,4.634,0,0,1,3.4-1.45,4.684,4.684,0,0,1,3.57,1.36,5.214,5.214,0,0,1,1.29,3.74q0,.16-.01.36t-.01.32l-.02.14H40.86a2.181,2.181,0,0,0,.76,1.6,2.5,2.5,0,0,0,1.72.64A2.156,2.156,0,0,0,45.58-3.48Zm9.58-6.4V-7.2a4.07,4.07,0,0,0-.8-.08,2.6,2.6,0,0,0-1.84.65,2.8,2.8,0,0,0-.7,2.13V0H49.16V-9.84h2.58v1.46a2.787,2.787,0,0,1,2.8-1.54Q54.76-9.92,55.16-9.88ZM76.18,0H73.46V-9.94L69.38,0h-2.3L63-9.86V0H60.36V-14.18H64L68.26-3.94l4.16-10.24h3.76Zm2.56-.39a1.739,1.739,0,0,1-.54-1.29,1.739,1.739,0,0,1,.54-1.29,1.766,1.766,0,0,1,1.28-.53,1.789,1.789,0,0,1,1.3.53,1.739,1.739,0,0,1,.54,1.29,1.739,1.739,0,0,1-.54,1.29,1.789,1.789,0,0,1-1.3.53A1.766,1.766,0,0,1,78.74-.39ZM104.632,0h-2.856V-10.437L97.492,0H95.077L90.793-10.353V0H88.021V-14.889h3.822L96.316-4.137l4.368-10.752h3.948Zm1.6-2.814a2.754,2.754,0,0,1,.861-2.121,4.1,4.1,0,0,1,2.226-1.008l2.541-.378q.777-.105.777-.735a1.2,1.2,0,0,0-.451-.966A1.96,1.96,0,0,0,110.89-8.4a1.958,1.958,0,0,0-1.4.483,1.805,1.805,0,0,0-.577,1.2l-2.478-.525a3.634,3.634,0,0,1,1.323-2.373,4.55,4.55,0,0,1,3.108-1.029,4.613,4.613,0,0,1,3.4,1.1,3.844,3.844,0,0,1,1.092,2.825v5.082A9.5,9.5,0,0,0,115.489,0h-2.562a5.82,5.82,0,0,1-.1-1.239A3.367,3.367,0,0,1,109.777.294,3.589,3.589,0,0,1,107.2-.63,2.91,2.91,0,0,1,106.228-2.814Zm4.137,1.029a2.392,2.392,0,0,0,1.628-.557,2.32,2.32,0,0,0,.64-1.838v-.462l-2.331.357q-1.281.189-1.281,1.3a1.139,1.139,0,0,0,.357.851A1.357,1.357,0,0,0,110.365-1.785ZM127.06-15.2V-1.869q0,1.029.084,1.869h-2.667a6.142,6.142,0,0,1-.105-1.2,2.6,2.6,0,0,1-1.123,1.05,3.789,3.789,0,0,1-1.775.4,4.7,4.7,0,0,1-3.622-1.544,5.537,5.537,0,0,1-1.418-3.9,5.538,5.538,0,0,1,1.4-3.843,4.574,4.574,0,0,1,3.56-1.554q2.226,0,2.919,1.281v-5.9ZM119.248-5.187a3.085,3.085,0,0,0,.714,2.153,2.38,2.38,0,0,0,1.848.787,2.342,2.342,0,0,0,1.827-.8,3.125,3.125,0,0,0,.714-2.163,2.975,2.975,0,0,0-.714-2.111,2.386,2.386,0,0,0-1.827-.766,2.4,2.4,0,0,0-1.838.777A2.987,2.987,0,0,0,119.248-5.187ZM135.88,0a5.9,5.9,0,0,1-.084-1.113,2.472,2.472,0,0,1-1.187,1.04,4.1,4.1,0,0,1-1.669.347,3.676,3.676,0,0,1-2.877-1.165,4.184,4.184,0,0,1-1.05-2.909v-6.531h2.793v5.964a2.262,2.262,0,0,0,.483,1.5,1.73,1.73,0,0,0,1.407.577,1.869,1.869,0,0,0,1.428-.557,2.069,2.069,0,0,0,.525-1.48v-6.006h2.793v8.463a15.828,15.828,0,0,0,.1,1.869Zm6.615-6.342h4.62a2.145,2.145,0,0,0-.619-1.449,2.266,2.266,0,0,0-1.691-.588,2.216,2.216,0,0,0-1.638.63A2.118,2.118,0,0,0,142.495-6.342Zm4.893,2.688,2.331.693A4.454,4.454,0,0,1,148.07-.609a4.939,4.939,0,0,1-3.055.924,5.238,5.238,0,0,1-3.78-1.5,5.333,5.333,0,0,1-1.554-4.022,5.321,5.321,0,0,1,1.512-3.917,4.866,4.866,0,0,1,3.57-1.523,4.919,4.919,0,0,1,3.748,1.428,5.475,5.475,0,0,1,1.355,3.927q0,.168-.01.378t-.01.336l-.021.147h-7.392a2.291,2.291,0,0,0,.8,1.68,2.626,2.626,0,0,0,1.806.672A2.264,2.264,0,0,0,147.388-3.654Zm13.776-6.678-4.137,4.347L161.248,0h-3.423l-2.73-3.948L153.94-2.73V0h-2.793V-15.2h2.793v8.715l3.57-3.843Zm2.373,3.99h4.62a2.145,2.145,0,0,0-.619-1.449,2.266,2.266,0,0,0-1.691-.588,2.216,2.216,0,0,0-1.638.63A2.118,2.118,0,0,0,163.537-6.342Zm4.893,2.688,2.331.693a4.454,4.454,0,0,1-1.648,2.352,4.939,4.939,0,0,1-3.055.924,5.238,5.238,0,0,1-3.78-1.5,5.333,5.333,0,0,1-1.554-4.022,5.321,5.321,0,0,1,1.512-3.917,4.866,4.866,0,0,1,3.57-1.523,4.919,4.919,0,0,1,3.748,1.428,5.475,5.475,0,0,1,1.355,3.927q0,.168-.01.378t-.01.336l-.021.147h-7.392a2.291,2.291,0,0,0,.8,1.68,2.626,2.626,0,0,0,1.806.672A2.264,2.264,0,0,0,168.43-3.654Z" transform="translate(0 17)"/><path class="b" d="M3.573.135a3.1,3.1,0,0,1-2.237-.9A3.222,3.222,0,0,1,.405-3.2a3.41,3.41,0,0,1,.468-1.8A3.019,3.019,0,0,1,2.052-6.142a3.223,3.223,0,0,1,1.521-.374A3,3,0,0,1,5.4-5.971a2.578,2.578,0,0,1,.986,1.48L5.562-4.2a1.934,1.934,0,0,0-.693-1.112,2.075,2.075,0,0,0-1.3-.391,2.192,2.192,0,0,0-1.6.661A2.49,2.49,0,0,0,1.305-3.2a2.506,2.506,0,0,0,.666,1.854,2.184,2.184,0,0,0,1.6.666,2.02,2.02,0,0,0,1.305-.419A2.185,2.185,0,0,0,5.607-2.2l.783.288a2.75,2.75,0,0,1-1,1.49A2.916,2.916,0,0,1,3.573.135ZM18.189,0h-.882V-2.835H14.049V0h-.882V-6.381h.882v2.727h3.258V-6.381h.882Zm10.53,0L27.261-2.61h-.954V0h-.891V-6.381h2.4a1.9,1.9,0,0,1,1.417.545,1.855,1.855,0,0,1,.535,1.354A1.774,1.774,0,0,1,29.358-3.3a1.882,1.882,0,0,1-1.134.625L29.745,0ZM26.307-3.4h1.35a1.275,1.275,0,0,0,.873-.293,1,1,0,0,0,.333-.788,1.033,1.033,0,0,0-.333-.806,1.251,1.251,0,0,0-.873-.3h-1.35ZM37.494,0h-.9V-6.381h.9ZM48.789-4.932,48-4.653a1.326,1.326,0,0,0-.4-.752,1.287,1.287,0,0,0-.945-.337,1.294,1.294,0,0,0-.882.306.964.964,0,0,0-.351.756.873.873,0,0,0,.212.594,1.1,1.1,0,0,0,.607.333l.954.207a2.247,2.247,0,0,1,1.224.644,1.639,1.639,0,0,1,.432,1.148,1.743,1.743,0,0,1-.612,1.332,2.273,2.273,0,0,1-1.593.558,2.376,2.376,0,0,1-1.679-.563,2.152,2.152,0,0,1-.707-1.337l.846-.27a1.534,1.534,0,0,0,.45.972,1.459,1.459,0,0,0,1.08.4A1.468,1.468,0,0,0,47.6-.954a.912.912,0,0,0,.342-.729.9.9,0,0,0-.243-.625,1.3,1.3,0,0,0-.711-.365l-.909-.2a2.121,2.121,0,0,1-1.134-.6,1.6,1.6,0,0,1-.423-1.143,1.76,1.76,0,0,1,.617-1.328,2.113,2.113,0,0,1,1.489-.571,2.152,2.152,0,0,1,1.5.477A2.067,2.067,0,0,1,48.789-4.932Zm11.259-.63H57.915V0h-.882V-5.562H54.9v-.819h5.148ZM67.455,0h-.9V-6.381h.9ZM79.1,0l-.693-1.782H75.582L74.907,0h-.945L76.5-6.381h1.017L80.055,0ZM76.986-5.463,75.9-2.6h2.2ZM91.809,0h-.918L87.444-5.2V0h-.882V-6.381h1.179l3.186,4.9v-4.9h.882Zm19.5,0-.693-1.782h-2.826L107.118,0h-.945l2.538-6.381h1.017L112.266,0ZM109.2-5.463,108.108-2.6h2.2Zm13.3,4.986a2.3,2.3,0,0,1-1.652.612,2.3,2.3,0,0,1-1.651-.612,2.235,2.235,0,0,1-.644-1.7v-4.2h.873V-2.2a1.577,1.577,0,0,0,.373,1.125,1.372,1.372,0,0,0,1.049.4,1.357,1.357,0,0,0,1.044-.4,1.589,1.589,0,0,0,.369-1.125V-6.381h.882v4.2A2.235,2.235,0,0,1,122.494-.477ZM134.7-5.562H132.57V0h-.882V-5.562h-2.133v-.819H134.7ZM146.232,0h-.882V-2.835h-3.258V0h-.882V-6.381h.882v2.727h3.258V-6.381h.882Zm8.4-5.045a2.471,2.471,0,0,0-.675,1.85,2.487,2.487,0,0,0,.675,1.854,2.235,2.235,0,0,0,1.629.666,2.235,2.235,0,0,0,1.629-.666,2.487,2.487,0,0,0,.675-1.854,2.471,2.471,0,0,0-.675-1.85,2.243,2.243,0,0,0-1.629-.661A2.243,2.243,0,0,0,154.629-5.045ZM153.054-3.2a3.544,3.544,0,0,1,.275-1.413,2.956,2.956,0,0,1,.729-1.049,3.373,3.373,0,0,1,1.021-.635,3.168,3.168,0,0,1,1.179-.225,3.168,3.168,0,0,1,1.179.225,3.373,3.373,0,0,1,1.021.635,2.956,2.956,0,0,1,.729,1.049,3.544,3.544,0,0,1,.275,1.413,3.385,3.385,0,0,1-.473,1.8A3.064,3.064,0,0,1,157.8-.243a3.263,3.263,0,0,1-1.539.378,3.263,3.263,0,0,1-1.539-.378,3.064,3.064,0,0,1-1.193-1.152A3.385,3.385,0,0,1,153.054-3.2ZM169.587,0l-1.458-2.61h-.954V0h-.891V-6.381h2.4a1.9,1.9,0,0,1,1.417.545,1.855,1.855,0,0,1,.536,1.354,1.774,1.774,0,0,1-.414,1.184,1.882,1.882,0,0,1-1.134.625L170.613,0Zm-2.412-3.4h1.35a1.275,1.275,0,0,0,.873-.293,1,1,0,0,0,.333-.788,1.033,1.033,0,0,0-.333-.806,1.251,1.251,0,0,0-.873-.3h-1.35Z" transform="translate(0.311 33.257)"/></g></g></svg>