<svg xmlns="http://www.w3.org/2000/svg" viewBox="0 0 76.18 81.757"><g transform="translate(-232 -458)"><path d="M68.556,67.392a61.872,61.872,0,0,1-28.8,7.43A64.327,64.327,0,0,1,2.013,62.2c-.944-.688-1.639.525-.855,1.417,9.964,11.33,23.117,18.143,37.731,18.143,10.427,0,22.531-4.136,30.884-11.9,1.383-1.284.2-3.219-1.216-2.463Zm2.282,7.549c-.31.773.354,1.09,1.056.5,4.561-3.815,5.74-11.807,4.807-12.959s-8.9-2.133-13.762,1.284c-.749.525-.62,1.25.211,1.148,2.742-.327,8.84-1.063,9.923.334S71.864,72.383,70.839,74.941Z" transform="translate(231.182 458)" fill="#fff" fill-rule="evenodd"/><path d="M45.579,34.372c0,4.2.1,7.685-2.013,11.415-1.71,3.035-4.432,4.9-7.447,4.9-4.136,0-6.547-3.148-6.547-7.808,0-9.17,8.227-10.84,16.011-10.84v2.333ZM56.433,60.62a2.211,2.211,0,0,1-2.538.252c-3.584-2.971-4.217-4.347-6.18-7.174-5.907,6.019-10.09,7.825-17.745,7.825-9.061,0-16.116-5.59-16.116-16.777a18.289,18.289,0,0,1,11.48-17.591c5.842-2.569,14-3.035,20.242-3.73v-1.4c0-2.565.2-5.594-1.3-7.815a7.22,7.22,0,0,0-6.047-2.793c-4.1,0-7.757,2.105-8.653,6.462a2.27,2.27,0,0,1-1.87,1.983L17.274,18.729a1.887,1.887,0,0,1-1.608-2.248C18.064,3.822,29.5,0,39.737,0,44.973,0,51.82,1.4,55.945,5.362c5.239,4.892,4.742,11.419,4.742,18.525V40.657c0,5.045,2.1,7.256,4.061,9.978.695.978.841,2.146-.034,2.858-2.2,1.843-6.111,5.236-8.254,7.15l-.027-.024Z" transform="translate(231.182 458)" fill="#fff" fill-rule="evenodd"/></g></svg>