<svg width="25" height="25" viewBox="0 0 25 25" fill="none" xmlns="http://www.w3.org/2000/svg">
<path d="M7.85421 25C17.288 25 22.4492 15.3785 22.4492 7.04974C22.4492 6.77919 22.4492 6.50864 22.4392 6.23808C23.4443 5.34238 24.3116 4.23362 25.0005 2.96378C24.0625 3.47343 23.0684 3.80963 22.0505 3.96145C23.123 3.17175 23.9261 1.93018 24.3105 0.467318C23.3023 1.20282 22.1987 1.7192 21.048 1.99379C20.5689 1.36441 19.9899 0.862704 19.3468 0.519745C18.7037 0.176787 18.0102 -0.000114853 17.3092 5.59454e-08C15.9483 0.00122154 14.6434 0.666612 13.6811 1.85005C12.7188 3.03349 12.1777 4.63823 12.1767 6.31187C12.1767 6.80379 12.2267 7.2834 12.3067 7.75072C10.2666 7.62473 8.27079 6.97249 6.44894 5.83636C4.62709 4.70022 3.01989 3.10559 1.73171 1.156C1.07706 2.54651 0.877219 4.19127 1.17275 5.75638C1.46828 7.32149 2.23704 8.68965 3.32296 9.5831C2.5093 9.54846 1.71369 9.27884 1.00046 8.79604V8.88212C1.00156 10.3383 1.41137 11.7495 2.16066 12.8771C2.90995 14.0047 3.95278 14.7796 5.11296 15.071C4.67327 15.2202 4.21906 15.2946 3.76296 15.2924C3.43171 15.2924 3.11171 15.2555 2.80046 15.1817C3.1275 16.4358 3.76548 17.5325 4.62493 18.3182C5.48439 19.1039 6.52223 19.5391 7.59296 19.5628C5.77614 21.3192 3.53142 22.2722 1.22046 22.2683C0.810458 22.2683 0.400458 22.2437 0.000457764 22.1823C2.34635 24.0232 5.07137 25.0009 7.85421 25Z" fill="white"/>
</svg>
