<svg width="163" height="40" fill="none" xmlns="http://www.w3.org/2000/svg"><path d="M46.833 14.402c.49-1.481.954-2.881 1.408-4.27.056-.17.17-.208.317-.235 2.453-.458 4.916-.848 7.42-.724 1.768.083 3.468.444 4.99 1.393 2.065 1.285 3.009 3.22 3.143 5.594.078 1.364-.144 2.711-.34 4.047-.404 2.722-.821 5.44-1.213 8.163a.639.639 0 0 1-.383.527c-1.596.876-3.328 1.356-5.108 1.647a22.901 22.901 0 0 1-6.668.17c-1.85-.232-3.573-.807-4.915-2.166a6.016 6.016 0 0 1 .486-8.855c1.377-1.132 3.004-1.695 4.717-2.059 2.595-.55 5.214-.474 7.834-.274.327.023.398-.077.414-.368.117-2.044-1.11-3.512-3.265-3.907-1.495-.275-2.962-.037-4.43.203a26.96 26.96 0 0 0-4.407 1.114zm9.166 6.166a17.479 17.479 0 0 0-2.786.205c-.997.17-1.965.432-2.768 1.093-.909.748-1.151 1.751-.971 2.856.17 1.009.874 1.561 1.788 1.887.419.147.854.24 1.296.28 1.634.157 3.22-.128 4.797-.518a.44.44 0 0 0 .383-.442c.215-1.602.429-3.205.666-4.803.04-.277-.05-.33-.281-.373a13.892 13.892 0 0 0-2.124-.185zm66.502 4.997c-.271.823-.508 1.56-.759 2.298-.2.605-.414 1.205-.604 1.815a.478.478 0 0 1-.376.38c-2.593.691-5.22 1.066-7.898.729-3.051-.385-5.573-1.695-7.119-4.494-.951-1.732-1.252-3.618-1.124-5.562.246-3.699 1.787-6.765 4.651-9.14 1.741-1.443 3.771-2.186 6.005-2.406 1.541-.15 3.073-.122 4.577.297 3.061.847 5.101 3.228 5.493 6.38.225 1.813 0 3.592-.293 5.374-.036.222-.148.229-.317.229h-14.333c-.318 0-.411.078-.416.405-.045 2.664 1.427 4.423 4.045 4.873 1.936.339 3.819.045 5.699-.365a21.95 21.95 0 0 0 2.769-.813zm-6.915-7.56h3.796c1.16 0 1.16 0 1.199-1.159.079-2.348-1.356-3.878-3.69-4.008-2.792-.158-5.424 1.864-6.102 4.864-.056.249 0 .31.254.308 1.511-.012 3.017-.005 4.543-.005zm16.66 12.85a23.488 23.488 0 0 1-7.318-1.22c-.236-.082-.298-.15-.214-.406.388-1.174.759-2.354 1.114-3.539.088-.292.191-.268.425-.156a11.919 11.919 0 0 0 7.31 1.03 3.707 3.707 0 0 0 1.614-.66 1.797 1.797 0 0 0 .2-2.795 6.397 6.397 0 0 0-1.437-1.004c-1.297-.725-2.616-1.405-3.848-2.245-3.31-2.267-2.907-6.983.353-9.053 1.444-.917 3.025-1.376 4.705-1.55 2.8-.29 5.507.189 8.174.992.244.073.307.14.214.399a104.31 104.31 0 0 0-1.154 3.36c-.097.297-.212.275-.441.17a12.071 12.071 0 0 0-5.341-1.152c-.895.022-1.767.17-2.525.698a1.746 1.746 0 0 0-.729 1.985c.146.409.422.76.785.998.785.59 1.683.988 2.542 1.46a21.187 21.187 0 0 1 3 1.901c2.793 2.217 2.51 6.44-.169 8.586-1.729 1.382-3.753 1.934-5.905 2.131-.541.047-1.078.056-1.355.07zm18.284 0a23.539 23.539 0 0 1-7.222-1.209c-.27-.09-.339-.17-.239-.454.383-1.15.746-2.305 1.098-3.465.085-.281.17-.322.444-.19a11.98 11.98 0 0 0 7.275 1.034 3.994 3.994 0 0 0 1.493-.556c1.124-.716 1.261-2.033.312-2.956a6.218 6.218 0 0 0-1.317-.906c-1.356-.77-2.765-1.458-4.041-2.373-2.944-2.127-2.578-5.976-.778-7.909 1.214-1.3 2.746-1.998 4.446-2.373 2.256-.508 4.51-.386 6.763.031.949.17 1.878.427 2.806.678.309.086.421.178.29.53a78.463 78.463 0 0 0-1.093 3.22c-.097.297-.193.34-.485.213a12.139 12.139 0 0 0-5.264-1.151c-.848.015-1.666.14-2.405.585-.7.418-1.054 1.027-.949 1.864.066.532.386.903.789 1.209.848.642 1.823 1.066 2.745 1.574 1.05.581 2.088 1.186 3.005 1.968 2.569 2.203 2.279 6.288-.299 8.39-1.384 1.13-2.991 1.717-4.725 2.02-.876.142-1.762.218-2.649.225zm-67.148-4.99c-.086.508-.305.964-.466 1.444-.306.913-.634 1.818-.937 2.734a.446.446 0 0 1-.4.339c-2.034.339-4.09.554-6.156.398-3.083-.232-5.727-1.356-7.544-3.983-1.281-1.851-1.734-3.954-1.62-6.17.19-3.695 1.756-6.718 4.642-9.034 1.654-1.325 3.6-1.976 5.673-2.247a19.322 19.322 0 0 1 7.683.46c.478.13.939.313 1.408.465.17.055.214.127.151.312-.4 1.17-.796 2.343-1.17 3.52-.084.26-.2.207-.369.141a12.176 12.176 0 0 0-3.754-.88c-2.791-.157-5.219.61-6.961 2.934-1.632 2.179-1.885 5.795-.137 7.982 1.086 1.356 2.52 2.074 4.222 2.273 1.835.213 3.61-.14 5.362-.644.112-.032.226-.054.34-.082l.033.038zm19.322-.024c-.39 1.122-.837 2.232-1.157 3.378-.233.835-.624 1.232-1.536 1.324-2.542.254-5.085.538-7.627-.134-3.998-1.063-6.61-4.253-6.827-8.399-.237-4.505 1.488-8.105 5.117-10.767 1.525-1.117 3.305-1.646 5.162-1.889a19.379 19.379 0 0 1 7.682.458c.464.127.91.317 1.373.45.242.072.249.182.169.394a152.116 152.116 0 0 0-1.134 3.41c-.086.273-.189.263-.412.178-1.776-.678-3.593-1.046-5.51-.847-3.256.349-5.734 2.502-6.359 5.67-.45 2.286-.037 4.377 1.785 5.996 1.452 1.288 3.22 1.647 5.103 1.537a16.255 16.255 0 0 0 3.909-.746c.076-.013.144-.076.262-.013z" fill="#114185"/><path d="M17.02.063v3.24l17.88 17.88-15.482 15.482L3.915 21.163l7.595-7.595H8.213L.611 21.17 19.393 39.95 38.15 21.193 17.02.063z" fill="#FE6309"/><path d="M17.013 5.534v3.24l12.409 12.41-9.997 9.996L9.406 21.163l7.595-7.595h-3.296L6.103 21.17 19.4 34.466l13.273-13.273-15.66-15.659z" fill="#FE6309"/><path d="M19.36 13.33l-7.843 7.84 7.857 7.857 1.655-1.656 6.188-6.178-7.856-7.862zm.043 12.423l-4.59-4.59 4.565-4.564 4.576 4.576-4.55 4.578z" fill="#FE6309"/></svg>