<svg width="401" height="40" fill="none" xmlns="http://www.w3.org/2000/svg"><path d="M376.493 5.457c-1.046.294-2.122.597-3.102.923-6.313-2.755-11.21-4.095-13.595-4.748-.448-.123-.808-.222-1.072-.3A122.02 122.02 0 0 1 362.43.28h.002c.431-.118.789-.216 1.014-.28 4.889 1.22 10.334 3.162 14.667 4.993-.519.154-1.066.308-1.62.464zm-27.045 24.082c-1.165-.819-2.328-1.636-3.446-2.3 15.944-12.482 29.444-17.863 37.333-19.86 1.949.947 3.499 1.744 5.217 2.628l.283.146c-13.166 4.105-25.166 11.373-37.333 20.804a97.986 97.986 0 0 1-2.054-1.418zm19.054-21.44c-2.111-1.164-9.444-3.883-14.5-5.048-1.5.555-3.611 1.387-5.055 1.998l.118.032c1.992.542 8.667 2.357 14.382 5.238 1.433-.69 3.425-1.53 4.859-2.136l.003-.002.193-.081zm31.999 8.71c-9 3.496-25.389 13.205-37.056 23.19-1.73-1.439-3.585-2.837-5.384-4.194l-.239-.18c-.201-.15-.4-.302-.599-.452 12.111-9.598 25.667-18.086 37.278-21.914 2.444 1.387 4.611 2.663 6 3.55z" fill="#E31837"/><path fill-rule="evenodd" clip-rule="evenodd" d="M371.889 39.279l-.555-.832h-.333v.832h-.223v-1.831h.834c.166 0 .333 0 .444.11.167.056.222.223.222.39 0 .332-.277.499-.611.499l.556.832h-.334zm-.529-1.054h.04l.04.001c.25.007.505.013.505-.279 0-.222-.222-.277-.444-.277h-.5v.555H371.36z" fill="#E31837"/><path fill-rule="evenodd" clip-rule="evenodd" d="M369.722 38.336c0-.888.722-1.61 1.666-1.61.945 0 1.667.722 1.667 1.61A1.67 1.67 0 0 1 371.388 40a1.635 1.635 0 0 1-1.666-1.664zm.333 0c0 .72.611 1.331 1.389 1.331.722 0 1.333-.555 1.333-1.331 0-.721-.611-1.276-1.333-1.276-.833 0-1.389.61-1.389 1.276z" fill="#E31837"/><path d="M343.668 7.378c-6.5 2.996-13.333 7.101-17.056 9.486.517.237 1.033.456 1.578.688.863.368 1.799.766 2.922 1.31 8.223-5.548 14.667-8.932 17.223-10.042-1.375-.5-2.688-.874-3.727-1.17-.346-.099-.662-.19-.94-.272zm14.444 5.492a93.517 93.517 0 0 0-3.176-1.438c-.67-.294-1.309-.574-1.879-.837-4.389 2.164-10.111 5.437-17.333 10.597.957.512 1.956 1.087 2.997 1.686l.002.001.003.002.007.004h.001c.647.373 1.31.755 1.99 1.136 5.555-4.105 11.166-7.989 17.388-11.15z" fill="#012169"/><path fill-rule="evenodd" clip-rule="evenodd" d="M16.001 31.51c0 3.274-2.111 5.604-6.611 5.604H.557v-20.25h8.277c4.5 0 6.611 2.33 6.611 5.215 0 2.275-1.166 3.828-3.722 4.439 2.89.555 4.278 2.33 4.278 4.993zm-4.944-.498c0-1.665-1.167-2.497-2.834-2.497v-.056H5.334v5.049h2.89c1.722 0 2.833-.721 2.833-2.497zM10.5 22.8c0-1.665-1.167-2.386-2.833-2.386H5.334v4.771h2.334c1.722 0 2.833-.721 2.833-2.385zm10.833 14.313l7.611-20.305h5l7.667 20.305h-5.11l-1.39-4.216H27.78l-1.389 4.216h-5.056zm12.5-7.933l-2.389-7.49-2.5 7.49h4.89z" fill="#012169"/><path d="M53.668 16.809l8.666 13.592V16.81h4.611v20.305H61.78l-8.667-13.537v13.537h-4.61V16.81h5.166zm27.889 9.986l6.666 10.32h5.778l-7.278-10.542 6.667-9.764h-5.5l-6.333 9.764V16.81h-4.945v20.305h4.945V26.795z" fill="#012169"/><path fill-rule="evenodd" clip-rule="evenodd" d="M117.112 16.365c-6.611 0-10.778 4.66-10.833 10.597.055 5.936 4.222 10.596 10.833 10.596s10.778-4.66 10.834-10.596c-.056-5.937-4.223-10.597-10.834-10.597zm0 17.143c-3.166 0-5.611-2.497-5.611-6.546 0-4.05 2.445-6.547 5.611-6.547 3.167 0 5.611 2.497 5.611 6.547s-2.444 6.546-5.611 6.546z" fill="#012169"/><path d="M148.334 16.809l-.888 3.883h-7.778v4.55h6.444v3.883h-6.444v7.99h-4.945V16.808h13.611z" fill="#012169"/><path fill-rule="evenodd" clip-rule="evenodd" d="M165.223 32.898l-1.389 4.216h-5.055l7.611-20.305h5l7.667 20.305h-5.111l-1.389-4.216h-7.334zm6.056-3.717l-2.389-7.49-2.5 7.49h4.889z" fill="#012169"/><path d="M197.334 27.794l5.278-10.985h5.778l.056 20.305h-4.612V23.522l-6.555 13.592-6.556-13.592v13.592h-4.444V16.81h5.778l5.277 10.985zm34.667-10.985l-.889 3.883h-8.166v4.217h7.055v3.772h-7.055v4.55h8.944v3.883h-13.889V16.81h14z" fill="#012169"/><path fill-rule="evenodd" clip-rule="evenodd" d="M251.057 28.515l5.055 8.6h-5.389l-4.444-7.934h-1.333v7.989h-4.834V16.864h7.834c5 0 7.222 2.441 7.222 6.103 0 2.83-1.334 4.771-4.111 5.548zm-.945-5.326c0-1.72-1.055-2.608-3.111-2.608h-2.111v5.216h2.111c2.056 0 3.111-.888 3.111-2.608z" fill="#012169"/><path d="M292.723 31.716l.056-.039h-.056v.04zm0 0v4.455c-1.777.943-3.722 1.331-6 1.331-6.833 0-10.944-4.604-11-10.596.056-5.936 4.278-10.596 11-10.596 2.167 0 4.111.388 5.778 1.331v4.605c-1.833-1.332-3.5-1.775-5.167-1.775-3.666 0-6.277 2.607-6.277 6.49 0 3.884 2.666 6.492 6.444 6.492 1.705 0 3.356-.436 5.222-1.737z" fill="#012169"/><path fill-rule="evenodd" clip-rule="evenodd" d="M304.723 32.898l-1.389 4.216h-5.055l7.611-20.305h5l7.667 20.305h-5.111l-1.389-4.216h-7.334zm6.056-3.717l-2.389-7.49-2.5 7.49h4.889z" fill="#012169"/><path d="M268.446 37.114h-4.945v-20.25h4.945v20.25z" fill="#012169"/></svg>