<svg width="175" height="41" fill="none" xmlns="http://www.w3.org/2000/svg"><path d="M66.437 13.923a.736.736 0 0 1-.982-.19 5.72 5.72 0 0 0-4.852-2.438c-3.704 0-5.982 2.93-5.982 7.112 0 4.184 2.315 7.168 6.02 7.168a5.668 5.668 0 0 0 4.87-2.559.74.74 0 0 1 .977-.217l1.754 1.018a.746.746 0 0 1 .232 1.078 9.152 9.152 0 0 1-7.87 4.068c-5.895 0-9.909-4.295-9.909-10.556 0-6.26 4.014-10.5 9.848-10.5a9.333 9.333 0 0 1 7.833 3.878.75.75 0 0 1-.203 1.079l-1.736 1.06zM79.4 27.853V27c-.926 1.194-2.222 1.934-4.301 1.934-3.074 0-5.209-1.68-5.209-4.628 0-3.67 3.274-4.298 5.297-4.58 2.162-.316 4.014-.464 4.014-1.88 0-1.254-1.454-1.591-2.68-1.591a9.09 9.09 0 0 0-4.038 1.022.736.736 0 0 1-1.014-.319l-.648-1.314a.74.74 0 0 1 .306-.981 12.074 12.074 0 0 1 5.676-1.435c3.528 0 6.019 1.449 6.019 4.952v9.671a.74.74 0 0 1-.741.74h-1.945a.742.742 0 0 1-.736-.74zm-.199-6.688c-.685.514-1.94.685-3.278.926-1.338.24-2.444.597-2.444 2.05 0 1.337.967 1.962 2.36 1.962 1.737 0 3.362-.967 3.362-3.216v-1.722zm6.82 3.596a.74.74 0 0 1 1.028-.097 6.868 6.868 0 0 0 4.3 1.388c1.598 0 2.778-.514 2.778-1.763 0-1.139-1.083-1.388-3.703-1.823-2.778-.463-5.44-1.389-5.44-4.554 0-3.3 2.847-4.692 6.093-4.692a9.11 9.11 0 0 1 5.643 1.85.736.736 0 0 1 .102 1.07l-.926 1.087a.745.745 0 0 1-1.018.116 6.526 6.526 0 0 0-3.903-1.268c-1.39 0-2.56.398-2.56 1.476 0 1.199 1.68 1.426 3.36 1.708 3.584.63 5.862 1.652 5.862 4.627 0 3.133-2.505 5.067-6.482 5.067a9.328 9.328 0 0 1-6.019-1.966.744.744 0 0 1-.097-1.06l.982-1.166zm13.787 3.091V9.018a.741.741 0 0 1 .741-.74h2.134a.74.74 0 0 1 .741.74v6.428a5.539 5.539 0 0 1 4.584-2.217c3.162 0 5.009 2.25 5.009 5.46v9.163a.74.74 0 0 1-.741.74h-2.134a.742.742 0 0 1-.741-.74v-8.33c0-1.596-.509-3.044-2.56-3.044-1.935 0-3.417 1.365-3.417 3.641v7.733a.74.74 0 0 1-.741.74h-2.134a.742.742 0 0 1-.74-.74zm36.696.236l-1.546-4.53h-7.76l-1.537 4.53a.739.739 0 0 1-.704.505h-2.5a.74.74 0 0 1-.694-1l6.991-18.834a.741.741 0 0 1 .694-.463h3.44a.742.742 0 0 1 .695.463l6.968 18.839a.743.743 0 0 1-.353.91.74.74 0 0 1-.342.085h-2.648a.74.74 0 0 1-.704-.505zm-5.38-16.51l-2.986 8.824h5.861l-2.875-8.825zm14.779 2.734v1.166a5.425 5.425 0 0 1 4.63-2.249c4.102 0 6.75 3.387 6.75 7.825 0 4.438-2.648 7.867-6.75 7.867a5.431 5.431 0 0 1-4.63-2.277v6.16a.74.74 0 0 1-.741.74h-2.134a.74.74 0 0 1-.741-.74v-18.51a.74.74 0 0 1 .741-.74h2.115a.742.742 0 0 1 .76.758zm3.87 11.462c2.505 0 3.732-2.133 3.732-4.72 0-2.586-1.227-4.669-3.732-4.669s-3.87 2.078-3.87 4.67c0 2.59 1.338 4.72 3.87 4.72zm13.353-11.462v1.166a5.438 5.438 0 0 1 4.629-2.249c4.098 0 6.746 3.387 6.746 7.825 0 4.438-2.648 7.867-6.746 7.867a5.442 5.442 0 0 1-4.629-2.277v6.16a.74.74 0 0 1-.741.74h-2.13a.742.742 0 0 1-.741-.74v-18.51a.747.747 0 0 1 .216-.525.739.739 0 0 1 .525-.216h2.13a.734.734 0 0 1 .741.759zm3.875 11.462c2.504 0 3.704-2.133 3.704-4.72 0-2.586-1.223-4.669-3.704-4.669-2.482 0-3.875 2.078-3.875 4.67 0 2.59 1.342 4.72 3.875 4.72z" fill="#fff"/><path fill-rule="evenodd" clip-rule="evenodd" d="M34.76 1.185C32.58.5 30.595.5 26.558.5H14.445c-4.014 0-6.023 0-8.167.666a8.492 8.492 0 0 0-5.093 5.09C.5 8.423.5 10.427.5 14.439v12.106c0 4.035 0 6.02.667 8.18a8.487 8.487 0 0 0 5.092 5.091c2.167.685 4.172.685 8.186.685h12.13c4.019 0 6.024 0 8.186-.685a8.492 8.492 0 0 0 5.092-5.09c.686-2.166.686-4.17.686-8.181V14.456c0-4.016 0-6.02-.686-8.18a8.487 8.487 0 0 0-5.092-5.091zM26.89 15.58a8.336 8.336 0 0 0-5.37-1.971c-1.621 0-3.242.537-3.242 2.027 0 1.358 1.443 1.89 3.22 2.544l.526.195c3.514 1.185 6.408 2.638 6.408 6.08 0 3.74-2.903 6.294-7.653 6.585l-.431 2.004a.81.81 0 0 1-.796.639h-2.987a.824.824 0 0 1-.787-.99l.463-2.115a10.98 10.98 0 0 1-4.792-2.624.8.8 0 0 1 0-1.152l1.658-1.62a.806.806 0 0 1 1.13 0 7.993 7.993 0 0 0 5.643 2.207c2.162 0 3.63-.916 3.63-2.369 0-1.314-1.203-1.754-3.487-2.588l-.763-.281c-2.935-1.046-5.713-2.54-5.713-6.016 0-4.021 3.361-5.983 7.324-6.177l.417-2.041a.81.81 0 0 1 .791-.634h2.977a.806.806 0 0 1 .792.967l-.463 2.281a12.263 12.263 0 0 1 4.135 2.314.791.791 0 0 1 .041 1.162l-1.546 1.55a.82.82 0 0 1-1.125.023z" fill="#fff"/></svg>