<svg width="175" height="41" viewBox="0 0 175 41" fill="none" xmlns="http://www.w3.org/2000/svg">
<path d="M66.4367 13.4247C66.2792 13.5223 66.0907 13.557 65.9087 13.5219C65.7268 13.4867 65.5648 13.3842 65.4551 13.2349C64.9118 12.4586 64.1839 11.8293 63.337 11.4036C62.4901 10.978 61.5507 10.7693 60.6031 10.7962C56.8993 10.7962 54.6214 13.7254 54.6214 17.9087C54.6214 22.0919 56.9363 25.0767 60.6401 25.0767C61.6026 25.0988 62.5549 24.8754 63.407 24.4277C64.2592 23.98 64.9832 23.3226 65.5107 22.5177C65.6168 22.3659 65.776 22.2594 65.9568 22.2191C66.1377 22.1788 66.327 22.2078 66.4876 22.3002L68.2423 23.3182C68.3321 23.3704 68.41 23.4407 68.4711 23.5247C68.5321 23.6088 68.5749 23.7046 68.5967 23.8061C68.6185 23.9077 68.6188 24.0126 68.5977 24.1143C68.5765 24.2159 68.5343 24.312 68.4738 24.3964C67.6137 25.685 66.4403 26.7341 65.0637 27.4456C63.6871 28.157 62.1523 28.5074 60.6031 28.464C54.7094 28.464 50.6953 24.1697 50.6953 17.9087C50.6953 11.6477 54.7094 7.40893 60.5429 7.40893C62.0662 7.36665 63.5767 7.698 64.9423 8.37399C66.3079 9.04999 67.487 10.0501 68.3766 11.2868C68.4376 11.3697 68.4809 11.4643 68.5038 11.5646C68.5266 11.665 68.5286 11.769 68.5095 11.8702C68.4903 11.9713 68.4506 12.0675 68.3927 12.1526C68.3348 12.2377 68.2599 12.31 68.1728 12.365L66.4367 13.4247Z" fill="#1C1D1F"/>
<path d="M79.4001 27.3534V26.5019C78.4742 27.6958 77.1778 28.4362 75.099 28.4362C72.0248 28.4362 69.8905 26.7565 69.8905 23.8087C69.8905 20.1391 73.1638 19.5098 75.187 19.2275C77.3491 18.9129 79.201 18.7648 79.201 17.3488C79.201 16.0947 77.7473 15.7569 76.5204 15.7569C75.1136 15.7809 73.7316 16.1309 72.4832 16.7796C72.3961 16.8273 72.3003 16.8569 72.2014 16.8667C72.1026 16.8764 72.0028 16.866 71.9081 16.8362C71.8133 16.8064 71.7256 16.7577 71.6502 16.6931C71.5748 16.6285 71.5132 16.5493 71.4693 16.4603L70.8211 15.1461C70.7351 14.9748 70.7189 14.7769 70.7759 14.594C70.8329 14.411 70.9586 14.2573 71.1267 14.1651C72.8722 13.2285 74.8216 12.7359 76.8028 12.7305C80.3307 12.7305 82.8216 14.1789 82.8216 17.6819V27.3534C82.8216 27.5498 82.7435 27.7381 82.6046 27.8769C82.4657 28.0158 82.2772 28.0938 82.0808 28.0938H80.1363C79.9406 28.0926 79.7534 28.014 79.6155 27.8753C79.4775 27.7366 79.4001 27.549 79.4001 27.3534ZM79.201 20.6667C78.5158 21.1803 77.2612 21.3515 75.9231 21.5922C74.5851 21.8328 73.4786 22.1891 73.4786 23.6422C73.4786 24.9795 74.4462 25.6042 75.8398 25.6042C77.576 25.6042 79.201 24.6371 79.201 22.3881V20.6667Z" fill="#1C1D1F"/>
<path d="M86.0208 24.2622C86.1457 24.1156 86.323 24.0234 86.5149 24.0052C86.7068 23.9871 86.8983 24.0444 87.0486 24.1651C88.2844 25.0997 89.8003 25.589 91.3497 25.5533C92.9469 25.5533 94.1275 25.0397 94.1275 23.7902C94.1275 22.6519 93.0442 22.402 90.4237 21.967C87.6458 21.5043 84.9837 20.5788 84.9837 17.4136C84.9837 14.1142 87.831 12.7213 91.0765 12.7213C93.1119 12.6905 95.0988 13.3422 96.7202 14.5723C96.7999 14.6338 96.8661 14.7111 96.9147 14.7992C96.9633 14.8873 96.9934 14.9845 97.0029 15.0847C97.0125 15.1849 97.0013 15.286 96.9702 15.3817C96.9391 15.4774 96.8887 15.5658 96.8221 15.6412L95.8961 16.7287C95.7734 16.8745 95.5994 16.9678 95.4099 16.9893C95.2204 17.0108 95.0299 16.959 94.8776 16.8444C93.747 16.0131 92.3782 15.5684 90.9746 15.5764C89.5857 15.5764 88.4144 15.9744 88.4144 17.0526C88.4144 18.2511 90.095 18.4779 91.7756 18.7602C95.3591 19.3895 97.6369 20.4122 97.6369 23.3876C97.6369 26.5204 95.1322 28.4547 91.1552 28.4547C88.9809 28.521 86.8518 27.8253 85.1365 26.4881C85.0596 26.4254 84.996 26.3481 84.9494 26.2607C84.9029 26.1732 84.8742 26.0773 84.8651 25.9786C84.8561 25.8799 84.8668 25.7804 84.8967 25.686C84.9266 25.5915 84.9751 25.5039 85.0392 25.4284L86.0208 24.2622Z" fill="#1C1D1F"/>
<path d="M99.8083 27.3534V8.51952C99.8083 8.32316 99.8864 8.13484 100.025 7.99598C100.164 7.85713 100.353 7.77913 100.549 7.77913H102.683C102.88 7.77913 103.068 7.85713 103.207 7.99598C103.346 8.13484 103.424 8.32316 103.424 8.51952V14.9471C103.955 14.2375 104.648 13.6657 105.445 13.28C106.243 12.8942 107.122 12.7058 108.008 12.7305C111.17 12.7305 113.017 14.9795 113.017 18.191V27.3534C113.017 27.5498 112.939 27.7381 112.8 27.8769C112.661 28.0158 112.473 28.0938 112.276 28.0938H110.142C109.946 28.0938 109.757 28.0158 109.618 27.8769C109.479 27.7381 109.401 27.5498 109.401 27.3534V19.0239C109.401 17.4274 108.892 15.979 106.841 15.979C104.906 15.979 103.424 17.3441 103.424 19.6209V27.3534C103.424 27.5498 103.346 27.7381 103.207 27.8769C103.068 28.0158 102.88 28.0938 102.683 28.0938H100.549C100.353 28.0938 100.164 28.0158 100.025 27.8769C99.8864 27.7381 99.8083 27.5498 99.8083 27.3534Z" fill="#1C1D1F"/>
<path d="M136.504 27.5894L134.958 23.0591H127.198L125.661 27.5894C125.612 27.7366 125.517 27.8646 125.391 27.9551C125.264 28.0456 125.113 28.0941 124.957 28.0938H122.457C122.338 28.0939 122.22 28.065 122.114 28.0096C122.008 27.9542 121.917 27.874 121.848 27.7757C121.78 27.6775 121.737 27.5642 121.722 27.4455C121.707 27.3268 121.721 27.2063 121.763 27.0943L128.754 8.26039C128.81 8.12243 128.906 8.00449 129.03 7.92195C129.154 7.8394 129.299 7.79608 129.448 7.79764H132.888C133.037 7.79608 133.183 7.8394 133.307 7.92195C133.431 8.00449 133.527 8.12243 133.583 8.26039L140.551 27.0989C140.592 27.2107 140.605 27.3307 140.59 27.4487C140.574 27.5668 140.531 27.6794 140.463 27.777C140.394 27.8747 140.304 27.9544 140.198 28.0096C140.093 28.0647 139.975 28.0936 139.856 28.0938H137.208C137.052 28.0941 136.901 28.0456 136.775 27.9551C136.648 27.8646 136.554 27.7366 136.504 27.5894ZM131.124 11.0785L128.138 19.9031H133.999L131.124 11.0785Z" fill="#1C1D1F"/>
<path d="M145.903 13.8134V14.9795C146.428 14.2508 147.126 13.6639 147.934 13.2714C148.742 12.8788 149.635 12.693 150.533 12.7305C154.635 12.7305 157.283 16.1179 157.283 20.5556C157.283 24.9934 154.635 28.4223 150.533 28.4223C149.632 28.4564 148.738 28.2661 147.93 27.8687C147.122 27.4712 146.425 26.8791 145.903 26.1456V32.3048C145.903 32.5012 145.825 32.6895 145.686 32.8283C145.547 32.9672 145.358 33.0452 145.162 33.0452H143.028C142.831 33.0452 142.643 32.9672 142.504 32.8283C142.365 32.6895 142.287 32.5012 142.287 32.3048V13.7949C142.287 13.5985 142.365 13.4102 142.504 13.2713C142.643 13.1325 142.831 13.0545 143.028 13.0545H145.143C145.244 13.0519 145.344 13.0698 145.437 13.1071C145.53 13.1443 145.615 13.2001 145.686 13.2711C145.757 13.3421 145.813 13.4267 145.85 13.52C145.887 13.6132 145.905 13.713 145.903 13.8134ZM149.773 25.2757C152.278 25.2757 153.505 23.1424 153.505 20.5556C153.505 17.9689 152.278 15.8865 149.773 15.8865C147.268 15.8865 145.903 17.9642 145.903 20.5556C145.903 23.147 147.241 25.2757 149.773 25.2757Z" fill="#1C1D1F"/>
<path d="M163.126 13.8134V14.9795C163.652 14.2517 164.35 13.6655 165.158 13.273C165.965 12.8806 166.858 12.6942 167.755 12.7305C171.853 12.7305 174.501 16.1179 174.501 20.5556C174.501 24.9934 171.853 28.4223 167.755 28.4223C166.855 28.4551 165.962 28.2643 165.154 27.867C164.346 27.4696 163.649 26.8782 163.126 26.1456V32.3048C163.126 32.5012 163.048 32.6895 162.909 32.8283C162.77 32.9672 162.581 33.0452 162.385 33.0452H160.255C160.059 33.0452 159.87 32.9672 159.731 32.8283C159.592 32.6895 159.514 32.5012 159.514 32.3048V13.7949C159.514 13.6975 159.532 13.6009 159.569 13.5108C159.606 13.4207 159.661 13.3388 159.73 13.2699C159.799 13.2011 159.881 13.1466 159.971 13.1096C160.061 13.0726 160.158 13.0538 160.255 13.0545H162.385C162.484 13.0538 162.582 13.0731 162.673 13.1112C162.765 13.1494 162.848 13.2056 162.917 13.2764C162.986 13.3473 163.04 13.4313 163.076 13.5236C163.112 13.6159 163.129 13.7144 163.126 13.8134ZM167.001 25.2757C169.505 25.2757 170.705 23.1424 170.705 20.5556C170.705 17.9689 169.482 15.8865 167.001 15.8865C164.519 15.8865 163.126 17.9642 163.126 20.5556C163.126 23.147 164.468 25.2757 167.001 25.2757Z" fill="#1C1D1F"/>
<path fill-rule="evenodd" clip-rule="evenodd" d="M34.7606 0.686211C32.5799 0.00134277 30.5938 0.00134277 26.5566 0.00134277H14.445C10.4309 0.00134277 8.4216 0.00134277 6.278 0.667701C5.10775 1.09125 4.04496 1.76675 3.16488 2.64638C2.28481 3.52601 1.60897 4.58827 1.18521 5.75794C0.5 7.9236 0.5 9.9273 0.5 13.9393V26.0448C0.5 30.08 0.5 32.0652 1.16669 34.2262C1.59045 35.3959 2.26629 36.4582 3.14637 37.3378C4.02644 38.2174 5.08923 38.8929 6.25948 39.3165C8.42623 40.0013 10.4309 40.0013 14.445 40.0013H26.5751C30.5938 40.0013 32.5985 40.0013 34.7606 39.3165C35.9308 38.8929 36.9936 38.2174 37.8737 37.3378C38.7538 36.4582 39.4296 35.3959 39.8534 34.2262C40.5386 32.0606 40.5386 30.0569 40.5386 26.0448V13.9578C40.5386 9.94118 40.5386 7.93748 39.8534 5.77645C39.4296 4.60678 38.7538 3.54452 37.8737 2.66489C36.9936 1.78526 35.9308 1.10976 34.7606 0.686211ZM26.8899 15.0823C25.3885 13.8124 23.4861 13.1141 21.5193 13.111C19.8988 13.111 18.2784 13.6478 18.2784 15.1378C18.2784 16.4962 19.7212 17.0277 21.4985 17.6825C21.6708 17.746 21.8463 17.8106 22.0239 17.8773C25.538 19.062 28.4316 20.515 28.4316 23.9578C28.4316 27.6968 25.5287 30.2512 20.7785 30.5427L20.3479 32.5465C20.3086 32.728 20.2081 32.8906 20.0631 33.0069C19.9181 33.1232 19.7375 33.1861 19.5516 33.185H16.5654C16.4447 33.1821 16.3262 33.1527 16.2181 33.099C16.1101 33.0452 16.0151 32.9684 15.9401 32.8739C15.865 32.7795 15.8116 32.6697 15.7836 32.5523C15.7557 32.435 15.7539 32.3129 15.7783 32.1948L16.2413 30.08C14.4483 29.623 12.8 28.7205 11.4494 27.4562C11.372 27.3815 11.3104 27.292 11.2684 27.1931C11.2263 27.0941 11.2046 26.9876 11.2046 26.8801C11.2046 26.7726 11.2263 26.6661 11.2684 26.5671C11.3104 26.4681 11.372 26.3786 11.4494 26.304L13.1069 24.6844C13.2576 24.5363 13.4604 24.4533 13.6718 24.4533C13.8831 24.4533 14.0859 24.5363 14.2366 24.6844C15.7549 26.1323 17.7821 26.9251 19.8803 26.8917C22.0424 26.8917 23.5101 25.9754 23.5101 24.5224C23.5101 23.2087 22.3067 22.7688 20.0232 21.9339C19.7809 21.8454 19.5264 21.7523 19.2599 21.6533C16.3246 20.6075 13.5468 19.1129 13.5468 15.6376C13.5468 11.6163 16.908 9.65427 20.8711 9.45992L21.2878 7.4192C21.3278 7.23923 21.4281 7.07832 21.5721 6.96305C21.716 6.84777 21.895 6.78505 22.0795 6.78523H25.0565C25.1762 6.78485 25.2945 6.81116 25.4028 6.86224C25.5111 6.91332 25.6067 6.9879 25.6825 7.08054C25.7584 7.17318 25.8126 7.28155 25.8412 7.39777C25.8699 7.51399 25.8722 7.63513 25.8482 7.75238L25.3852 10.0337C26.9007 10.5289 28.3051 11.3148 29.5196 12.3475C29.6024 12.4186 29.6696 12.5062 29.7169 12.6045C29.7642 12.7029 29.7907 12.81 29.7946 12.9191C29.7985 13.0282 29.7798 13.1369 29.7397 13.2384C29.6995 13.3399 29.6388 13.4321 29.5613 13.509L28.0149 15.0592C27.8658 15.2059 27.6662 15.29 27.457 15.2943C27.2478 15.2986 27.0449 15.2227 26.8899 15.0823Z" fill="url(#paint0_linear)"/>
<defs>
<linearGradient id="paint0_linear" x1="20.5193" y1="0.00134277" x2="20.5193" y2="40.0013" gradientUnits="userSpaceOnUse">
<stop stop-color="#00D64B"/>
<stop offset="1" stop-color="#00C244"/>
</linearGradient>
</defs>
</svg>
