<svg width="213" height="41" viewBox="0 0 213 41" fill="none" xmlns="http://www.w3.org/2000/svg">
<path d="M27.8455 17.5126C32.9811 13.3173 43.4694 -1.80026 27.0499 0.876053C19.8889 1.96104 9.40067 8.90499 7.30302 16.9339C6.21803 14.7639 4.98838 12.7386 3.68639 10.7133C1.66107 7.96466 -0.581244 10.1346 1.58874 12.8833C8.02131 20.6714 11.7301 30.3497 12.1493 40.4421C12.6556 35.5958 11.86 29.6645 9.907 23.8779C10.8473 24.1672 11.9323 24.3119 12.8726 24.3119C16.2 29.8091 21.3356 34.5108 27.0499 36.6808C32.3301 38.7784 39.3464 37.5487 36.4531 29.0858C34.9341 24.4565 31.3898 20.4059 27.8455 17.5126ZM28.5688 2.82904C37.6828 1.81638 27.9179 13.1726 24.7352 15.2703C21.7696 13.3173 18.0083 11.5813 14.3916 12.0876C16.9956 8.68799 23.3609 3.48003 28.5688 2.82904ZM14.3193 14.5469C16.7786 14.3299 19.4549 15.7043 21.5526 17.1509C19.5273 18.1636 17.3573 18.7422 15.115 18.9592C11.7877 18.9592 11.0643 14.8363 14.3193 14.5469ZM26.9052 32.1961C22.6376 30.9665 18.5869 27.4945 15.6936 24.0225C18.0806 23.5162 20.4676 22.5759 22.6376 21.2739C23.4332 20.9122 24.2289 20.3336 24.9522 19.8272C27.4839 22.1419 30.1602 25.2522 31.1728 28.7965C32.1855 32.6301 29.4368 32.9194 26.9052 32.1961Z" fill="white"/>
<path d="M62.7814 7.96467H50.3402C49.9062 7.96467 49.5445 8.32633 49.5445 8.76033H49.4722V28.2902C49.4722 28.7242 49.8338 29.0858 50.2678 29.0858C50.6295 29.0858 50.9912 28.7242 51.0635 28.2902V19.4656H61.6241C62.0581 19.4656 62.2751 19.1039 62.2751 18.7422C62.2751 18.3083 61.9858 18.0913 61.6241 18.0913H50.9912V9.48366H62.7814C63.2154 9.48366 63.4324 9.12199 63.4324 8.76033C63.4324 8.54333 63.2154 8.254 62.7814 7.96467ZM68.4957 6.95201H68.4234C68.0617 6.95201 67.8447 7.24134 67.8447 7.60301V28.2178C67.8447 28.6518 68.1341 28.9412 68.4957 28.9412C68.9297 28.9412 69.1467 28.5795 69.1467 28.2178V7.74767C69.1467 7.24134 68.9297 6.95201 68.4957 6.95201ZM86.5066 14.3299C86.5066 13.896 86.2173 13.6066 85.8556 13.6066C85.4216 13.6066 85.2046 13.9683 85.2046 14.3299V22.9375C85.2046 25.8309 82.9623 28.1455 80.2136 28.0732C77.3203 28.0732 75.6567 26.0479 75.6567 22.8652V14.3299C75.6567 13.896 75.3673 13.6066 75.0057 13.6066C74.7163 13.6066 74.3547 13.9683 74.3547 14.3299V23.0822C74.3547 26.6988 76.5247 29.3752 80.069 29.3752C82.239 29.4475 84.2643 28.2178 85.2769 26.1925V28.4348C85.2769 28.8688 85.6386 29.0858 85.9279 29.0858C86.3619 29.0858 86.5789 28.7242 86.5789 28.4348H86.5066V14.3299ZM98.4415 15.0533C98.7308 15.0533 99.0925 14.7639 99.0925 14.4023C99.0925 14.113 98.7308 13.7513 98.4415 13.7513H93.8845V9.48366C93.8845 9.12199 93.5229 8.76033 93.2335 8.76033H93.1612C92.7995 8.76033 92.5826 9.12199 92.5826 9.48366V13.7513H90.9912C90.6296 13.7513 90.3402 13.9683 90.3402 14.3299C90.3402 14.6916 90.6296 15.0533 90.9912 15.0533H92.5826V25.0352C92.5826 27.8562 94.3909 29.2305 96.4885 29.2305C97.2118 29.2305 97.9352 29.0858 98.5862 28.8688C98.8032 28.7242 99.0202 28.5072 99.0202 28.2178C99.0202 27.8562 98.7308 27.6392 98.4415 27.6392C97.9352 27.7838 97.3565 27.8562 96.7779 27.8562C95.0419 27.8562 93.8845 27.0605 93.8845 24.8905V15.0533H98.4415ZM109.653 15.0533C110.015 15.0533 110.304 14.7639 110.304 14.4023C110.304 14.113 110.015 13.7513 109.653 13.7513H105.096V9.48366C105.096 9.12199 104.807 8.76033 104.445 8.76033H104.373C104.011 8.76033 103.794 9.12199 103.794 9.48366V13.7513H102.203C101.913 13.7513 101.552 13.9683 101.552 14.3299C101.552 14.6916 101.913 15.0533 102.203 15.0533H103.794V25.0352C103.794 27.8562 105.602 29.2305 107.772 29.2305C108.423 29.2305 109.147 29.0858 109.798 28.8688C110.087 28.7242 110.232 28.5072 110.232 28.2178C110.232 27.8562 110.015 27.6392 109.653 27.6392C109.147 27.7838 108.568 27.8562 107.989 27.8562C106.253 27.8562 105.096 27.0605 105.096 24.8905V15.0533H109.653ZM119.563 13.3173C115.729 13.3173 112.836 16.7893 112.836 21.3462V21.4186C112.836 26.2649 116.018 29.4475 119.852 29.4475C121.877 29.5198 123.975 28.6518 125.349 26.9882C125.566 26.8435 125.639 26.6265 125.639 26.4818C125.639 26.1202 125.277 25.7585 124.988 25.7585L124.554 25.9032C123.98 26.5722 123.27 27.1116 122.472 27.4858C121.674 27.8599 120.806 28.0601 119.924 28.0732C117.103 28.0732 114.572 25.8309 114.282 22.0696H125.566C125.856 22.0696 126.217 21.7079 126.217 21.3462C126.217 16.7893 123.613 13.3173 119.563 13.3173ZM114.21 20.6229C114.427 17.2956 116.669 14.6916 119.49 14.6916C122.745 14.6916 124.481 17.5126 124.626 20.6229H114.21ZM137.284 13.5343C134.68 13.7513 132.51 15.5596 131.57 18.1636V14.4023C131.57 14.113 131.208 13.7513 130.919 13.7513C130.485 13.7513 130.268 13.9683 130.196 14.4023V28.5795C130.196 28.9412 130.485 29.3028 130.847 29.3028C131.208 29.3028 131.498 29.0135 131.57 28.5795V22.9375C131.57 17.9466 134.246 15.5596 137.284 15.1979H137.357C137.791 15.1979 138.008 14.7639 138.008 14.4023C138.008 13.896 137.718 13.5343 137.284 13.5343Z" fill="white"/>
<path d="M161.66 12.7386C160.72 12.7386 159.852 13.462 159.635 14.4746L157.176 22.7205L154.789 14.4746C154.572 13.462 153.631 12.6663 152.546 12.6663H152.329C151.244 12.6663 150.304 13.3173 150.087 14.4746L147.7 22.5759L145.385 14.4023C145.096 13.462 144.3 12.6663 143.288 12.6663H143.215C142.13 12.6663 141.335 13.6066 141.335 14.7639L141.479 15.8489L145.168 27.2052C145.458 28.3625 146.398 29.1582 147.555 29.2305H147.7C148.785 29.2305 149.653 28.4348 150.015 27.2775L152.402 19.1762L154.789 27.2775C155.078 28.4348 156.018 29.2305 157.103 29.2305H157.32C158.478 29.2305 159.418 28.4348 159.707 27.2052L163.396 15.7043L163.613 14.8363V14.7639C163.613 13.6066 162.745 12.7386 161.66 12.7386ZM172.293 12.7386C170.63 12.6663 169.038 13.028 167.447 13.5343C166.796 13.8236 166.434 14.4746 166.434 15.2703C166.434 16.3553 167.23 17.1509 168.243 17.0786C168.387 17.0786 168.604 17.0786 168.821 16.9339C169.762 16.6446 170.774 16.4999 171.787 16.4999C173.957 16.4999 175.042 17.5126 175.042 19.4656V19.6826C173.885 19.2486 172.583 19.1039 171.353 19.1039C167.809 19.1039 165.349 20.7676 165.349 24.3119C165.349 27.4222 167.736 29.2305 170.485 29.2305C172.221 29.3028 173.885 28.5072 175.042 27.2052C175.114 28.3625 175.982 29.1582 177.067 29.1582C178.225 29.1582 179.165 28.1455 179.165 26.9158V19.6826C179.237 17.8743 178.659 15.9936 177.501 14.6193C176.272 13.462 174.608 12.7386 172.293 12.7386ZM175.114 23.2269C175.114 24.9629 173.668 26.0479 171.715 25.9755C170.34 25.9755 169.4 25.2522 169.4 24.0225V23.9502C169.4 22.5759 170.557 21.7079 172.366 21.7079C173.234 21.7079 174.246 21.9972 175.114 22.3589V23.2269ZM193.848 12.6663C192.98 12.6663 192.112 13.245 191.895 14.2576L188.568 23.5885L185.385 14.3299C185.096 13.3173 184.301 12.6663 183.288 12.6663C182.203 12.6663 181.335 13.5343 181.19 14.7639C181.19 15.1256 181.335 15.4873 181.48 15.8489L186.109 27.2052C186.398 28.3625 187.338 29.1582 188.496 29.2305H188.785C189.798 29.1582 190.81 28.4348 191.244 27.2775L195.729 15.9213L195.946 14.8363V14.7639C195.946 13.6066 195.078 12.6663 193.848 12.6663ZM205.06 12.594C200.648 12.594 197.61 16.3553 197.61 20.9122V21.6356C197.754 26.0479 201.371 29.4475 205.494 29.2305C207.375 29.2305 209.183 28.5795 210.702 27.2775C211.136 26.9158 211.281 26.4818 211.281 25.9755V25.9032C211.281 24.8905 210.557 24.0949 209.617 24.0949C209.255 24.0949 208.894 24.1672 208.604 24.4565C207.761 25.1825 206.679 25.5692 205.566 25.5415C203.758 25.6139 202.167 24.3119 201.95 22.3589H210.413C211.498 22.2865 212.366 21.2739 212.293 20.1166V19.7549C212.293 15.8489 209.038 12.4493 205.06 12.594ZM201.805 19.6826C202.167 17.5849 203.324 16.2829 205.06 16.2829C206.796 16.2829 207.953 17.6573 208.17 19.6826H201.805Z" fill="white"/>
<path d="M27.8455 17.5126C32.9811 13.3173 43.4694 -1.80026 27.0499 0.876053C19.8889 1.96104 9.40067 8.90499 7.30302 16.9339C6.21803 14.7639 4.98838 12.7386 3.68639 10.7133C1.66107 7.96466 -0.581244 10.1346 1.58874 12.8833C8.02131 20.6714 11.7301 30.3497 12.1493 40.4421C12.6556 35.5958 11.86 29.6645 9.907 23.8779C10.8473 24.1672 11.9323 24.3119 12.8726 24.3119C16.2 29.8091 21.3356 34.5108 27.0499 36.6808C32.3301 38.7784 39.3464 37.5487 36.4531 29.0858C34.9341 24.4565 31.3898 20.4059 27.8455 17.5126ZM28.5688 2.82904C37.6828 1.81638 27.9179 13.1726 24.7352 15.2703C21.7696 13.3173 18.0083 11.5813 14.3916 12.0876C16.9956 8.68799 23.3609 3.48003 28.5688 2.82904ZM14.3193 14.5469C16.7786 14.3299 19.4549 15.7043 21.5526 17.1509C19.5273 18.1636 17.3573 18.7422 15.115 18.9592C11.7877 18.9592 11.0643 14.8363 14.3193 14.5469ZM26.9052 32.1961C22.6376 30.9665 18.5869 27.4945 15.6936 24.0225C18.0806 23.5162 20.4676 22.5759 22.6376 21.2739C23.4332 20.9122 24.2289 20.3336 24.9522 19.8272C27.4839 22.1419 30.1602 25.2522 31.1728 28.7965C32.1855 32.6301 29.4368 32.9194 26.9052 32.1961Z" stroke="white"/>
<path d="M62.7814 7.96467H50.3402C49.9062 7.96467 49.5445 8.32633 49.5445 8.76033H49.4722V28.2902C49.4722 28.7242 49.8338 29.0858 50.2678 29.0858C50.6295 29.0858 50.9912 28.7242 51.0635 28.2902V19.4656H61.6241C62.0581 19.4656 62.2751 19.1039 62.2751 18.7422C62.2751 18.3083 61.9858 18.0913 61.6241 18.0913H50.9912V9.48366H62.7814C63.2154 9.48366 63.4324 9.12199 63.4324 8.76033C63.4324 8.54333 63.2154 8.254 62.7814 7.96467ZM68.4957 6.95201H68.4234C68.0617 6.95201 67.8447 7.24134 67.8447 7.60301V28.2178C67.8447 28.6518 68.1341 28.9412 68.4957 28.9412C68.9297 28.9412 69.1467 28.5795 69.1467 28.2178V7.74767C69.1467 7.24134 68.9297 6.95201 68.4957 6.95201ZM86.5066 14.3299C86.5066 13.896 86.2173 13.6066 85.8556 13.6066C85.4216 13.6066 85.2046 13.9683 85.2046 14.3299V22.9375C85.2046 25.8309 82.9623 28.1455 80.2136 28.0732C77.3203 28.0732 75.6567 26.0479 75.6567 22.8652V14.3299C75.6567 13.896 75.3673 13.6066 75.0057 13.6066C74.7163 13.6066 74.3547 13.9683 74.3547 14.3299V23.0822C74.3547 26.6988 76.5247 29.3752 80.069 29.3752C82.239 29.4475 84.2643 28.2178 85.2769 26.1925V28.4348C85.2769 28.8688 85.6386 29.0858 85.9279 29.0858C86.3619 29.0858 86.5789 28.7242 86.5789 28.4348H86.5066V14.3299ZM98.4415 15.0533C98.7308 15.0533 99.0925 14.7639 99.0925 14.4023C99.0925 14.113 98.7308 13.7513 98.4415 13.7513H93.8845V9.48366C93.8845 9.12199 93.5229 8.76033 93.2335 8.76033H93.1612C92.7995 8.76033 92.5826 9.12199 92.5826 9.48366V13.7513H90.9912C90.6296 13.7513 90.3402 13.9683 90.3402 14.3299C90.3402 14.6916 90.6296 15.0533 90.9912 15.0533H92.5826V25.0352C92.5826 27.8562 94.3909 29.2305 96.4885 29.2305C97.2118 29.2305 97.9352 29.0858 98.5862 28.8688C98.8032 28.7242 99.0202 28.5072 99.0202 28.2178C99.0202 27.8562 98.7308 27.6392 98.4415 27.6392C97.9352 27.7838 97.3565 27.8562 96.7779 27.8562C95.0419 27.8562 93.8845 27.0605 93.8845 24.8905V15.0533H98.4415ZM109.653 15.0533C110.015 15.0533 110.304 14.7639 110.304 14.4023C110.304 14.113 110.015 13.7513 109.653 13.7513H105.096V9.48366C105.096 9.12199 104.807 8.76033 104.445 8.76033H104.373C104.011 8.76033 103.794 9.12199 103.794 9.48366V13.7513H102.203C101.913 13.7513 101.552 13.9683 101.552 14.3299C101.552 14.6916 101.913 15.0533 102.203 15.0533H103.794V25.0352C103.794 27.8562 105.602 29.2305 107.772 29.2305C108.423 29.2305 109.147 29.0858 109.798 28.8688C110.087 28.7242 110.232 28.5072 110.232 28.2178C110.232 27.8562 110.015 27.6392 109.653 27.6392C109.147 27.7838 108.568 27.8562 107.989 27.8562C106.253 27.8562 105.096 27.0605 105.096 24.8905V15.0533H109.653ZM119.563 13.3173C115.729 13.3173 112.836 16.7893 112.836 21.3462V21.4186C112.836 26.2649 116.018 29.4475 119.852 29.4475C121.877 29.5198 123.975 28.6518 125.349 26.9882C125.566 26.8435 125.639 26.6265 125.639 26.4818C125.639 26.1202 125.277 25.7585 124.988 25.7585L124.554 25.9032C123.98 26.5722 123.27 27.1116 122.472 27.4858C121.674 27.8599 120.806 28.0601 119.924 28.0732C117.103 28.0732 114.572 25.8309 114.282 22.0696H125.566C125.856 22.0696 126.217 21.7079 126.217 21.3462C126.217 16.7893 123.613 13.3173 119.563 13.3173ZM114.21 20.6229C114.427 17.2956 116.669 14.6916 119.49 14.6916C122.745 14.6916 124.481 17.5126 124.626 20.6229H114.21ZM137.284 13.5343C134.68 13.7513 132.51 15.5596 131.57 18.1636V14.4023C131.57 14.113 131.208 13.7513 130.919 13.7513C130.485 13.7513 130.268 13.9683 130.196 14.4023V28.5795C130.196 28.9412 130.485 29.3028 130.847 29.3028C131.208 29.3028 131.498 29.0135 131.57 28.5795V22.9375C131.57 17.9466 134.246 15.5596 137.284 15.1979H137.357C137.791 15.1979 138.008 14.7639 138.008 14.4023C138.008 13.896 137.718 13.5343 137.284 13.5343Z" stroke="white"/>
<path d="M161.66 12.7386C160.72 12.7386 159.852 13.462 159.635 14.4746L157.176 22.7205L154.789 14.4746C154.572 13.462 153.631 12.6663 152.546 12.6663H152.329C151.244 12.6663 150.304 13.3173 150.087 14.4746L147.7 22.5759L145.385 14.4023C145.096 13.462 144.3 12.6663 143.288 12.6663H143.215C142.13 12.6663 141.335 13.6066 141.335 14.7639L141.479 15.8489L145.168 27.2052C145.458 28.3625 146.398 29.1582 147.555 29.2305H147.7C148.785 29.2305 149.653 28.4348 150.015 27.2775L152.402 19.1762L154.789 27.2775C155.078 28.4348 156.018 29.2305 157.103 29.2305H157.32C158.478 29.2305 159.418 28.4348 159.707 27.2052L163.396 15.7043L163.613 14.8363V14.7639C163.613 13.6066 162.745 12.7386 161.66 12.7386ZM172.293 12.7386C170.63 12.6663 169.038 13.028 167.447 13.5343C166.796 13.8236 166.434 14.4746 166.434 15.2703C166.434 16.3553 167.23 17.1509 168.243 17.0786C168.387 17.0786 168.604 17.0786 168.821 16.9339C169.762 16.6446 170.774 16.4999 171.787 16.4999C173.957 16.4999 175.042 17.5126 175.042 19.4656V19.6826C173.885 19.2486 172.583 19.1039 171.353 19.1039C167.809 19.1039 165.349 20.7676 165.349 24.3119C165.349 27.4222 167.736 29.2305 170.485 29.2305C172.221 29.3028 173.885 28.5072 175.042 27.2052C175.114 28.3625 175.982 29.1582 177.067 29.1582C178.225 29.1582 179.165 28.1455 179.165 26.9158V19.6826C179.237 17.8743 178.659 15.9936 177.501 14.6193C176.272 13.462 174.608 12.7386 172.293 12.7386ZM175.114 23.2269C175.114 24.9629 173.668 26.0479 171.715 25.9755C170.34 25.9755 169.4 25.2522 169.4 24.0225V23.9502C169.4 22.5759 170.557 21.7079 172.366 21.7079C173.234 21.7079 174.246 21.9972 175.114 22.3589V23.2269ZM193.848 12.6663C192.98 12.6663 192.112 13.245 191.895 14.2576L188.568 23.5885L185.385 14.3299C185.096 13.3173 184.301 12.6663 183.288 12.6663C182.203 12.6663 181.335 13.5343 181.19 14.7639C181.19 15.1256 181.335 15.4873 181.48 15.8489L186.109 27.2052C186.398 28.3625 187.338 29.1582 188.496 29.2305H188.785C189.798 29.1582 190.81 28.4348 191.244 27.2775L195.729 15.9213L195.946 14.8363V14.7639C195.946 13.6066 195.078 12.6663 193.848 12.6663ZM205.06 12.594C200.648 12.594 197.61 16.3553 197.61 20.9122V21.6356C197.754 26.0479 201.371 29.4475 205.494 29.2305C207.375 29.2305 209.183 28.5795 210.702 27.2775C211.136 26.9158 211.281 26.4818 211.281 25.9755V25.9032C211.281 24.8905 210.557 24.0949 209.617 24.0949C209.255 24.0949 208.894 24.1672 208.604 24.4565C207.761 25.1825 206.679 25.5692 205.566 25.5415C203.758 25.6139 202.167 24.3119 201.95 22.3589H210.413C211.498 22.2865 212.366 21.2739 212.293 20.1166V19.7549C212.293 15.8489 209.038 12.4493 205.06 12.594ZM201.805 19.6826C202.167 17.5849 203.324 16.2829 205.06 16.2829C206.796 16.2829 207.953 17.6573 208.17 19.6826H201.805Z" stroke="white"/>
</svg>
