<svg width="213" height="41" viewBox="0 0 213 41" fill="none" xmlns="http://www.w3.org/2000/svg">
<path d="M27.8026 17.0009C32.9382 12.8056 43.4264 -2.31198 27.0069 0.364334C19.846 1.44932 9.3577 8.39327 7.26006 16.4222C6.17506 14.2522 4.94541 12.2269 3.64342 10.2016C1.6181 7.45294 -0.624213 9.62292 1.54577 12.3716C7.97834 20.1596 11.6871 29.8379 12.1063 39.9303C12.6127 35.084 11.817 29.1528 9.86403 23.3661C10.8044 23.6555 11.8893 23.8001 12.8297 23.8001C16.157 29.2974 21.2926 33.9991 27.0069 36.169C32.2872 38.2667 39.3035 37.037 36.4101 28.5741C34.8912 23.9448 31.3469 19.8942 27.8026 17.0009ZM28.5259 2.31732C37.6398 1.30466 27.8749 12.6609 24.6922 14.7585C21.7266 12.8056 17.9653 11.0696 14.3487 11.5759C16.9526 8.17627 23.3179 2.96831 28.5259 2.31732ZM14.2763 14.0352C16.7356 13.8182 19.412 15.1925 21.5096 16.6392C19.4843 17.6519 17.3143 18.2305 15.072 18.4475C11.7447 18.4475 11.0214 14.3245 14.2763 14.0352ZM26.8622 31.6844C22.5946 30.4547 18.544 26.9828 15.6507 23.5108C18.0376 23.0045 20.4246 22.0641 22.5946 20.7622C23.3903 20.4005 24.1859 19.8218 24.9092 19.3155C27.4409 21.6302 30.1172 24.7405 31.1299 28.2848C32.1425 32.1184 29.3939 32.4077 26.8622 31.6844Z" fill="#F5A623"/>
<path d="M62.7389 7.45297H50.2977C49.8637 7.45297 49.502 7.81463 49.502 8.24863H49.4297V27.7785C49.4297 28.2125 49.7914 28.5741 50.2253 28.5741C50.587 28.5741 50.9487 28.2125 51.021 27.7785V18.9539H61.5816C62.0156 18.9539 62.2326 18.5922 62.2326 18.2305C62.2326 17.7965 61.9433 17.5795 61.5816 17.5795H50.9487V8.97195H62.7389C63.1729 8.97195 63.3899 8.61029 63.3899 8.24863C63.3899 8.03163 63.1729 7.7423 62.7389 7.45297ZM68.4532 6.44031H68.3809C68.0192 6.44031 67.8022 6.72964 67.8022 7.0913V27.7061C67.8022 28.1401 68.0916 28.4295 68.4532 28.4295C68.8872 28.4295 69.1042 28.0678 69.1042 27.7061V7.23597C69.1042 6.72964 68.8872 6.44031 68.4532 6.44031ZM86.4641 13.8182C86.4641 13.3842 86.1748 13.0949 85.8131 13.0949C85.3791 13.0949 85.1621 13.4566 85.1621 13.8182V22.4258C85.1621 25.3192 82.9198 27.6338 80.1711 27.5615C77.2778 27.5615 75.6142 25.5361 75.6142 22.3535V13.8182C75.6142 13.3842 75.3248 13.0949 74.9632 13.0949C74.6738 13.0949 74.3122 13.4566 74.3122 13.8182V22.5705C74.3122 26.1871 76.4822 28.8635 80.0265 28.8635C82.1965 28.9358 84.2218 27.7061 85.2344 25.6808V27.9231C85.2344 28.3571 85.5961 28.5741 85.8854 28.5741C86.3194 28.5741 86.5364 28.2125 86.5364 27.9231H86.4641V13.8182ZM98.399 14.5416C98.6883 14.5416 99.05 14.2522 99.05 13.8906C99.05 13.6012 98.6883 13.2396 98.399 13.2396H93.842V8.97195C93.842 8.61029 93.4804 8.24863 93.191 8.24863H93.1187C92.7571 8.24863 92.5401 8.61029 92.5401 8.97195V13.2396H90.9487C90.5871 13.2396 90.2977 13.4566 90.2977 13.8182C90.2977 14.1799 90.5871 14.5416 90.9487 14.5416H92.5401V24.5235C92.5401 27.3445 94.3484 28.7188 96.446 28.7188C97.1694 28.7188 97.8927 28.5741 98.5437 28.3571C98.7607 28.2125 98.9777 27.9955 98.9777 27.7061C98.9777 27.3445 98.6883 27.1275 98.399 27.1275C97.8927 27.2721 97.314 27.3445 96.7354 27.3445C94.9994 27.3445 93.842 26.5488 93.842 24.3788V14.5416H98.399ZM109.611 14.5416C109.972 14.5416 110.262 14.2522 110.262 13.8906C110.262 13.6012 109.972 13.2396 109.611 13.2396H105.054V8.97195C105.054 8.61029 104.764 8.24863 104.403 8.24863H104.33C103.969 8.24863 103.752 8.61029 103.752 8.97195V13.2396H102.16C101.871 13.2396 101.509 13.4566 101.509 13.8182C101.509 14.1799 101.871 14.5416 102.16 14.5416H103.752V24.5235C103.752 27.3445 105.56 28.7188 107.73 28.7188C108.381 28.7188 109.104 28.5741 109.755 28.3571C110.045 28.2125 110.189 27.9955 110.189 27.7061C110.189 27.3445 109.972 27.1275 109.611 27.1275C109.104 27.2721 108.526 27.3445 107.947 27.3445C106.211 27.3445 105.054 26.5488 105.054 24.3788V14.5416H109.611ZM119.52 12.8056C115.687 12.8056 112.793 16.2776 112.793 20.8345V20.9069C112.793 25.7531 115.976 28.9358 119.81 28.9358C121.835 29.0081 123.933 28.1401 125.307 26.4765C125.524 26.3318 125.596 26.1148 125.596 25.9701C125.596 25.6085 125.234 25.2468 124.945 25.2468L124.511 25.3915C123.937 26.0605 123.228 26.5999 122.43 26.974C121.632 27.3482 120.763 27.5484 119.882 27.5615C117.061 27.5615 114.529 25.3192 114.24 21.5578H125.524C125.813 21.5578 126.175 21.1962 126.175 20.8345C126.175 16.2776 123.571 12.8056 119.52 12.8056ZM114.168 20.1112C114.385 16.7839 116.627 14.1799 119.448 14.1799C122.703 14.1799 124.439 17.0009 124.583 20.1112H114.168ZM137.242 13.0226C134.638 13.2396 132.468 15.0479 131.527 17.6519V13.8906C131.527 13.6012 131.166 13.2396 130.876 13.2396C130.442 13.2396 130.225 13.4566 130.153 13.8906V28.0678C130.153 28.4295 130.442 28.7911 130.804 28.7911C131.166 28.7911 131.455 28.5018 131.527 28.0678V22.4258C131.527 17.4349 134.204 15.0479 137.242 14.6862H137.314C137.748 14.6862 137.965 14.2522 137.965 13.8906C137.965 13.3842 137.676 13.0226 137.242 13.0226Z" fill="black"/>
<path d="M161.619 12.2269C160.678 12.2269 159.81 12.9503 159.593 13.9629L157.134 22.2089L154.747 13.9629C154.53 12.9503 153.59 12.1546 152.505 12.1546H152.288C151.203 12.1546 150.262 12.8056 150.045 13.9629L147.658 22.0642L145.344 13.8906C145.054 12.9503 144.259 12.1546 143.246 12.1546H143.174C142.089 12.1546 141.293 13.0949 141.293 14.2523L141.438 15.3372L145.127 26.6935C145.416 27.8508 146.356 28.6465 147.514 28.7188H147.658C148.743 28.7188 149.611 27.9231 149.973 26.7658L152.36 18.6646L154.747 26.7658C155.036 27.9231 155.977 28.7188 157.062 28.7188H157.279C158.436 28.7188 159.376 27.9231 159.666 26.6935L163.355 15.1926L163.572 14.3246V14.2523C163.572 13.0949 162.704 12.2269 161.619 12.2269ZM172.251 12.2269C170.588 12.1546 168.996 12.5163 167.405 13.0226C166.754 13.3119 166.392 13.9629 166.392 14.7586C166.392 15.8436 167.188 16.6392 168.201 16.5669C168.345 16.5669 168.562 16.5669 168.779 16.4222C169.72 16.1329 170.732 15.9882 171.745 15.9882C173.915 15.9882 175 17.0009 175 18.9539V19.1709C173.843 18.7369 172.541 18.5922 171.311 18.5922C167.767 18.5922 165.308 20.2559 165.308 23.8002C165.308 26.9105 167.694 28.7188 170.443 28.7188C172.179 28.7911 173.843 27.9955 175 26.6935C175.072 27.8508 175.94 28.6465 177.025 28.6465C178.183 28.6465 179.123 27.6338 179.123 26.4042V19.1709C179.195 17.3626 178.617 15.4819 177.459 14.1076C176.23 12.9503 174.566 12.2269 172.251 12.2269ZM175.072 22.7152C175.072 24.4512 173.626 25.5362 171.673 25.4638C170.298 25.4638 169.358 24.7405 169.358 23.5108V23.4385C169.358 22.0642 170.515 21.1962 172.324 21.1962C173.192 21.1962 174.204 21.4855 175.072 21.8472V22.7152ZM193.807 12.1546C192.939 12.1546 192.071 12.7333 191.854 13.7459L188.526 23.0768L185.344 13.8183C185.054 12.8056 184.259 12.1546 183.246 12.1546C182.161 12.1546 181.293 13.0226 181.148 14.2523C181.148 14.6139 181.293 14.9756 181.438 15.3372L186.067 26.6935C186.356 27.8508 187.297 28.6465 188.454 28.7188H188.743C189.756 28.6465 190.769 27.9231 191.203 26.7658L195.687 15.4096L195.904 14.3246V14.2523C195.904 13.0949 195.036 12.1546 193.807 12.1546ZM205.018 12.0823C200.606 12.0823 197.568 15.8436 197.568 20.4005V21.1239C197.713 25.5362 201.329 28.9358 205.452 28.7188C207.333 28.7188 209.141 28.0678 210.66 26.7658C211.094 26.4042 211.239 25.9702 211.239 25.4638V25.3915C211.239 24.3788 210.516 23.5832 209.575 23.5832C209.214 23.5832 208.852 23.6555 208.563 23.9448C207.72 24.6708 206.637 25.0575 205.525 25.0298C203.716 25.1022 202.125 23.8002 201.908 21.8472H210.371C211.456 21.7749 212.324 20.7622 212.252 19.6049V19.2432C212.252 15.3372 208.997 11.9376 205.018 12.0823ZM201.763 19.1709C202.125 17.0732 203.282 15.7712 205.018 15.7712C206.754 15.7712 207.912 17.1456 208.129 19.1709H201.763Z" fill="black" stroke="black"/>
</svg>
