<svg width="213" height="41" fill="none" xmlns="http://www.w3.org/2000/svg"><path d="M27.846 17.513C32.98 13.317 43.468-1.8 27.05.876 19.889 1.961 9.4 8.905 7.303 16.934c-1.085-2.17-2.315-4.195-3.617-6.22-2.025-2.75-4.267-.58-2.097 2.17a46.293 46.293 0 0 1 10.56 27.558c.507-4.846-.289-10.777-2.242-16.564.94.29 2.025.434 2.966.434C16.2 29.809 21.336 34.51 27.05 36.68c5.28 2.097 12.296.868 9.403-7.595-1.519-4.63-5.063-8.68-8.608-11.573zm.723-14.684c9.114-1.013-.651 10.344-3.834 12.441-2.965-1.953-6.727-3.689-10.343-3.182 2.604-3.4 8.969-8.608 14.177-9.259zm-14.25 11.718c2.46-.217 5.136 1.157 7.234 2.604-2.026 1.013-4.196 1.591-6.438 1.808-3.327 0-4.05-4.123-.796-4.412zm12.586 17.65c-4.267-1.23-8.318-4.703-11.211-8.175a22.832 22.832 0 0 0 6.944-2.748c.795-.362 1.59-.94 2.314-1.447 2.532 2.315 5.208 5.425 6.22 8.97 1.013 3.833-1.735 4.122-4.267 3.4zM62.781 7.964h-12.44a.803.803 0 0 0-.797.795h-.072v19.53c0 .434.362.796.796.796.361 0 .723-.362.795-.796v-8.824h10.561c.434 0 .651-.362.651-.724 0-.434-.29-.65-.65-.65H50.99V9.483h11.79c.434 0 .651-.362.651-.724 0-.217-.217-.506-.65-.795zm5.715-1.013h-.073c-.361 0-.578.29-.578.651v20.615c0 .434.29.723.65.723.435 0 .652-.361.652-.723V7.748c0-.507-.217-.796-.651-.796zm18.01 7.378c0-.434-.289-.723-.65-.723-.434 0-.651.361-.651.723v8.607c0 2.894-2.243 5.208-4.991 5.136-2.894 0-4.557-2.025-4.557-5.208V14.33c0-.434-.29-.723-.651-.723-.29 0-.651.361-.651.723v8.752c0 3.617 2.17 6.293 5.714 6.293 2.17.073 4.195-1.157 5.208-3.183v2.243c0 .434.362.65.65.65.435 0 .652-.36.652-.65h-.072V14.33zm11.936.723c.289 0 .65-.29.65-.65 0-.29-.361-.652-.65-.652h-4.557V9.484c0-.362-.362-.724-.651-.724h-.073c-.362 0-.578.362-.578.724v4.267H90.99c-.361 0-.65.217-.65.579s.289.723.65.723h1.592v9.982c0 2.821 1.808 4.195 3.906 4.195a6.72 6.72 0 0 0 2.097-.361c.217-.145.434-.362.434-.651a.57.57 0 0 0-.578-.579 6.168 6.168 0 0 1-1.664.217c-1.736 0-2.894-.796-2.894-2.966v-9.837h4.558zm11.211 0c.362 0 .651-.29.651-.65 0-.29-.289-.652-.651-.652h-4.557V9.484c0-.362-.289-.724-.651-.724h-.072c-.362 0-.579.362-.579.724v4.267h-1.591c-.29 0-.651.217-.651.579s.361.723.651.723h1.591v9.982c0 2.821 1.808 4.195 3.978 4.195.651 0 1.375-.144 2.026-.361.289-.145.434-.362.434-.651 0-.362-.217-.579-.579-.579a6.167 6.167 0 0 1-1.664.217c-1.736 0-2.893-.796-2.893-2.966v-9.837h4.557zm9.91-1.736c-3.834 0-6.727 3.472-6.727 8.03v.072c0 4.846 3.182 8.029 7.016 8.029 2.025.072 4.123-.796 5.497-2.46a.628.628 0 0 0 .29-.506c0-.362-.362-.723-.651-.723l-.434.144a6.227 6.227 0 0 1-4.63 2.17c-2.821 0-5.352-2.242-5.642-6.003h11.284c.29 0 .651-.362.651-.724 0-4.557-2.604-8.029-6.654-8.029zm-5.353 7.306c.217-3.327 2.459-5.931 5.28-5.931 3.255 0 4.991 2.82 5.136 5.93H114.21zm23.074-7.089c-2.604.217-4.774 2.026-5.714 4.63v-3.762c0-.289-.362-.65-.651-.65-.434 0-.651.216-.723.65V28.58c0 .361.289.723.651.723.361 0 .651-.29.723-.724v-5.642c0-4.99 2.676-7.377 5.714-7.74h.073c.434 0 .651-.433.651-.795 0-.506-.29-.868-.724-.868zm24.376-.795c-.94 0-1.808.723-2.025 1.736l-2.459 8.246-2.387-8.246a2.325 2.325 0 0 0-2.243-1.809h-.217c-1.085 0-2.025.651-2.242 1.809l-2.387 8.1-2.315-8.173c-.289-.94-1.085-1.736-2.097-1.736h-.073c-1.085 0-1.88.94-1.88 2.098l.144 1.085 3.689 11.356c.29 1.158 1.23 1.953 2.387 2.026h.145c1.085 0 1.953-.796 2.315-1.954l2.387-8.1 2.387 8.1c.289 1.158 1.229 1.953 2.314 1.953h.217c1.158 0 2.098-.795 2.387-2.025l3.689-11.5.217-.869v-.072c0-1.157-.868-2.025-1.953-2.025zm10.633 0c-1.663-.073-3.255.289-4.846.795-.651.29-1.013.94-1.013 1.736 0 1.085.796 1.88 1.809 1.809.144 0 .361 0 .578-.145a10.15 10.15 0 0 1 2.966-.434c2.17 0 3.255 1.013 3.255 2.966v.217c-1.157-.434-2.459-.58-3.689-.58-3.544 0-6.004 1.665-6.004 5.209 0 3.11 2.387 4.918 5.136 4.918 1.736.073 3.4-.723 4.557-2.025.072 1.158.94 1.953 2.025 1.953 1.158 0 2.098-1.013 2.098-2.242v-7.233c.072-1.809-.506-3.69-1.664-5.064-1.229-1.157-2.893-1.88-5.208-1.88zm2.821 10.488c0 1.736-1.446 2.82-3.399 2.748-1.375 0-2.315-.723-2.315-1.953v-.072c0-1.374 1.157-2.242 2.966-2.242.868 0 1.88.29 2.748.65v.869zm18.734-10.56a1.99 1.99 0 0 0-1.953 1.59l-3.327 9.332-3.183-9.26c-.289-1.012-1.084-1.663-2.097-1.663-1.085 0-1.953.868-2.098 2.098 0 .362.145.723.29 1.085l4.629 11.356c.289 1.158 1.229 1.953 2.387 2.026h.289c1.013-.073 2.025-.796 2.459-1.954l4.485-11.356.217-1.085v-.072c0-1.157-.868-2.098-2.098-2.098zm11.212-.073c-4.412 0-7.45 3.761-7.45 8.318v.724c.144 4.412 3.761 7.812 7.884 7.595 1.881 0 3.689-.652 5.208-1.954.434-.361.579-.795.579-1.302v-.072c0-1.012-.724-1.808-1.664-1.808-.362 0-.723.072-1.013.361a4.483 4.483 0 0 1-3.038 1.085c-1.808.073-3.399-1.23-3.616-3.182h8.463c1.085-.073 1.953-1.085 1.88-2.242v-.362c0-3.906-3.255-7.306-7.233-7.161zm-3.255 7.089c.362-2.098 1.519-3.4 3.255-3.4s2.893 1.374 3.11 3.4h-6.365z" fill="#fff"/><path d="M27.846 17.513C32.98 13.317 43.468-1.8 27.05.876 19.889 1.961 9.4 8.905 7.303 16.934c-1.085-2.17-2.315-4.195-3.617-6.22-2.025-2.75-4.267-.58-2.097 2.17a46.293 46.293 0 0 1 10.56 27.558c.507-4.846-.289-10.777-2.242-16.564.94.29 2.025.434 2.966.434C16.2 29.809 21.336 34.51 27.05 36.68c5.28 2.097 12.296.868 9.403-7.595-1.519-4.63-5.063-8.68-8.608-11.573zm.723-14.684c9.114-1.013-.651 10.344-3.834 12.441-2.965-1.953-6.727-3.689-10.343-3.182 2.604-3.4 8.969-8.608 14.177-9.259zm-14.25 11.718c2.46-.217 5.136 1.157 7.234 2.604-2.026 1.013-4.196 1.591-6.438 1.808-3.327 0-4.05-4.123-.796-4.412zm12.586 17.65c-4.267-1.23-8.318-4.703-11.211-8.175a22.832 22.832 0 0 0 6.944-2.748c.795-.362 1.59-.94 2.314-1.447 2.532 2.315 5.208 5.425 6.22 8.97 1.013 3.833-1.735 4.122-4.267 3.4zM62.781 7.964h-12.44a.803.803 0 0 0-.797.795h-.072v19.53c0 .434.362.796.796.796.361 0 .723-.362.795-.796v-8.824h10.561c.434 0 .651-.362.651-.724 0-.434-.29-.65-.65-.65H50.99V9.483h11.79c.434 0 .651-.362.651-.724 0-.217-.217-.506-.65-.795zm5.715-1.013h-.073c-.361 0-.578.29-.578.651v20.615c0 .434.29.723.65.723.435 0 .652-.361.652-.723V7.748c0-.507-.217-.796-.651-.796zm18.01 7.378c0-.434-.289-.723-.65-.723-.434 0-.651.361-.651.723v8.607c0 2.894-2.243 5.208-4.991 5.136-2.894 0-4.557-2.025-4.557-5.208V14.33c0-.434-.29-.723-.651-.723-.29 0-.651.361-.651.723v8.752c0 3.617 2.17 6.293 5.714 6.293 2.17.073 4.195-1.157 5.208-3.183v2.243c0 .434.362.65.65.65.435 0 .652-.36.652-.65h-.072V14.33zm11.936.723c.289 0 .65-.29.65-.65 0-.29-.361-.652-.65-.652h-4.557V9.484c0-.362-.362-.724-.651-.724h-.073c-.362 0-.578.362-.578.724v4.267H90.99c-.361 0-.65.217-.65.579s.289.723.65.723h1.592v9.982c0 2.821 1.808 4.195 3.906 4.195a6.72 6.72 0 0 0 2.097-.361c.217-.145.434-.362.434-.651a.57.57 0 0 0-.578-.579 6.168 6.168 0 0 1-1.664.217c-1.736 0-2.894-.796-2.894-2.966v-9.837h4.558zm11.211 0c.362 0 .651-.29.651-.65 0-.29-.289-.652-.651-.652h-4.557V9.484c0-.362-.289-.724-.651-.724h-.072c-.362 0-.579.362-.579.724v4.267h-1.591c-.29 0-.651.217-.651.579s.361.723.651.723h1.591v9.982c0 2.821 1.808 4.195 3.978 4.195.651 0 1.375-.144 2.026-.361.289-.145.434-.362.434-.651 0-.362-.217-.579-.579-.579a6.167 6.167 0 0 1-1.664.217c-1.736 0-2.893-.796-2.893-2.966v-9.837h4.557zm9.91-1.736c-3.834 0-6.727 3.472-6.727 8.03v.072c0 4.846 3.182 8.029 7.016 8.029 2.025.072 4.123-.796 5.497-2.46a.628.628 0 0 0 .29-.506c0-.362-.362-.723-.651-.723l-.434.144a6.227 6.227 0 0 1-4.63 2.17c-2.821 0-5.352-2.242-5.642-6.003h11.284c.29 0 .651-.362.651-.724 0-4.557-2.604-8.029-6.654-8.029zm-5.353 7.306c.217-3.327 2.459-5.931 5.28-5.931 3.255 0 4.991 2.82 5.136 5.93H114.21zm23.074-7.089c-2.604.217-4.774 2.026-5.714 4.63v-3.762c0-.289-.362-.65-.651-.65-.434 0-.651.216-.723.65V28.58c0 .361.289.723.651.723.361 0 .651-.29.723-.724v-5.642c0-4.99 2.676-7.377 5.714-7.74h.073c.434 0 .651-.433.651-.795 0-.506-.29-.868-.724-.868zm24.376-.795c-.94 0-1.808.723-2.025 1.736l-2.459 8.246-2.387-8.246a2.325 2.325 0 0 0-2.243-1.809h-.217c-1.085 0-2.025.651-2.242 1.809l-2.387 8.1-2.315-8.173c-.289-.94-1.085-1.736-2.097-1.736h-.073c-1.085 0-1.88.94-1.88 2.098l.144 1.085 3.689 11.356c.29 1.158 1.23 1.953 2.387 2.026h.145c1.085 0 1.953-.796 2.315-1.954l2.387-8.1 2.387 8.1c.289 1.158 1.229 1.953 2.314 1.953h.217c1.158 0 2.098-.795 2.387-2.025l3.689-11.5.217-.869v-.072c0-1.157-.868-2.025-1.953-2.025zm10.633 0c-1.663-.073-3.255.289-4.846.795-.651.29-1.013.94-1.013 1.736 0 1.085.796 1.88 1.809 1.809.144 0 .361 0 .578-.145a10.15 10.15 0 0 1 2.966-.434c2.17 0 3.255 1.013 3.255 2.966v.217c-1.157-.434-2.459-.58-3.689-.58-3.544 0-6.004 1.665-6.004 5.209 0 3.11 2.387 4.918 5.136 4.918 1.736.073 3.4-.723 4.557-2.025.072 1.158.94 1.953 2.025 1.953 1.158 0 2.098-1.013 2.098-2.242v-7.233c.072-1.809-.506-3.69-1.664-5.064-1.229-1.157-2.893-1.88-5.208-1.88zm2.821 10.488c0 1.736-1.446 2.82-3.399 2.748-1.375 0-2.315-.723-2.315-1.953v-.072c0-1.374 1.157-2.242 2.966-2.242.868 0 1.88.29 2.748.65v.869zm18.734-10.56a1.99 1.99 0 0 0-1.953 1.59l-3.327 9.332-3.183-9.26c-.289-1.012-1.084-1.663-2.097-1.663-1.085 0-1.953.868-2.098 2.098 0 .362.145.723.29 1.085l4.629 11.356c.289 1.158 1.229 1.953 2.387 2.026h.289c1.013-.073 2.025-.796 2.459-1.954l4.485-11.356.217-1.085v-.072c0-1.157-.868-2.098-2.098-2.098zm11.212-.073c-4.412 0-7.45 3.761-7.45 8.318v.724c.144 4.412 3.761 7.812 7.884 7.595 1.881 0 3.689-.652 5.208-1.954.434-.361.579-.795.579-1.302v-.072c0-1.012-.724-1.808-1.664-1.808-.362 0-.723.072-1.013.361a4.483 4.483 0 0 1-3.038 1.085c-1.808.073-3.399-1.23-3.616-3.182h8.463c1.085-.073 1.953-1.085 1.88-2.242v-.362c0-3.906-3.255-7.306-7.233-7.161zm-3.255 7.089c.362-2.098 1.519-3.4 3.255-3.4s2.893 1.374 3.11 3.4h-6.365z" stroke="#fff"/></svg>