<svg width="165" height="41" fill="none" xmlns="http://www.w3.org/2000/svg"><g opacity=".5" fill-rule="evenodd" clip-rule="evenodd"><path d="M30.797 10.91a18.72 18.72 0 0 1-.126.722c-1.626 8.348-7.188 11.234-14.293 11.234H12.76c-.868 0-1.6.631-1.736 1.489L8.646 39.43a.926.926 0 0 0 .915 1.07h6.415c.76 0 1.406-.552 1.524-1.303l.063-.326 1.209-7.664.078-.423a1.543 1.543 0 0 1 1.524-1.303h.96c6.215 0 11.082-2.525 12.504-9.828.594-3.05.287-5.598-1.285-7.389-.475-.541-1.066-.99-1.756-1.354z" fill="#2790C3"/><path d="M30.797 10.91a18.72 18.72 0 0 1-.126.722c-1.626 8.348-7.188 11.234-14.293 11.234H12.76c-.868 0-1.6.631-1.736 1.489L8.646 39.43a.926.926 0 0 0 .915 1.07h6.415c.76 0 1.406-.552 1.524-1.303l.063-.326 1.209-7.664.078-.423a1.543 1.543 0 0 1 1.524-1.303h.96c6.215 0 11.082-2.525 12.504-9.828.594-3.05.287-5.598-1.285-7.389-.475-.541-1.066-.99-1.756-1.354z" fill="#fff"/></g><path d="M30.768 10.893l.031.017c.484-3.086-.003-5.186-1.672-7.088C27.289 1.73 23.97.832 19.722.832H7.393c-.868 0-1.607.631-1.742 1.489L.517 34.875a1.058 1.058 0 0 0 1.045 1.223h7.61l1.852-11.743a1.758 1.758 0 0 1 1.736-1.49h3.618c7.105 0 12.667-2.885 14.293-11.233.046-.236.085-.464.12-.69l-.009-.004-.016-.01v-.02l.002-.015z" fill="#fff"/><path fill-rule="evenodd" clip-rule="evenodd" d="M62.293 9.702h-8.99c-.615 0-1.138.448-1.234 1.055l-3.635 23.052a.75.75 0 0 0 .74.866h4.293A1.25 1.25 0 0 0 54.7 33.62l.981-6.219a1.249 1.249 0 0 1 1.234-1.054h2.845c5.921 0 9.339-2.866 10.232-8.546.402-2.484.016-4.436-1.147-5.802-1.279-1.502-3.544-2.297-6.552-2.297zm1.037 8.42c-.49 3.227-2.956 3.227-5.339 3.227h-1.356l.95-6.026a.75.75 0 0 1 .741-.632h.622c1.622 0 3.155 0 3.945.925.473.553.616 1.372.437 2.505zm21.529-.104h4.304c.46 0 .812.411.74.866L87.576 33.62a1.249 1.249 0 0 1-1.233 1.055h-3.877a.75.75 0 0 1-.74-.867l.192-1.197s-2.126 2.463-5.96 2.463c-2.233 0-4.108-.643-5.421-2.189-1.43-1.682-2.015-4.091-1.603-6.613.79-5.055 4.853-8.659 9.61-8.659 2.074 0 4.152.452 5.084 1.805l.3.437.19-1.204a.749.749 0 0 1 .74-.633zm-6.554 12.49c2.49 0 4.443-1.651 4.86-4.111.188-1.19-.071-2.271-.73-3.044-.656-.767-1.648-1.173-2.87-1.173-2.453 0-4.437 1.705-4.825 4.142-.202 1.196.038 2.27.675 3.024.642.76 1.642 1.162 2.89 1.162z" fill="#fff"/><path d="M112.091 18.018h-4.327c-.414 0-.801.206-1.033.548l-5.969 8.79-2.53-8.447a1.249 1.249 0 0 0-1.196-.89h-4.253a.75.75 0 0 0-.71.99l4.765 13.985-4.481 6.323a.75.75 0 0 0 .611 1.183h4.323c.41 0 .793-.2 1.027-.538l14.389-20.767a.75.75 0 0 0-.616-1.177z" fill="#fff"/><path fill-rule="evenodd" clip-rule="evenodd" d="M127.449 18.121c-.492 3.228-2.956 3.228-5.34 3.228h-1.357l.952-6.026a.749.749 0 0 1 .74-.632h.622c1.622 0 3.155 0 3.945.925.473.553.616 1.372.438 2.505zm-1.038-8.419h-8.99a1.25 1.25 0 0 0-1.234 1.055l-3.635 23.052a.75.75 0 0 0 .74.866h4.613c.43 0 .796-.314.863-.739l1.031-6.535a1.25 1.25 0 0 1 1.234-1.054h2.845c5.921 0 9.339-2.866 10.232-8.546.402-2.484.016-4.436-1.147-5.802-1.279-1.502-3.544-2.297-6.552-2.297zm20.871 16.695c-.416 2.46-2.368 4.111-4.859 4.111-1.249 0-2.248-.402-2.891-1.162-.637-.754-.876-1.828-.674-3.024.387-2.437 2.371-4.142 4.824-4.142 1.222 0 2.215.406 2.87 1.173.659.773.918 1.854.73 3.044zm5.999-8.379h-4.305a.748.748 0 0 0-.74.633l-.189 1.204-.301-.437c-.933-1.353-3.01-1.805-5.085-1.805-4.755 0-8.818 3.604-9.609 8.66-.411 2.52.173 4.93 1.602 6.612 1.314 1.546 3.189 2.19 5.422 2.19 3.834 0 5.96-2.464 5.96-2.464l-.192 1.197a.749.749 0 0 0 .74.867h3.876c.615 0 1.138-.447 1.234-1.055l2.327-14.736a.748.748 0 0 0-.74-.866zm5.074-7.683l-3.69 23.474a.75.75 0 0 0 .74.866h3.711a1.25 1.25 0 0 0 1.234-1.055l3.638-23.051a.75.75 0 0 0-.74-.867h-4.153a.749.749 0 0 0-.74.633zm-129.262-.103a11.848 11.848 0 0 0-.767-.197c-.264-.058-.535-.11-.814-.155a20.163 20.163 0 0 0-3.189-.232H14.66a1.542 1.542 0 0 0-1.524 1.303l-2.054 13.024-.06.38a1.758 1.758 0 0 1 1.737-1.49h3.617c7.105 0 12.668-2.885 14.293-11.233.049-.247.09-.487.127-.722a8.734 8.734 0 0 0-1.336-.564 9.76 9.76 0 0 0-.366-.114z" fill="#fff"/></svg>