<svg width="165" height="41" viewBox="0 0 165 41" fill="none" xmlns="http://www.w3.org/2000/svg">
<path fill-rule="evenodd" clip-rule="evenodd" d="M17.5321 38.3683L18.7405 30.7053L18.8185 30.2806C18.8767 29.9113 19.0658 29.5735 19.3506 29.3303C19.6355 29.0871 19.9987 28.9529 20.3733 28.9529H21.3329C22.9325 28.9529 24.402 28.782 25.7009 28.4451C27.0868 28.0859 28.3195 27.5263 29.3644 26.7832C30.4723 25.9954 31.4028 24.9768 32.1304 23.7566C32.8981 22.4693 33.4618 20.9194 33.806 19.1505C34.1102 17.5885 34.1672 16.1901 33.9761 14.9937C33.7737 13.7299 33.2868 12.6515 32.5292 11.7877C32.0698 11.2644 31.482 10.8111 30.7822 10.4402L30.7656 10.4313L30.7652 10.4111C31.0096 8.85192 31.0003 7.55132 30.7373 6.43172C30.4731 5.3097 29.9381 4.30001 29.1005 3.34566C27.3652 1.36829 24.2088 0.36546 19.7195 0.36546H7.39024C6.97812 0.36546 6.57812 0.512935 6.26459 0.780814C5.95105 1.04869 5.74338 1.42081 5.67873 1.82809L0.544993 34.3828C0.498124 34.6798 0.583377 34.9816 0.778932 35.2095C0.974488 35.4386 1.25893 35.5699 1.55954 35.5699H9.20843L9.20156 35.6063L8.6763 38.9372C8.6359 39.1962 8.71024 39.4588 8.88035 39.6576C9.05045 39.8568 9.29812 39.9715 9.55994 39.9715H15.9753C16.3353 39.9715 16.684 39.8426 16.9575 39.6087C17.2311 39.3748 17.4129 39.0503 17.469 38.6952L17.5321 38.3683Z" fill="#27346A"/>
<path fill-rule="evenodd" clip-rule="evenodd" d="M63.3304 17.624C62.8391 20.8511 60.3744 20.8511 57.991 20.8511H56.6346L57.5858 14.826C57.6435 14.462 57.9575 14.1937 58.326 14.1937H58.9478C60.5704 14.1937 62.1033 14.1937 62.8932 15.1182C63.3664 15.6713 63.5094 16.4911 63.3304 17.624ZM62.2932 9.20502H53.3029C52.6884 9.20502 52.1652 9.6523 52.0694 10.2596L48.4338 33.3113C48.3623 33.7658 48.7138 34.1771 49.174 34.1771H53.4666C54.0811 34.1771 54.6047 33.7299 54.7005 33.123L55.6815 26.904C55.7769 26.2967 56.3005 25.8495 56.9151 25.8495H59.7599C65.6811 25.8495 69.0989 22.9836 69.9922 17.304C70.3942 14.82 70.0084 12.8681 68.8452 11.5016C67.5664 9.99937 65.3005 9.20502 62.2932 9.20502Z" fill="#27346A"/>
<path fill-rule="evenodd" clip-rule="evenodd" d="M83.1641 25.8996C82.7483 28.3594 80.7956 30.0107 78.3051 30.0107C77.0566 30.0107 76.057 29.6091 75.4146 28.8487C74.7778 28.0947 74.5382 27.0208 74.7398 25.8248C75.1277 23.3872 77.1115 21.6826 79.5641 21.6826C80.7867 21.6826 81.779 22.0882 82.4344 22.8555C83.0938 23.6285 83.3528 24.7097 83.1641 25.8996ZM89.1633 17.521H84.8586C84.4897 17.521 84.1758 17.7889 84.1184 18.1537L83.9289 19.3573L83.6279 18.921C82.6958 17.5678 80.6182 17.1157 78.5435 17.1157C73.7875 17.1157 69.7249 20.7198 68.9342 25.7747C68.5224 28.2963 69.1067 30.706 70.5366 32.388C71.8501 33.9335 73.7249 34.5767 75.9584 34.5767C79.7919 34.5767 81.918 32.1141 81.918 32.1141L81.7257 33.3105C81.6538 33.7654 82.0053 34.1771 82.4659 34.1771H86.3427C86.9572 34.1771 87.4804 33.7303 87.5762 33.123L89.9035 18.3868C89.9754 17.9319 89.6239 17.521 89.1633 17.521Z" fill="#27346A"/>
<path fill-rule="evenodd" clip-rule="evenodd" d="M112.091 17.521H107.764C107.35 17.521 106.963 17.7262 106.731 18.0684L100.762 26.8591L98.2328 18.4119C98.0748 17.8834 97.5883 17.521 97.0364 17.521H92.7831C92.2695 17.521 91.9079 18.026 92.0736 18.5121L96.838 32.4967L92.3568 38.82C92.0049 39.3161 92.36 40.0026 92.9681 40.0026H97.2909C97.7006 40.0026 98.0841 39.8018 98.3176 39.4648L112.707 18.6975C113.051 18.2006 112.696 17.521 112.091 17.521Z" fill="#27346A"/>
<path fill-rule="evenodd" clip-rule="evenodd" d="M13.1397 10.4535C13.2209 9.93752 13.5518 9.5153 13.9975 9.30156C14.2003 9.20459 14.4266 9.15045 14.6638 9.15045H24.328C25.473 9.15045 26.5405 9.2256 27.5167 9.38277C27.7955 9.42762 28.0666 9.47934 28.3304 9.53792C28.5943 9.59651 28.85 9.66156 29.0977 9.73429C29.2217 9.77025 29.3434 9.80823 29.4634 9.84823C29.9425 10.0074 30.3886 10.1949 30.7991 10.4123C31.2832 7.32661 30.7959 5.22681 29.1268 3.325C27.2892 1.23126 23.9696 0.33429 19.7223 0.33429H7.39305C6.52517 0.33429 5.78618 0.965805 5.65083 1.82318L0.51709 34.3779C0.415676 35.0203 0.912242 35.601 1.56234 35.601H9.17366L13.1397 10.4535Z" fill="#27346A"/>
<path fill-rule="evenodd" clip-rule="evenodd" d="M127.449 17.6241C126.958 20.8511 124.493 20.8511 122.11 20.8511H120.753L121.705 14.8261C121.762 14.462 122.076 14.1938 122.445 14.1938H123.067C124.689 14.1938 126.222 14.1938 127.012 15.1182C127.485 15.6713 127.628 16.4911 127.449 17.6241ZM126.412 9.20508H117.422C116.807 9.20508 116.284 9.65235 116.188 10.2596L112.553 33.3113C112.481 33.7659 112.832 34.1772 113.293 34.1772H117.906C118.336 34.1772 118.702 33.8641 118.769 33.439L119.8 26.9041C119.896 26.2968 120.419 25.8495 121.034 25.8495H123.879C129.8 25.8495 133.218 22.9837 134.111 17.3041C134.513 14.82 134.127 12.8681 132.964 11.5016C131.685 9.99942 129.42 9.20508 126.412 9.20508Z" fill="#2790C3"/>
<path fill-rule="evenodd" clip-rule="evenodd" d="M147.283 25.8996C146.867 28.3594 144.915 30.0107 142.424 30.0107C141.175 30.0107 140.176 29.6091 139.533 28.8487C138.896 28.0948 138.657 27.0208 138.859 25.8249C139.246 23.3873 141.23 21.6826 143.683 21.6826C144.905 21.6826 145.898 22.0883 146.553 22.8556C147.212 23.6285 147.471 24.7097 147.283 25.8996ZM153.282 17.521H148.977C148.608 17.521 148.294 17.7889 148.237 18.1538L148.048 19.3574L147.747 18.921C146.814 17.5679 144.737 17.1158 142.662 17.1158C137.906 17.1158 133.843 20.7198 133.053 25.7748C132.641 28.2964 133.226 30.7061 134.655 32.3881C135.969 33.9336 137.843 34.5768 140.077 34.5768C143.911 34.5768 146.037 32.1142 146.037 32.1142L145.845 33.3105C145.772 33.7655 146.124 34.1772 146.585 34.1772H150.461C151.076 34.1772 151.599 33.7303 151.695 33.1231L154.022 18.3869C154.094 17.9319 153.742 17.521 153.282 17.521Z" fill="#2790C3"/>
<path fill-rule="evenodd" clip-rule="evenodd" d="M158.356 9.83821L154.666 33.3113C154.594 33.7663 154.946 34.1772 155.406 34.1772H159.117C159.732 34.1772 160.255 33.7299 160.351 33.1231L163.989 10.0713C164.061 9.61639 163.709 9.20508 163.249 9.20508H159.096C158.727 9.20508 158.413 9.47376 158.356 9.83821Z" fill="#2790C3"/>
<path fill-rule="evenodd" clip-rule="evenodd" d="M30.797 10.4124C30.7602 10.6479 30.7194 10.8875 30.6709 11.1344C29.0454 19.4823 23.4826 22.3683 16.378 22.3683H12.7602C11.8923 22.3683 11.1594 23.0002 11.024 23.8576L8.64624 38.9328C8.55776 39.4944 8.9921 40.0027 9.56059 40.0027H15.9763C16.7355 40.0027 17.382 39.4503 17.5004 38.7L17.5634 38.374L18.7719 30.7101L18.8499 30.2867C18.9683 29.5364 19.6147 28.9841 20.3739 28.9841H21.3335C27.5489 28.9841 32.4155 26.4588 33.8378 19.1562C34.4317 16.1049 34.1246 13.5578 32.5533 11.7671C32.0782 11.2257 31.4866 10.7776 30.797 10.4124Z" fill="#2790C3"/>
<path fill-rule="evenodd" clip-rule="evenodd" d="M29.093 9.73441C28.8453 9.66169 28.5896 9.59663 28.3257 9.53805C28.0619 9.47946 27.7908 9.42775 27.512 9.3829C26.5358 9.22573 25.4684 9.15057 24.3233 9.15057H14.6591C14.4219 9.15057 14.1956 9.20472 13.9928 9.30168C13.5471 9.51542 13.2162 9.93764 13.135 10.4536L11.0809 23.4774L11.0215 23.8576C11.1568 23.0003 11.8898 22.3684 12.7576 22.3684H16.3754C23.4801 22.3684 29.0429 19.4823 30.6684 11.1344C30.7168 10.8875 30.7576 10.6479 30.7944 10.4124C30.3839 10.195 29.9378 10.0075 29.4587 9.84835C29.3387 9.80835 29.217 9.77037 29.093 9.73441Z" fill="#1F264F"/>
</svg>
