<svg width="211" height="41" fill="none" xmlns="http://www.w3.org/2000/svg"><path fill-rule="evenodd" clip-rule="evenodd" d="M2.66.5h34.607c1.192 0 2.162.959 2.162 2.146v3.81c0 1.182-.97 2.147-2.162 2.147H2.659A2.155 2.155 0 0 1 .5 6.456v-3.81C.5 1.46 1.467.5 2.66.5zm0 21.269h34.607c1.192 0 2.162.96 2.162 2.143v3.816c0 1.182-.97 2.14-2.162 2.14H2.659A2.15 2.15 0 0 1 .5 27.729v-3.816c0-1.182.967-2.143 2.16-2.143zm19.465 10.634H2.66c-1.193 0-2.16.959-2.16 2.143v3.813c0 1.182.967 2.144 2.16 2.144h19.465a2.152 2.152 0 0 0 2.162-2.144v-3.813a2.15 2.15 0 0 0-2.162-2.143zM2.66 11.132h36.77c1.194 0 2.158.961 2.158 2.146v3.813a2.153 2.153 0 0 1-2.159 2.146H2.66A2.155 2.155 0 0 1 .5 17.09v-3.813c0-1.185.967-2.146 2.16-2.146zm207.618 16.156l-5.993-8.729 5.128-6.706c.269-.386.338-.757.215-1.105-.09-.251-.332-.554-.953-.554h-4.054c-.229 0-.453.057-.668.16-.23.1-.437.304-.594.57l-4.098 5.684h-.998V3.176c0-.285-.097-.52-.282-.721a1.014 1.014 0 0 0-.718-.287h-3.793c-.277 0-.522.104-.725.285a.952.952 0 0 0-.313.723v24.797c0 .285.108.533.313.719.203.192.448.287.725.287h3.793c.28 0 .53-.095.718-.292a.989.989 0 0 0 .282-.714v-6.568h1.098l4.475 6.792c.317.52.759.782 1.309.782h4.246c.644 0 .912-.303 1.02-.56.154-.365.108-.73-.133-1.13zm-62.571-4.186c.342.018.632.201.84.536l1.317 2.111c.353.554.302 1.11-.131 1.614-.653.683-1.474 1.193-2.452 1.53a9.636 9.636 0 0 1-3.114.502 8.267 8.267 0 0 1-2.373-.348 6.002 6.002 0 0 1-2.08-1.078c-.597-.48-1.09-1.12-1.464-1.879-.374-.768-.569-1.702-.569-2.786v-8.121h-2.187a.912.912 0 0 1-.725-.335 1.091 1.091 0 0 1-.279-.71v-2.897c0-.283.099-.525.279-.726a.941.941 0 0 1 .725-.32h2.187v-4.65c0-.307.115-.565.313-.753.207-.192.452-.285.729-.285h3.83c.252 0 .484.093.694.285.207.188.306.446.306.753v4.65h4.931c.283 0 .529.105.749.302a.987.987 0 0 1 .327.744v2.897c0 .26-.106.502-.32.719a1.05 1.05 0 0 1-.756.326h-4.931v6.832c0 .423.058.757.169 1.006.114.244.245.436.407.565.16.129.34.224.516.26a2.18 2.18 0 0 0 1.213-.036c.273-.072.559-.204.869-.394.325-.219.66-.332.98-.314zm-15.723-4.01a6.437 6.437 0 0 0-1.862-1.116c-.702-.28-1.45-.502-2.234-.65L125 16.757c-.741-.138-1.257-.326-1.547-.563-.259-.206-.387-.443-.387-.735 0-.305.182-.558.538-.782.391-.239.937-.361 1.612-.361.745 0 1.475.147 2.157.436.691.294 1.34.628 1.905 1.001.842.516 1.556.448 2.071-.149l1.387-1.584c.284-.312.433-.651.433-.99 0-.355-.181-.68-.527-.977-.588-.508-1.518-1.049-2.763-1.575-1.245-.536-2.812-.807-4.663-.807-1.214 0-2.335.163-3.326.48-.997.32-1.851.763-2.542 1.315-.698.565-1.247 1.222-1.623 1.98a5.44 5.44 0 0 0-.565 2.43c0 1.556.477 2.824 1.412 3.772.934.924 2.181 1.554 3.714 1.862l3.002.644c.853.17 1.502.364 1.923.581.365.185.54.452.54.825 0 .335-.175.63-.536.9-.378.289-.975.431-1.77.431a5.321 5.321 0 0 1-2.368-.526 8.793 8.793 0 0 1-1.932-1.273 2.833 2.833 0 0 0-.871-.472c-.361-.104-.764.006-1.23.364l-1.659 1.277c-.482.402-.685.888-.595 1.448.082.538.541 1.094 1.399 1.725.765.533 1.747 1.02 2.929 1.435 1.182.42 2.567.635 4.138.635 1.264 0 2.432-.16 3.459-.476 1.034-.33 1.939-.771 2.679-1.336a6.003 6.003 0 0 0 1.734-2.055c.403-.79.601-1.657.601-2.563 0-.884-.153-1.663-.47-2.319a5.123 5.123 0 0 0-1.275-1.663zm-61.053-6.735a8.95 8.95 0 0 0-2.925-1.993 8.995 8.995 0 0 0-3.497-.692c-1.276 0-2.416.237-3.382.719-.752.368-1.389.836-1.884 1.38v-.53a1.06 1.06 0 0 0-.282-.726.941.941 0 0 0-.725-.32H54.49a.915.915 0 0 0-.723.32 1.03 1.03 0 0 0-.284.726v24.912a1 1 0 0 0 .286.719.98.98 0 0 0 .72.284h3.822a.988.988 0 0 0 .693-.284.937.937 0 0 0 .31-.72V27.65c.512.565 1.192.997 2.002 1.293a8.916 8.916 0 0 0 3.112.562 9.243 9.243 0 0 0 3.537-.689 8.896 8.896 0 0 0 2.966-2.011c.842-.864 1.522-1.926 2.01-3.133.505-1.22.748-2.6.748-4.102 0-1.499-.243-2.88-.748-4.1-.488-1.21-1.168-2.263-2.01-3.113zm-3.43 9a4.463 4.463 0 0 1-.898 1.415c-.378.403-.828.73-1.337.952a4.12 4.12 0 0 1-1.696.343 4.234 4.234 0 0 1-3.06-1.295 4.415 4.415 0 0 1-.91-1.415 4.717 4.717 0 0 1-.326-1.75c0-.623.113-1.208.327-1.753a4.256 4.256 0 0 1 .91-1.395 4.602 4.602 0 0 1 1.38-.953 4.032 4.032 0 0 1 1.68-.36c.614 0 1.179.122 1.69.36.514.24.964.556 1.349.949.376.398.677.87.891 1.399.214.545.32 1.13.32 1.754 0 .624-.105 1.21-.32 1.75zm26.697-11.163h-3.787c-.257 0-.5.106-.7.305-.2.213-.306.459-.306.742v.458c-.426-.513-1.005-.951-1.716-1.308-.955-.482-2.074-.719-3.321-.719a9.13 9.13 0 0 0-3.5.692 9.195 9.195 0 0 0-3.002 1.986c-.865.857-1.568 1.906-2.092 3.12-.52 1.211-.784 2.597-.784 4.1 0 1.502.264 2.881.784 4.102.524 1.207 1.218 2.269 2.073 3.133a9.162 9.162 0 0 0 2.984 2.011c1.119.461 2.298.69 3.5.69 1.246 0 2.374-.242 3.34-.717.714-.36 1.299-.798 1.734-1.309v.493c0 .285.106.534.313.719a.984.984 0 0 0 .693.287h3.787a.946.946 0 0 0 .714-.292.97.97 0 0 0 .29-.714V11.241c0-.283-.096-.525-.283-.726a.922.922 0 0 0-.72-.321zm-5.113 11.14a4.274 4.274 0 0 1-.89 1.42c-.382.398-.84.714-1.346.954a3.988 3.988 0 0 1-1.698.36c-.59 0-1.157-.123-1.677-.36a4.465 4.465 0 0 1-1.362-.954 4.155 4.155 0 0 1-.892-1.42 4.795 4.795 0 0 1-.32-1.726c0-.624.109-1.21.32-1.754.214-.533.516-1.01.892-1.4.385-.392.838-.709 1.362-.948a4.023 4.023 0 0 1 1.677-.36c.615 0 1.192.122 1.698.36.507.24.964.556 1.347.949.374.398.675.87.889 1.399.214.545.32 1.13.32 1.754 0 .594-.106 1.177-.32 1.727zm76.434-11.14h3.785c.293 0 .536.106.723.321.186.201.283.443.283.726v16.732a.985.985 0 0 1-.288.714.97.97 0 0 1-.718.292h-3.785a.973.973 0 0 1-.691-.287.932.932 0 0 1-.309-.719v-.493c-.441.511-1.018.95-1.742 1.31-.964.474-2.09.715-3.346.715a9.145 9.145 0 0 1-3.493-.689 9.105 9.105 0 0 1-2.981-2.011c-.857-.864-1.551-1.926-2.073-3.133-.523-1.22-.786-2.6-.786-4.102 0-1.503.263-2.889.786-4.1.522-1.214 1.225-2.263 2.091-3.12a9.196 9.196 0 0 1 3.004-1.986 9.124 9.124 0 0 1 3.492-.692c1.257 0 2.371.237 3.326.719.711.357 1.288.795 1.722 1.308v-.458c0-.283.102-.53.304-.742.207-.199.437-.305.696-.305zm-2.225 12.56c.383-.393.685-.866.897-1.42a4.71 4.71 0 0 0 .328-1.726 4.72 4.72 0 0 0-.328-1.754 4.331 4.331 0 0 0-.897-1.4 4.413 4.413 0 0 0-1.343-.948 3.955 3.955 0 0 0-1.692-.36 4.02 4.02 0 0 0-1.675.36c-.52.24-.979.556-1.362.949a4.36 4.36 0 0 0-.894 1.399 4.756 4.756 0 0 0-.319 1.754c0 .594.105 1.177.319 1.727.216.553.518 1.035.894 1.42.383.397.842.713 1.362.953.523.237 1.085.36 1.675.36.62 0 1.182-.123 1.692-.36.515-.24.968-.556 1.343-.954zm24.642-1.012l2.172 1.647c.26.204.446.457.561.76.117.32.095.653-.09.988-.797 1.27-1.925 2.32-3.366 3.134-1.436.821-3.154 1.234-5.082 1.234-1.393 0-2.726-.257-3.94-.766a10.145 10.145 0 0 1-3.206-2.104 9.477 9.477 0 0 1-2.128-3.133 9.944 9.944 0 0 1-.777-3.894c0-1.379.266-2.694.777-3.908a9.385 9.385 0 0 1 2.128-3.16c.9-.886 1.979-1.589 3.206-2.1a10.17 10.17 0 0 1 3.94-.768c1.928 0 3.646.416 5.082 1.227 1.441.823 2.569 1.872 3.359 3.13.192.34.214.679.097 1.013-.115.326-.311.57-.572.746l-2.17 1.65c-.406.326-.795.416-1.142.28a2.089 2.089 0 0 1-.79-.569c-.538-.635-1.099-1.135-1.664-1.485-.556-.341-1.265-.518-2.114-.518a3.96 3.96 0 0 0-1.7.36 4.44 4.44 0 0 0-1.344.949 3.983 3.983 0 0 0-.879 1.399 4.945 4.945 0 0 0-.301 1.754c0 .599.099 1.171.301 1.713.208.531.503 1.013.879 1.415.382.412.828.726 1.337.952.511.226 1.083.339 1.707.339.848 0 1.567-.172 2.114-.511.565-.35 1.126-.852 1.659-1.485.225-.253.487-.445.795-.57.34-.14.737-.05 1.151.28zm-76.437-11.548h4.242c.577 0 .824.262.93.484.129.291.129.648-.013 1.08l-6.232 20.157c-.557 1.77-1.471 3.19-2.709 4.231-1.247 1.051-2.868 1.57-4.809 1.57-1.149 0-2.229-.169-3.207-.515-.988-.348-1.826-.834-2.494-1.457-.354-.308-.66-.861-.108-1.709l1.348-1.964c.26-.396.579-.6.95-.6h.046c.348.017.671.123.954.32.295.223.628.413.997.583.365.16.741.246 1.138.246a2.03 2.03 0 0 0 1.258-.41c.365-.268.646-.67.827-1.184l.542-1.52.187-.527h-2.27c-.331 0-.599-.095-.801-.287a1.527 1.527 0 0 1-.414-.647l-5.373-16.287c-.11-.368-.11-.725.007-1.028.133-.355.49-.536 1.06-.536h4.393c.315 0 .574.122.755.346.15.203.263.434.319.687l3.366 11.57h.766l3.127-11.575c.059-.253.185-.492.372-.691.2-.215.491-.337.846-.337z" fill="#fff"/></svg>