<svg width="211" height="41" viewBox="0 0 211 41" fill="none" xmlns="http://www.w3.org/2000/svg">
<path fill-rule="evenodd" clip-rule="evenodd" d="M2.6595 0H37.267C38.4593 0 39.4291 0.9589 39.4291 2.14606V5.95624C39.4291 7.13835 38.4594 8.10256 37.267 8.10256H2.6595C1.46714 8.10256 0.5 7.13843 0.5 5.95624V2.14606C0.5 0.9589 1.46714 0 2.6595 0ZM2.6595 21.2686H37.267C38.4593 21.2686 39.4291 22.2299 39.4291 23.4121V27.2275C39.4291 28.4096 38.4594 29.3685 37.267 29.3685H2.6595C1.46714 29.3685 0.5 28.4096 0.5 27.2275V23.4121C0.5 22.2299 1.46714 21.2686 2.6595 21.2686ZM22.1251 31.9027H2.6595C1.46714 31.9027 0.5 32.8616 0.5 34.0464V37.8592C0.5 39.0415 1.46714 40.0027 2.6595 40.0027H22.1253C23.3227 40.0027 24.2873 39.0415 24.2873 37.8592V34.0464C24.2873 32.8616 23.3227 31.9027 22.1251 31.9027ZM2.6595 10.6317H39.4291C40.624 10.6317 41.5884 11.5932 41.5884 12.7777V16.5907C41.5884 17.7728 40.624 18.7367 39.4291 18.7367H2.6595C1.46714 18.7367 0.5 17.7728 0.5 16.5907V12.7777C0.5 11.5932 1.46714 10.6317 2.6595 10.6317Z" fill="#09A5DB"/>
<path fill-rule="evenodd" clip-rule="evenodd" d="M210.277 26.7881L204.284 18.0591L209.412 11.3531C209.681 10.9666 209.75 10.596 209.627 10.2477C209.537 9.99689 209.295 9.69411 208.674 9.69411H204.62C204.391 9.69411 204.167 9.75067 203.952 9.85465C203.722 9.95408 203.515 10.1576 203.358 10.4241L199.26 16.1086H198.262V2.67607C198.262 2.39123 198.165 2.1562 197.98 1.955C197.792 1.77192 197.542 1.66803 197.262 1.66803H193.469C193.192 1.66803 192.947 1.772 192.744 1.95278C192.539 2.14723 192.431 2.38235 192.431 2.67607V27.473C192.431 27.7576 192.539 28.0064 192.744 28.1918C192.947 28.3838 193.192 28.4787 193.469 28.4787H197.262C197.542 28.4787 197.792 28.3838 197.98 28.1872C198.165 27.9972 198.262 27.7576 198.262 27.473V20.9049H199.36L203.835 27.6968C204.152 28.2165 204.594 28.4788 205.144 28.4788H209.39C210.034 28.4788 210.302 28.1761 210.41 27.9182C210.564 27.5543 210.518 27.1882 210.277 26.7881ZM147.706 22.6023C148.048 22.6203 148.339 22.8034 148.546 23.138L149.863 25.2492C150.216 25.8029 150.165 26.359 149.732 26.863C149.079 27.5455 148.258 28.0564 147.28 28.3932C146.301 28.7254 145.261 28.8948 144.166 28.8948C143.379 28.8948 142.577 28.782 141.794 28.5468C141.008 28.3162 140.31 27.9478 139.713 27.4686C139.116 26.9894 138.623 26.35 138.249 25.5903C137.876 24.8219 137.68 23.8884 137.68 22.8036V14.6826H135.493C135.205 14.6826 134.96 14.5739 134.769 14.348C134.588 14.1356 134.489 13.8938 134.489 13.6383V10.7407C134.489 10.4581 134.588 10.2164 134.769 10.0151C134.964 9.80046 135.205 9.69418 135.493 9.69418H137.68V5.04508C137.68 4.73769 137.795 4.47983 137.993 4.2923C138.2 4.10016 138.445 4.00747 138.722 4.00747H142.552C142.804 4.00747 143.036 4.10016 143.246 4.2923C143.453 4.47993 143.552 4.73769 143.552 5.04508V9.69418H148.483C148.766 9.69418 149.012 9.80046 149.233 9.99694C149.453 10.2028 149.559 10.4581 149.559 10.7407V13.6383C149.559 13.8983 149.453 14.1402 149.239 14.357C149.019 14.5739 148.766 14.6826 148.483 14.6826H143.552V21.5152C143.552 21.9378 143.611 22.2723 143.721 22.5208C143.836 22.7652 143.966 22.9572 144.128 23.086C144.288 23.2148 144.468 23.3099 144.644 23.346C144.84 23.3958 145.022 23.4139 145.18 23.4139C145.364 23.4139 145.589 23.3866 145.858 23.3099C146.13 23.2375 146.416 23.1065 146.727 22.9164C147.051 22.6973 147.386 22.5843 147.706 22.6023ZM131.983 18.5926C131.456 18.1316 130.824 17.7562 130.121 17.4761C129.419 17.1959 128.671 16.9743 127.888 16.8252L124.999 16.2577C124.258 16.12 123.743 15.9323 123.452 15.695C123.193 15.4894 123.065 15.252 123.065 14.9604C123.065 14.6553 123.247 14.4022 123.603 14.1784C123.995 13.939 124.54 13.8167 125.215 13.8167C125.96 13.8167 126.69 13.9637 127.372 14.2529C128.063 14.5469 128.712 14.8813 129.277 15.2543C130.119 15.7696 130.833 15.7017 131.348 15.1052L132.735 13.5206C133.019 13.2086 133.168 12.8697 133.168 12.5307C133.168 12.1759 132.987 11.8504 132.641 11.5542C132.053 11.0456 131.123 10.5055 129.878 9.9789C128.633 9.44322 127.066 9.17197 125.215 9.17197C124.001 9.17197 122.88 9.33481 121.889 9.65109C120.892 9.97207 120.039 10.415 119.348 10.9665C118.649 11.5316 118.1 12.1893 117.724 12.9466C117.353 13.6968 117.159 14.5196 117.159 15.3763C117.159 16.9335 117.636 18.2014 118.571 19.1486C119.505 20.073 120.752 20.7034 122.286 21.0109L125.287 21.6552C126.141 21.8245 126.789 22.0191 127.21 22.236C127.575 22.4214 127.75 22.6881 127.75 23.0609C127.75 23.3956 127.575 23.6916 127.214 23.9605C126.836 24.2498 126.239 24.3923 125.445 24.3923C124.578 24.3923 123.787 24.2135 123.076 23.8655C122.362 23.5153 121.714 23.0925 121.144 22.5931C120.876 22.3807 120.581 22.2224 120.273 22.1207C119.913 22.0167 119.509 22.1274 119.043 22.4847L117.384 23.7618C116.902 24.164 116.699 24.6498 116.79 25.2105C116.871 25.7485 117.33 26.3044 118.188 26.935C118.953 27.4685 119.935 27.9542 121.117 28.3701C122.299 28.7906 123.684 29.0053 125.255 29.0053C126.519 29.0053 127.687 28.845 128.714 28.5285C129.748 28.1984 130.653 27.7576 131.393 27.1926C132.141 26.6253 132.722 25.9292 133.127 25.138C133.53 24.3471 133.728 23.4813 133.728 22.575C133.728 21.6914 133.575 20.9116 133.258 20.256C132.943 19.6074 132.515 19.0469 131.983 18.5926ZM70.9297 11.8571C70.0876 11.0006 69.1036 10.3248 68.0049 9.86359C66.9038 9.4025 65.7286 9.172 64.5084 9.172C63.2317 9.172 62.0922 9.40933 61.1264 9.89076C60.3745 10.2591 59.7372 10.7271 59.2419 11.2718V10.7407C59.2419 10.4581 59.1406 10.2164 58.9605 10.0151C58.7644 9.80046 58.5236 9.69418 58.2353 9.69418H54.4889C54.196 9.69418 53.9528 9.80046 53.7663 10.0151C53.5792 10.2164 53.4824 10.4581 53.4824 10.7407V35.6529C53.4824 35.9332 53.5792 36.1773 53.7683 36.3718C53.9619 36.5614 54.196 36.6564 54.4888 36.6564H58.3096C58.5686 36.6564 58.8006 36.5614 59.0031 36.3718C59.2103 36.1818 59.3139 35.94 59.3139 35.6529V27.1499C59.8249 27.7149 60.5051 28.1467 61.3156 28.4428C62.3377 28.8224 63.387 29.0054 64.4274 29.0054C65.6544 29.0054 66.843 28.7773 67.9643 28.3162C69.0926 27.8438 70.0876 27.1703 70.9297 26.3047C71.7719 25.441 72.4519 24.379 72.9403 23.1719C73.4447 21.9515 73.688 20.5726 73.688 19.0698C73.688 17.5712 73.4447 16.1901 72.9403 14.9697C72.4517 13.7603 71.7719 12.7069 70.9297 11.8571ZM67.5006 20.8575C67.2867 21.3885 66.9849 21.8699 66.6023 22.2723C66.224 22.6747 65.7737 23.0023 65.2648 23.2239C64.7558 23.4522 64.184 23.5675 63.5694 23.5675C62.9749 23.5675 62.4053 23.4453 61.8874 23.2239C61.3652 23.0023 60.9011 22.6747 60.5093 22.2723C60.1222 21.8699 59.8136 21.3886 59.5998 20.8575C59.3857 20.3171 59.2733 19.7317 59.2733 19.1079C59.2733 18.4842 59.3857 17.8988 59.5998 17.3539C59.8136 16.8252 60.1222 16.3529 60.5093 15.9596C60.9011 15.5618 61.3652 15.2452 61.8896 15.0057C62.4143 14.7683 62.9749 14.6463 63.5693 14.6463C64.1839 14.6463 64.749 14.7683 65.26 15.0057C65.7736 15.2452 66.2238 15.5619 66.6089 15.9548C66.9848 16.3527 67.2866 16.8252 67.5005 17.3539C67.7145 17.8988 67.82 18.4842 67.82 19.1079C67.8201 19.7317 67.7146 20.3171 67.5006 20.8575ZM94.1974 9.69399H90.4103C90.1536 9.69399 89.9104 9.80029 89.71 9.99917C89.5096 10.2117 89.4037 10.458 89.4037 10.7406V11.1994C88.9783 10.6863 88.3994 10.2477 87.6882 9.89076C86.7333 9.40933 85.6144 9.172 84.3672 9.172C83.1647 9.172 81.9847 9.4025 80.868 9.86359C79.7423 10.3248 78.7314 10.9914 77.8646 11.8504C76.9999 12.7069 76.2973 13.7557 75.7729 14.9696C75.2529 16.181 74.9893 17.5665 74.9893 19.0696C74.9893 20.5724 75.2529 21.9514 75.7729 23.1719C76.2974 24.3788 76.9909 25.441 77.8464 26.3045C78.7023 27.1702 79.7063 27.8438 80.8297 28.3161C81.949 28.777 83.1286 29.0054 84.331 29.0054C85.5763 29.0054 86.7042 28.7637 87.6702 28.2891C88.3839 27.9295 88.9692 27.4912 89.4039 26.9803V27.4732C89.4039 27.7578 89.5097 28.0066 89.7169 28.1919C89.9196 28.3841 90.1537 28.4788 90.4103 28.4788H94.1974C94.4834 28.4788 94.7222 28.3841 94.911 28.1874C95.1024 27.9975 95.2016 27.7578 95.2016 27.4732V10.7406C95.2016 10.458 95.1047 10.2163 94.918 10.015C94.7312 9.80037 94.4834 9.69399 94.1974 9.69399ZM89.084 20.8349C88.8703 21.3885 88.5686 21.8609 88.1949 22.2541C87.812 22.6519 87.3549 22.9685 86.8482 23.208C86.3416 23.4453 85.7652 23.5673 85.1506 23.5673C84.5607 23.5673 83.9934 23.4453 83.473 23.208C82.9509 22.9685 82.496 22.6519 82.1111 22.2541C81.735 21.8699 81.4331 21.3885 81.2193 20.8349C81.0077 20.2854 80.8996 19.7024 80.8996 19.1079C80.8996 18.4842 81.0077 17.8988 81.2193 17.3539C81.4331 16.8206 81.735 16.3436 82.1111 15.9548C82.496 15.5618 82.9489 15.2452 83.473 15.0057C83.9934 14.7683 84.5607 14.6463 85.1506 14.6463C85.7652 14.6463 86.3417 14.7683 86.8482 15.0057C87.3549 15.2452 87.8119 15.5619 88.1949 15.9548C88.5686 16.3527 88.8703 16.8252 89.084 17.3539C89.2982 17.8988 89.4037 18.4842 89.4037 19.1079C89.4037 19.7024 89.298 20.2856 89.084 20.8349ZM165.518 9.69399H169.303C169.596 9.69399 169.839 9.80037 170.026 10.015C170.212 10.2163 170.309 10.458 170.309 10.7406V27.4732C170.309 27.7578 170.208 27.9975 170.021 28.1874C169.825 28.3841 169.587 28.4788 169.303 28.4788H165.518C165.259 28.4788 165.029 28.3841 164.827 28.1919C164.62 28.0066 164.518 27.7578 164.518 27.4732V26.9803C164.077 27.4912 163.501 27.9295 162.776 28.2891C161.812 28.7637 160.686 29.0054 159.43 29.0054C158.234 29.0054 157.059 28.777 155.938 28.3161C154.814 27.8438 153.808 27.1702 152.957 26.3045C152.099 25.441 151.405 24.3788 150.883 23.1719C150.361 21.9514 150.097 20.5724 150.097 19.0696C150.097 17.5665 150.361 16.181 150.883 14.9696C151.405 13.7557 152.108 12.7069 152.974 11.8504C153.842 10.9914 154.852 10.3248 155.978 9.86359C157.095 9.4025 158.275 9.172 159.47 9.172C160.727 9.172 161.841 9.40933 162.796 9.89076C163.507 10.2477 164.084 10.6863 164.518 11.1994V10.7406C164.518 10.458 164.62 10.2117 164.822 9.99917C165.029 9.80029 165.259 9.69399 165.518 9.69399ZM163.293 22.2541C163.676 21.8609 163.978 21.3885 164.19 20.8349C164.406 20.2856 164.518 19.7024 164.518 19.1079C164.518 18.4842 164.406 17.8988 164.19 17.3539C163.978 16.8252 163.676 16.3527 163.293 15.9548C162.918 15.5619 162.465 15.2452 161.95 15.0057C161.441 14.7683 160.878 14.6463 160.258 14.6463C159.669 14.6463 159.106 14.7683 158.583 15.0057C158.063 15.2452 157.604 15.5618 157.221 15.9548C156.845 16.3436 156.543 16.8206 156.327 17.3539C156.113 17.8988 156.008 18.4842 156.008 19.1079C156.008 19.7024 156.113 20.2854 156.327 20.8349C156.543 21.3885 156.845 21.8699 157.221 22.2541C157.604 22.6519 158.063 22.9685 158.583 23.208C159.106 23.4453 159.669 23.5673 160.258 23.5673C160.878 23.5673 161.441 23.4453 161.95 23.208C162.465 22.9685 162.918 22.6519 163.293 22.2541ZM187.935 21.2416L190.107 22.8894C190.367 23.0927 190.553 23.3459 190.668 23.6489C190.785 23.9697 190.763 24.3021 190.578 24.6366C189.781 25.9068 188.653 26.9579 187.212 27.7715C185.776 28.592 184.058 29.0054 182.13 29.0054C180.737 29.0054 179.404 28.7478 178.19 28.2392C176.963 27.7262 175.884 27.0166 174.984 26.1351C174.076 25.2559 173.363 24.1981 172.856 23.0023C172.345 21.7955 172.079 20.4823 172.079 19.108C172.079 17.7294 172.345 16.4139 172.856 15.2002C173.363 13.9796 174.076 12.9241 174.984 12.0404C175.884 11.1544 176.963 10.4515 178.19 9.94055C179.404 9.43213 180.737 9.17216 182.13 9.17216C184.058 9.17216 185.776 9.58806 187.212 10.3994C188.653 11.2222 189.781 12.271 190.571 13.5298C190.763 13.8688 190.785 14.2078 190.668 14.5424C190.553 14.8679 190.357 15.1119 190.096 15.2883L187.926 16.9382C187.521 17.2636 187.131 17.3539 186.784 17.2186C186.476 17.0919 186.215 16.9022 185.994 16.649C185.456 16.0137 184.895 15.5141 184.33 15.1639C183.774 14.8226 183.065 14.6463 182.216 14.6463C181.592 14.6463 181.02 14.7683 180.516 15.0057C180 15.2452 179.55 15.5618 179.172 15.9548C178.789 16.3436 178.494 16.8206 178.293 17.3539C178.091 17.892 177.992 18.4752 177.992 19.1079C177.992 19.7069 178.091 20.279 178.293 20.8212C178.501 21.3523 178.796 21.8338 179.172 22.2361C179.554 22.6477 180 22.9617 180.509 23.1878C181.02 23.4139 181.592 23.5268 182.216 23.5268C183.064 23.5268 183.783 23.355 184.33 23.016C184.895 22.6656 185.456 22.1638 185.989 21.5309C186.215 21.2778 186.476 21.0856 186.784 20.9613C187.124 20.8212 187.521 20.9116 187.935 21.2416ZM111.499 9.69407H115.74C116.317 9.69407 116.565 9.95627 116.67 10.1778C116.799 10.4693 116.799 10.8264 116.657 11.2581L110.425 31.4147C109.869 33.1846 108.954 34.6041 107.716 35.646C106.469 36.6971 104.848 37.2168 102.907 37.2168C101.759 37.2168 100.678 37.0474 99.7004 36.7014C98.7122 36.3533 97.8744 35.8675 97.2059 35.2437C96.8523 34.9362 96.546 34.3825 97.0977 33.535L98.4464 31.5707C98.7054 31.1753 99.025 30.9718 99.3966 30.9718H99.4417C99.7904 30.9877 100.113 31.0939 100.396 31.2904C100.691 31.5142 101.024 31.7042 101.394 31.8736C101.758 32.0341 102.134 32.1199 102.531 32.1199C103.013 32.1199 103.422 31.9843 103.789 31.7109C104.154 31.442 104.435 31.0396 104.616 30.5265L105.158 29.0053L105.345 28.4787H105.307H104.649H104.503H103.076C102.744 28.4787 102.477 28.3838 102.274 28.1917C102.087 28.0201 101.947 27.8029 101.86 27.5452L96.4876 11.258C96.3772 10.8898 96.3772 10.5325 96.4942 10.2296C96.627 9.87483 96.985 9.69398 97.5544 9.69398H101.947C102.263 9.69398 102.522 9.81606 102.702 10.0399C102.853 10.2431 102.965 10.4738 103.021 10.727L106.387 22.2971H107.153L110.28 10.7224C110.339 10.4693 110.465 10.2297 110.652 10.0308C110.852 9.81614 111.143 9.69407 111.499 9.69407Z" fill="#011B33"/>
</svg>
