<svg width="103" height="27" fill="none" xmlns="http://www.w3.org/2000/svg"><path d="M11.194 16.296a.76.76 0 0 0 .756-.764.76.76 0 0 0-.756-.763.76.76 0 0 0-.755.763.76.76 0 0 0 .755.764z" fill="#222"/><path d="M14.972 10.187h-.756V8.744a3.07 3.07 0 0 0-.885-2.16 3.006 3.006 0 0 0-2.137-.895c-.801 0-1.57.322-2.137.895a3.071 3.071 0 0 0-.885 2.16v1.443h-.755c-.602 0-1.178.241-1.603.671a2.303 2.303 0 0 0-.664 1.62v6.109c0 .607.239 1.19.664 1.62.425.429 1.001.67 1.603.67h7.555c.6 0 1.177-.241 1.603-.67.425-.43.663-1.013.663-1.62v-6.11c0-.607-.238-1.19-.663-1.619a2.255 2.255 0 0 0-1.603-.67zM9.683 8.744c-.01-.416.143-.82.427-1.121a1.549 1.549 0 0 1 1.084-.49c.412.012.802.188 1.085.49.283.302.436.705.426 1.12v1.444H9.683V8.744zm1.511 9.079c-.448 0-.886-.134-1.259-.386a2.285 2.285 0 0 1-.835-1.028 2.314 2.314 0 0 1 .491-2.497 2.245 2.245 0 0 1 2.47-.497c.415.174.769.468 1.018.844a2.309 2.309 0 0 1-.282 2.893c-.425.43-1.002.671-1.603.671zM24.6 5.687a.25.25 0 1 1 .5 0v15.19a.25.25 0 0 1-.5 0V5.688zm9.228 3.983h-.619V6.017h2.273v.582h-1.654v1.026h1.484v.572h-1.484V9.67zm4.79-.278c-.254.237-.58.356-.979.356-.398 0-.724-.119-.979-.356-.254-.237-.381-.569-.381-.995v-2.38h.613V8.36c0 .255.066.452.196.593.134.137.318.206.551.206.237 0 .421-.069.552-.206.13-.137.196-.335.196-.593V6.017h.618v2.38c0 .426-.129.758-.387.995zm3.77.278h-2.292V6.017h.618v3.066h1.675v.587zm3.117 0H43.21V6.017h.619v3.066h1.675v.587zm1.362-1.546l-1.278-2.107h.731l.876 1.53.882-1.53h.695l-1.288 2.107V9.67h-.618V8.124zm6.589-1.252l-.556.175a.712.712 0 0 0-.212-.386c-.117-.117-.285-.175-.505-.175a.672.672 0 0 0-.453.154.478.478 0 0 0-.175.371c0 .251.142.407.427.47l.526.107c.316.062.56.188.732.377a.97.97 0 0 1 .257.675c0 .302-.117.563-.35.783-.23.216-.545.325-.943.325-.43 0-.764-.112-1.005-.335a1.237 1.237 0 0 1-.407-.789l.577-.165c.02.206.103.38.247.52.145.142.34.212.588.212.213 0 .376-.046.49-.14a.454.454 0 0 0 .175-.365.422.422 0 0 0-.13-.31.695.695 0 0 0-.36-.185l-.515-.108a1.25 1.25 0 0 1-.68-.355.95.95 0 0 1-.248-.67c0-.306.122-.569.366-.789.244-.22.536-.33.876-.33.388 0 .685.095.892.284.206.185.334.402.386.65zm3.198 2.798h-2.257V6.017h2.257v.577h-1.639v.969H56.5v.561h-1.484v.97h1.638v.576zm2.608.078a1.82 1.82 0 0 1-1.309-.52c-.357-.348-.536-.808-.536-1.382 0-.57.182-1.03.547-1.38.364-.351.795-.527 1.293-.527.44 0 .8.112 1.082.335.285.224.473.507.562.85l-.583.196a1.054 1.054 0 0 0-.355-.577c-.179-.147-.414-.221-.706-.221-.326 0-.61.117-.85.35-.237.23-.356.555-.356.974 0 .409.119.73.356.964.237.23.522.345.855.345.285 0 .52-.077.706-.232.186-.155.313-.345.381-.572l.567.186c-.089.34-.278.627-.567.86-.285.234-.647.35-1.087.35zm4.823-.356c-.254.237-.58.356-.98.356-.398 0-.724-.119-.978-.356-.255-.237-.382-.569-.382-.995v-2.38h.614V8.36c0 .255.065.452.195.593.134.137.318.206.552.206.237 0 .42-.069.551-.206.13-.137.196-.335.196-.593V6.017h.618v2.38c0 .426-.129.758-.386.995zm3.322.278l-.768-1.443h-.454V9.67h-.623V6.017h1.401c.344 0 .62.106.83.32.21.209.314.472.314.788 0 .26-.073.484-.221.67-.148.185-.349.309-.603.37l.824 1.505h-.7zm-1.222-1.989h.665c.189 0 .34-.05.454-.15a.517.517 0 0 0 .175-.406.507.507 0 0 0-.175-.407.648.648 0 0 0-.454-.155h-.665v1.118zm5.097 1.99h-2.257V6.016h2.257v.577h-1.639v.969h1.484v.561h-1.484v.97h1.639v.576zm1.618-.568h.65c.336 0 .613-.106.83-.319.219-.216.329-.527.329-.933 0-.409-.108-.721-.325-.938a1.114 1.114 0 0 0-.83-.33H72.9v2.52zm.67.567h-1.288V6.017h1.293c.516 0 .94.163 1.273.49.337.326.505.774.505 1.344 0 .567-.168 1.012-.505 1.335-.337.323-.763.484-1.278.484zm-36.028 4.9l-1.2.338a.92.92 0 0 0-.278-.515c-.157-.158-.397-.237-.717-.237-.242 0-.44.065-.592.194a.56.56 0 0 0-.227.448c0 .31.197.5.59.574l.803.152c.551.101.976.318 1.275.65.304.327.456.71.456 1.148 0 .501-.2.943-.6 1.326-.4.377-.937.566-1.612.566-.755 0-1.34-.194-1.757-.583-.41-.394-.642-.838-.692-1.334l1.224-.295c.028.298.144.546.346.743.209.191.507.287.895.287.26 0 .465-.057.617-.17a.553.553 0 0 0 .228-.455.49.49 0 0 0-.17-.38.927.927 0 0 0-.472-.22l-.819-.152c-.507-.095-.906-.3-1.199-.616a1.633 1.633 0 0 1-.43-1.14c0-.551.21-1.01.633-1.376a2.231 2.231 0 0 1 1.511-.549c.355 0 .67.05.946.152a1.7 1.7 0 0 1 .667.388c.163.164.29.333.38.507.095.174.16.357.194.549zm5.145 0l-1.199.338a.92.92 0 0 0-.278-.515c-.158-.158-.397-.237-.718-.237-.242 0-.44.065-.591.194a.56.56 0 0 0-.228.448c0 .31.197.5.591.574l.802.152c.552.101.977.318 1.275.65.304.327.456.71.456 1.148 0 .501-.2.943-.6 1.326-.4.377-.937.566-1.612.566-.755 0-1.34-.194-1.757-.583-.41-.394-.641-.838-.692-1.334l1.224-.295c.029.298.144.546.347.743.208.191.506.287.895.287.259 0 .464-.057.616-.17a.552.552 0 0 0 .228-.455.49.49 0 0 0-.169-.38.927.927 0 0 0-.473-.22l-.819-.152c-.506-.095-.906-.3-1.199-.616a1.633 1.633 0 0 1-.43-1.14c0-.551.21-1.01.633-1.376a2.231 2.231 0 0 1 1.511-.549c.355 0 .67.05.946.152a1.7 1.7 0 0 1 .667.388c.163.164.29.333.38.507.096.174.16.357.194.549zm4.943 4.517h-3.918v-5.986h1.334v4.711h2.584v1.275zm5.704.127c-.879 0-1.616-.287-2.213-.861-.596-.58-.895-1.329-.895-2.246 0-.912.302-1.661.904-2.246.602-.591 1.331-.887 2.187-.887.428 0 .813.065 1.157.194.349.124.63.29.844.498.214.209.386.422.515.642.13.22.22.448.27.684l-1.258.397a1.374 1.374 0 0 0-.135-.346 1.591 1.591 0 0 0-.262-.355 1.16 1.16 0 0 0-.464-.296 1.783 1.783 0 0 0-.667-.118c-.45 0-.847.16-1.19.482-.344.315-.516.765-.516 1.35 0 .541.169.972.507 1.292.337.321.743.482 1.216.482.461 0 .819-.116 1.072-.346.253-.231.42-.49.498-.777l1.275.363a2.61 2.61 0 0 1-.279.684 2.996 2.996 0 0 1-.515.667c-.213.22-.5.4-.86.54a3.322 3.322 0 0 1-1.191.203zm8.827-.127H60.82v-2.38h-2.39v2.38h-1.334v-5.986h1.334v2.347h2.39v-2.347h1.342v5.986zm5.091 0h-3.8v-5.986h3.792v1.258h-2.457v1.14h2.229v1.173h-2.23v1.149h2.466v1.266zm3.876.127c-.878 0-1.616-.287-2.212-.861-.597-.58-.895-1.329-.895-2.246 0-.912.3-1.661.903-2.246.602-.591 1.331-.887 2.187-.887.428 0 .813.065 1.157.194.349.124.63.29.844.498.214.209.386.422.515.642.13.22.22.448.27.684l-1.258.397a1.374 1.374 0 0 0-.135-.346 1.591 1.591 0 0 0-.261-.355 1.16 1.16 0 0 0-.465-.296 1.783 1.783 0 0 0-.667-.118c-.45 0-.847.16-1.19.482-.344.315-.516.765-.516 1.35 0 .541.17.972.507 1.292.338.321.743.482 1.216.482.462 0 .819-.116 1.072-.346.254-.231.42-.49.498-.777l1.275.363a2.61 2.61 0 0 1-.278.684 2.999 2.999 0 0 1-.515.667c-.214.22-.501.4-.862.54a3.323 3.323 0 0 1-1.19.203zm7.384-.127l-1.613-2.356-.676.752v1.604H74.89v-5.986h1.334v2.516L78.41 13.1h1.757l-2.33 2.592 2.338 3.394h-1.663z" fill="#222"/><path d="M82.034 14.747c-.344.31-.516.757-.516 1.343 0 .585.172 1.033.516 1.342.348.31.754.465 1.215.465.462 0 .864-.155 1.208-.465.343-.31.515-.757.515-1.342 0-.586-.172-1.033-.515-1.343a1.728 1.728 0 0 0-1.208-.473c-.461 0-.867.158-1.215.473zm-1.9 1.351c0-.929.3-1.68.903-2.254.608-.58 1.345-.87 2.212-.87.867 0 1.602.29 2.204.87.602.58.904 1.331.904 2.254s-.302 1.675-.904 2.255c-.602.574-1.337.86-2.204.86-.867 0-1.604-.286-2.212-.86-.602-.58-.903-1.332-.903-2.255zm11.192 2.525c-.444.4-1.01.6-1.697.6s-1.255-.2-1.705-.6c-.445-.405-.667-.971-.667-1.697V13.1h1.334v3.715c0 .355.09.625.27.81.186.186.442.28.768.28.327 0 .58-.094.76-.28.186-.185.279-.456.279-.81V13.1h1.334v3.825c0 .726-.225 1.292-.675 1.697zm6.502-4.247h-1.85v4.711h-1.333v-4.711h-1.841V13.1h5.024v1.275z" fill="#222"/><rect x=".5" y=".785" width="101.978" height="24.996" rx="2.5" stroke="#222"/></svg>