<svg width="109" height="27" fill="none" xmlns="http://www.w3.org/2000/svg"><path d="M15.847 13.308c0-.55.073-.98.22-1.29.183-.367.473-.55.87-.55.396 0 .686.183.87.55.152.304.229.735.229 1.29 0 .556-.077.986-.23 1.291-.183.367-.473.55-.87.55-.396 0-.686-.183-.87-.55-.146-.311-.219-.741-.219-1.29zm5.741 0c0-.55.073-.98.22-1.29.183-.367.473-.55.87-.55.396 0 .686.183.87.55.152.304.229.735.229 1.29 0 .556-.077.986-.23 1.291-.183.367-.473.55-.87.55-.396 0-.686-.183-.87-.55-.146-.311-.219-.741-.219-1.29zm5.287-1.126a.614.614 0 0 1-.155-.44.59.59 0 0 1 .155-.42.548.548 0 0 1 .403-.166c.159 0 .29.055.394.165.104.11.155.25.155.421a.634.634 0 0 1-.155.44.518.518 0 0 1-.394.165.53.53 0 0 1-.403-.165zm4.185 3.132a.614.614 0 0 1-.156-.44c0-.17.052-.311.156-.421a.548.548 0 0 1 .403-.165c.159 0 .29.055.393.165.104.11.156.25.156.421a.634.634 0 0 1-.155.44.518.518 0 0 1-.394.164.529.529 0 0 1-.403-.164z" fill="#222"/><path fill-rule="evenodd" clip-rule="evenodd" d="M8.123 5.303a1.995 1.995 0 0 0-1.995 1.995v11.97c0 1.101.893 1.994 1.995 1.994h27.93a1.995 1.995 0 0 0 1.994-1.995V7.297a1.995 1.995 0 0 0-1.994-1.994H8.123zm3.726 10.972h1.437v-5.943H12.05c-.055.312-.232.574-.531.788-.293.213-.656.323-1.09.33v.96h1.42v3.865zm2.551-2.967c0 .873.174 1.572.522 2.097.458.678 1.13 1.017 2.015 1.017.891 0 1.566-.34 2.023-1.017.348-.525.522-1.224.522-2.097s-.174-1.572-.522-2.097c-.445-.677-1.12-1.016-2.023-1.016-.898 0-1.57.339-2.015 1.016-.348.525-.522 1.224-.522 2.097zm5.741 0c0 .873.174 1.572.522 2.097.458.678 1.13 1.017 2.015 1.017.89 0 1.566-.34 2.023-1.017.348-.525.522-1.224.522-2.097s-.174-1.572-.522-2.097c-.445-.677-1.12-1.016-2.023-1.016-.898 0-1.57.339-2.015 1.016-.348.525-.522 1.224-.522 2.097zm6.047-2.637c-.305.293-.457.65-.457 1.071 0 .428.15.788.448 1.08.3.294.663.44 1.09.44.433 0 .8-.143 1.099-.43a1.45 1.45 0 0 0 .458-1.09c0-.42-.153-.778-.458-1.071a1.503 1.503 0 0 0-1.09-.449c-.421 0-.784.15-1.09.449zm4.185 3.132c-.305.293-.458.65-.458 1.071 0 .427.15.787.449 1.08.3.294.662.44 1.09.44.433 0 .8-.143 1.098-.43a1.45 1.45 0 0 0 .458-1.09c0-.421-.152-.778-.458-1.071a1.503 1.503 0 0 0-1.09-.449c-.42 0-.784.15-1.089.449zm-3.663 2.472h1.172l4.167-5.943h-1.181l-4.158 5.943z" fill="#222"/><path d="M43.166 5.552a.25.25 0 1 1 .5 0v15.461a.25.25 0 1 1-.5 0V5.553zm9.425 14.109h-.472l-.044-.439a1.021 1.021 0 0 1-.399.366c-.182.097-.4.146-.657.146-.47 0-.871-.163-1.202-.487-.331-.328-.497-.766-.497-1.314 0-.364.083-.685.248-.964.17-.28.383-.487.643-.623.26-.14.542-.21.847-.21.399 0 .733.1 1.002.297.273.198.458.45.555.755l-.55.21a1.001 1.001 0 0 0-1.007-.721c-.309 0-.576.108-.803.326-.227.217-.341.527-.341.93 0 .399.11.71.33.934.222.22.49.331.809.331.312 0 .548-.08.71-.243.166-.166.259-.342.278-.53h-1.139v-.512h1.69v1.748zm3.122-.263c-.24.224-.548.336-.925.336-.376 0-.684-.112-.924-.336-.24-.224-.36-.537-.36-.94V16.21h.579v2.214c0 .24.061.427.185.56.126.13.3.195.52.195.224 0 .398-.065.521-.195s.185-.316.185-.56V16.21h.584v2.25c0 .402-.121.715-.365.939zm3.618.263l-.326-.867h-1.46l-.321.867h-.619l1.344-3.452h.677l1.343 3.452h-.638zm-1.056-2.819l-.526 1.412h1.052l-.526-1.412zm4.142 2.819l-.725-1.363h-.429v1.363h-.589v-3.452h1.324c.325 0 .586.101.784.302.198.198.297.447.297.745 0 .247-.07.458-.21.633-.139.175-.329.292-.569.35l.779 1.422h-.662zm-1.154-1.88h.628a.626.626 0 0 0 .429-.14.488.488 0 0 0 .165-.385.48.48 0 0 0-.165-.384.613.613 0 0 0-.429-.146h-.628v1.056zm5.03 1.88l-.327-.867h-1.46l-.321.867h-.619l1.344-3.452h.677l1.343 3.452h-.638zm-1.057-2.819l-.526 1.412h1.052l-.526-1.412zm5.296 2.819h-.609l-1.704-2.614v2.614h-.584v-3.452h.745l1.568 2.449v-2.449h.584v3.452zm3.546-2.901h-1.124v2.9h-.584v-2.9h-1.12v-.55h2.828v.55zm2.855 2.9H74.8v-3.45h2.132v.545h-1.548v.915h1.402v.53h-1.402v.916h1.548v.545zm3.076 0h-2.132v-3.45h2.132v.545h-1.548v.915h1.402v.53h-1.402v.916h1.548v.545zm-23.875-6.047h-1.236V9.865l-1.475 3.748h-1.021l-1.476-3.7v3.7H49.73V7.958h1.643l1.555 3.82 1.476-3.82h1.73v5.655zm2.697-4.1c-.325.293-.487.716-.487 1.269 0 .553.162.976.486 1.268.33.292.713.439 1.149.439.436 0 .816-.147 1.14-.439.325-.292.487-.715.487-1.268s-.162-.976-.486-1.268a1.632 1.632 0 0 0-1.141-.447 1.66 1.66 0 0 0-1.148.447zm-1.795 1.277c0-.877.284-1.587.853-2.13.575-.547 1.271-.821 2.09-.821s1.513.274 2.082.821c.569.548.853 1.258.853 2.13 0 .872-.284 1.582-.853 2.13-.57.542-1.263.813-2.082.813s-1.515-.271-2.09-.814c-.569-.547-.853-1.257-.853-2.13zm11.69 2.823h-1.333l-2.329-3.716v3.716h-1.252V7.958h1.532l2.121 3.438V7.958h1.26v5.655zm4.805 0h-3.589V7.958h3.581v1.189h-2.32v1.077h2.105v1.108h-2.106v1.085h2.33v1.196zm2.559-2.36l-1.962-3.295h1.475l1.157 2.098 1.172-2.098h1.404l-1.986 3.294v2.361h-1.26v-2.36zm5.902-3.295h2.113c.548 0 .978.141 1.292.423.314.282.47.646.47 1.093 0 .282-.079.534-.239.758-.154.223-.35.374-.59.454.277.064.513.216.71.455.197.234.295.524.295.87 0 .467-.165.853-.494 1.156-.325.297-.75.446-1.276.446h-2.281V7.958zm1.228 2.266h.686c.223 0 .399-.054.526-.16a.563.563 0 0 0 .2-.455.54.54 0 0 0-.192-.438c-.127-.112-.31-.168-.55-.168h-.67v1.22zm0 2.36h.79c.244 0 .435-.058.574-.175a.618.618 0 0 0 .207-.487.609.609 0 0 0-.207-.478c-.139-.122-.33-.184-.575-.184h-.79v1.324zm7.358 1.03l-.407-1.15h-2.185l-.407 1.15h-1.324l2.13-5.656h1.46l2.105 5.655h-1.372zm-1.484-4.252l-.693 1.954h1.371l-.678-1.954zm5.85 4.37c-.83 0-1.527-.27-2.09-.813-.564-.547-.846-1.255-.846-2.121 0-.862.285-1.569.854-2.122a2.841 2.841 0 0 1 2.065-.837c.404 0 .769.06 1.093.183.33.117.596.274.798.47.202.198.364.4.486.607.123.207.208.423.255.646l-1.188.375a1.303 1.303 0 0 0-.128-.327 1.505 1.505 0 0 0-.247-.335 1.096 1.096 0 0 0-.438-.28 1.684 1.684 0 0 0-.63-.11c-.426 0-.8.15-1.125.454-.325.297-.487.723-.487 1.276 0 .51.16.917.479 1.22.319.303.702.455 1.148.455.436 0 .774-.11 1.013-.327.24-.218.396-.463.47-.734l1.205.343a2.47 2.47 0 0 1-.263.646c-.117.213-.28.423-.486.63a2.27 2.27 0 0 1-.814.51c-.335.128-.71.192-1.125.192zm6.974-.119l-1.523-2.225-.638.71v1.515h-1.26V7.958h1.26v2.377l2.065-2.377h1.659l-2.201 2.449 2.209 3.206h-1.571z" fill="#222"/><rect x="1.477" y=".652" width="106.664" height="25.262" rx="2.494" stroke="#222" stroke-width=".997"/></svg>