<svg width="109" height="27" fill="none" xmlns="http://www.w3.org/2000/svg"><path fill-rule="evenodd" clip-rule="evenodd" d="M55.554 18.713h-1.246l.964-2.381-1.919-4.842h1.317l1.206 3.295 1.215-3.295h1.316l-2.853 7.223zm-4.783-2.08c-.431 0-.874-.16-1.275-.472v.352H48.21V9.29h1.286v2.543c.4-.302.844-.463 1.275-.463 1.346 0 2.27 1.085 2.27 2.632 0 1.547-.924 2.632-2.27 2.632zm-.271-4.16c-.351 0-.703.152-1.004.453v2.15c.3.301.653.452 1.004.452.724 0 1.226-.623 1.226-1.527 0-.904-.502-1.527-1.226-1.527zm-7.496 3.688c-.391.312-.833.472-1.275.472-1.337 0-2.27-1.085-2.27-2.632 0-1.547.933-2.632 2.27-2.632.442 0 .884.16 1.275.463V9.288h1.297v7.224h-1.297v-.352zm0-3.235c-.291-.301-.642-.452-.994-.452-.734 0-1.236.623-1.236 1.527 0 .904.502 1.527 1.236 1.527.352 0 .703-.151.994-.452v-2.15zm-7.655 1.427c.08.763.683 1.286 1.526 1.286.463 0 .975-.171 1.497-.473v1.076a4.102 4.102 0 0 1-1.708.391c-1.517 0-2.581-1.105-2.581-2.672 0-1.517 1.044-2.592 2.481-2.592 1.317 0 2.21 1.035 2.21 2.511 0 .141 0 .302-.02.473H35.35zm1.166-1.99c-.624 0-1.106.463-1.166 1.156h2.19c-.04-.683-.452-1.156-1.025-1.156zm-4.552.795v3.355h-1.286V11.49h1.286v.502c.361-.402.803-.623 1.235-.623.141 0 .282.01.422.05v1.146c-.14-.04-.3-.06-.452-.06-.422 0-.874.23-1.205.652zm-5.737 1.195c.08.763.683 1.286 1.527 1.286.462 0 .974-.171 1.497-.473v1.076a4.109 4.109 0 0 1-1.708.391c-1.517 0-2.582-1.105-2.582-2.672 0-1.517 1.045-2.592 2.482-2.592 1.315 0 2.21 1.035 2.21 2.511 0 .141 0 .302-.02.473h-3.406zm1.165-1.99c-.622 0-1.105.463-1.165 1.156h2.19c-.04-.683-.452-1.156-1.025-1.156zm-5.656 4.15l-1.026-3.416-1.014 3.416h-1.156l-1.728-5.023h1.286l1.015 3.415 1.015-3.415h1.165l1.014 3.415 1.015-3.415h1.286l-1.717 5.023h-1.155zm-7.858.12c-1.517 0-2.592-1.095-2.592-2.632 0-1.547 1.075-2.632 2.592-2.632 1.517 0 2.582 1.085 2.582 2.632 0 1.537-1.065 2.632-2.582 2.632zm0-4.189c-.753 0-1.276.633-1.276 1.557 0 .925.523 1.557 1.276 1.557.744 0 1.266-.633 1.266-1.557 0-.924-.522-1.557-1.266-1.557zM8.23 14.031H7.075v2.482H5.79V9.6H8.23c1.407 0 2.412.915 2.412 2.221s-1.005 2.21-2.412 2.21zm-.18-3.385h-.975v2.34h.975c.743 0 1.266-.472 1.266-1.165 0-.703-.523-1.175-1.266-1.175zm95.633 3.88h-5.307c.122 1.27 1.052 1.644 2.109 1.644 1.076 0 1.924-.227 2.663-.6v2.184c-.736.409-1.709.703-3.004.703-2.641 0-4.491-1.654-4.491-4.922 0-2.761 1.57-4.953 4.148-4.953 2.574 0 3.919 2.19 3.919 4.967 0 .262-.024.83-.037.976zm-3.9-3.734c-.677 0-1.43.511-1.43 1.732h2.802c0-1.22-.706-1.732-1.371-1.732zm-8.518 7.665c-.949 0-1.528-.4-1.918-.686l-.005 3.068-2.71.576-.002-12.653h2.387l.141.67c.375-.35 1.061-.85 2.123-.85 1.904 0 3.697 1.714 3.697 4.87 0 3.445-1.774 5.005-3.713 5.005zm-.632-7.474c-.621 0-1.012.227-1.294.537l.016 4.028c.264.285.642.514 1.278.514 1.003 0 1.675-1.09 1.675-2.55 0-1.418-.683-2.53-1.675-2.53zm-7.92-2.22h2.72v9.5h-2.72v-9.5zm0-3.035l2.72-.578v2.208l-2.72.579V5.728zm-2.901 6.094v6.44h-2.71v-9.5h2.344l.17.801c.635-1.166 1.901-.93 2.262-.8v2.492c-.344-.112-1.426-.274-2.067.567zm-5.81 3.108c0 1.597 1.71 1.1 2.057.962v2.206c-.361.198-1.016.359-1.902.359-1.608 0-2.816-1.185-2.816-2.79l.012-8.696L74 6.408 74 8.762h2.059v2.311H74v3.857zm-3.379.462c0 1.952-1.553 3.065-3.807 3.065a7.526 7.526 0 0 1-2.964-.615v-2.588c.91.494 2.068.866 2.967.866.604 0 1.04-.163 1.04-.664 0-1.293-4.12-.806-4.12-3.807 0-1.919 1.465-3.067 3.663-3.067.898 0 1.796.137 2.694.495v2.554c-.825-.446-1.872-.698-2.696-.698-.568 0-.921.164-.921.587 0 1.22 4.144.64 4.144 3.872z" fill="#222"/><rect x="1.138" y=".499" width="107.233" height="25.568" rx="2.365" stroke="#222" stroke-width=".997"/></svg>