<svg xmlns="http://www.w3.org/2000/svg" width="822" height="222" viewBox="0 0 822 222"><g transform="translate(-149 -388)"><rect width="822" height="222" rx="40" transform="translate(149 388)" fill="#fff"/><g transform="translate(395 419)"><g transform="translate(0 58.504)"><path d="M251.846,139.259c-19.453,14.338-47.648,21.988-71.924,21.988a130.151,130.151,0,0,1-87.865-33.528c-1.821-1.647-.189-3.89,2-2.608,25.019,14.557,55.954,23.314,87.909,23.314a174.811,174.811,0,0,0,67.057-13.711c3.293-1.4,6.047,2.157,2.827,4.546" transform="translate(-44.175 -60.371)" fill="#f90" fill-rule="evenodd"/><path d="M395.325,126.725c-2.477-3.176-16.436-1.5-22.7-.758-1.909.233-2.2-1.428-.481-2.623,11.118-7.825,29.361-5.566,31.489-2.943s-.554,20.924-11,29.652c-1.6,1.341-3.133.627-2.419-1.151,2.346-5.858,7.606-18.986,5.115-22.177" transform="translate(-179.567 -57.089)" fill="#f90" fill-rule="evenodd"/><path d="M373.168,12.41V4.8a1.877,1.877,0,0,1,1.923-1.923h34.053A1.9,1.9,0,0,1,411.112,4.8v6.513c-.015,1.093-.933,2.521-2.565,4.779L390.9,41.29c6.557-.16,13.478.816,19.424,4.167a3.465,3.465,0,0,1,1.807,2.958v8.116c0,1.107-1.224,2.4-2.506,1.734a39.228,39.228,0,0,0-35.977.058c-1.18.641-2.419-.641-2.419-1.749V48.867a9.2,9.2,0,0,1,1.253-5.231l20.444-29.317H375.135a1.884,1.884,0,0,1-1.967-1.909" transform="translate(-179.675 -1.395)" fill-rule="evenodd"/><path d="M122.794,58.953h-10.36a1.957,1.957,0,0,1-1.851-1.763V4.02a1.945,1.945,0,0,1,2-1.909h9.661a1.951,1.951,0,0,1,1.88,1.778v6.95h.189c2.521-6.717,7.257-9.85,13.639-9.85,6.484,0,10.535,3.133,13.449,9.85A15.3,15.3,0,0,1,177.7,6.8c3.279,4.473,2.608,10.972,2.608,16.669l-.015,33.557a1.957,1.957,0,0,1-2,1.923H167.951a1.969,1.969,0,0,1-1.865-1.923V28.849c0-2.244.2-7.839-.291-9.967-.772-3.57-3.089-4.575-6.091-4.575a6.882,6.882,0,0,0-6.193,4.357c-1.064,2.681-.962,7.169-.962,10.185V57.03a1.957,1.957,0,0,1-2,1.923H140.207a1.959,1.959,0,0,1-1.865-1.923l-.015-28.18c0-5.93.976-14.658-6.382-14.658-7.446,0-7.155,8.51-7.155,14.658V57.03a1.957,1.957,0,0,1-2,1.923" transform="translate(-53.523 -0.479)" fill-rule="evenodd"/><path d="M483.469.989c15.373,0,23.693,13.2,23.693,29.987,0,16.218-9.194,29.084-23.693,29.084-15.1,0-23.314-13.2-23.314-29.652,0-16.553,8.32-29.419,23.314-29.419m.087,10.855c-7.635,0-8.116,10.4-8.116,16.888s-.1,20.37,8.029,20.37c8.029,0,8.408-11.191,8.408-18.01,0-4.488-.189-9.85-1.545-14.1-1.166-3.7-3.483-5.144-6.776-5.144" transform="translate(-222.715 -0.479)" fill-rule="evenodd"/><path d="M578.444,58.953H568.128a1.969,1.969,0,0,1-1.865-1.923l-.015-53.185a1.96,1.96,0,0,1,2-1.734h9.6A1.983,1.983,0,0,1,579.7,3.6v8.131h.189c2.9-7.271,6.965-10.739,14.12-10.739,4.648,0,9.18,1.676,12.094,6.266,2.71,4.255,2.71,11.409,2.71,16.553v33.47a1.99,1.99,0,0,1-2,1.676H596.425a1.962,1.962,0,0,1-1.836-1.676V28.4c0-5.814.67-14.323-6.484-14.323a6.771,6.771,0,0,0-5.989,4.255c-1.457,3.249-1.647,6.484-1.647,10.069V57.029a1.992,1.992,0,0,1-2.025,1.923" transform="translate(-274.064 -0.479)" fill-rule="evenodd"/><path d="M661.3,100.6a5.106,5.106,0,1,1,5.1,4.852,4.971,4.971,0,0,1-5.1-4.852" transform="translate(-320.07 -46.348)" fill-rule="evenodd"/><path d="M872.221,58.666a1.95,1.95,0,0,1-1.924-1.923V3.573a1.92,1.92,0,0,1,1.851-1.749h3.8a1.946,1.946,0,0,1,1.982,1.749v7.752C880.643,5.176,885.685.368,892.052.368h.772c6.761,0,11.7,4.983,13.537,12.225C909.232,5.438,914.623.368,921.734.368h.787c5.027,0,9.865,3.235,12.371,8.16,2.419,4.706,2.331,10.972,2.331,16.232l-.015,31.983a1.946,1.946,0,0,1-1.85,1.923h-4.546a1.988,1.988,0,0,1-1.923-1.661V24.759c0-3.8.19-7.839-1.355-11.307-1.574-3.541-4.59-5.756-7.825-5.916-3.614.175-6.936,2.812-9.092,6.368-2.8,4.59-2.7,8.728-2.7,14.09v29.04a1.992,1.992,0,0,1-1.851,1.632h-4.517a1.963,1.963,0,0,1-1.938-1.923l-.029-34.111c0-3.133-.19-6.819-1.632-9.631a9.7,9.7,0,0,0-7.825-5.464c-3.264.189-6.557,2.681-8.51,5.581-2.521,3.7-3,8.276-3,12.983V56.743a1.969,1.969,0,0,1-1.865,1.923h-4.532" transform="translate(-421.224 -0.178)" fill-rule="evenodd"/><path d="M793.568,59.774c-14.7,0-21.289-14.994-21.289-29.987,0-15.766,7.737-29.419,22.542-29.419h.787c14.4,0,21.565,14.542,21.565,29.536,0,15.882-7.941,29.871-22.833,29.871h-.772m1.078-7.271c4.838-.16,8.655-3.162,10.914-8.16,2.025-4.488,2.419-9.631,2.419-14.557,0-5.362-.583-10.957-3.1-15.547a12.553,12.553,0,0,0-10.244-6.7c-4.575.16-8.67,3.264-10.724,8.043-1.851,4.138-2.419,9.631-2.419,14.207,0,5.144.67,11.089,2.8,15.562a12.268,12.268,0,0,0,10.36,7.154" transform="translate(-373.783 -0.178)" fill-rule="evenodd"/><path d="M704.709,52.27c6.6-.2,10.069-5.493,11.5-12.342a2.021,2.021,0,0,1,1.909-1.515l4.357-.015a1.843,1.843,0,0,1,1.894,1.792c-2.011,11.671-9.049,19.584-19.074,19.584h-.787c-14.6,0-20.9-14.658-20.9-29.536,0-14.76,6.382-29.871,20.983-29.871h.787c10.141,0,17.369,7.81,18.943,19.481a1.906,1.906,0,0,1-1.778,1.734l-4.561-.058a2.12,2.12,0,0,1-1.734-1.865c-1.093-6.513-4.838-11.7-11.074-11.9-9.923.321-12.75,12.531-12.75,21.929,0,9.049,2.361,22.265,12.284,22.585" transform="translate(-330.867 -0.178)" fill-rule="evenodd"/><path d="M293.742,33.077c0,4.036.1,7.4-1.938,10.987-1.647,2.914-4.269,4.706-7.169,4.706-3.978,0-6.309-3.031-6.309-7.5,0-8.83,7.912-10.433,15.417-10.433v2.244M304.19,58.328a2.163,2.163,0,0,1-2.448.248c-3.439-2.856-4.065-4.182-5.945-6.907-5.683,5.8-9.719,7.533-17.078,7.533-8.728,0-15.5-5.377-15.5-16.145A17.583,17.583,0,0,1,274.26,26.126c5.625-2.477,13.478-2.914,19.482-3.6V21.187c0-2.463.189-5.377-1.268-7.5a6.9,6.9,0,0,0-5.814-2.7c-3.949,0-7.461,2.025-8.32,6.222a2.167,2.167,0,0,1-1.807,1.894l-10.04-1.078a1.826,1.826,0,0,1-1.545-2.171C267.252,3.672,278.268,0,288.118,0c5.042,0,11.628,1.341,15.606,5.158,5.042,4.706,4.561,10.987,4.561,17.82V39.124c0,4.852,2.011,6.98,3.905,9.6.656.933.8,2.055-.044,2.754-2.113,1.763-5.872,5.042-7.941,6.878l-.015-.029" transform="translate(-127.396 0)" fill-rule="evenodd"/><path d="M30.527,33.077c0,4.036.1,7.4-1.938,10.987-1.647,2.914-4.255,4.706-7.169,4.706-3.978,0-6.295-3.031-6.295-7.5,0-8.83,7.912-10.433,15.4-10.433v2.244M40.975,58.328a2.163,2.163,0,0,1-2.448.248c-3.439-2.856-4.051-4.182-5.945-6.907C26.9,57.469,22.877,59.2,15.5,59.2,6.79,59.2,0,53.826,0,43.058A17.6,17.6,0,0,1,11.045,26.126c5.625-2.477,13.478-2.914,19.482-3.6V21.187c0-2.463.189-5.377-1.253-7.5a6.932,6.932,0,0,0-5.814-2.7c-3.949,0-7.475,2.025-8.335,6.222A2.168,2.168,0,0,1,13.333,19.1L3.279,18.025a1.835,1.835,0,0,1-1.545-2.171C4.051,3.672,15.052,0,24.9,0,29.944,0,36.53,1.341,40.508,5.159c5.042,4.706,4.561,10.987,4.561,17.82V39.124c0,4.852,2.011,6.98,3.905,9.6.67.933.816,2.055-.029,2.754-2.113,1.763-5.872,5.042-7.941,6.878l-.029-.029" transform="translate(0 0)" fill-rule="evenodd"/></g><text transform="translate(0 29)" font-size="30" font-family="AmazonEmber-Regular, Amazon Ember"><tspan x="0" y="0">Buy now at</tspan></text></g><path d="M122,25.417V96.583A25.416,25.416,0,0,1,96.583,122H25.417A25.419,25.419,0,0,1,0,96.583V25.417A25.419,25.419,0,0,1,25.417,0H96.583A25.416,25.416,0,0,1,122,25.417Z" transform="translate(209 438)"/><path d="M68.556,67.392a61.872,61.872,0,0,1-28.8,7.43A64.327,64.327,0,0,1,2.013,62.2c-.944-.688-1.639.525-.855,1.417,9.964,11.33,23.117,18.143,37.731,18.143,10.427,0,22.531-4.136,30.884-11.9,1.383-1.284.2-3.219-1.216-2.463Zm2.282,7.549c-.31.773.354,1.09,1.056.5,4.561-3.815,5.74-11.807,4.807-12.959s-8.9-2.133-13.762,1.284c-.749.525-.62,1.25.211,1.148,2.742-.327,8.84-1.063,9.923.334S71.864,72.383,70.839,74.941Z" transform="translate(231.182 458)" fill="#f90" fill-rule="evenodd"/><path d="M45.579,34.372c0,4.2.1,7.685-2.013,11.415-1.71,3.035-4.432,4.9-7.447,4.9-4.136,0-6.547-3.148-6.547-7.808,0-9.17,8.227-10.84,16.011-10.84v2.333ZM56.433,60.62a2.211,2.211,0,0,1-2.538.252c-3.584-2.971-4.217-4.347-6.18-7.174-5.907,6.019-10.09,7.825-17.745,7.825-9.061,0-16.116-5.59-16.116-16.777a18.289,18.289,0,0,1,11.48-17.591c5.842-2.569,14-3.035,20.242-3.73v-1.4c0-2.565.2-5.594-1.3-7.815a7.22,7.22,0,0,0-6.047-2.793c-4.1,0-7.757,2.105-8.653,6.462a2.27,2.27,0,0,1-1.87,1.983L17.274,18.729a1.887,1.887,0,0,1-1.608-2.248C18.064,3.822,29.5,0,39.737,0,44.973,0,51.82,1.4,55.945,5.362c5.239,4.892,4.742,11.419,4.742,18.525V40.657c0,5.045,2.1,7.256,4.061,9.978.695.978.841,2.146-.034,2.858-2.2,1.843-6.111,5.236-8.254,7.15l-.027-.024Z" transform="translate(231.182 458)" fill="#fff" fill-rule="evenodd"/></g></svg>